<?xml version="1.0" encoding="UTF-8"?>
<svg width="80px" height="80px" viewBox="0 0 80 80" version="1.1" xmlns="http://www.w3.org/2000/svg" xmlns:xlink="http://www.w3.org/1999/xlink">
    <title>61431F07-9DB7-446B-8857-F006851B4BEA</title>
    <g id="🧬-Symbols" stroke="none" stroke-width="1" fill="none" fill-rule="evenodd">
        <g id="icons/pickle-rounds">
            <rect id="icon-space" x="0" y="0" width="80" height="80"></rect>
            <path d="M72.774423,33.8534948 C74.1160858,34.0291819 74.8627565,34.5129659 75.3534571,35.1839458 C75.8043103,35.8004388 76.0390774,36.5749596 75.9675459,37.3841522 L75.9403753,37.605608 L70.8992507,76.7561664 C70.7753201,77.5448775 70.3738931,78.2300776 69.803852,78.7184783 C69.2842814,79.1636369 68.6246326,79.4453019 67.9073521,79.4928348 L67.6905214,79.5 L12.7491007,79.5 C11.9483202,79.5 11.2072978,79.2081527 10.6357702,78.7184783 C10.117551,78.2744776 9.73868229,77.6678329 9.58096898,76.9686329 L9.54037146,76.7561664 L4.49924627,37.6056034 C4.47302982,37.4387873 4.45986246,37.2701839 4.45986246,37.1013266 C4.45986246,36.2043848 4.82341995,35.3923564 5.41121288,34.8045635 C5.98967803,34.2260984 6.78531826,33.8648083 7.66786211,33.8536952 C22.1328924,36.3537841 32.9836363,37.6013266 40.2198111,37.6013266 C47.456428,37.6013266 58.3080557,36.3536317 72.774423,33.8534948 Z M43.4048771,42.8333333 C41.3519985,42.8333333 39.393008,43.9453524 38.1741331,45.8310754 C37.8472433,46.3410644 37.5720465,46.9365569 37.330221,47.6728496 C36.9244075,47.8060089 36.5549406,48.0569803 36.2558296,48.4148 C35.8316078,48.9223424 35.6007705,49.5896669 35.6147552,50.2975904 C35.628217,50.9992728 35.887784,51.6561584 36.3097702,52.1426475 C35.8927338,53.7984128 35.118888,55.588281 34.1316353,57.1820928 C33.8170028,57.1388406 33.5006888,57.1661408 33.2003323,57.2581984 C32.7823582,57.3863051 32.394511,57.6405861 32.0894423,58.0083851 C31.6665981,58.5186327 31.4386103,59.190703 31.4571114,59.9050467 C31.4635489,60.153439 31.5003779,60.3971287 31.5658035,60.6315445 C30.4579077,62.143051 29.4428541,63.9587451 29.5024994,66.3522159 C29.5463488,68.12189 30.0954833,69.7670637 30.9810134,71.0527527 C31.8898808,72.3723247 33.1518469,73.312486 34.5872841,73.6491079 C35.1081421,73.7715928 35.6358879,73.8333333 36.1563025,73.8333333 C37.8716183,73.8333333 39.568531,73.1761074 41.202231,71.8515608 C41.4129166,71.9189614 41.6304707,71.9533106 41.8508131,71.9533106 C42.5014013,71.9533106 43.1151773,71.6644097 43.5720191,71.124146 C44.0007058,70.6171623 44.2379437,69.94576 44.2305608,69.2292649 C44.2282789,69.0221486 44.2049368,68.8170904 44.161727,68.6179006 C45.2840158,67.04429 46.3062349,65.1647693 47.1005564,63.2118523 C47.5224708,63.0876486 47.9102012,62.8357063 48.2244681,62.4670175 C48.6547003,61.9625358 48.8950957,61.2958329 48.8934553,60.5857116 C48.8920516,60.0383266 48.7457959,59.5201453 48.4825723,59.0841029 C48.7375971,58.1799496 48.9586004,57.2945582 49.1432877,56.4387705 C49.5150234,56.2356769 49.8336351,55.9296645 50.0687944,55.5514979 C50.3400769,55.1152406 50.5,54.5829992 50.5,54.0113397 C50.5,53.2635781 50.2299196,52.5782629 49.7753204,52.083055 C49.7892842,51.8387815 49.7981296,51.6048812 49.8021178,51.3776302 C49.8315033,49.7346161 49.5304093,48.1216652 48.9331612,46.710107 C48.4241455,45.516559 47.6423078,44.5523193 46.6943964,43.8842655 C45.7341289,43.2075034 44.6028718,42.8333333 43.4048771,42.8333333 Z M34.8892312,66.3335549 C35.1749165,66.8385883 35.272289,67.0307454 35.3522593,67.1416506 L35.3758992,67.1727163 L35.8553084,66.7950286 C35.8553084,66.7950286 36.0651018,67.5907263 35.8553084,67.5907263 C35.6012315,67.5907263 35.3522481,67.4616725 35.1682677,67.2289222 C34.973355,66.982199 34.8766514,66.6632117 34.8892312,66.3335549 Z M42.9532742,49.1473267 C42.4911236,49.9952021 42.1389346,50.3237574 41.9411499,50.5173619 C41.7094446,50.2437496 41.6672284,50.0246841 41.737814,49.8078844 C41.8318249,49.5190708 42.0142074,49.2854283 42.2628061,49.1613571 C42.4896204,49.0485057 42.7369781,49.0520667 42.9532742,49.1473267 Z M54.3362489,16.5858736 C57.6051912,16.5858736 60.826167,18.0092447 62.9684604,20.3795356 C65.0428247,22.674668 66.1009261,25.8551767 66.163589,28.9554977 C65.6023799,29.2581615 65.2678637,29.3854906 64.8397388,29.5270204 C64.0585569,29.785264 62.9786689,30.0901275 61.5569445,30.4137694 C59.9627993,30.7766614 57.6185055,31.1613198 55.3524925,31.531181 C55.1864083,31.5582895 55.0079161,31.5879116 54.8176803,31.6194833 C53.5767828,31.8254241 51.8319913,32.1151693 49.7707922,32.3287951 C48.5561749,32.4546799 46.4703594,32.615643 43.5134106,32.8119107 C42.8661872,31.3842763 42.5060985,29.8054604 42.5060985,28.1458314 C42.5060985,24.9599491 43.8321463,22.0717384 45.9711882,19.9795697 C48.1142886,17.8834314 51.073348,16.5858736 54.3362489,16.5858736 Z M57.8332004,25.4881572 C57.1696249,25.4881572 56.5179069,25.7748773 56.0476109,26.2348677 C55.581333,26.6909279 55.2972648,27.3104651 55.3276258,27.9731783 C55.3584,28.6452146 55.6433103,29.2635426 56.0984568,29.7087154 C56.5405786,30.141149 57.1427558,30.4124343 57.8332004,30.4124343 C58.496776,30.4124343 59.148494,30.1257142 59.61879,29.6657238 C60.0850679,29.2096636 60.3691361,28.5901264 60.3387751,27.9274131 C60.3080009,27.2553769 60.0230906,26.6370488 59.5679441,26.1918761 C59.1258222,25.7594425 58.5236451,25.4881572 57.8332004,25.4881572 Z M50.9780942,21.4887955 C50.3145187,21.4887955 49.6628007,21.7755156 49.1925047,22.235506 C48.7262268,22.6915663 48.4421586,23.3111034 48.4725196,23.9738167 C48.5032938,24.6458529 48.7882041,25.264181 49.2433506,25.7093538 C49.6854725,26.1417874 50.2876496,26.4130727 50.9780942,26.4130727 C51.6416698,26.4130727 52.2933878,26.1263525 52.7636838,25.6663622 C53.2299617,25.2103019 53.5140299,24.5907648 53.4836689,23.9280515 C53.4528947,23.2560153 53.1679844,22.6376872 52.7128379,22.1925144 C52.270716,21.7600808 51.6685389,21.4887955 50.9780942,21.4887955 Z M25.6636174,16.5858736 C28.9265183,16.5858736 31.8855777,17.8834314 34.0286781,19.9795697 C36.16772,22.0717384 37.4937677,24.9599491 37.4937677,28.1458314 C37.4937677,29.8067508 37.1332349,31.3867329 36.4849658,32.8151381 C34.0101722,32.6745117 32.2160038,32.5491946 31.1024876,32.438876 C29.2274877,32.2531153 27.4235464,31.9750842 26.1343723,31.7765226 C25.850946,31.7328686 25.5921952,31.6930173 25.3627582,31.6587557 C23.2008383,31.3359178 20.9282507,30.9851006 19.2883236,30.6598403 C17.6007639,30.3251327 16.2854765,30.0083321 15.3416645,29.7417135 C14.9388542,29.6279232 14.6053861,29.5238561 14.3412842,29.4311969 C13.9642928,26.2989393 14.9566386,23.4402019 16.7814925,21.1595232 C18.9306567,18.4735258 22.1889512,16.5858736 25.6636174,16.5858736 Z M29.0470942,25.0578607 C28.3835187,25.0578607 27.7318007,25.3445809 27.2615046,25.8045712 C26.7952267,26.2606315 26.5111585,26.8801686 26.5415196,27.5428819 C26.5722937,28.2149181 26.8572041,28.8332462 27.3123505,29.278419 C27.7544724,29.7108526 28.3566496,29.9821379 29.0470942,29.9821379 C29.7106697,29.9821379 30.3623878,29.6954178 30.8326838,29.2354274 C31.2989617,28.7793671 31.5830299,28.15983 31.5526689,27.4971167 C31.5218947,26.8250805 31.2369843,26.2067524 30.7818379,25.7615796 C30.339716,25.329146 29.7375388,25.0578607 29.0470942,25.0578607 Z M22.191988,21.0584991 C21.5284125,21.0584991 20.8766945,21.3452192 20.4063984,21.8052096 C19.9401205,22.2612698 19.6560523,22.880807 19.6864134,23.5435202 C19.7171875,24.2155565 20.0020979,24.8338846 20.4572443,25.2790573 C20.8993662,25.7114909 21.5015434,25.9827762 22.191988,25.9827762 C22.8555635,25.9827762 23.5072816,25.6960561 23.9775776,25.2360657 C24.4438555,24.7800055 24.7279237,24.1604683 24.6975627,23.4977551 C24.6667885,22.8257188 24.3818782,22.2073908 23.9267317,21.762218 C23.4846098,21.3297844 22.8824326,21.0584991 22.191988,21.0584991 Z M39.9998663,0.5 C43.2627671,0.5 46.2218265,1.79755772 48.3649269,3.893696 C50.4098374,5.89379607 51.7117331,8.62141779 51.8221846,11.6408654 C46.8274048,12.5699179 42.5483273,15.4671035 39.9994508,19.5021815 C37.4500272,15.4662465 33.1708166,12.58088 28.1802663,11.8453154 C28.2900557,8.738456 29.5811445,5.96800468 31.6137076,3.94284064 C33.7577239,1.80662923 36.725845,0.5 39.9998663,0.5 Z M43.8002029,7.5609863 C43.1366273,7.5609863 42.4849093,7.84770643 42.0146133,8.30769679 C41.5483354,8.76375705 41.2642672,9.38329419 41.2946282,10.0460075 C41.3254024,10.7180437 41.6103127,11.3363718 42.0654592,11.7815445 C42.5075811,12.2139781 43.1097582,12.4852634 43.8002029,12.4852634 C44.4637784,12.4852634 45.1154964,12.1985433 45.5857925,11.738553 C46.0520703,11.2824927 46.3361385,10.6629556 46.3057775,10.0002423 C46.2750033,9.32820604 45.990093,8.70987797 45.5349465,8.2647052 C45.0928247,7.83227161 44.4906475,7.5609863 43.8002029,7.5609863 Z M36.9450967,3.56162465 C36.2815211,3.56162465 35.6298031,3.84834478 35.1595071,4.30833514 C34.6932292,4.7643954 34.409161,5.38393254 34.439522,6.04664582 C34.4702962,6.71868206 34.7552065,7.33701013 35.210353,7.7821829 C35.6524749,8.21461649 36.2546521,8.4859018 36.9450967,8.4859018 C37.6086722,8.4859018 38.2603902,8.19918167 38.7306863,7.73919131 C39.1969642,7.28313105 39.4810323,6.66359391 39.4506713,6.00088063 C39.4198972,5.32884439 39.1349868,4.71051632 38.6798404,4.26534355 C38.2377185,3.83290996 37.6355413,3.56162465 36.9450967,3.56162465 Z" stroke="#1F1E1E" fill="#1F1E1E"></path>
        </g>
    </g>
</svg>