<?xml version="1.0" encoding="UTF-8"?>
<svg width="80px" height="80px" viewBox="0 0 80 80" version="1.1" xmlns="http://www.w3.org/2000/svg" xmlns:xlink="http://www.w3.org/1999/xlink">
    <title>FE35C791-4909-4071-9B64-2FE32BC7A9ED</title>
    <g id="🧬-Symbols" stroke="none" stroke-width="1" fill="none" fill-rule="evenodd">
        <g id="icons/chicken-wings">
            <rect id="icon-space" x="0" y="0" width="80" height="80"></rect>
            <path d="M72.774423,33.8534948 C74.0851787,34.0243855 74.8105298,34.4796314 75.3011997,35.114447 C75.7522056,35.6979464 76.0051069,36.4331216 75.9783359,37.2089995 L75.9640394,37.4215283 L70.8992507,76.7561666 C70.7800416,77.5148294 70.4040871,78.1777272 69.868262,78.6618081 C69.3851331,79.0982816 68.7720643,79.3894713 68.1000355,79.4743267 L67.8739395,79.4948861 L12.7491007,79.5 C11.9787489,79.5 11.2636925,79.2299221 10.7016475,78.7734359 C10.1976224,78.3640727 9.81656429,77.8048455 9.62910686,77.1560378 L9.57388834,76.9365335 L4.49923664,37.6055421 C4.4730266,37.4387459 4.45986246,37.2701632 4.45986246,37.1013266 C4.45986246,36.2043848 4.82341995,35.3923564 5.41121288,34.8045635 C5.98967803,34.2260984 6.78531826,33.8648083 7.66786211,33.8536952 C22.1328924,36.3537841 32.9836363,37.6013266 40.2198111,37.6013266 C47.456428,37.6013266 58.3080557,36.3536317 72.774423,33.8534948 Z M38.3931071,50.5222982 C36.4293959,50.5222982 34.5792645,51.1992565 33.1028411,52.4517554 C31.701872,53.640244 30.6351444,55.3493259 30.1390492,57.4987421 L30.1390492,57.4987421 L26.0251262,73.8333333 L43.4235335,73.8333333 L43.48,70.666 L43.5972753,72.4237517 L43.7802924,72.5541453 C44.4042986,72.9720397 45.1653044,73.2198385 45.9886068,73.2198385 C47.0472459,73.2198385 48.004562,72.8124418 48.697949,72.157287 C49.4018893,71.4921609 49.8345744,70.5725341 49.8345744,69.5583623 C49.8345744,68.227597 48.5563592,65.332537 47.0920269,63.8105053 C46.9155098,63.6270328 46.7189517,63.4454922 46.50742,63.2679935 L46.608,63.355 L54.3861243,59.1582492 L45.1911342,54.1959028 C46.0698297,55.4930331 46.6703909,57.04163 46.8848512,58.7285991 C46.6141332,56.6422162 45.743736,54.7744547 44.4794527,53.3521432 C42.9218175,51.5998123 40.7681433,50.5222982 38.3931071,50.5222982 Z M46.7688689,62.1895627 C46.7106879,62.5342227 46.637319,62.9280176 46.5455092,63.3896134 L46.56,63.313 L46.50742,63.2679935 C46.4714686,63.3876875 46.4332737,63.5066755 46.3928419,63.6250194 L46.2648421,63.978181 C45.6901325,65.4772887 44.7798934,66.8030346 43.3078103,68.0832144 L43.529,67.884 L43.5313614,67.7885689 L43.7517164,67.5977883 C45.2018712,66.2997355 46.2706108,64.4821738 46.7272994,62.393339 Z M40.1761068,56.5990804 C40.7087447,56.5990804 41.1908423,56.8373441 41.5505422,57.2167389 C41.8406609,57.5227428 42.0522377,57.9199673 42.152142,58.3664465 C42.0203119,57.9773682 41.8373154,57.6419537 41.604495,57.3805566 C41.2301163,56.9602262 40.7261582,56.7240804 40.1761068,56.7240804 C39.6388238,56.7240804 39.1460092,56.9509587 38.7771587,57.3307991 C38.6987282,57.4115664 38.6259716,57.499319 38.5597648,57.5931891 L38.543,57.618 L38.5510923,57.5991401 C38.5965849,57.5045167 38.6568785,57.4140671 38.7245946,57.3293474 L38.7945116,57.2465953 C39.1542765,56.8423525 39.6393112,56.5990804 40.1761068,56.5990804 Z M42.5152995,42.8333333 C41.1308313,42.8333333 39.8696952,43.4420192 38.9419831,44.4420208 C38.2098791,43.6650651 37.2219244,43.1933645 36.1379394,43.1933645 C34.9932189,43.1933645 33.9545008,43.716145 33.2118868,44.6074183 C32.6362566,45.2982804 32.2387714,46.2139045 32.121802,47.273597 C31.905559,47.2266991 31.6822356,47.2019552 31.4537354,47.2019552 C30.4946173,47.2019552 29.6228272,47.6338237 28.9930945,48.3422828 C28.3834323,49.0281622 28.00236,49.9746507 28.00236,51.0222982 C28.00236,51.9231974 28.2842532,52.7492973 28.7510035,53.3987093 C29.2400537,54.0791483 29.9314416,54.5655817 31.2650782,54.5239577 C32.0875581,53.141405 33.2531864,52.0402565 34.6297424,51.3228507 C35.7652031,50.7310883 37.0416075,50.3972982 38.3931071,50.3972982 C38.6163623,50.3972982 38.8368369,50.4102364 39.0558467,50.4292718 C41.1991048,50.6158335 43.119648,51.697637 45.1912547,53.42344 C46.6576601,52.4248883 47.6519369,50.6226408 47.6519369,48.5495732 C47.6519369,46.9783752 47.0822346,45.5579185 46.1676045,44.5289552 C45.2328961,43.4774036 43.9397856,42.8333333 42.5152995,42.8333333 Z M35.5112526,2.58479933 L35.5112526,12.0101312 L30.3306399,17.2955769 C30.017443,17.6151115 29.8460267,18.0511043 29.8571003,18.5037838 C29.867526,18.9016031 30.0182732,19.2796733 30.278597,19.5709686 L30.278597,19.5709686 L36.5416622,25.3492874 C36.1398561,26.1857359 35.6588169,27.3884182 35.3233819,29.0137384 C35.0822906,30.181925 34.9272164,31.7000436 34.8706207,32.6725692 L34.8706207,32.6725692 L28.1670526,32.180958 C28.2395523,31.5703624 28.3352473,30.6161544 28.3227252,29.9900027 C28.3017557,28.9414537 27.9865791,28.6893802 27.7838886,28.519098 L27.7838886,28.519098 L21.6442439,23.5391435 C20.4786842,22.597908 19.775193,21.1835674 19.7152227,19.6688835 C19.6592326,18.2422606 20.1793479,16.8589452 21.1478603,15.8389729 L21.1478603,15.8389729 L35.5112526,2.58479933 Z M67.8729464,22.4229712 C68.1886979,22.4229712 68.4886993,22.5203039 68.7400737,22.6916733 C68.9940547,22.8648197 69.1983881,23.113399 69.3203005,23.4134102 C69.4344988,23.6951247 69.4661177,23.9965061 69.4216042,24.2849428 C69.3778769,24.5682858 69.2606954,24.8392775 69.0754729,25.0665497 L69.0754729,25.0665497 L67.6528236,26.526467 C67.3860818,26.7986065 67.2214488,27.1559707 67.185861,27.5360061 L67.185861,27.5360061 L67.179761,29.5940437 C64.4356779,30.1707137 62.4520511,30.5664821 61.228844,30.7811516 C58.1940389,31.3137514 55.6312908,31.6188869 53.678328,31.8437821 C53.4664557,31.8681805 53.2443821,31.8940729 53.0127211,31.9210834 C51.2127989,32.1309452 48.8312518,32.4087825 46.1588143,32.5759524 C44.7158597,32.6662141 42.3521309,32.7541442 39.0678536,32.8396308 C39.1239734,30.9600666 39.4774389,28.2876561 40.4112395,26.422513 C41.0244821,25.1976419 41.8506598,24.2274038 42.8009855,23.5486855 C43.7593716,22.8642105 44.8432296,22.4775557 45.9542461,22.4283413 L45.9542461,22.4283413 Z M16.2816358,18.0085535 L16.5765988,18.0148648 C16.3356712,19.3917237 16.4386174,20.7838933 16.8461113,22.0746151 C17.3119173,23.5500383 18.1756167,24.8927716 19.3779033,25.9292681 L19.3779033,25.9292681 L24.1291175,29.7837679 C24.1158659,30.1763383 24.0931393,30.4862839 24.0596009,30.7134666 C24.0386863,30.8551384 24.003897,31.0299855 23.9556119,31.2380791 L23.9556119,31.2380791 L13.8587675,29.5335436 L12.4585952,28.1339444 C10.9814115,26.8502498 10.2670563,24.8762043 10.5674261,22.9227225 C10.8757898,20.94129 12.1674159,19.2631541 13.9863566,18.4897842 C14.8063103,18.1347812 15.6914381,17.9734385 16.5765988,18.0148648 Z M58.2917965,11.2306056 L62.3203944,15.3407247 L60.5501019,19.1152486 L46.1898418,19.1152487 C43.3147755,19.116331 40.5741167,20.2998107 38.5778833,22.3792441 L38.5778833,22.3792441 L36.925,21.13 L38.7927106,20.3539975 C40.3861761,19.7067384 42.0166014,19.0442019 43.6317739,18.3269609 L44.8394776,17.7781569 L45.8359289,17.303412 L58.2917965,11.2306056 Z M36.586132,15.6076124 C37.1920051,15.7252333 37.771765,15.954619 38.2969614,16.2842192 L38.2969614,16.2842192 L38.9336568,16.7322938 L37.5786899,17.2895803 L35.9901055,17.936891 C35.5101407,18.1389422 35.0409919,18.3662954 34.584284,18.6175068 L34.584284,18.6175068 L33.9588995,18.2880087 Z M66.3863406,0.507601111 C67.0645225,0.569495268 67.4269875,0.726595661 67.7077193,0.985798603 C67.985488,1.24226574 68.1885357,1.58261708 68.279661,1.97129575 C68.698578,3.52240657 69.8750085,4.71851136 71.3784243,5.14144242 C71.7737251,5.23783003 72.1042004,5.44392524 72.3534436,5.72477472 C72.6031461,6.0061417 72.7714146,6.36248122 72.8251146,6.75534997 C72.8731301,7.26230376 72.7094889,7.76681279 72.375259,8.13919424 C72.0249744,8.52215676 71.5335543,8.73716057 71.0280449,8.73070882 C69.3831761,8.68284391 67.7844439,9.26838118 66.5480047,10.3656944 L66.5480047,10.3656944 L64.2869713,12.6552388 L60.9301397,9.23047954 L62.9929073,7.12575749 C64.2002872,5.8271311 64.8468498,4.08788688 64.7856529,2.29900992 C64.7879263,1.79138118 64.9981823,1.30700587 65.3673353,0.965581246 C65.6517388,0.70254029 66.0098159,0.543147402 66.3863406,0.507601111 Z" stroke="#1F1E1E" fill="#1F1E1E"></path>
        </g>
    </g>
</svg>