<?xml version="1.0" encoding="UTF-8"?>
<svg width="80px" height="80px" viewBox="0 0 80 80" version="1.1" xmlns="http://www.w3.org/2000/svg" xmlns:xlink="http://www.w3.org/1999/xlink">
    <title>4BE98DE9-6D6F-4692-8DA4-9158D2D75E99</title>
    <g id="🧬-Symbols" stroke="none" stroke-width="1" fill="none" fill-rule="evenodd">
        <g id="icons/timer">
            <rect id="icon-space" x="0" y="0" width="80" height="79.9038527"></rect>
            <path d="M50,0.5 C50.7830461,0.5 51.4911174,0.816973884 52.0035447,1.32940119 C52.5164508,1.84230732 52.8333333,2.55096344 52.8333333,3.33333333 C52.8333333,4.08750863 52.5388975,4.77320101 52.0582237,5.28106198 C51.6218195,5.74214942 51.031969,6.0567681 50.3696765,6.14285381 L50.1688964,6.16174147 L42.8333333,6.16702679 L42.8333333,10.6279147 C49.6603498,11.1836484 55.9374608,13.732786 61.0619007,17.6935945 L61.5110505,18.0467263 L62.3011412,18.6891012 L67.9968867,12.9968867 C68.5507886,12.4429848 69.275343,12.1658333 70,12.1658333 C70.724657,12.1658333 71.4492114,12.4429848 72.0031133,12.9968867 C72.5349125,13.5286859 72.8115854,14.2184395 72.8328386,14.9142711 C72.8519503,15.5399856 72.6646741,16.1706441 72.2706677,16.6954529 L72.1316751,16.8663167 L66.3028854,22.7002958 C71.4123747,28.7197279 74.5,36.5046371 74.5,45 C74.5,54.5121429 70.6308698,63.1370235 64.3839466,69.3839466 C58.1370235,75.6308698 49.5121429,79.5 40,79.5 C30.4878571,79.5 21.8629765,75.6308698 15.6160534,69.3839466 C9.36913023,63.1370235 5.5,54.5121429 5.5,45 C5.5,36.1814517 8.82693465,28.127385 14.2912452,22.0242704 C19.7030604,15.9797883 27.2113153,11.8485225 35.6575449,10.784372 L36.1866451,10.7218666 L37.1666667,10.6213319 L37.1666667,6.16666667 L30,6.16666667 C29.2169539,6.16666667 28.5088826,5.84969278 27.9964553,5.33726547 C27.4835492,4.82435934 27.1666667,4.11570322 27.1666667,3.33333333 C27.1666667,2.57915803 27.4611025,1.89346566 27.9417763,1.38560468 C28.3781581,0.924540829 28.9679706,0.609930751 29.6302219,0.523826067 L29.8309895,0.504931875 L50,0.5 Z M40,22.8333333 C38.9656674,22.8333333 38.0266075,23.2421168 37.3348307,23.9338936 C36.6610539,24.6076704 36.2202364,25.5523766 36.1666667,26.6541712 L36.1666667,26.6541712 L36.1666667,45 L36.1718011,45.1997206 C36.2064061,45.8646804 36.4196726,46.5254182 36.9243256,47.2879897 L36.9243256,47.2879897 L46.9333333,60.6333333 L47.0794848,60.8160961 C47.8324246,61.701905 48.9111573,62.1666667 50.0033333,62.1666667 C50.8008055,62.1666667 51.6098497,61.9176127 52.3,61.4 C53.1260622,60.781388 53.6311137,59.8933169 53.769391,58.9253759 C53.903988,57.9831969 53.6907597,56.9622482 53.0747684,56.0441346 L53.0747684,56.0441346 L43.8333333,43.7233214 L43.8333333,26.6666667 L43.8268268,26.4412545 C43.7706969,25.4717179 43.3547963,24.5997726 42.7110389,23.9560152 C42.0171489,23.2621252 41.0584627,22.8333333 40,22.8333333 Z" stroke="#1F1E1E" fill="#1F1E1E"></path>
        </g>
    </g>
</svg>