<?xml version="1.0" encoding="UTF-8"?>
<svg width="80px" height="80px" viewBox="0 0 80 80" version="1.1" xmlns="http://www.w3.org/2000/svg" xmlns:xlink="http://www.w3.org/1999/xlink">
    <title>6CA4FB35-6501-4766-BC08-5885F0680015</title>
    <g id="🧬-Symbols" stroke="none" stroke-width="1" fill="none" fill-rule="evenodd">
        <g id="icons/tacos-mini">
            <rect id="icon-space" x="0" y="0" width="80" height="80"></rect>
            <path d="M66.4528835,30.1324615 C53.835356,37.8295228 25.7635746,37.7234286 13.5996184,29.8510541 C11.9289513,28.7701124 9.75725526,30.1548053 10.0220849,32.1330943 L16.1537769,77.9682733 C16.3093759,79.1315591 17.2980523,80 18.4669125,80 L61.5676955,80 C62.7365556,80 63.7250764,79.1318716 63.8808311,77.9687421 L69.9779801,32.4480955 C70.2389197,30.4987129 68.1277517,29.1110512 66.4528835,30.1324615 Z M22.571786,12.0110659 C19.2296358,6.22214946 11.8126746,4.08066557 5.86378716,7.39852473 C5.47810118,7.61243643 5.16720528,7.82760628 4.86115871,8.22756327 C4.17533552,9.12234251 4.05712632,10.3672571 4.65314432,11.4007309 L14.1992445,27.9343487 C14.9772265,29.2848463 16.7212253,29.7830872 18.1093242,28.9825731 C24.0141158,25.529043 26.0754351,18.080063 22.571786,12.0110659 Z M8.95606804,9.40357014 C9.18566552,9.27101197 9.4796736,9.3497912 9.61223177,9.57938868 C9.74478993,9.80898616 9.66601071,10.1029942 9.43641323,10.2355524 C9.20681575,10.3681106 8.91280767,10.2893314 8.7802495,10.0597339 C8.64774001,9.83014943 8.72651924,9.53614135 8.95606804,9.40357014 Z M6.63660565,10.1880987 C6.50404748,9.9585012 6.58269628,9.66497989 6.81229376,9.53242172 C7.04237801,9.39999398 7.33589932,9.47864278 7.46845749,9.70824026 C7.60101566,9.93783774 7.52236686,10.2313591 7.29276938,10.3639172 C7.06299279,10.4969491 6.76952015,10.4183134 6.63660565,10.1880987 Z M7.59729602,11.8520632 C7.46438152,11.6218485 7.54303031,11.3283272 7.77311456,11.1958995 C8.00271204,11.0633413 8.29623336,11.1419901 8.42879152,11.3715876 C8.56134969,11.6011851 8.48270089,11.8947064 8.25297298,12.0277513 C8.0233755,12.1603095 7.72980551,12.0816477 7.59729602,11.8520632 Z M13.7183836,5.01065467 C13.67659,5.07239211 13.7133459,5.15679415 13.7871478,5.16738708 C13.891022,5.18226662 14.0131965,5.2021221 14.147399,5.22628892 L14.5798179,5.31105877 C14.8077969,5.35924608 15.048726,5.4156385 15.2814361,5.47799297 C17.5658886,6.09011018 19.6164054,7.31866317 21.0844145,8.78304733 C21.1377697,8.83626387 21.2282525,8.81517149 21.2521065,8.74367084 C21.6445328,7.5659197 21.5002354,6.31488996 20.9026495,5.27870056 C19.3218803,2.54079928 15.4469285,2.45709418 13.7183836,5.01065467 Z M24.2675683,23.2793852 C27.3714904,23.054811 29.1878913,19.6291603 27.6257004,16.9233663 C27.0296876,15.8910417 26.0113898,15.1336713 24.7990648,14.8868265 C24.7253007,14.8718091 24.6619649,14.9395651 24.6812899,15.0123055 C25.4039716,17.733926 25.1246883,20.846938 24.1663962,23.1402115 C24.1374712,23.2094143 24.1927768,23.2847525 24.2675683,23.2793852 Z M18.823045,29.4951915 C18.7634861,29.5317175 18.7577305,29.6158934 18.8122365,29.6595578 L19.480039,30.194984 C19.5907624,30.2844931 19.8443951,30.4199118 20.1063251,30.4900957 C21.4339858,30.8458413 22.6927451,29.7682812 22.578126,28.4207039 L22.5561934,28.1601843 C22.5498737,28.047786 22.5542253,27.9530396 22.5859039,27.8348133 C22.7244589,27.3177193 23.2540258,27.0105747 23.7727748,27.1495731 L23.8779168,27.1777458 C24.3359658,27.3004796 24.8232709,27.253669 25.249838,27.046068 C26.3985849,26.4881079 26.7679626,25.0520231 25.9658571,24.0790667 L25.7378227,23.8335058 L25.7378227,23.8335058 C25.7104168,23.8051372 25.6691691,23.7959109 25.6319589,23.8090004 C25.0391834,24.0179248 24.4261642,24.1135339 23.8063572,24.0952594 C23.7670768,24.094073 23.7308368,24.1156134 23.7134114,24.1508556 C22.6197444,26.3601706 20.9455531,28.1925701 18.823045,29.4951915 Z M13.9743187,3.45851922 L13.9245,3.29027263 L13.9245,3.29027263 C13.7109964,2.54460713 13.0850677,2.04586076 12.2882326,1.95051827 C11.3203336,1.83412091 10.4004059,2.45576369 10.1481559,3.39717367 L10.1199832,3.50231563 C9.94468638,4.15653228 9.17497087,4.42630199 8.63012155,4.04689398 L8.42098407,3.90059877 C7.09997613,2.98279691 5.32231043,3.9494351 5.3262909,5.5137605 L5.33595086,5.69493783 L5.33595086,5.69493783 L5.46598442,6.54295726 L5.46598442,6.54295726 C5.47658159,6.61205479 5.55240299,6.64937904 5.61381483,6.61606251 C7.80229595,5.42899255 10.2267829,4.89543049 12.6883023,5.05330979 C12.7275356,5.05584007 12.7642484,5.03526114 12.7828742,5.00060143 C13.0699453,4.46643508 13.4567527,3.97730527 13.9424501,3.56246217 C13.9724883,3.536808 13.9851706,3.49648635 13.9743187,3.45851922 Z M26.0633455,14.4576746 C26.1124101,14.4803688 26.1705132,14.4613477 26.1955108,14.4134221 L27.1364621,12.6081592 C27.2487373,12.3910539 27.1455043,12.1295071 26.9217538,12.0445631 L22.7604262,10.4713671 L22.7604262,10.4713671 C22.6674787,10.4362362 22.5853508,10.5419985 22.6423891,10.6233313 C23.3325919,11.6074884 23.9394203,12.756967 24.3577889,13.9530394 C24.3707263,13.9898436 24.4036182,14.0154563 24.4424994,14.0193008 C24.9968497,14.0737208 25.5486983,14.2194492 26.0633455,14.4576746 Z M23.7029774,9.96545113 C23.7660316,9.98928527 23.8338446,9.94531926 23.8389242,9.87807457 C23.8656624,9.5232198 24.0234992,9.34811267 24.1066217,9.03789521 C24.4205908,7.86614645 23.5465164,6.7132479 22.3446099,6.69289221 C22.2831158,6.69187234 22.2357544,6.74596165 22.2430274,6.80702094 C22.3420917,7.63320039 22.2268835,8.45919801 21.9479314,9.19379219 C21.9280897,9.24622968 21.953645,9.30467498 22.0060468,9.3244549 L23.7029774,9.96545113 Z M46.2125813,21.9958064 C47.9371364,15.5599535 44.2188199,8.8228713 37.6873356,6.96844269 C37.2647209,6.84737096 36.8939338,6.77990034 36.3963211,6.84609125 C35.2822645,6.99336982 34.3214935,7.78750601 34.0131614,8.93602123 L29.0881469,27.3177981 C28.6846205,28.8180151 29.5626685,30.3984136 31.1052693,30.8125613 C37.7012986,32.5402848 44.4044461,28.742898 46.2125813,21.9958064 Z M38.4536521,10.561193 C38.7089104,10.6295892 38.8606103,10.892341 38.792214,11.1475993 C38.7238177,11.4028576 38.4610659,11.5545574 38.2058076,11.4861612 C37.9505493,11.4177649 37.7988495,11.1550131 37.8672458,10.8997548 C37.9356671,10.6445401 38.198419,10.4928402 38.4536521,10.561193 Z M36.2658651,9.479325 C36.3342614,9.22406671 36.5965782,9.07261804 36.8518364,9.1410143 C37.1073459,9.20984557 37.2587946,9.47216236 37.1903983,9.72742065 C37.1220021,9.98267894 36.8596853,10.1341276 36.604427,10.0657314 C36.3487086,9.99754276 36.197285,9.73526948 36.2658651,9.479325 Z M35.7701761,11.3292614 C35.8387562,11.073317 36.101073,10.9218683 36.3565825,10.9906996 C36.6118408,11.0590958 36.7632895,11.3214126 36.6948932,11.5766709 C36.6264969,11.8319292 36.3641802,11.9833779 36.1084868,11.9152328 C35.8532286,11.8468365 35.7017548,11.5844762 35.7701761,11.3292614 Z M44.9065369,10.8215574 C44.833565,10.8356144 44.7999826,10.9210102 44.8445342,10.9804942 L44.9451729,11.1177393 L44.9451729,11.1177393 L45.1768542,11.4513874 C45.3408687,11.6952225 45.5187337,11.9753445 45.6788294,12.2526384 C46.8575421,14.2942287 47.4368872,16.6054166 47.4394422,18.6722564 C47.4395399,18.7473714 47.5181815,18.7962799 47.5853903,18.762697 C48.6920991,18.2091763 49.4721576,17.2257073 49.7812986,16.0741729 C50.5968805,13.0302429 47.9246947,10.2400613 44.9065369,10.8215574 Z M39.4655666,31.1332987 C41.8115919,33.1627505 45.5063489,32.0285024 46.3123951,29.0202971 C46.6199208,27.8725955 46.4360113,26.6210507 45.7555116,25.5925835 C45.7141052,25.5300076 45.6217077,25.5331231 45.5840588,25.5980136 C44.1751461,28.0256623 41.7841534,30.0229603 39.4923513,30.9638957 C39.4231878,30.9922847 39.4090682,31.0843664 39.4655666,31.1332987 Z M31.2470124,31.6769224 C31.1792889,31.6606881 31.1159025,31.7159611 31.1235439,31.7851546 L31.2168468,32.6332267 C31.2317992,32.7743567 31.31512,33.0485718 31.4502685,33.2826559 C32.1353037,34.4691717 33.7820125,34.5968864 34.6510389,33.566286 L34.8192023,33.367205 C34.8939698,33.283529 34.963817,33.219816 35.0694746,33.1588146 C35.5315959,32.8920088 36.1213355,33.0487788 36.3889953,33.5123791 L36.4432455,33.6063433 C36.6795858,34.0156967 37.0560469,34.3261706 37.5030277,34.4805046 C38.7078945,34.8975764 39.9825903,34.1426487 40.0995024,32.8879252 L40.1113004,32.5601396 L40.1113004,32.5601396 C40.1119641,32.5208281 40.0893944,32.4852525 40.0539417,32.4682515 C39.4888793,32.1977016 38.9894165,31.8330152 38.5654381,31.383276 C38.5385883,31.3547538 38.497863,31.3443931 38.4607413,31.3569509 C36.1326993,32.1432935 33.6611476,32.2548034 31.2470124,31.6769224 Z M46.1809198,9.90795603 L46.2643914,9.75425697 L46.2643914,9.75425697 C46.6394753,9.07820552 46.5498333,8.28550039 46.0554,7.6566665 C45.4552358,6.89242153 44.3686902,6.6821813 43.5273624,7.16792214 L43.4333982,7.22217241 C42.8487319,7.55972964 42.1160712,7.20735266 41.9994631,6.55590805 L41.95517,6.3053883 C41.6715892,4.73080071 39.7450212,4.1582337 38.6440425,5.25405638 L38.5229014,5.3864559 L38.5229014,5.3864559 L38.0099821,6.08502932 L38.0099821,6.08502932 C37.9687492,6.14120056 37.9958832,6.22094905 38.0626506,6.24075148 C40.4418415,6.94657646 42.5267642,8.27935775 44.1504396,10.1255894 C44.1763091,10.1550257 44.21669,10.1663973 44.2542472,10.1550961 C44.8330803,9.98093586 45.4504675,9.90881598 46.0851957,9.95875618 C46.1244494,9.9618462 46.1618082,9.94236518 46.1809198,9.90795603 Z M46.9490943,26.1812076 C46.9676809,26.2317854 47.0220404,26.2593316 47.073439,26.2431712 L49.009054,25.6339782 C49.2412114,25.5600907 49.3527958,25.3029828 49.2549608,25.0854056 L47.4307671,21.0435393 L47.4307671,21.0435393 C47.3900161,20.9532658 47.2575854,20.969924 47.240462,21.0674521 C47.033274,22.2475918 46.6507977,23.4854903 46.1026485,24.6233974 C46.0858264,24.6584567 46.090957,24.6996925 46.1156519,24.7298069 C46.468018,25.1588867 46.7542638,25.6505601 46.9490943,26.1812076 Z M48.4516907,21.3512931 C48.4793342,21.4125346 48.5581194,21.4293427 48.6090958,21.3855269 C48.7435749,21.2698936 48.8694817,21.2090338 48.9964235,21.1570744 L49.2545336,21.0514307 C49.2987308,21.0312706 49.3437547,21.0087015 49.389961,20.9820242 C50.4371401,20.3774351 50.6336637,18.948763 49.8008606,18.0872858 C49.7582468,18.0432138 49.6867413,18.0479559 49.6488311,18.0961185 C49.1363383,18.7482584 48.4729478,19.2492444 47.7585696,19.5703947 C47.7076251,19.5933693 47.6844432,19.6525754 47.7074361,19.7034513 L48.4516907,21.3512931 Z M56.5262364,13.0973047 C54.0278475,19.2808444 56.9001121,26.4275954 63.1628175,29.0666769 C63.567909,29.238512 63.9280492,29.3507731 64.4304931,29.3458787 C65.5552547,29.3352933 66.6066363,28.6635317 67.0530598,27.5601134 L74.1882653,9.8989108 C74.7721648,8.45769506 74.0926232,6.78048832 72.6105955,6.18086667 C66.2683097,3.65979098 59.1456269,6.61475002 56.5262364,13.0973047 Z M62.8397545,25.4038631 C62.5945031,25.3047751 62.4758436,25.0252307 62.5749316,24.7799793 C62.6740196,24.5347278 62.953564,24.4160683 63.1988154,24.5151563 C63.4440668,24.6142443 63.5627264,24.8937887 63.4636383,25.1390401 C63.3645307,25.3842452 63.0849863,25.5029048 62.8397545,25.4038631 Z M64.8813121,26.7455559 C64.7822241,26.9908074 64.5031426,27.1092704 64.2578911,27.0101824 C64.0124433,26.9106316 63.8939802,26.6315501 63.9930682,26.3862986 C64.0921562,26.1410472 64.3712377,26.0225841 64.6164892,26.1216721 C64.8622231,26.2206099 64.9806665,26.4996452 64.8813121,26.7455559 Z M65.5994338,24.9681424 C65.5000795,25.2140531 65.2209979,25.3325162 64.97555,25.2329653 C64.7302986,25.1338773 64.6118355,24.8547958 64.7109235,24.6095443 C64.8100115,24.3642929 65.0890931,24.2458298 65.3348073,24.3447214 C65.5800587,24.4438094 65.6985415,24.7229372 65.5994338,24.9681424 Z M56.4606856,24.3580447 C56.5348966,24.3529807 56.5786771,24.272238 56.541672,24.2077071 L56.4584309,24.0590801 L56.4584309,24.0590801 L56.2689594,23.699345 C56.1357579,23.4370918 55.9932225,23.1370987 55.8679957,22.8420828 C54.9460071,20.6700138 54.6523666,18.3032175 54.9019503,16.2495363 C54.9110161,16.1748989 54.8388531,16.1167161 54.7679857,16.1418817 C53.6009688,16.5567938 52.7060264,17.4386983 52.2584309,18.5450174 C51.0768527,21.469621 53.3912646,24.567583 56.4606856,24.3580447 Z M64.3439097,4.84239423 C62.2607355,2.53999069 58.4516978,3.21614405 57.2839509,6.10641891 C56.8384278,7.20912734 56.8684699,8.47494953 57.4190777,9.5797242 C57.452581,9.64694318 57.5447563,9.65511906 57.5900754,9.59524404 C59.2859409,7.35528237 61.9049899,5.662665 64.2966351,5.00742593 C64.3688107,4.9876588 64.3940709,4.89789956 64.3439097,4.84239423 Z M72.5752147,5.30484841 C72.6405165,5.32923812 72.7102322,5.2820575 72.7110811,5.2123828 L72.7219187,4.35845635 C72.7241985,4.21642223 72.6748707,3.93383035 72.5691576,3.68478593 C72.0333233,2.42243942 70.4129258,2.0946844 69.423846,3.01256045 L69.2324938,3.18983064 C69.1480065,3.26384086 69.0708424,3.31861835 68.9584323,3.36633363 C68.4667766,3.57502906 67.900004,3.34734177 67.6906406,2.85411256 L67.6482061,2.75414304 C67.4633408,2.31862771 67.1272062,1.96425497 66.7019648,1.75640213 C65.5576606,1.19597178 64.2016957,1.78768882 63.9294429,3.0159629 L63.8764513,3.34608492 L63.8764513,3.34608492 C63.8709818,3.38505744 63.8890647,3.42315432 63.9222125,3.44436924 C64.4505894,3.78208463 64.902311,4.20532088 65.2686651,4.70384768 C65.2918606,4.73545929 65.3310567,4.75072036 65.3694683,4.74277264 C67.7782592,4.24553955 70.2473055,4.43624697 72.5752147,5.30484841 Z M55.0831631,25.110237 L54.9814867,25.2527522 L54.9814867,25.2527522 C54.5263796,25.8786432 54.5187398,26.677117 54.9332428,27.3621657 C55.4362696,28.1946405 56.4900879,28.5360521 57.3851853,28.1561058 L57.4851548,28.1136712 C58.1071873,27.8496341 58.7920886,28.2890876 58.8284707,28.9505109 L58.8419156,29.204801 C58.9316729,30.8054975 60.7798458,31.6093529 62.0073113,30.6499955 L62.1397197,30.5364275 L62.1397197,30.5364275 L62.7345112,29.904975 L62.7345112,29.904975 C62.7823273,29.8541996 62.7650983,29.771661 62.7011816,29.743843 C60.4235962,28.7523941 58.51484,27.173971 57.1269579,25.1417088 C57.1048478,25.1093087 57.0661172,25.0930854 57.0274262,25.0997315 C56.4311207,25.2021482 55.8089598,25.1984864 55.1844602,25.0714448 C55.1458392,25.0635866 55.1063475,25.0783835 55.0831631,25.110237 Z M56.3050769,8.8493379 C56.2927811,8.79682249 56.242136,8.76282484 56.1891012,8.77261006 L54.1917891,9.14171806 C53.9521316,9.18680439 53.8099113,9.42862512 53.8805677,9.65671868 L55.1998282,13.8947659 L55.1998282,13.8947659 C55.2293016,13.9894221 55.3629013,13.9890269 55.39181,13.8942232 C55.7416063,12.7470485 56.2725941,11.5638739 56.9559777,10.5002486 C56.9769668,10.4674697 56.9768997,10.4258768 56.9560393,10.3929463 C56.6583107,9.92367979 56.4339069,9.40029327 56.3050769,8.8493379 Z M54.2230994,13.4644812 C54.2031066,13.4002667 54.1268851,13.3739576 54.0708962,13.4112696 C53.923188,13.5097449 53.7906779,13.5548494 53.6582252,13.5909853 L53.3889104,13.664455 C53.342542,13.6790923 53.2950585,13.6960222 53.2458991,13.7168891 C52.1317944,14.1897985 51.7622759,15.5851867 52.4845647,16.5426383 C52.5215247,16.5916213 52.5931426,16.5956327 52.6366809,16.5524084 C53.2253845,15.9670348 53.9455638,15.5502372 54.6944615,15.3183228 C54.7478766,15.3017124 54.7781296,15.24572 54.7614926,15.1923709 L54.2230994,13.4644812 Z" fill="#1F1E1E" fill-rule="nonzero"></path>
        </g>
    </g>
</svg>