<?xml version="1.0" encoding="UTF-8"?>
<svg width="80px" height="80px" viewBox="0 0 80 80" version="1.1" xmlns="http://www.w3.org/2000/svg" xmlns:xlink="http://www.w3.org/1999/xlink">
    <title>BEC2E30C-DAEE-4DAF-9979-9D750014D562</title>
    <g id="🧬-Symbols" stroke="none" stroke-width="1" fill="none" fill-rule="evenodd">
        <g id="icons/cauliflower-bites">
            <rect id="icon-space" x="0" y="0" width="80" height="80"></rect>
            <path d="M72.774423,33.8534948 C74.1160858,34.0291819 74.8627565,34.5129659 75.3534571,35.1839458 C75.8043103,35.8004388 76.0390774,36.5749596 75.9675459,37.3841522 L75.9403753,37.605608 L70.8992507,76.7561664 C70.7753201,77.5448775 70.3738931,78.2300776 69.803852,78.7184783 C69.2842814,79.1636369 68.6246326,79.4453019 67.9073521,79.4928348 L67.6905214,79.5 L12.7491007,79.5 C11.9483202,79.5 11.2072978,79.2081527 10.6357702,78.7184783 C10.117551,78.2744776 9.73868229,77.6678329 9.58096898,76.9686329 L9.54037146,76.7561664 L4.49924627,37.6056034 C4.47302982,37.4387873 4.45986246,37.2701839 4.45986246,37.1013266 C4.45986246,36.2043848 4.82341995,35.3923564 5.41121288,34.8045635 C5.98967803,34.2260984 6.78531826,33.8648083 7.66786211,33.8536952 C22.1328924,36.3537841 32.9836363,37.6013266 40.2198111,37.6013266 C47.456428,37.6013266 58.3080557,36.3536317 72.774423,33.8534948 Z M57.1666667,56.5654704 L54.9785406,56.5721925 L54.5828464,56.5880289 C50.898281,56.7853232 47.4606741,58.3654329 44.8322035,61.0901793 C42.0243932,64.0013791 40.4765625,67.8712996 40.4765625,71.988704 L40.4765625,71.988704 L40.4765625,73.8348715 L42.6649186,73.8281497 L43.0605892,73.8123132 C46.7449425,73.6150193 50.182553,72.0349115 52.8110256,69.3101629 C55.6188382,66.3989608 57.1666667,62.5290363 57.1666667,58.4119019 L57.1666667,58.4119019 L57.1666667,56.5654704 Z M24.6305847,56.5670088 L22.8319023,56.5670088 L22.8383314,58.8165828 L22.8535974,59.2258795 C23.0437874,63.0370637 24.5669895,66.5916217 27.1892125,69.310146 C30.0036863,72.2279817 33.7462346,73.8333333 37.7264404,73.8333333 L37.7264404,73.8333333 L39.5248687,73.8333333 L39.5184395,71.583998 L39.5031735,71.1746775 C39.3129847,67.3632801 37.7898004,63.8087309 35.1678289,61.0902129 C32.3530636,58.1723481 28.6105185,56.5670088 24.6305847,56.5670088 L24.6305847,56.5670088 Z M40,42.8333333 C38.6134958,42.8333333 37.3226121,43.4078918 36.1660687,44.6743457 L36.1660687,44.6743457 L35.6409082,44.5169036 L35.3892663,44.4604273 C34.2129558,44.2283602 33.0130067,44.4366718 31.9615788,45.0656804 C30.7665381,45.7810645 29.9292613,46.942137 29.5367259,48.6460055 L29.5367259,48.6460055 L28.9966768,48.7842988 L28.752418,48.8655085 C27.6259143,49.2726324 26.6899511,50.0713079 26.0850949,51.15729 C25.390805,52.4036026 25.2377313,53.8947641 26.0762154,55.6103906 C29.7609858,55.9540023 33.1809657,57.607784 35.8290093,60.3528218 C37.4966072,62.0819183 38.7468313,64.1281288 39.5280739,66.3601172 C39.7124174,66.8867815 39.8698981,67.4216443 39.9999699,67.9629339 C40.1301019,67.4216443 40.2875826,66.8867815 40.4719261,66.3601172 C41.2531687,64.1281288 42.5033928,62.0819183 44.1710325,60.3527785 C46.8187986,57.6077729 50.2387739,55.9540018 54.3565092,55.2554353 C54.7622595,53.894795 54.6089451,52.403658 53.9149268,51.157329 C53.2227116,49.9144991 52.0971276,49.0477429 50.4601321,48.6426968 L50.4601321,48.6426968 L50.32469,48.0743416 L50.2464138,47.8217074 C49.8539126,46.6567354 49.0829357,45.6909603 48.0382441,45.0657265 C46.835575,44.3460696 45.4382235,44.1766392 43.829306,44.6730737 L43.829306,44.6730737 L43.4472834,44.2610594 L43.2567788,44.0819458 C42.3508559,43.2724252 41.2121098,42.8333333 40,42.8333333 Z M40.6481706,24.9440554 C42.3149061,24.9440554 43.8251139,25.5748948 44.9178156,26.5987826 C45.9983613,27.61128 46.6698602,29.0091331 46.669895,30.5491362 C46.667694,30.7356591 46.6557617,31.3592928 46.5360137,31.8469127 C46.4907011,32.0314277 46.4299504,32.1967352 46.3697431,32.3409713 C43.7224277,32.7640556 41.8104647,32.8333333 40.5204158,32.8333333 C39.2155753,32.8333333 37.2862234,32.7656089 34.7326824,32.6305716 C34.6865409,32.4148391 34.6437065,32.1744969 34.6248073,31.9279434 C34.5937857,31.5232423 34.6095877,31.1021655 34.6194937,30.8234441 C34.6259419,29.0250454 35.2920774,27.6168108 36.3785257,26.5987826 C37.4712273,25.5748948 38.9814352,24.9440554 40.6481706,24.9440554 Z M49.9450153,21.7779831 C51.4624941,21.1329419 53.2026564,21.10888 54.7444389,21.7185201 C56.2300318,22.3059422 57.3955328,23.4290976 57.9758116,24.829313 C55.9004265,26.4862082 54.5822539,29.3325235 54.4409291,31.9044853 L54.4409291,31.9044853 L50.2694113,32.3812864 C50.4659882,30.0209258 49.7354754,26.9029333 48.2725236,25.0551972 C49.0641258,24.0827559 49.6334316,22.9670693 49.9450153,21.7779831 Z M28.9071227,21.277517 C29.7412918,21.2806747 30.5646812,21.4471862 31.3243809,21.7656508 C31.3767851,21.9982522 31.4113238,22.1360379 31.4565769,22.2720978 C31.8000217,23.2809535 32.3290017,24.2247584 33.0186519,25.0609851 C31.5640529,26.9042032 30.8564276,29.9188685 31.0509625,32.260612 C30.1866253,32.1838879 29.530739,32.1199254 29.083312,32.0686461 C28.5311494,32.0053633 27.7662857,31.9047352 26.78886,31.7664884 C26.6574064,29.2039881 25.3976805,26.4796519 23.3246212,24.8299312 C23.7487278,23.8219645 24.4664767,22.9743264 25.3652611,22.3603854 C26.3707691,21.6735437 27.6028925,21.2787586 28.9071227,21.277517 Z M64.1263385,26.1662782 C64.6404684,26.1662782 66.5447646,26.199909 67.8656721,26.9125203 C68.4972073,27.2532248 69.0216053,27.6555076 69.415874,28.0298115 C69.6198841,28.223491 69.8053726,28.4045169 69.9384759,28.5548507 C67.5583022,29.1655205 65.7485222,29.6160532 64.5091211,29.9063872 C63.0629445,30.2451591 60.9394257,30.6673436 58.1391874,31.1730048 C58.2891681,29.8688214 58.9188663,28.6997721 59.8566935,27.8210054 C60.9493952,26.7971176 62.459603,26.1662782 64.1263385,26.1662782 Z M17.1694458,26.1662779 C18.8355258,26.1681339 20.3448653,26.7994288 21.4373657,27.8231281 C22.3770413,28.7036268 23.0077563,29.8751784 23.157062,31.1819634 C21.152036,30.8455505 19.4584693,30.5156347 18.0764295,30.1918871 C16.7850469,29.8893763 14.540145,29.3407105 11.3418136,28.5458852 C11.5101808,28.3452518 11.7711683,28.0978061 12.0551371,27.8454107 C12.5217218,27.4307039 13.1209031,27.0131247 13.7865134,26.7326303 C15.1044537,26.1772379 16.781412,26.1667114 17.1694458,26.1662779 Z M20.5353046,14.0205847 C22.0816471,13.8889849 23.5558992,14.315834 24.7165061,15.1343551 C25.7276936,15.8474978 26.5008462,16.858694 26.8690338,18.0559447 C23.8853322,18.6614066 21.3853665,20.5631315 20.1296155,23.1707672 C18.8629227,22.7748398 17.5187142,22.6410869 16.1901623,22.7798696 C15.4589924,21.8465974 15.0612685,20.7179454 15.0612485,19.5599313 C15.074575,18.1219409 15.6706663,16.8070352 16.6428368,15.8182659 C17.6255136,14.818811 18.9916511,14.1519557 20.5353046,14.0205847 Z M56.5670459,15.1120327 C57.7292656,14.2878825 59.2083475,13.8572732 60.7606319,13.9893059 C62.3102036,14.121108 63.6804014,14.7923229 64.6636586,15.7974809 C65.6363626,16.7918506 66.2295878,18.1136461 66.2350716,19.5548272 C66.2339791,20.7155311 65.8365799,21.8426426 65.1071414,22.7749995 C63.7780981,22.6361534 62.4334097,22.7699793 61.1662205,23.1659532 C59.9074674,20.557206 57.4036305,18.6566107 54.4174294,18.0544506 C54.7808494,16.8495843 55.5534715,15.8307759 56.5670459,15.1120327 Z M40.6470561,13.9441824 C42.3124456,13.9478947 43.8209412,14.5796382 44.9132715,15.6031659 C45.9935128,16.615366 46.6659821,18.0117153 46.6699454,19.5579621 C46.6713997,19.817841 46.6476508,20.0773616 46.5990362,20.3333148 C46.464771,21.2285736 46.1094306,22.0593101 45.563588,22.7758544 C44.0511194,21.9245869 42.3486989,21.4983398 40.6460485,21.4983398 C38.9427171,21.4983398 37.2396481,21.9249279 35.7267719,22.7768402 C35.0088563,21.8421774 34.6205919,20.7162153 34.6262602,19.5582675 C34.6358377,18.0152159 35.3096905,16.620981 36.3895192,15.6091882 C37.4813178,14.5861797 38.9873743,13.9531499 40.6470561,13.9441824 Z M50.8535069,6.62753735 C52.3623207,6.57643124 53.7713883,7.05180718 54.8659618,7.88741936 C55.8485919,8.63757249 56.5777491,9.67866835 56.8911932,10.8879123 C55.2416743,11.5939722 53.8575116,12.5909247 52.8132838,13.7920641 C51.7597032,15.0039618 51.0507917,16.4240147 50.7611593,17.9683353 C50.5478588,18.004355 50.3359592,18.0471642 50.1258004,18.0966623 C49.6429273,15.3082579 47.7972976,12.8801105 45.1227553,11.5529816 C45.2857772,10.2528792 45.9254235,9.0938108 46.8696225,8.22771158 C47.9047995,7.27815953 49.305484,6.67997153 50.8535069,6.62753735 Z M30.212955,6.61098025 C31.8073892,6.61234121 33.2641581,7.19380785 34.3448217,8.15004841 C35.332867,9.02433445 36.0060739,10.2126805 36.1747417,11.5538631 C33.5032036,12.8834697 31.6585756,15.3095888 31.1715144,18.095724 C30.961101,18.0460447 30.748934,18.0030703 30.5353691,17.9668327 C30.2359851,16.3669632 29.4882597,14.9036548 28.4057066,13.7055141 C27.3411361,12.5272759 25.9524913,11.6055517 24.3499251,11.0647091 C24.6213372,9.85130486 25.3071548,8.79410898 26.2527816,8.01526425 C27.3157869,7.13974328 28.7068331,6.61518618 30.212955,6.61098025 Z M40.6476999,0.499999778 C42.0282741,0.501299662 43.3206345,0.940947604 44.3515156,1.69527845 C45.2653903,2.36399175 45.973746,3.28044476 46.3511806,4.35708211 C43.8730687,5.67229172 42.1483524,7.95102224 41.6307981,10.5710642 C40.9771291,10.510695 40.3187347,10.5106569 39.6650222,10.5707801 C39.1457269,7.95308246 37.4209521,5.67714394 34.9446834,4.36377615 C35.3210901,3.28576304 36.0291036,2.36783481 36.9431742,1.69791237 C37.9741268,0.942327086 39.2671647,0.501670888 40.6476999,0.499999778 Z" stroke="#1F1E1E" fill="#1F1E1E"></path>
        </g>
    </g>
</svg>