<?xml version="1.0" encoding="UTF-8"?>
<svg width="80px" height="80px" viewBox="0 0 80 80" version="1.1" xmlns="http://www.w3.org/2000/svg" xmlns:xlink="http://www.w3.org/1999/xlink">
    <title>A634D91F-5A32-4C6C-916A-5E9B8E8D37FE</title>
    <g id="🧬-Symbols" stroke="none" stroke-width="1" fill="none" fill-rule="evenodd">
        <g id="icons/egg-rolls" transform="translate(0.000000, 0.000000)">
            <rect id="icon-space" x="0" y="0" width="80" height="80"></rect>
            <path d="M56.5510898,33.6092578 C64.6820744,33.6092578 71.5771453,37.7589074 75.6277775,43.818521 C79.6417548,49.8233002 80.861726,57.7040346 77.7229938,65.2816792 C76.1486044,69.0860218 73.774385,71.5744466 71.1080031,72.9817592 C67.9994684,74.6224395 64.5029909,74.7923723 61.4566581,73.8968093 C54.9125632,71.9727546 50.4209768,68.6641852 48.5570405,64.0270262 C47.4583776,61.293987 47.4500282,58.543421 48.1296607,56.117538 C48.9127724,53.3222955 50.6067531,50.9547084 52.604364,49.547673 C54.3106362,48.3456227 56.1738481,47.8592904 58.0673996,48.0825834 C59.9917764,48.3095114 61.9399047,49.2629496 63.7890077,50.9047571 C64.7400401,51.7496623 65.294147,52.6861564 65.5938847,53.5911308 C66.0166797,54.867642 65.9367988,56.0785536 65.7668414,56.8714495 C65.3149554,58.9836051 63.9704166,60.9959256 62.3220563,61.9388552 C61.6289789,62.3353239 60.8816242,62.5390255 60.1290483,62.452614 C59.447851,62.3743982 58.7684679,62.0571317 58.1229758,61.4569586 C57.5176075,60.8940478 57.2404972,60.1244873 57.2499228,59.3501911 C57.2598952,58.5309844 57.5880626,57.7037759 58.1979353,57.0937614 C58.7533739,56.5382884 59.0310311,55.8105046 59.0310311,55.0827034 C59.0310311,54.3548857 58.7533543,53.6270176 58.1979956,53.071435 C57.6425872,52.5158026 56.9148741,52.2380387 56.1871641,52.2380387 C55.4594759,52.2380387 54.7317334,52.5157877 54.1762455,53.0714048 C52.439594,54.8084601 51.5496957,57.1294711 51.5612985,59.4356847 C51.5726952,61.7009293 52.452395,63.9510594 54.2490627,65.6238307 C55.7358729,67.0050676 57.3381165,67.7796078 58.9430579,68.0626856 C60.7008428,68.3727218 62.4660722,68.093226 64.0969971,67.3533596 C67.466549,65.8247679 70.2643041,62.3153149 71.1734803,58.0604885 C71.6410606,55.8730686 71.547492,53.7393495 70.9330798,51.7929058 C70.3195016,49.8491043 69.1864321,48.090647 67.5666428,46.6519758 C64.7041992,44.1041948 61.5723063,42.6741419 58.4529488,42.3692623 C55.3123536,42.062307 52.1782492,42.8923636 49.3298222,44.8948104 C46.0869736,47.1778105 43.8121964,50.6033245 42.7310734,54.405826 C41.6514237,58.203146 41.7629501,62.3739396 43.2799511,66.1490843 C44.7292274,69.756171 48.7224121,75.9544656 59.6399706,79.2980892 C58.6295554,79.4308711 57.5987145,79.4996432 56.5510898,79.5 C51.9664301,79.5 47.5401917,78.11624 43.8129478,75.6143827 C40.1598641,73.1623043 37.1784519,69.6360267 35.3769914,65.2858822 C32.1980393,57.6050722 33.4302482,49.8104858 37.3974095,43.8755682 C41.4897262,37.7534167 48.4890322,33.6092578 56.5510898,33.6092578 Z M19.4348749,0.842546702 C17.4933409,1.79391591 16.0321607,2.84467702 14.9392391,3.92335555 C12.7559416,6.07820023 12.0182699,8.35640647 11.887306,10.2449244 C11.6371725,13.8291879 13.6073418,17.4200569 16.9562272,20.2229758 C20.2344446,22.9667476 24.8240057,24.95039 29.8273111,25.4148067 C36.3311277,26.0317599 42.2508049,27.7087203 47.161353,29.5031279 C43.1216441,30.8992174 39.4179645,33.1948892 36.3079655,36.3070397 C29.6780894,42.9384575 26.8778303,51.8586333 28.2733933,60.718272 L28.2733933,60.718272 L7.21868132,39.6063313 C2.88602501,35.2705261 0.5,29.5072029 0.5,23.380903 C0.5,17.176429 2.97931534,11.5525543 6.99778265,7.43198575 C10.2850676,4.06117742 14.6023154,1.69619852 19.4348749,0.842546702 Z M28.3847264,3.84785777 C32.4621241,2.96353292 36.7095895,4.20485818 39.6609651,7.1549674 L39.6609651,7.1549674 L60.6721548,28.2231761 C59.6999664,28.0927064 58.7148927,28.0150918 57.7225694,27.9755313 C50.9045943,24.4137291 41.6675272,20.8223811 30.36015,19.7505995 C26.8178185,19.421553 23.6724614,18.1207324 21.3746082,16.4484806 C18.9509161,14.6846501 17.4315396,12.5046989 17.5613054,10.6393342 C17.6531006,9.31312851 18.589352,7.98533109 20.4476327,6.78489941 C22.2222368,5.63852203 24.8246788,4.62027525 28.3847264,3.84785777 Z" stroke="#1F1E1E" fill="#1F1E1E"></path>
        </g>
    </g>
</svg>