<?xml version="1.0" encoding="UTF-8"?>
<svg width="80px" height="80px" viewBox="0 0 80 80" version="1.1" xmlns="http://www.w3.org/2000/svg" xmlns:xlink="http://www.w3.org/1999/xlink">
    <title>092D7FA4-5CF1-4A4E-8E19-8D8AF9BF6479</title>
    <g id="🧬-Symbols" stroke="none" stroke-width="1" fill="none" fill-rule="evenodd">
        <g id="icons/pause-pillow">
            <rect id="icon-space" x="0" y="0" width="80" height="80"></rect>
            <path d="M52.65625,0 C67.4543837,0 79.5447247,11.8163015 79.9874403,26.5090718 L80,27.34375 L80,52.65625 C80,67.4543837 68.1836985,79.5447247 53.4909282,79.9874403 L52.65625,80 L27.34375,80 C12.5456163,80 0.455275313,68.1836985 0.0125597111,53.4909282 L0,52.65625 L0,27.34375 C0,12.5456163 11.8163015,0.455275313 26.5090718,0.0125597111 L27.34375,0 L52.65625,0 Z M40,13.3333333 C25.2724067,13.3333333 13.3333333,25.2724067 13.3333333,40 C13.3333333,54.7275933 25.2724067,66.6666667 40,66.6666667 C54.7275933,66.6666667 66.6666667,54.7275933 66.6666667,40 C66.6666667,25.2724067 54.7275933,13.3333333 40,13.3333333 Z M40,16 C53.254834,16 64,26.745166 64,40 C64,53.254834 53.254834,64 40,64 C26.745166,64 16,53.254834 16,40 C16,26.745166 26.745166,16 40,16 Z M35.6666667,26.6666667 L31,26.6666667 C30.4477153,26.6666667 30,27.1143819 30,27.6666667 L30,27.6666667 L30,52.3333333 C30,52.8856181 30.4477153,53.3333333 31,53.3333333 L31,53.3333333 L35.6666667,53.3333333 C36.2189514,53.3333333 36.6666667,52.8856181 36.6666667,52.3333333 L36.6666667,52.3333333 L36.6666667,27.6666667 C36.6666667,27.1143819 36.2189514,26.6666667 35.6666667,26.6666667 L35.6666667,26.6666667 Z M49,26.6666667 L44.3333333,26.6666667 C43.7810486,26.6666667 43.3333333,27.1143819 43.3333333,27.6666667 L43.3333333,27.6666667 L43.3333333,52.3333333 C43.3333333,52.8856181 43.7810486,53.3333333 44.3333333,53.3333333 L44.3333333,53.3333333 L49,53.3333333 C49.5522847,53.3333333 50,52.8856181 50,52.3333333 L50,52.3333333 L50,27.6666667 C50,27.1143819 49.5522847,26.6666667 49,26.6666667 L49,26.6666667 Z" fill="#1F1E1E"></path>
        </g>
    </g>
</svg>