<?xml version="1.0" encoding="UTF-8"?>
<svg width="80px" height="80px" viewBox="0 0 80 80" version="1.1" xmlns="http://www.w3.org/2000/svg" xmlns:xlink="http://www.w3.org/1999/xlink">
    <title>44F22498-437A-43BD-92D1-4FF8696E9E26</title>
    <g id="🧬-Symbols" stroke="none" stroke-width="1" fill="none" fill-rule="evenodd">
        <g id="icons/chicken-bites">
            <rect id="icon-space" x="0" y="0" width="80" height="80"></rect>
            <path d="M72.774423,33.8534948 C74.0851787,34.0243855 74.8105298,34.4796314 75.3011997,35.114447 C75.7522056,35.6979464 76.0051069,36.4331216 75.9783359,37.2089995 L75.9640394,37.4215283 L70.8992507,76.7561666 C70.7800416,77.5148294 70.4040871,78.1777272 69.868262,78.6618081 C69.3851331,79.0982816 68.7720643,79.3894713 68.1000355,79.4743267 L67.8739395,79.4948861 L12.7491007,79.5 C11.9787489,79.5 11.2636925,79.2299221 10.7016475,78.7734359 C10.1976224,78.3640727 9.81656429,77.8048455 9.62910686,77.1560378 L9.57388834,76.9365335 L4.49923664,37.6055421 C4.4730266,37.4387459 4.45986246,37.2701632 4.45986246,37.1013266 C4.45986246,36.2043848 4.82341995,35.3923564 5.41121288,34.8045635 C5.98967803,34.2260984 6.78531826,33.8648083 7.66786211,33.8536952 C22.1328924,36.3537841 32.9836363,37.6013266 40.2198111,37.6013266 C47.456428,37.6013266 58.3080557,36.3536317 72.774423,33.8534948 Z M38.3931071,50.5222982 C36.4293959,50.5222982 34.5792645,51.1992565 33.1028411,52.4517554 C31.701872,53.640244 30.6351444,55.3493259 30.1390492,57.4987421 L30.1390492,57.4987421 L26.0251262,73.8333333 L43.4235335,73.8333333 L43.48,70.666 L43.5972753,72.4237517 L43.7802924,72.5541453 C44.4042986,72.9720397 45.1653044,73.2198385 45.9886068,73.2198385 C47.0472459,73.2198385 48.004562,72.8124418 48.697949,72.157287 C49.4018893,71.4921609 49.8345744,70.5725341 49.8345744,69.5583623 C49.8345744,68.227597 48.5563592,65.332537 47.0920269,63.8105053 C46.9155098,63.6270328 46.7189517,63.4454922 46.50742,63.2679935 L46.608,63.355 L54.3861243,59.1582492 L45.1911342,54.1959028 C46.0698297,55.4930331 46.6703909,57.04163 46.8848512,58.7285991 C46.6141332,56.6422162 45.743736,54.7744547 44.4794527,53.3521432 C42.9218175,51.5998123 40.7681433,50.5222982 38.3931071,50.5222982 Z M46.7688689,62.1895627 C46.7106879,62.5342227 46.637319,62.9280176 46.5455092,63.3896134 L46.56,63.313 L46.50742,63.2679935 C46.4714686,63.3876875 46.4332737,63.5066755 46.3928419,63.6250194 L46.2648421,63.978181 C45.6901325,65.4772887 44.7798934,66.8030346 43.3078103,68.0832144 L43.529,67.884 L43.5313614,67.7885689 L43.7517164,67.5977883 C45.2018712,66.2997355 46.2706108,64.4821738 46.7272994,62.393339 Z M40.1761068,56.5990804 C40.7087447,56.5990804 41.1908423,56.8373441 41.5505422,57.2167389 C41.8406609,57.5227428 42.0522377,57.9199673 42.152142,58.3664465 C42.0203119,57.9773682 41.8373154,57.6419537 41.604495,57.3805566 C41.2301163,56.9602262 40.7261582,56.7240804 40.1761068,56.7240804 C39.6388238,56.7240804 39.1460092,56.9509587 38.7771587,57.3307991 C38.6987282,57.4115664 38.6259716,57.499319 38.5597648,57.5931891 L38.543,57.618 L38.5510923,57.5991401 C38.5965849,57.5045167 38.6568785,57.4140671 38.7245946,57.3293474 L38.7945116,57.2465953 C39.1542765,56.8423525 39.6393112,56.5990804 40.1761068,56.5990804 Z M42.5152995,42.8333333 C41.1308313,42.8333333 39.8696952,43.4420192 38.9419831,44.4420208 C38.2098791,43.6650651 37.2219244,43.1933645 36.1379394,43.1933645 C34.9932189,43.1933645 33.9545008,43.716145 33.2118868,44.6074183 C32.6362566,45.2982804 32.2387714,46.2139045 32.121802,47.273597 C31.905559,47.2266991 31.6822356,47.2019552 31.4537354,47.2019552 C30.4946173,47.2019552 29.6228272,47.6338237 28.9930945,48.3422828 C28.3834323,49.0281622 28.00236,49.9746507 28.00236,51.0222982 C28.00236,51.9231974 28.2842532,52.7492973 28.7510035,53.3987093 C29.2400537,54.0791483 29.9314416,54.5655817 31.2650782,54.5239577 C32.0875581,53.141405 33.2531864,52.0402565 34.6297424,51.3228507 C35.7652031,50.7310883 37.0416075,50.3972982 38.3931071,50.3972982 C38.6163623,50.3972982 38.8368369,50.4102364 39.0558467,50.4292718 C41.1991048,50.6158335 43.119648,51.697637 45.1912547,53.42344 C46.6576601,52.4248883 47.6519369,50.6226408 47.6519369,48.5495732 C47.6519369,46.9783752 47.0822346,45.5579185 46.1676045,44.5289552 C45.2328961,43.4774036 43.9397856,42.8333333 42.5152995,42.8333333 Z M40.6481706,24.9440554 C42.3149061,24.9440554 43.8251139,25.5748948 44.9178156,26.5987826 C45.9983613,27.61128 46.6698602,29.0091331 46.669895,30.5491362 C46.667694,30.7356591 46.6557617,31.3592928 46.5360137,31.8469127 C46.4907011,32.0314277 46.4299504,32.1967352 46.3697431,32.3409713 C43.7224277,32.7640556 41.8104647,32.8333333 40.5204158,32.8333333 C39.2155753,32.8333333 37.2862234,32.7656089 34.7326824,32.6305716 C34.6865409,32.4148391 34.6437065,32.1744969 34.6248073,31.9279434 C34.5937857,31.5232423 34.6095877,31.1021655 34.6194937,30.8234441 C34.6259419,29.0250454 35.2920774,27.6168108 36.3785257,26.5987826 C37.4712273,25.5748948 38.9814352,24.9440554 40.6481706,24.9440554 Z M49.9450153,21.7779831 C51.4624941,21.1329419 53.2026564,21.10888 54.7444389,21.7185201 C56.2300318,22.3059422 57.3955328,23.4290976 57.9758116,24.829313 C55.9004265,26.4862082 54.5822539,29.3325235 54.4409291,31.9044853 L54.4409291,31.9044853 L50.2694113,32.3812864 C50.4659882,30.0209258 49.7354754,26.9029333 48.2725236,25.0551972 C49.0641258,24.0827559 49.6334316,22.9670693 49.9450153,21.7779831 Z M28.9071227,21.277517 C29.7412918,21.2806747 30.5646812,21.4471862 31.3243809,21.7656508 C31.3767851,21.9982522 31.4113238,22.1360379 31.4565769,22.2720978 C31.8000217,23.2809535 32.3290017,24.2247584 33.0186519,25.0609851 C31.5640529,26.9042032 30.8564276,29.9188685 31.0509625,32.260612 C30.1866253,32.1838879 29.530739,32.1199254 29.083312,32.0686461 C28.5311494,32.0053633 27.7662857,31.9047352 26.78886,31.7664884 C26.6574064,29.2039881 25.3976805,26.4796519 23.3246212,24.8299312 C23.7487278,23.8219645 24.4664767,22.9743264 25.3652611,22.3603854 C26.3707691,21.6735437 27.6028925,21.2787586 28.9071227,21.277517 Z M64.1263385,26.1662782 C64.6404684,26.1662782 66.5447646,26.199909 67.8656721,26.9125203 C68.4972073,27.2532248 69.0216053,27.6555076 69.415874,28.0298115 C69.6198841,28.223491 69.8053726,28.4045169 69.9384759,28.5548507 C67.5583022,29.1655205 65.7485222,29.6160532 64.5091211,29.9063872 C63.0629445,30.2451591 60.9394257,30.6673436 58.1391874,31.1730048 C58.2891681,29.8688214 58.9188663,28.6997721 59.8566935,27.8210054 C60.9493952,26.7971176 62.459603,26.1662782 64.1263385,26.1662782 Z M17.1694458,26.1662779 C18.8355258,26.1681339 20.3448653,26.7994288 21.4373657,27.8231281 C22.3770413,28.7036268 23.0077563,29.8751784 23.157062,31.1819634 C21.152036,30.8455505 19.4584693,30.5156347 18.0764295,30.1918871 C16.7850469,29.8893763 14.540145,29.3407105 11.3418136,28.5458852 C11.5101808,28.3452518 11.7711683,28.0978061 12.0551371,27.8454107 C12.5217218,27.4307039 13.1209031,27.0131247 13.7865134,26.7326303 C15.1044537,26.1772379 16.781412,26.1667114 17.1694458,26.1662779 Z M20.5353046,14.0205847 C22.0816471,13.8889849 23.5558992,14.315834 24.7165061,15.1343551 C25.7276936,15.8474978 26.5008462,16.858694 26.8690338,18.0559447 C23.8853322,18.6614066 21.3853665,20.5631315 20.1296155,23.1707672 C18.8629227,22.7748398 17.5187142,22.6410869 16.1901623,22.7798696 C15.4589924,21.8465974 15.0612685,20.7179454 15.0612485,19.5599313 C15.074575,18.1219409 15.6706663,16.8070352 16.6428368,15.8182659 C17.6255136,14.818811 18.9916511,14.1519557 20.5353046,14.0205847 Z M56.5670459,15.1120327 C57.7292656,14.2878825 59.2083475,13.8572732 60.7606319,13.9893059 C62.3102036,14.121108 63.6804014,14.7923229 64.6636586,15.7974809 C65.6363626,16.7918506 66.2295878,18.1136461 66.2350716,19.5548272 C66.2339791,20.7155311 65.8365799,21.8426426 65.1071414,22.7749995 C63.7780981,22.6361534 62.4334097,22.7699793 61.1662205,23.1659532 C59.9074674,20.557206 57.4036305,18.6566107 54.4174294,18.0544506 C54.7808494,16.8495843 55.5534715,15.8307759 56.5670459,15.1120327 Z M40.6470561,13.9441824 C42.3124456,13.9478947 43.8209412,14.5796382 44.9132715,15.6031659 C45.9935128,16.615366 46.6659821,18.0117153 46.6699454,19.5579621 C46.6713997,19.817841 46.6476508,20.0773616 46.5990362,20.3333148 C46.464771,21.2285736 46.1094306,22.0593101 45.563588,22.7758544 C44.0511194,21.9245869 42.3486989,21.4983398 40.6460485,21.4983398 C38.9427171,21.4983398 37.2396481,21.9249279 35.7267719,22.7768402 C35.0088563,21.8421774 34.6205919,20.7162153 34.6262602,19.5582675 C34.6358377,18.0152159 35.3096905,16.620981 36.3895192,15.6091882 C37.4813178,14.5861797 38.9873743,13.9531499 40.6470561,13.9441824 Z M50.8535069,6.62753735 C52.3623207,6.57643124 53.7713883,7.05180718 54.8659618,7.88741936 C55.8485919,8.63757249 56.5777491,9.67866835 56.8911932,10.8879123 C55.2416743,11.5939722 53.8575116,12.5909247 52.8132838,13.7920641 C51.7597032,15.0039618 51.0507917,16.4240147 50.7611593,17.9683353 C50.5478588,18.004355 50.3359592,18.0471642 50.1258004,18.0966623 C49.6429273,15.3082579 47.7972976,12.8801105 45.1227553,11.5529816 C45.2857772,10.2528792 45.9254235,9.0938108 46.8696225,8.22771158 C47.9047995,7.27815953 49.305484,6.67997153 50.8535069,6.62753735 Z M30.212955,6.61098025 C31.8073892,6.61234121 33.2641581,7.19380785 34.3448217,8.15004841 C35.332867,9.02433445 36.0060739,10.2126805 36.1747417,11.5538631 C33.5032036,12.8834697 31.6585756,15.3095888 31.1715144,18.095724 C30.961101,18.0460447 30.748934,18.0030703 30.5353691,17.9668327 C30.2359851,16.3669632 29.4882597,14.9036548 28.4057066,13.7055141 C27.3411361,12.5272759 25.9524913,11.6055517 24.3499251,11.0647091 C24.6213372,9.85130486 25.3071548,8.79410898 26.2527816,8.01526425 C27.3157869,7.13974328 28.7068331,6.61518618 30.212955,6.61098025 Z M40.6476999,0.499999778 C42.0282741,0.501299662 43.3206345,0.940947604 44.3515156,1.69527845 C45.2653903,2.36399175 45.973746,3.28044476 46.3511806,4.35708211 C43.8730687,5.67229172 42.1483524,7.95102224 41.6307981,10.5710642 C40.9771291,10.510695 40.3187347,10.5106569 39.6650222,10.5707801 C39.1457269,7.95308246 37.4209521,5.67714394 34.9446834,4.36377615 C35.3210901,3.28576304 36.0291036,2.36783481 36.9431742,1.69791237 C37.9741268,0.942327086 39.2671647,0.501670888 40.6476999,0.499999778 Z" stroke="#1F1E1E" fill="#1F1E1E"></path>
        </g>
    </g>
</svg>