<?xml version="1.0" encoding="UTF-8"?>
<svg width="80px" height="80px" viewBox="0 0 80 80" version="1.1" xmlns="http://www.w3.org/2000/svg" xmlns:xlink="http://www.w3.org/1999/xlink">
    <title>C5E28F66-B72B-4C2E-9789-EC97B2216639</title>
    <g id="🧬-Symbols" stroke="none" stroke-width="1" fill="none" fill-rule="evenodd">
        <g id="icons/chicken-patty">
            <rect id="icon-space" x="0" y="0" width="80" height="80"></rect>
            <path d="M39.9900853,0.5 C41.7024631,0.5 43.4174256,1.00168959 44.7357012,2.01698847 C46.7697475,1.44286683 48.5563769,1.40196467 50.2105507,1.84525109 C51.8645086,2.28847962 53.3911519,3.21714057 54.4022393,4.53966567 C56.5148878,4.51139614 58.2512057,4.93467019 59.7344094,5.79130307 C61.2175344,6.64789053 62.4521769,7.94045554 63.0863376,9.47960458 C65.1344766,9.99890012 66.70206,10.8572497 67.9130017,12.0685126 C69.124214,13.2800462 69.982401,14.8484274 70.1963856,16.498911 C72.0402498,17.5312554 73.332778,18.7663713 74.1893037,20.2502029 C75.0455722,21.7335887 75.468756,23.4701507 75.2484341,25.1201026 C76.7622983,26.5948075 77.690967,28.1220968 78.1341685,29.7768047 C78.5772811,31.4311809 78.5364863,33.2180373 77.8968416,34.7552956 C78.9250872,36.5600522 79.5,38.2723335 79.5,40.0000489 C79.5,41.726762 78.924884,43.4389017 77.9559403,44.7554019 C78.5365128,46.7806787 78.5772871,48.5677678 78.1340585,50.2224515 C77.6908627,51.8770128 76.7623616,53.4043159 75.4402633,54.4155789 C75.4686708,56.528727 75.0455205,58.2659683 74.1889812,59.7498693 C73.3327074,61.2333103 72.0406469,62.4681846 70.5019394,63.102072 C69.9826725,65.1506205 69.1245734,66.7185265 67.9136578,67.9297368 C66.7024839,69.1412055 65.1345711,69.9996053 63.4846027,70.2137196 C62.4525077,72.0580332 61.2177011,73.3509724 59.7342305,74.207786 C58.2513226,75.0642746 56.5153295,75.4876296 54.865984,75.267262 C53.3916753,76.7813967 51.8647803,77.710245 50.2104872,78.153597 C48.5565123,78.5968637 46.7700676,78.5561909 45.2334072,77.9165415 C43.4175466,78.9979262 41.7024855,79.5 39.9900035,79.5 C38.2777018,79.5 36.5626832,78.9980297 35.2438973,77.9820559 C33.2104032,78.5562025 31.4237906,78.5969031 29.7695566,78.1535598 C28.1153608,77.7102268 26.588401,76.7814938 25.5776393,75.4592084 C23.4649262,75.4874666 21.7283352,75.064158 20.2449882,74.207427 C18.7619601,73.3508802 17.5274552,72.0584284 16.8937187,70.5193445 C14.8456683,70.0000278 13.2782317,69.141699 12.0673563,67.9305024 C10.856099,66.7189238 9.99784903,65.1504756 9.78378143,63.500065 C7.93978234,62.4682095 6.64759967,61.23334 5.79123162,59.7498347 C4.93473509,58.2661067 4.51151817,56.5290486 4.73173994,54.8791875 C3.21809847,53.4048241 2.28939924,51.8773123 1.84610818,50.2224218 C1.40294131,48.567995 1.44353919,46.7811237 2.08315309,45.2443801 C1.00192052,43.4280374 0.5,41.7123829 0.5,39.9994443 C0.5,38.286462 1.00194471,36.5708925 2.01767908,35.2519898 C1.44387625,33.2177137 1.40310276,31.4304349 1.84632022,29.7756937 C2.28945537,28.1212599 3.21777264,26.5941923 4.53973375,25.583125 C4.51158263,23.470105 4.93478892,21.7332047 5.79126499,20.2495122 C6.64758084,18.7660973 7.93966553,17.531188 9.47834101,16.8968861 C9.99742865,14.8483517 10.85554,13.2803652 12.0664855,12.0690984 C13.2776678,10.8575948 14.845597,9.99916858 16.4955461,9.78513026 C17.527358,7.94057837 18.762009,6.64790422 20.2452576,5.79126065 C21.7285121,4.93461368 23.4649816,4.5113324 25.1143313,4.7317398 C26.5887567,3.21749164 28.1157889,2.28850789 29.7701467,1.84513146 C31.424044,1.40187847 33.2103196,1.44259063 34.7466835,2.08242863 C36.5625468,1.00170725 38.2776792,0.5 39.9900853,0.5 Z M37.5896607,28.1272786 C34.690134,28.1272786 31.9583311,29.1668545 29.7858619,31.0780906 C27.7197075,32.895796 26.1575466,35.5048139 25.4519923,38.7648099 L25.4519923,38.7648099 L19.3640407,63.8333333 L44.8939718,63.8333333 L44.9788102,54.6298199 L45.239588,54.4049726 C48.2520549,51.7372293 50.2080078,47.5207279 50.2080078,42.7652791 C50.2080078,38.7328623 48.8026192,35.084564 46.5382509,32.4428142 C44.2481017,29.7709869 41.081714,28.1272786 37.5896607,28.1272786 Z M49.8838884,48.1417929 C49.8048705,48.3911871 49.7197806,48.6392275 49.6285844,48.8859198 C48.7532716,51.253703 47.3699033,53.34991 45.2224312,55.2862345 L45.2224312,55.2862345 L45.571912,61.7165778 L45.776761,61.8676687 C46.680224,62.5027225 47.7860227,62.879008 48.9829102,62.879008 C50.5057256,62.879008 51.8839591,62.2734382 52.8817738,61.295723 C53.8833044,60.3143669 54.5018616,58.9583877 54.5018616,57.4611562 C54.5018616,55.4345372 52.6116811,51.0340913 50.4641152,48.7192306 C50.2845396,48.5256662 50.0902879,48.3328046 49.8838884,48.1417929 Z M48.5291298,34.2903442 C49.9028059,36.7269715 50.7080078,39.6373605 50.7080078,42.7652792 C50.7080078,43.8010551 50.619081,44.8210275 50.4485486,45.8135883 L50.4485486,45.8135883 L50.1596232,47.3634458 L61.0237927,41.2832008 Z M40.2641602,37.0244955 C41.1388408,37.0244955 41.9303277,37.4325272 42.5174646,38.0833889 C42.9915869,38.60897 43.3338651,39.2922232 43.4863213,40.0592347 L43.5300301,40.3179059 L43.010798,40.394743 C42.8884783,39.7245371 42.611859,39.1511117 42.238279,38.7161434 C41.7238499,38.1171811 41.0261162,37.7744955 40.2641602,37.7744955 C39.5145178,37.7744955 38.8275579,38.107531 38.3177306,38.6633483 C37.9648227,39.048091 37.6977722,39.540452 37.5593753,40.0958035 L37.5080638,40.3375377 L37.0083187,40.3961888 C37.1421469,39.4950739 37.4939455,38.7125481 37.9979599,38.1252471 C38.5859492,37.4400946 39.3825752,37.0244955 40.2641602,37.0244955 Z M43.7729492,16.1666667 C41.6756776,16.1666667 39.7737788,17.1660216 38.4138265,18.7907075 C37.3464982,17.513157 35.8539799,16.7267151 34.2069092,16.7267151 C32.5627824,16.7267151 31.0708621,17.5057491 30.0042545,18.8332864 C29.1186979,19.9354812 28.5271797,21.4198422 28.4033509,23.138653 C28.0120714,23.0236585 27.6025241,22.9623006 27.1806031,22.9623006 C25.8124276,22.9623006 24.5688666,23.6016708 23.6705716,24.6496962 C22.7980486,25.6676537 22.2535401,27.0727035 22.2535401,28.6272786 C22.2535401,29.9643991 22.6564759,31.1908207 23.3245716,32.154802 C24.0224201,33.161713 25.008833,33.882236 26.6867571,33.9254474 C27.9454449,31.7312854 29.7290542,29.9835178 31.8357238,28.8449427 C33.5717678,27.9066675 35.5232781,27.3772786 37.5896607,27.3772786 C37.9312975,27.3772786 38.268684,27.3977098 38.6038266,27.4279179 C41.8825184,27.7238846 44.8209729,29.4389436 47.6531668,32.127936 C49.7847543,30.6226676 51.2279053,27.9048586 51.2279053,24.7808176 C51.2279053,22.4118317 50.4004523,20.269498 49.0704777,18.7178542 C47.714719,17.1361287 45.8391773,16.1666667 43.7729492,16.1666667 Z" stroke="#1F1E1E" fill="#1F1E1E"></path>
        </g>
    </g>
</svg>