<?xml version="1.0" encoding="UTF-8"?>
<svg width="80px" height="80px" viewBox="0 0 80 80" version="1.1" xmlns="http://www.w3.org/2000/svg" xmlns:xlink="http://www.w3.org/1999/xlink">
    <title>0EA11F41-D49B-4D31-BEC9-9A3933D5E1A2</title>
    <g id="🧬-Symbols" stroke="none" stroke-width="1" fill="none" fill-rule="evenodd">
        <g id="icons/minimize">
            <rect id="icon-space" x="0" y="0" width="80" height="80"></rect>
            <path d="M1.11191411,73.0327775 C-0.409134041,74.6651367 -0.364252636,77.2088813 1.21343301,78.786567 C2.79111867,80.3642526 5.33486331,80.409134 6.9672225,78.8880859 L28.9522483,56.9030601 L28.9522483,64.8574413 C28.9522483,67.1455056 30.8070909,69.0003481 33.0951552,69.0003481 C35.3832195,69.0003481 37.2380621,67.1455056 37.2380621,64.8574413 L37.2380621,45.5238758 C37.2335121,44.0003883 35.9996117,42.7664879 34.4761242,42.7619379 L15.1425587,42.7619379 C12.8544944,42.7619379 10.9996519,44.6167805 10.9996519,46.9048448 C10.9996519,49.1929091 12.8544944,51.0477517 15.1425587,51.0477517 L23.0969399,51.0477517 L1.11191411,73.0327775 Z M42.7619379,15.1425587 L42.7619379,34.4761242 C42.7664879,35.9996117 44.0003883,37.2335121 45.5238758,37.2380621 L64.8574413,37.2380621 C67.1455056,37.2380621 69.0003481,35.3832195 69.0003481,33.0951552 C69.0003481,30.8070909 67.1455056,28.9522483 64.8574413,28.9522483 L56.9030601,28.9522483 L78.8880859,6.9672225 C80.409134,5.33486331 80.3642526,2.79111867 78.786567,1.21343301 C77.2088813,-0.364252636 74.6651367,-0.409134041 73.0327775,1.11191411 L51.0477517,23.0969399 L51.0477517,15.1425587 C51.0477517,12.8544944 49.1929091,10.9996519 46.9048448,10.9996519 C44.6167805,10.9996519 42.7619379,12.8544944 42.7619379,15.1425587 Z" id="Shape" fill="#1F1E1E" fill-rule="nonzero"></path>
        </g>
    </g>
</svg>