<?xml version="1.0" encoding="UTF-8"?>
<svg width="80px" height="80px" viewBox="0 0 80 80" version="1.1" xmlns="http://www.w3.org/2000/svg" xmlns:xlink="http://www.w3.org/1999/xlink">
    <title>63129D13-672D-4C86-8848-76D996A5C0BB</title>
    <g id="🧬-Symbols" stroke="none" stroke-width="1" fill="none" fill-rule="evenodd">
        <g id="icons/salt-citrus">
            <rect id="icon-space" x="0" y="0" width="80" height="79.9038527"></rect>
            <path d="M78.8730201,62.3417962 C77.8073078,66.7864108 75.4386867,70.6863684 72.2123825,73.6403492 C68.3147474,77.2089955 63.1653489,79.3970349 57.5486694,79.496466 C51.9650748,79.4063025 46.9403668,77.5044027 43.0489592,74.3408635 C39.6365962,71.5667661 37.0965814,67.8230984 35.8156738,63.4855386 C40.8183531,70.3392069 48.6396552,74.3325568 56.96651,74.3461538 C61.9211538,74.3483027 66.6612906,72.938293 70.7106274,70.4130585 C73.957419,68.3883046 76.7601003,65.6465656 78.8730201,62.3417962 Z M56.7828481,56.7671866 L60.0880698,70.0338698 C59.0541037,70.1862938 58.010881,70.2649785 56.9688188,70.2692351 C55.560304,70.2633422 54.156127,70.1208833 52.7826096,69.8455229 L52.7826096,69.8455229 L56.7828481,56.7671866 Z M61.1293891,57.3891301 L68.8864194,66.7293868 C67.3774933,67.7098609 65.7543351,68.4999155 64.0580546,69.0801883 L64.0580546,69.0801883 L61.1293891,57.3891301 Z M52.8070248,55.8544415 L48.8121207,68.6837569 C46.6275514,67.8003075 44.5981145,66.5722406 42.8044939,65.0493951 L42.806,65.051 L52.8070248,55.8544415 Z M63.1350978,53.4312368 L76.6733635,57.9587341 C75.531211,60.3012135 73.982995,62.421037 72.1046089,64.2155829 L72.1046089,64.2155829 L63.1350978,53.4312368 Z M48.9732769,53.8508893 L39.9574499,62.1416998 C39.7100274,61.8504432 39.5764336,61.6912239 39.4483918,61.530577 L39.4483918,61.530577 L35.9421911,56.7076938 L48.9732769,53.8508893 Z M79.2033854,47.2131727 L78.8207599,50.6415146 C78.6910934,51.8044043 78.4704454,52.9549492 78.1627681,54.0762292 L78.1627681,54.0762292 L66.0345522,50.100426 L79.2033854,47.2131727 Z M4.59991119,51.268304 C4.88504201,51.268304 5.14310311,51.3843937 5.32993163,51.5718508 C5.51736698,51.7599168 5.63315502,52.019767 5.63315502,52.3067065 C5.63315502,52.593646 5.51736698,52.8534962 5.32993163,53.0415622 C5.14310311,53.2290193 4.88504201,53.345109 4.59991119,53.345109 C4.31478036,53.345109 4.05671926,53.2290193 3.86989074,53.0415622 C3.68245539,52.8534962 3.56666735,52.593646 3.56666735,52.3067065 C3.56666735,52.019767 3.68245539,51.7599168 3.86989074,51.5718508 C4.05671926,51.3843937 4.31478036,51.268304 4.59991119,51.268304 Z M15.3329774,49.7299015 C15.6181082,49.7299015 15.8761693,49.8459912 16.0629978,50.0334483 C16.2504332,50.2215143 16.3662212,50.4813645 16.3662212,50.768304 C16.3662212,51.0552435 16.2504332,51.3150937 16.0629978,51.5031597 C15.8761693,51.6906168 15.6181082,51.8067065 15.3329774,51.8067065 C15.0478466,51.8067065 14.7897855,51.6906168 14.6029569,51.5031597 C14.4155216,51.3150937 14.2997336,51.0552435 14.2997336,50.768304 C14.2997336,50.4813645 14.4155216,50.2215143 14.6029569,50.0334483 C14.7897855,49.8459912 15.0478466,49.7299015 15.3329774,49.7299015 Z M9.19982237,46.6529163 C9.48495319,46.6529163 9.7430143,46.7690059 9.92984282,46.9564631 C10.1172782,47.144529 10.2330662,47.4043792 10.2330662,47.6913188 C10.2330662,47.9782583 10.1172782,48.2381085 9.92984282,48.4261745 C9.7430143,48.6136316 9.48495319,48.7297212 9.19982237,48.7297212 C8.91469155,48.7297212 8.65663045,48.6136316 8.46980192,48.4261745 C8.28236658,48.2381085 8.16657854,47.9782583 8.16657854,47.6913188 C8.16657854,47.4043792 8.28236658,47.144529 8.46980192,46.9564631 C8.65663045,46.7690059 8.91469155,46.6529163 9.19982237,46.6529163 Z M1.53324383,45.1145138 C1.81837466,45.1145138 2.07643576,45.2306035 2.26326428,45.4180606 C2.45069963,45.6061266 2.56648767,45.8659767 2.56648767,46.1529163 C2.56648767,46.4398558 2.45069963,46.699706 2.26326428,46.887772 C2.07643576,47.0752291 1.81837466,47.1913188 1.53324383,47.1913188 C1.24811301,47.1913188 0.99005191,47.0752291 0.803223384,46.887772 C0.615788042,46.699706 0.5,46.4398558 0.5,46.1529163 C0.5,45.8659767 0.615788042,45.6061266 0.803223384,45.4180606 C0.99005191,45.2306035 1.24811301,45.1145138 1.53324383,45.1145138 Z M70.8001838,35.8846154 C71.9321506,35.8846154 72.9568778,36.345108 73.6986634,37.0893894 C74.4410558,37.8342796 74.9000919,38.8633753 74.9000919,40 C74.9000919,41.1366247 74.4410558,42.1657204 73.6986634,42.9106106 C72.9568778,43.654892 71.9321506,44.1153846 70.8001838,44.1153846 C69.6682171,44.1153846 68.6434899,43.654892 67.9017043,42.9106106 C67.1593119,42.1657204 66.7002757,41.1366247 66.7002757,40 C66.7002757,38.8633753 67.1593119,37.8342796 67.9017043,37.0893894 C68.6434899,36.345108 69.6682171,35.8846154 70.8001838,35.8846154 Z M11.4447767,32.3459569 L22.9557014,43.8913304 C22.3234213,44.0809945 21.6593742,44.1515832 20.9974442,44.0972112 C18.5500267,43.7525585 16.3033103,42.5490172 14.6558349,40.7002533 C12.607174,38.9326325 11.3890281,36.4696206 11.2328411,33.8297485 C11.2327692,33.3263269 11.3044866,32.826752 11.4447767,32.3459569 L11.4447767,32.3459569 Z M4.59991119,40.4991261 C4.88504201,40.4991261 5.14310311,40.6152157 5.32993163,40.8026729 C5.51736698,40.9907388 5.63315502,41.250589 5.63315502,41.5375286 C5.63315502,41.8244681 5.51736698,42.0843183 5.32993163,42.2723843 C5.14310311,42.4598414 4.88504201,42.575931 4.59991119,42.575931 C4.31478036,42.575931 4.05671926,42.4598414 3.86989074,42.2723843 C3.68245539,42.0843183 3.56666735,41.8244681 3.56666735,41.5375286 C3.56666735,41.250589 3.68245539,40.9907388 3.86989074,40.8026729 C4.05671926,40.6152157 4.31478036,40.4991261 4.59991119,40.4991261 Z M16.152179,28.3369445 L19.4759626,31.6719111 L26.9399281,39.1609893 L25.8346521,41.0095983 L14.3058006,29.4474743 L16.152179,28.3369445 Z M57.0004596,32.8076923 C58.1324263,32.8076923 59.1571535,33.2681849 59.8989391,34.0124663 C60.6413315,34.7573565 61.1003676,35.7864522 61.1003676,36.9230769 C61.1003676,38.0597016 60.6413315,39.0887973 59.8989391,39.8336876 C59.1571535,40.5779689 58.1324263,41.0384615 57.0004596,41.0384615 C55.8684928,41.0384615 54.8437656,40.5779689 54.10198,39.8336876 C53.3595876,39.0887973 52.9005515,38.0597016 52.9005515,36.9230769 C52.9005515,35.7864522 53.3595876,34.7573565 54.10198,34.0124663 C54.8437656,33.2681849 55.8684928,32.8076923 57.0004596,32.8076923 Z M19.7206262,23.2112182 L32.0587112,35.5892804 L30.5854121,37.0509911 L18.2581274,24.6735332 L19.7206262,23.2112182 Z M54.6659589,17.580379 C54.7372219,18.2315394 54.6364767,18.8787555 54.3886405,19.4631701 C54.084823,20.1795922 53.5599301,20.8016603 52.8674994,21.2161702 L52.8674994,21.2161702 L34.1869156,31.9483912 L29.5512445,27.3023172 C31.1756775,26.7935083 32.8804916,26.5822901 34.5837425,26.6811493 C35.1788009,26.7011546 35.74346,26.4753462 36.1534568,26.0582802 C37.4187424,24.7680762 38.9373484,23.7554739 40.612921,23.0847608 C42.4541,22.2983057 44.4407991,21.9545337 46.4264049,22.0762739 C46.82846,22.1080115 47.2208536,22.0191204 47.5604813,21.833159 C47.9015987,21.646382 48.1895004,21.3616552 48.380333,21.0027298 C49.3103876,19.2525046 51.7663083,17.9909239 54.6659589,17.580379 Z M75.4000919,20.5 C76.5320587,20.5 77.5567858,20.9604926 78.2985715,21.704774 C79.0409639,22.4496642 79.5,23.4787599 79.5,24.6153846 C79.5,25.7520093 79.0409639,26.781105 78.2985715,27.5259953 C77.5567858,28.2702766 76.5320587,28.7307692 75.4000919,28.7307692 C74.2681251,28.7307692 73.243398,28.2702766 72.5016124,27.5259953 C71.75922,26.781105 71.3001838,25.7520093 71.3001838,24.6153846 C71.3001838,23.4787599 71.75922,22.4496642 72.5016124,21.704774 C73.243398,20.9604926 74.2681251,20.5 75.4000919,20.5 Z M36.1237504,0.678664041 C36.9771901,0.405712906 37.9274456,0.437607985 38.8003034,0.830320212 C42.0933556,2.5714804 45.0725329,4.85391754 47.6140627,7.58272746 C49.5615249,9.47369749 51.2980037,11.5361725 52.8146606,13.7566202 C49.9937119,14.2937989 47.4292808,15.7725802 45.5444179,17.9605675 C43.3194871,17.9775277 41.1193229,18.4355743 39.0779377,19.3064505 C37.1745503,20.0799187 35.4229482,21.1845574 33.903408,22.5686665 C31.3166268,22.4915319 28.749531,23.03315 26.4137285,24.1477368 L26.4137285,24.1477368 L23.3420464,21.0709588 L34.0217997,2.36637386 C34.5074225,1.53420234 35.266737,0.952758096 36.1237504,0.678664041 Z" stroke="#1F1E1E" fill="#1F1E1E"></path>
        </g>
    </g>
</svg>