<?xml version="1.0" encoding="UTF-8"?>
<svg width="80px" height="80px" viewBox="0 0 80 80" version="1.1" xmlns="http://www.w3.org/2000/svg" xmlns:xlink="http://www.w3.org/1999/xlink">
    <title>9EAE25E8-A1EA-45DE-861E-5D02FF5B85EF</title>
    <g id="🧬-Symbols" stroke="none" stroke-width="1" fill="none" fill-rule="evenodd">
        <g id="icons/unknown-item">
            <rect id="icon-space" x="0" y="0" width="80" height="80"></rect>
            <path d="M77.65625,59.8580247 C78.1647308,59.8580247 78.6248245,60.0669267 78.9579714,60.4038575 C79.2931507,60.7428437 79.5,61.2112719 79.5,61.7283951 C79.5,64.4274188 78.4187158,66.8711428 76.6697676,68.6399556 C74.9228271,70.4067378 72.5095908,71.5 69.84375,71.5 L69.84375,71.5 L10.15625,71.5 C7.4903726,71.5 5.07716651,70.4067314 3.33025058,68.639974 C1.5812778,66.8711363 0.5,64.4273817 0.5,61.7283951 C0.5,61.2112719 0.70684935,60.7428437 1.04202859,60.4038575 C1.37517551,60.0669267 1.8352692,59.8580247 2.34375,59.8580247 L2.34375,59.8580247 Z M40,20.3518519 C49.6737943,20.3518519 58.7681759,24.1622075 65.6085183,31.0802426 C71.7774831,37.3192747 75.4448047,45.412692 76.1071479,54.117284 L76.1071479,54.117284 L3.89269603,54.117284 C4.55504519,45.4126915 8.22251689,37.3192747 14.3914817,31.0802426 C21.2318241,24.1622075 30.3262057,20.3518519 40,20.3518519 Z M40,8.5 C41.5871506,8.5 43.0238079,9.15109362 44.0638503,10.2029488 C45.105925,11.2568594 45.75,12.7129431 45.75,14.3209877 L45.75,14.3209877 L45.75,15.005504 C43.8600991,14.7446135 41.9402786,14.6111111 40,14.6111111 C38.0597214,14.6111111 36.1399009,14.7446135 34.25,15.005504 L34.25,15.005504 L34.25,14.3209877 C34.25,12.7129431 34.894075,11.2568594 35.9361497,10.2029488 C36.9761921,9.15109362 38.4128494,8.5 40,8.5 Z" stroke="#1F1E1E" fill="#1F1E1E"></path>
        </g>
    </g>
</svg>