<?xml version="1.0" encoding="UTF-8"?>
<svg width="80px" height="80px" viewBox="0 0 80 80" version="1.1" xmlns="http://www.w3.org/2000/svg" xmlns:xlink="http://www.w3.org/1999/xlink">
    <title>B01751C3-7DDD-4EFD-8039-7EDB3E1423C5</title>
    <g id="🧬-Symbols" stroke="none" stroke-width="1" fill="none" fill-rule="evenodd">
        <g id="icons/power">
            <rect id="icon-space" x="0" y="0" width="80" height="80"></rect>
            <path d="M52.1526429,13.6585806 C53.1882143,11.779871 55.573381,11.0843871 57.4800476,12.1047742 C69.3147381,18.4394839 76.6666667,30.6116129 76.6666667,43.8709677 C76.6666667,63.7925161 60.218,80 40,80 C19.782,80 3.33333333,63.7925161 3.33333333,43.8709677 C3.33333333,30.6694194 10.638119,18.5225806 22.3965952,12.1708387 C24.2988095,11.1432258 26.6868571,11.8299355 27.7300238,13.7045161 C28.7729286,15.5790968 28.0762619,17.932129 26.1735238,18.9597419 C16.9316905,23.952 11.1904762,33.4972903 11.1904762,43.8709677 C11.1904762,59.5236129 24.1144286,72.2580645 40,72.2580645 C55.8855714,72.2580645 68.8095238,59.5236129 68.8095238,43.8709677 C68.8095238,33.451871 63.031119,23.8867097 53.7293095,18.907871 C51.8229048,17.8872258 51.1168095,15.5370323 52.1526429,13.6585806 Z M40,3.55271368e-14 C42.169619,3.55271368e-14 43.9285714,1.73316129 43.9285714,3.87096774 L43.9285714,3.87096774 L43.9285714,29.6774194 C43.9285714,31.8152258 42.169619,33.5483871 40,33.5483871 C37.830381,33.5483871 36.0714286,31.8152258 36.0714286,29.6774194 L36.0714286,29.6774194 L36.0714286,3.87096774 C36.0714286,1.73316129 37.830381,3.55271368e-14 40,3.55271368e-14 Z" id="Combined-Shape" fill="#1F1E1E" fill-rule="nonzero"></path>
        </g>
    </g>
</svg>