<?xml version="1.0" encoding="UTF-8"?>
<svg width="80px" height="80px" viewBox="0 0 80 80" version="1.1" xmlns="http://www.w3.org/2000/svg" xmlns:xlink="http://www.w3.org/1999/xlink">
    <title>9DF8F11B-373B-4EA8-B517-C9F9E78D23BF</title>
    <g id="🧬-Symbols" stroke="none" stroke-width="1" fill="none" fill-rule="evenodd">
        <g id="icons/chicken-rings">
            <rect id="icon-space" x="0" y="0" width="80" height="80"></rect>
            <path d="M72.774423,33.8534948 C74.0851787,34.0243855 74.8105298,34.4796314 75.3011997,35.114447 C75.7522056,35.6979464 76.0051069,36.4331216 75.9783359,37.2089995 L75.9640394,37.4215283 L70.8992507,76.7561666 C70.7800416,77.5148294 70.4040871,78.1777272 69.868262,78.6618081 C69.3851331,79.0982816 68.7720643,79.3894713 68.1000355,79.4743267 L67.8739395,79.4948861 L12.7491007,79.5 C11.9787489,79.5 11.2636925,79.2299221 10.7016475,78.7734359 C10.1976224,78.3640727 9.81656429,77.8048455 9.62910686,77.1560378 L9.57388834,76.9365335 L4.49923664,37.6055421 C4.4730266,37.4387459 4.45986246,37.2701632 4.45986246,37.1013266 C4.45986246,36.2043848 4.82341995,35.3923564 5.41121288,34.8045635 C5.98967803,34.2260984 6.78531826,33.8648083 7.66786211,33.8536952 C22.1328924,36.3537841 32.9836363,37.6013266 40.2198111,37.6013266 C47.456428,37.6013266 58.3080557,36.3536317 72.774423,33.8534948 Z M38.3931071,50.5222982 C36.4293959,50.5222982 34.5792645,51.1992565 33.1028411,52.4517554 C31.701872,53.640244 30.6351444,55.3493259 30.1390492,57.4987421 L30.1390492,57.4987421 L26.0251262,73.8333333 L43.4235335,73.8333333 L43.48,70.666 L43.5972753,72.4237517 L43.7802924,72.5541453 C44.4042986,72.9720397 45.1653044,73.2198385 45.9886068,73.2198385 C47.0472459,73.2198385 48.004562,72.8124418 48.697949,72.157287 C49.4018893,71.4921609 49.8345744,70.5725341 49.8345744,69.5583623 C49.8345744,68.227597 48.5563592,65.332537 47.0920269,63.8105053 C46.9155098,63.6270328 46.7189517,63.4454922 46.50742,63.2679935 L46.608,63.355 L54.3861243,59.1582492 L45.1911342,54.1959028 C46.0698297,55.4930331 46.6703909,57.04163 46.8848512,58.7285991 C46.6141332,56.6422162 45.743736,54.7744547 44.4794527,53.3521432 C42.9218175,51.5998123 40.7681433,50.5222982 38.3931071,50.5222982 Z M46.7688689,62.1895627 C46.7106879,62.5342227 46.637319,62.9280176 46.5455092,63.3896134 L46.56,63.313 L46.50742,63.2679935 C46.4714686,63.3876875 46.4332737,63.5066755 46.3928419,63.6250194 L46.2648421,63.978181 C45.6901325,65.4772887 44.7798934,66.8030346 43.3078103,68.0832144 L43.529,67.884 L43.5313614,67.7885689 L43.7517164,67.5977883 C45.2018712,66.2997355 46.2706108,64.4821738 46.7272994,62.393339 Z M40.1761068,56.5990804 C40.7087447,56.5990804 41.1908423,56.8373441 41.5505422,57.2167389 C41.8406609,57.5227428 42.0522377,57.9199673 42.152142,58.3664465 C42.0203119,57.9773682 41.8373154,57.6419537 41.604495,57.3805566 C41.2301163,56.9602262 40.7261582,56.7240804 40.1761068,56.7240804 C39.6388238,56.7240804 39.1460092,56.9509587 38.7771587,57.3307991 C38.6987282,57.4115664 38.6259716,57.499319 38.5597648,57.5931891 L38.543,57.618 L38.5510923,57.5991401 C38.5965849,57.5045167 38.6568785,57.4140671 38.7245946,57.3293474 L38.7945116,57.2465953 C39.1542765,56.8423525 39.6393112,56.5990804 40.1761068,56.5990804 Z M42.5152995,42.8333333 C41.1308313,42.8333333 39.8696952,43.4420192 38.9419831,44.4420208 C38.2098791,43.6650651 37.2219244,43.1933645 36.1379394,43.1933645 C34.9932189,43.1933645 33.9545008,43.716145 33.2118868,44.6074183 C32.6362566,45.2982804 32.2387714,46.2139045 32.121802,47.273597 C31.905559,47.2266991 31.6822356,47.2019552 31.4537354,47.2019552 C30.4946173,47.2019552 29.6228272,47.6338237 28.9930945,48.3422828 C28.3834323,49.0281622 28.00236,49.9746507 28.00236,51.0222982 C28.00236,51.9231974 28.2842532,52.7492973 28.7510035,53.3987093 C29.2400537,54.0791483 29.9314416,54.5655817 31.2650782,54.5239577 C32.0875581,53.141405 33.2531864,52.0402565 34.6297424,51.3228507 C35.7652031,50.7310883 37.0416075,50.3972982 38.3931071,50.3972982 C38.6163623,50.3972982 38.8368369,50.4102364 39.0558467,50.4292718 C41.1991048,50.6158335 43.119648,51.697637 45.1912547,53.42344 C46.6576601,52.4248883 47.6519369,50.6226408 47.6519369,48.5495732 C47.6519369,46.9783752 47.0822346,45.5579185 46.1676045,44.5289552 C45.2328961,43.4774036 43.9397856,42.8333333 42.5152995,42.8333333 Z M40,0.5 C45.442873,0.5 50.2574275,3.18981196 53.1872366,7.31246631 C54.658486,7.28509771 55.6487429,7.16666667 56.6666667,7.16666667 C60.2104938,7.16666667 63.4188271,8.60308643 65.7412037,10.925463 C68.0635802,13.2478395 69.5,16.4561729 69.5,20 C69.5,23.5438271 68.0635802,26.7521605 65.7412037,29.074537 C63.4188271,31.3969136 60.2104938,32.8333333 56.6666667,32.8333333 C53.853187,32.8333333 51.2511066,31.928076 49.1360205,30.3927055 C46.0909992,31.9321641 43.1507235,32.8333333 40,32.8333333 C36.8494336,32.8333333 33.9092943,31.9322514 31.4234641,30.3734448 C28.7495035,31.9278697 26.1471409,32.8333333 23.3333333,32.8333333 C19.7895062,32.8333333 16.5811729,31.3969136 14.2587963,29.074537 C11.9364198,26.7521605 10.5,23.5438271 10.5,20 C10.5,16.4561729 11.9364198,13.2478395 14.2587963,10.925463 C16.5811729,8.60308643 19.7895062,7.16666667 23.3333333,7.16666667 C24.3510846,7.16666667 25.3411789,7.28506016 26.2905661,7.50893827 C29.7425663,3.18980973 34.5571251,0.5 40,0.5 Z M23.3333333,12.8333333 C21.354313,12.8333333 19.5626463,13.6354898 18.2657347,14.9324014 C16.9688232,16.229313 16.1666667,18.0209796 16.1666667,20 C16.1666667,21.9790204 16.9688232,23.770687 18.2657347,25.0675986 C19.5626463,26.3645102 21.354313,27.1666667 23.3333333,27.1666667 C24.4380676,27.1666667 25.4843679,26.9165441 26.4188662,26.4701488 C26.5952253,26.3859047 26.7686492,26.2941704 26.9386308,26.1949973 C26.829026,26.0444571 26.7216153,25.8920817 26.6169283,25.7379947 C24.8595595,23.1513539 23.8333333,20.0288365 23.8333333,16.6666667 C23.8333333,16.2897773 23.8461271,15.9158561 23.8587227,15.5449808 C23.8847858,14.7775616 23.9087652,14.0226979 23.3333333,12.8333333 Z M56.3333437,12.8414724 C56.1250773,12.8418946 55.9194548,12.8498751 55.7167095,12.8651243 C55.7626964,13.0567379 55.8053388,13.2487234 55.844348,13.4409239 C56.0559791,14.4836438 56.1666667,15.5622265 56.1666667,16.6666667 C56.1666667,20.0288634 55.1404277,23.1514038 53.383828,25.7379144 C53.2794012,25.8916779 53.1722619,26.0437406 53.0624448,26.1940217 C53.232267,26.2937521 53.4055069,26.3855725 53.5816453,26.4698528 C54.514672,26.916296 55.5614215,27.1666667 56.6666667,27.1666667 C58.645687,27.1666667 60.4373537,26.3645102 61.7342653,25.0675986 C63.0311768,23.770687 63.8333333,21.9790204 63.8333333,20 C63.8333333,17.9993131 63.0141649,16.1901016 61.6474818,14.8898973 C60.3153489,13.6225626 58.4606735,12.8371596 56.3333437,12.8414724 Z M40,7.83333333 C37.2333699,7.83333333 34.7637465,9.10518198 33.1497516,11.7340549 C35.0327549,13.9674156 36.1666667,16.8513011 36.1666667,20 C36.1666667,21.3438072 35.9602418,22.6393986 35.8164993,24.4467352 C37.0609729,25.118931 38.4859702,25.5 40,25.5 C41.513723,25.5 42.9384563,25.1190876 44.4235318,23.8577657 C44.0398547,22.6399962 43.8333333,21.3441173 43.8333333,20 C43.8333333,16.8512829 44.9672488,13.9673791 46.8548662,11.096956 C45.2364283,9.10528057 42.76674,7.83333333 40,7.83333333 Z" stroke="#1F1E1E" fill="#1F1E1E"></path>
        </g>
    </g>
</svg>