<?xml version="1.0" encoding="UTF-8"?>
<svg width="80px" height="80px" viewBox="0 0 80 80" version="1.1" xmlns="http://www.w3.org/2000/svg" xmlns:xlink="http://www.w3.org/1999/xlink">
    <title>2E33519C-550C-4848-8F5B-79E5670A0470</title>
    <g id="🧬-Symbols" stroke="none" stroke-width="1" fill="none" fill-rule="evenodd">
        <g id="icons/ellipsis-vertical">
            <rect id="icon-space" x="0" y="0" width="80" height="80"></rect>
            <path d="M40,60.5 C42.6233526,60.5 44.9983526,61.5633237 46.7175144,63.2824856 C48.4366763,65.0016474 49.5,67.3766474 49.5,70 C49.5,72.6233526 48.4366763,74.9983526 46.7175144,76.7175144 C44.9983526,78.4366763 42.6233526,79.5 40,79.5 C37.3766474,79.5 35.0016474,78.4366763 33.2824856,76.7175144 C31.5633237,74.9983526 30.5,72.6233526 30.5,70 C30.5,67.3766474 31.5633237,65.0016474 33.2824856,63.2824856 C35.0016474,61.5633237 37.3766474,60.5 40,60.5 Z M40,30.5 C42.6233526,30.5 44.9983526,31.5633237 46.7175144,33.2824856 C48.4366763,35.0016474 49.5,37.3766474 49.5,40 C49.5,42.6233526 48.4366763,44.9983526 46.7175144,46.7175144 C44.9983526,48.4366763 42.6233526,49.5 40,49.5 C37.3766474,49.5 35.0016474,48.4366763 33.2824856,46.7175144 C31.5633237,44.9983526 30.5,42.6233526 30.5,40 C30.5,37.3766474 31.5633237,35.0016474 33.2824856,33.2824856 C35.0016474,31.5633237 37.3766474,30.5 40,30.5 Z M40,0.5 C42.6233526,0.5 44.9983526,1.56332372 46.7175144,3.28248558 C48.4366763,5.00164744 49.5,7.37664744 49.5,10 C49.5,12.6233526 48.4366763,14.9983526 46.7175144,16.7175144 C44.9983526,18.4366763 42.6233526,19.5 40,19.5 C37.3766474,19.5 35.0016474,18.4366763 33.2824856,16.7175144 C31.5633237,14.9983526 30.5,12.6233526 30.5,10 C30.5,7.37664744 31.5633237,5.00164744 33.2824856,3.28248558 C35.0016474,1.56332372 37.3766474,0.5 40,0.5 Z" stroke="#1F1E1E" fill="#1F1E1E"></path>
        </g>
    </g>
</svg>