<?xml version="1.0" encoding="UTF-8"?>
<svg width="80px" height="80px" viewBox="0 0 80 80" version="1.1" xmlns="http://www.w3.org/2000/svg" xmlns:xlink="http://www.w3.org/1999/xlink">
    <title>8E063189-BA9E-4A6F-96CD-F14FC789F2AB</title>
    <g id="🧬-Symbols" stroke="none" stroke-width="1" fill="none" fill-rule="evenodd">
        <g id="icons/fish">
            <rect id="icon-space" x="0" y="0" width="80" height="80"></rect>
            <path d="M32.2794569,6.66666667 C32.9809938,6.66666667 33.6856597,6.81719859 34.3734287,7.11446751 C34.4566619,7.15115176 34.5386434,7.19352839 34.6156185,7.24159741 L34.6156185,7.24159741 L48.5568644,15.8807382 C53.2942721,16.2488457 57.8445616,17.5751711 61.9905756,19.6946352 C62.170184,19.7547215 62.337902,19.8470646 62.4943554,19.9615448 C70.2344159,24.0714457 76.5132021,30.9655548 79.8694396,39.5661139 C80.0434157,40.0132822 80.0434157,40.5110495 79.8700654,40.9588504 C76.5382347,49.4974258 70.4033856,56.3093115 62.8153977,60.4211099 C62.7797263,60.440717 62.747184,60.4615891 62.7115126,60.4792987 C58.1074032,62.9535881 52.9732298,64.4367703 47.605628,64.7093722 L47.605628,64.7093722 L34.6156185,72.7584026 C34.5386434,72.8071041 34.4572877,72.8494807 34.3734287,72.8855325 C33.6856597,73.1828014 32.9809938,73.3333333 32.2794569,73.3333333 L32.2794569,73.3333333 C29.4351349,73.3333333 27.2898464,70.9336774 27.2898464,67.751635 C27.2898464,66.0831341 27.9350601,63.7657015 29.2542748,60.7000367 C23.5750179,57.7444246 18.7837902,53.3631867 15.2429378,47.8902761 L15.2429378,47.8902761 L5.97338923,53.6345237 C5.89578837,53.6825927 5.81443262,53.7243368 5.73057362,53.7610211 C5.18048361,53.9988362 4.61412245,54.1196413 4.04713548,54.1196413 C1.73976135,54.1196413 0,52.1994105 0,49.6530176 C0,46.969375 2.32489691,42.3952285 3.49454222,40.2624821 C2.32489691,38.1297357 0,33.5549568 0,30.8713142 C0,28.3249213 1.73976135,26.4046905 4.04713548,26.4046905 C4.61412245,26.4046905 5.1798578,26.5254956 5.73057362,26.7633107 C5.81443262,26.7999949 5.89578837,26.8423716 5.97338923,26.8904406 L5.97338923,26.8904406 L15.2448153,32.6359531 C18.8000614,27.16494 23.7471166,22.6679569 29.441393,19.7300545 C27.9951382,16.453139 27.2898464,13.9959268 27.2898464,12.248365 C27.2898464,9.06632259 29.4351349,6.66666667 32.2794569,6.66666667 Z M61.5643966,23.7659545 C56.8150985,27.7386057 54.0120801,33.7023263 54.0120801,39.9538284 C54.0120801,46.4399833 56.9890746,52.544116 62.0287502,56.5148698 C68.188006,52.8951463 73.1945135,47.2514642 76.0957846,40.2624821 C73.1381903,33.1444727 67.9408097,27.385678 61.5643966,23.7659545 Z M65.0614421,31.7441463 C66.7911904,31.7441463 68.198019,33.1659773 68.198019,34.9141715 C68.198019,36.6623658 66.7911904,38.0841967 65.0614421,38.0841967 C63.3316937,38.0841967 61.9248651,36.6623658 61.9248651,34.9141715 C61.9248651,33.1659773 63.3316937,31.7441463 65.0614421,31.7441463 Z" id="icons/warning" fill="#1F1E1E" fill-rule="nonzero"></path>
        </g>
    </g>
</svg>