<?xml version="1.0" encoding="UTF-8"?>
<svg width="80px" height="80px" viewBox="0 0 80 80" version="1.1" xmlns="http://www.w3.org/2000/svg" xmlns:xlink="http://www.w3.org/1999/xlink">
    <title>844DA991-6393-485B-B307-A4FC14234670</title>
    <g id="🧬-Symbols" stroke="none" stroke-width="1" fill="none" fill-rule="evenodd">
        <g id="icons/home" transform="translate(0.000000, 0.000000)">
            <rect id="icon-space" x="0" y="0" width="80" height="80"></rect>
            <path d="M77.8510378,34.7961425 C77.8492067,34.7943116 77.8473754,34.7924805 77.8455441,34.7906494 L45.2085494,2.15820312 C43.8174163,0.766601562 41.9678624,0 40.0004986,0 C38.0331351,0 36.1835812,0.76599125 34.7918377,2.15759281 L2.17193455,34.7735595 C2.16094703,34.7845459 2.1499595,34.7961425 2.13897213,34.8071289 C-0.71776447,37.6800537 -0.71288116,42.3413086 2.15301169,45.2069092 C3.46234926,46.5167236 5.19165152,47.2753906 7.04059505,47.3547362 C7.11567583,47.3620606 7.19136714,47.3657227 7.26766883,47.3657227 L8.56846069,47.3657227 L8.56846069,71.3812256 C8.56846069,76.1334228 12.4354322,80 17.1893349,80 L29.9579709,80 C31.2520482,80 32.3019599,78.9508056 32.3019599,77.65625 L32.3019599,58.828125 C32.3019599,56.6595459 34.0660557,54.8956298 36.2348559,54.8956298 L43.7661415,54.8956298 C45.9349417,54.8956298 47.6990377,56.6595459 47.6990377,58.828125 L47.6990377,77.65625 C47.6990377,78.9508056 48.7483389,80 50.0430267,80 L62.8116626,80 C67.5655653,80 71.4325367,76.1334228 71.4325367,71.3812256 L71.4325367,47.3657227 L72.6387144,47.3657227 C74.6054676,47.3657227 76.4550215,46.5997314 77.8473754,45.2081298 C80.7163202,42.3376466 80.717541,37.668457 77.8510378,34.7961425 L77.8510378,34.7961425 Z" fill="#1F1E1E"></path>
        </g>
    </g>
</svg>