<?xml version="1.0" encoding="UTF-8"?>
<svg width="80px" height="80px" viewBox="0 0 80 80" version="1.1" xmlns="http://www.w3.org/2000/svg" xmlns:xlink="http://www.w3.org/1999/xlink">
    <title>E2AF8A52-4152-48AD-B03D-DE28E69010E3</title>
    <g id="🧬-Symbols" stroke="none" stroke-width="1" fill="none" fill-rule="evenodd">
        <g id="icons/product-levels">
            <rect id="icon-space" x="0" y="0" width="80" height="79.9038527"></rect>
            <path d="M21.3181818,58.7477341 L21.3181818,76.3746224 C21.3181818,77.2381996 20.9677138,78.0193818 20.4007092,78.5846735 C19.8331564,79.1505116 19.0487783,79.5 18.1818182,79.5 L18.1818182,79.5 L3.63636364,79.5 C2.76940353,79.5 1.9850254,79.1505116 1.41747266,78.5846735 C0.850467985,78.0193818 0.5,77.2381996 0.5,76.3746224 L0.5,76.3746224 L0.5,58.7477341 L21.3181818,58.7477341 Z M79.5,45.7477341 L79.5,76.3746224 C79.5,77.2381996 79.149532,78.0193818 78.5825273,78.5846735 C78.0149746,79.1505116 77.2305965,79.5 76.3636364,79.5 L76.3636364,79.5 L61.8181818,79.5 C60.9512217,79.5 60.1668436,79.1505116 59.5992908,78.5846735 C59.0322862,78.0193818 58.6818182,77.2381996 58.6818182,76.3746224 L58.6818182,76.3746224 L58.6818182,45.7477341 L79.5,45.7477341 Z M50.4090909,29.744713 L50.4090909,76.3746224 C50.4090909,77.2381996 50.0586229,78.0193818 49.4916183,78.5846735 C48.9240655,79.1505116 48.1396874,79.5 47.2727273,79.5 L47.2727273,79.5 L32.7272727,79.5 C31.8603126,79.5 31.0759345,79.1505116 30.5083817,78.5846735 C29.9413771,78.0193818 29.5909091,77.2381996 29.5909091,76.3746224 L29.5909091,76.3746224 L29.5909091,29.744713 L50.4090909,29.744713 Z M18.1818182,0.5 C19.0487783,0.5 19.8331564,0.849488446 20.4007092,1.41532653 C20.9677138,1.9806182 21.3181818,2.76180035 21.3181818,3.62537764 L21.3181818,3.62537764 L21.3181818,50.4969789 L0.5,50.4969789 L0.5,3.62537764 C0.5,2.76180035 0.850467985,1.9806182 1.41747266,1.41532653 C1.9850254,0.849488446 2.76940353,0.5 3.63636364,0.5 L3.63636364,0.5 Z M76.3636364,0.5 C77.2305965,0.5 78.0149746,0.849488446 78.5825273,1.41532653 C79.149532,1.9806182 79.5,2.76180035 79.5,3.62537764 L79.5,3.62537764 L79.5,37.4969789 L58.6818182,37.4969789 L58.6818182,3.62537764 C58.6818182,2.76180035 59.0322862,1.9806182 59.5992908,1.41532653 C60.1668436,0.849488446 60.9512217,0.5 61.8181818,0.5 L61.8181818,0.5 Z M47.2727273,0.5 C48.1396874,0.5 48.9240655,0.849488446 49.4916183,1.41532653 C50.0586229,1.9806182 50.4090909,2.76180035 50.4090909,3.62537764 L50.4090909,3.62537764 L50.4090909,21.4939577 L29.5909091,21.4939577 L29.5909091,3.62537764 C29.5909091,2.76180035 29.9413771,1.9806182 30.5083817,1.41532653 C31.0759345,0.849488446 31.8603126,0.5 32.7272727,0.5 L32.7272727,0.5 Z" stroke="#1F1E1E" fill="#1F1E1E"></path>
        </g>
    </g>
</svg>