<?xml version="1.0" encoding="UTF-8"?>
<svg width="80px" height="80px" viewBox="0 0 80 80" version="1.1" xmlns="http://www.w3.org/2000/svg" xmlns:xlink="http://www.w3.org/1999/xlink">
    <title>DC1C41F4-E702-46BD-B8F2-5BD685C97DBB</title>
    <g id="🧬-Symbols" stroke="none" stroke-width="1" fill="none" fill-rule="evenodd">
        <g id="icons/potato-rounds">
            <rect id="icon-space" x="0" y="0" width="80" height="80"></rect>
            <path d="M72.774423,33.8534948 C74.0851787,34.0243855 74.8105298,34.4796314 75.3011997,35.114447 C75.7522056,35.6979464 76.0051069,36.4331216 75.9783359,37.2089995 L75.9640394,37.4215283 L70.8992507,76.7561666 C70.7800416,77.5148294 70.4040871,78.1777272 69.868262,78.6618081 C69.3851331,79.0982816 68.7720643,79.3894713 68.1000355,79.4743267 L67.8739395,79.4948861 L12.7491007,79.5 C11.9787489,79.5 11.2636925,79.2299221 10.7016475,78.7734359 C10.1976224,78.3640727 9.81656429,77.8048455 9.62910686,77.1560378 L9.57388834,76.9365335 L4.49923664,37.6055421 C4.4730266,37.4387459 4.45986246,37.2701632 4.45986246,37.1013266 C4.45986246,36.2043848 4.82341995,35.3923564 5.41121288,34.8045635 C5.98967803,34.2260984 6.78531826,33.8648083 7.66786211,33.8536952 C22.1328924,36.3537841 32.9836363,37.6013266 40.2198111,37.6013266 C47.456428,37.6013266 58.3080557,36.3536317 72.774423,33.8534948 Z M36.4391554,42.8333333 C33.7742873,42.8333333 31.2822875,43.8428659 29.4209047,45.6728608 C27.6530553,47.4108489 26.5461801,49.7833495 26.3088686,52.3556621 C26.2046162,53.4857648 26.1594185,54.5000072 26.1646804,55.4348958 L26.1646804,55.4348958 L29.8884053,55.4348958 L29.8884053,56.1927083 L26.1810553,56.1927083 L26.2062527,56.7032183 C26.3494257,59.0501288 26.8480298,60.9158311 27.5861686,62.9455091 C27.9000432,63.8085433 28.2757651,64.6490082 28.7035389,65.4544271 L28.7035389,65.4544271 L32.9135951,65.4544271 L32.9135951,66.2122396 L29.1276491,66.2122396 L29.4082246,66.6734718 C30.2672997,68.042365 31.2806318,69.2752469 32.3974249,70.2971012 C34.9296455,72.6140545 37.9599954,73.8333333 41.1570044,73.8333333 C44.6487726,73.8333333 47.8141218,72.483712 50.1071342,70.3075446 C52.4098599,68.122159 53.8333333,65.1041463 53.8333333,61.777474 C53.8333333,61.1181305 53.7769088,60.4660297 53.6680399,59.8255208 L53.6680399,59.8255208 L50.3364512,59.8255208 L50.3364512,59.0677083 L53.5120031,59.0677083 L53.4048263,58.6570767 C53.0223923,57.295115 52.3886573,56.0029246 51.5180448,54.8305657 C50.2123685,53.072332 48.4634372,51.6938314 46.4233693,50.8087218 C46.0424261,48.7345876 44.957368,46.8330782 43.3084788,45.3862175 C41.4337052,43.7410907 38.9945359,42.8333333 36.4391554,42.8333333 Z M43.9857072,64.5755208 L43.9857072,65.3333333 L43.1335124,65.3333333 L43.1335124,64.5755208 L43.9857072,64.5755208 Z M42.0100327,56.4505013 L42.0100327,57.2083138 L41.1578379,57.2083138 L41.1578379,56.4505013 L42.0100327,56.4505013 Z M35.753689,50.2005404 L35.753689,50.9583529 L34.9014941,50.9583529 L34.9014941,50.2005404 L35.753689,50.2005404 Z M54.3362489,16.5858736 C57.6051912,16.5858736 60.826167,18.0092447 62.9684604,20.3795356 C65.0428247,22.674668 66.1009261,25.8551767 66.163589,28.9554977 C65.6023799,29.2581615 65.2678637,29.3854906 64.8397388,29.5270204 C64.0585569,29.785264 62.9786689,30.0901275 61.5569445,30.4137694 C59.9627993,30.7766614 57.6185055,31.1613198 55.3524925,31.531181 C55.1864083,31.5582895 55.0079161,31.5879116 54.8176803,31.6194833 C53.5767828,31.8254241 51.8319913,32.1151693 49.7707922,32.3287951 C48.5561749,32.4546799 46.4703594,32.615643 43.5134106,32.8119107 C42.8661872,31.3842763 42.5060985,29.8054604 42.5060985,28.1458314 C42.5060985,24.9599491 43.8321463,22.0717384 45.9711882,19.9795697 C48.1142886,17.8834314 51.073348,16.5858736 54.3362489,16.5858736 Z M57.8332004,25.4881572 C57.1696249,25.4881572 56.5179069,25.7748773 56.0476109,26.2348677 C55.581333,26.6909279 55.2972648,27.3104651 55.3276258,27.9731783 C55.3584,28.6452146 55.6433103,29.2635426 56.0984568,29.7087154 C56.5405786,30.141149 57.1427558,30.4124343 57.8332004,30.4124343 C58.496776,30.4124343 59.148494,30.1257142 59.61879,29.6657238 C60.0850679,29.2096636 60.3691361,28.5901264 60.3387751,27.9274131 C60.3080009,27.2553769 60.0230906,26.6370488 59.5679441,26.1918761 C59.1258222,25.7594425 58.5236451,25.4881572 57.8332004,25.4881572 Z M50.9780942,21.4887955 C50.3145187,21.4887955 49.6628007,21.7755156 49.1925047,22.235506 C48.7262268,22.6915663 48.4421586,23.3111034 48.4725196,23.9738167 C48.5032938,24.6458529 48.7882041,25.264181 49.2433506,25.7093538 C49.6854725,26.1417874 50.2876496,26.4130727 50.9780942,26.4130727 C51.6416698,26.4130727 52.2933878,26.1263525 52.7636838,25.6663622 C53.2299617,25.2103019 53.5140299,24.5907648 53.4836689,23.9280515 C53.4528947,23.2560153 53.1679844,22.6376872 52.7128379,22.1925144 C52.270716,21.7600808 51.6685389,21.4887955 50.9780942,21.4887955 Z M25.6636174,16.5858736 C28.9265183,16.5858736 31.8855777,17.8834314 34.0286781,19.9795697 C36.16772,22.0717384 37.4937677,24.9599491 37.4937677,28.1458314 C37.4937677,29.8067508 37.1332349,31.3867329 36.4849658,32.8151381 C34.0101722,32.6745117 32.2160038,32.5491946 31.1024876,32.438876 C29.2274877,32.2531153 27.4235464,31.9750842 26.1343723,31.7765226 C25.850946,31.7328686 25.5921952,31.6930173 25.3627582,31.6587557 C23.2008383,31.3359178 20.9282507,30.9851006 19.2883236,30.6598403 C17.6007639,30.3251327 16.2854765,30.0083321 15.3416645,29.7417135 C14.9388542,29.6279232 14.6053861,29.5238561 14.3412842,29.4311969 C13.9642928,26.2989393 14.9566386,23.4402019 16.7814925,21.1595232 C18.9306567,18.4735258 22.1889512,16.5858736 25.6636174,16.5858736 Z M29.0470942,25.0578607 C28.3835187,25.0578607 27.7318007,25.3445809 27.2615046,25.8045712 C26.7952267,26.2606315 26.5111585,26.8801686 26.5415196,27.5428819 C26.5722937,28.2149181 26.8572041,28.8332462 27.3123505,29.278419 C27.7544724,29.7108526 28.3566496,29.9821379 29.0470942,29.9821379 C29.7106697,29.9821379 30.3623878,29.6954178 30.8326838,29.2354274 C31.2989617,28.7793671 31.5830299,28.15983 31.5526689,27.4971167 C31.5218947,26.8250805 31.2369843,26.2067524 30.7818379,25.7615796 C30.339716,25.329146 29.7375388,25.0578607 29.0470942,25.0578607 Z M22.191988,21.0584991 C21.5284125,21.0584991 20.8766945,21.3452192 20.4063984,21.8052096 C19.9401205,22.2612698 19.6560523,22.880807 19.6864134,23.5435202 C19.7171875,24.2155565 20.0020979,24.8338846 20.4572443,25.2790573 C20.8993662,25.7114909 21.5015434,25.9827762 22.191988,25.9827762 C22.8555635,25.9827762 23.5072816,25.6960561 23.9775776,25.2360657 C24.4438555,24.7800055 24.7279237,24.1604683 24.6975627,23.4977551 C24.6667885,22.8257188 24.3818782,22.2073908 23.9267317,21.762218 C23.4846098,21.3297844 22.8824326,21.0584991 22.191988,21.0584991 Z M39.9998663,0.5 C43.2627671,0.5 46.2218265,1.79755772 48.3649269,3.893696 C50.4098374,5.89379607 51.7117331,8.62141779 51.8221846,11.6408654 C46.8274048,12.5699179 42.5483273,15.4671035 39.9994508,19.5021815 C37.4500272,15.4662465 33.1708166,12.58088 28.1802663,11.8453154 C28.2900557,8.738456 29.5811445,5.96800468 31.6137076,3.94284064 C33.7577239,1.80662923 36.725845,0.5 39.9998663,0.5 Z M43.8002029,7.5609863 C43.1366273,7.5609863 42.4849093,7.84770643 42.0146133,8.30769679 C41.5483354,8.76375705 41.2642672,9.38329419 41.2946282,10.0460075 C41.3254024,10.7180437 41.6103127,11.3363718 42.0654592,11.7815445 C42.5075811,12.2139781 43.1097582,12.4852634 43.8002029,12.4852634 C44.4637784,12.4852634 45.1154964,12.1985433 45.5857925,11.738553 C46.0520703,11.2824927 46.3361385,10.6629556 46.3057775,10.0002423 C46.2750033,9.32820604 45.990093,8.70987797 45.5349465,8.2647052 C45.0928247,7.83227161 44.4906475,7.5609863 43.8002029,7.5609863 Z M36.9450967,3.56162465 C36.2815211,3.56162465 35.6298031,3.84834478 35.1595071,4.30833514 C34.6932292,4.7643954 34.409161,5.38393254 34.439522,6.04664582 C34.4702962,6.71868206 34.7552065,7.33701013 35.210353,7.7821829 C35.6524749,8.21461649 36.2546521,8.4859018 36.9450967,8.4859018 C37.6086722,8.4859018 38.2603902,8.19918167 38.7306863,7.73919131 C39.1969642,7.28313105 39.4810323,6.66359391 39.4506713,6.00088063 C39.4198972,5.32884439 39.1349868,4.71051632 38.6798404,4.26534355 C38.2377185,3.83290996 37.6355413,3.56162465 36.9450967,3.56162465 Z" stroke="#1F1E1E" fill="#1F1E1E"></path>
        </g>
    </g>
</svg>