<?xml version="1.0" encoding="UTF-8"?>
<svg width="80px" height="80px" viewBox="0 0 80 80" version="1.1" xmlns="http://www.w3.org/2000/svg" xmlns:xlink="http://www.w3.org/1999/xlink">
    <title>C9AF5123-7AE9-49E8-B1AC-DB3AD2ADD976</title>
    <g id="🧬-Symbols" stroke="none" stroke-width="1" fill="none" fill-rule="evenodd">
        <g id="icons/server-half">
            <rect id="icon-space" x="0" y="0" width="80" height="79.9038527"></rect>
            <path d="M56.9411765,0.5 C58.7090915,0.5 60.3152227,1.21193944 61.4953436,2.36658882 C62.610143,3.45732648 63.3451523,4.94306109 63.478223,6.59862254 L63.4960655,6.9109755 L63.5,72.8571429 C63.5,74.649114 62.7960868,76.2775901 61.6529381,77.4739405 C60.5769338,78.6000216 59.1115585,79.3433752 57.4781847,79.4779714 L57.1700124,79.4960192 L23.0588235,79.5 C21.2909085,79.5 19.6847773,78.7880606 18.5046564,77.6334112 C17.389857,76.5426735 16.6548477,75.0569389 16.521777,73.4013775 L16.5039345,73.0890245 L16.5,7.14285714 C16.5,5.35088604 17.2039132,3.72240993 18.3470619,2.52605952 C19.4230662,1.39997836 20.8884415,0.656624799 22.5218153,0.522028559 L22.8299876,0.503980822 L56.9411765,0.5 Z M55.5294118,5.21428571 L24.4705882,5.21428571 L24.2488661,5.22167236 C23.4426038,5.27561359 22.713328,5.622477 22.1626971,6.17966301 C21.5816779,6.76759908 21.1981789,7.59248084 21.1470588,8.55777104 L21.1470588,8.55777104 L21.1470588,71.4285714 L21.154352,71.6521823 C21.2076068,72.4652759 21.5499962,73.200342 22.0986423,73.7555197 C22.6815731,74.3453901 23.4996616,74.7339321 24.4566195,74.7857143 L24.4566195,74.7857143 L55.5294118,74.7857143 L55.7511339,74.7783276 C56.5573962,74.7243864 57.286672,74.377523 57.8373029,73.820337 C58.4183221,73.2324009 58.8018211,72.4075192 58.8529412,71.442229 L58.8529412,71.442229 L58.8529412,8.57142857 L58.8452718,8.34214787 C58.7893355,7.50864303 58.4307882,6.75762412 57.8804921,6.20077694 C57.2780375,5.59115026 56.4461274,5.21428571 55.5294118,5.21428571 L55.5294118,5.21428571 Z M54.5085269,40.0801297 L55.0210386,70.4017008 L25.4914731,70.9198703 L24.9789614,40.5982992 L54.5085269,40.0801297 Z" stroke="#1F1E1E" fill="#1F1E1E"></path>
        </g>
    </g>
</svg>