<?xml version="1.0" encoding="UTF-8"?>
<svg width="80px" height="80px" viewBox="0 0 80 80" version="1.1" xmlns="http://www.w3.org/2000/svg" xmlns:xlink="http://www.w3.org/1999/xlink">
    <title>68C4FEFC-3A4C-4DAC-BA61-305EA4AC7266</title>
    <g id="🧬-Symbols" stroke="none" stroke-width="1" fill="none" fill-rule="evenodd">
        <g id="icons/fish-patty">
            <rect id="icon-space" x="0" y="0" width="80" height="80"></rect>
            <path d="M39.9900853,0.5 C41.7024631,0.5 43.4174256,1.00168959 44.7357012,2.01698847 C46.7697475,1.44286683 48.5563769,1.40196467 50.2105507,1.84525109 C51.8645086,2.28847962 53.3911519,3.21714057 54.4022393,4.53966567 C56.5148878,4.51139614 58.2512057,4.93467019 59.7344094,5.79130307 C61.2175344,6.64789053 62.4521769,7.94045554 63.0863376,9.47960458 C65.1344766,9.99890012 66.70206,10.8572497 67.9130017,12.0685126 C69.124214,13.2800462 69.982401,14.8484274 70.1963856,16.498911 C72.0402498,17.5312554 73.332778,18.7663713 74.1893037,20.2502029 C75.0455722,21.7335887 75.468756,23.4701507 75.2484341,25.1201026 C76.7622983,26.5948075 77.690967,28.1220968 78.1341685,29.7768047 C78.5772811,31.4311809 78.5364863,33.2180373 77.8968416,34.7552956 C78.9250872,36.5600522 79.5,38.2723335 79.5,40.0000489 C79.5,41.726762 78.924884,43.4389017 77.9559403,44.7554019 C78.5365128,46.7806787 78.5772871,48.5677678 78.1340585,50.2224515 C77.6908627,51.8770128 76.7623616,53.4043159 75.4402633,54.4155789 C75.4686708,56.528727 75.0455205,58.2659683 74.1889812,59.7498693 C73.3327074,61.2333103 72.0406469,62.4681846 70.5019394,63.102072 C69.9826725,65.1506205 69.1245734,66.7185265 67.9136578,67.9297368 C66.7024839,69.1412055 65.1345711,69.9996053 63.4846027,70.2137196 C62.4525077,72.0580332 61.2177011,73.3509724 59.7342305,74.207786 C58.2513226,75.0642746 56.5153295,75.4876296 54.865984,75.267262 C53.3916753,76.7813967 51.8647803,77.710245 50.2104872,78.153597 C48.5565123,78.5968637 46.7700676,78.5561909 45.2334072,77.9165415 C43.4175466,78.9979262 41.7024855,79.5 39.9900035,79.5 C38.2777018,79.5 36.5626832,78.9980297 35.2438973,77.9820559 C33.2104032,78.5562025 31.4237906,78.5969031 29.7695566,78.1535598 C28.1153608,77.7102268 26.588401,76.7814938 25.5776393,75.4592084 C23.4649262,75.4874666 21.7283352,75.064158 20.2449882,74.207427 C18.7619601,73.3508802 17.5274552,72.0584284 16.8937187,70.5193445 C14.8456683,70.0000278 13.2782317,69.141699 12.0673563,67.9305024 C10.856099,66.7189238 9.99784903,65.1504756 9.78378143,63.500065 C7.93978234,62.4682095 6.64759967,61.23334 5.79123162,59.7498347 C4.93473509,58.2661067 4.51151817,56.5290486 4.73173994,54.8791875 C3.21809847,53.4048241 2.28939924,51.8773123 1.84610818,50.2224218 C1.40294131,48.567995 1.44353919,46.7811237 2.08315309,45.2443801 C1.00192052,43.4280374 0.5,41.7123829 0.5,39.9994443 C0.5,38.286462 1.00194471,36.5708925 2.01767908,35.2519898 C1.44387625,33.2177137 1.40310276,31.4304349 1.84632022,29.7756937 C2.28945537,28.1212599 3.21777264,26.5941923 4.53973375,25.583125 C4.51158263,23.470105 4.93478892,21.7332047 5.79126499,20.2495122 C6.64758084,18.7660973 7.93966553,17.531188 9.47834101,16.8968861 C9.99742865,14.8483517 10.85554,13.2803652 12.0664855,12.0690984 C13.2776678,10.8575948 14.845597,9.99916858 16.4955461,9.78513026 C17.527358,7.94057837 18.762009,6.64790422 20.2452576,5.79126065 C21.7285121,4.93461368 23.4649816,4.5113324 25.1143313,4.7317398 C26.5887567,3.21749164 28.1157889,2.28850789 29.7701467,1.84513146 C31.424044,1.40187847 33.2103196,1.44259063 34.7466835,2.08242863 C36.5625468,1.00170725 38.2776792,0.5 39.9900853,0.5 Z M32.6751632,22.8335192 C32.5807526,22.8309445 32.2649751,22.8245476 31.7806451,22.8322476 C32.0460106,23.2420229 32.1875941,23.5063124 32.217529,23.5632473 C32.217529,23.5632473 33.6071584,26.2605882 33.7987252,30.2224534 C31.3231464,31.6368454 28.7880957,33.548182 26.2319927,36.0375827 C25.0883088,34.9046095 21.3852551,31.6784485 16.2328182,32.5367238 C16.2328182,32.5367238 15.5578075,36.3425318 18.488072,40.1547105 C15.5577228,43.9666197 16.2328182,47.7729052 16.6785548,48.1861533 C21.3849075,48.6311477 25.0877618,45.405496 26.2314652,44.2722447 C29.8717889,47.8168089 33.4698069,50.190531 36.9160305,51.6237242 C36.7468351,53.0770134 36.729146,54.7508278 37.5157319,57.164021 C37.5157319,57.164021 41.7193214,56.7373092 45.1117788,53.3819911 C49.3288953,53.4269501 53.1214781,52.1075627 56.2368488,49.9563232 C59.730414,47.5439311 62.370733,44.0841257 63.8005392,39.9767172 C62.4607577,36.4620436 60.0583799,33.2031909 56.8870184,30.8221506 C54.0176463,28.6678421 50.5199246,27.2316272 46.6117345,26.970294 C41.7087437,23.1589918 33.2394912,22.8489087 32.6751632,22.8335192 Z M52.6724778,35.0104837 C52.9873169,35.0104837 53.2734411,35.1291833 53.4801276,35.3245995 C53.6763818,35.5101521 53.800431,35.7657434 53.800431,36.0496665 C53.800431,36.3335815 53.6763669,36.5891625 53.4801158,36.7747123 C53.273421,36.9701363 52.9872936,37.0888492 52.6724778,37.0888492 C52.3576621,37.0888492 52.0715347,36.9701363 51.8648398,36.7747123 C51.6685887,36.5891625 51.5445247,36.3335815 51.5445247,36.0496665 C51.5445247,35.7657434 51.6685739,35.5101521 51.8648281,35.3245995 C52.0715146,35.1291833 52.3576388,35.0104837 52.6724778,35.0104837 Z" stroke="#1F1E1E" fill="#1F1E1E"></path>
        </g>
    </g>
</svg>