<?xml version="1.0" encoding="UTF-8"?>
<svg width="80px" height="80px" viewBox="0 0 80 80" version="1.1" xmlns="http://www.w3.org/2000/svg" xmlns:xlink="http://www.w3.org/1999/xlink">
    <title>C5982013-4BDA-456A-B28B-F0B012D649C4</title>
    <g id="🧬-Symbols" stroke="none" stroke-width="1" fill="none" fill-rule="evenodd">
        <g id="icons/potato-curlyfries">
            <rect id="icon-space" x="0" y="0" width="80" height="80"></rect>
            <path d="M12.3482045,29.9729535 C12.6764704,29.9737494 13.013428,30.067312 13.3279543,30.2708143 C19.4638106,34.2418709 29.6021025,36.2757188 39.811241,36.3300755 C50.0442828,36.3845594 60.333361,34.4512404 66.7132149,30.5593426 C67.0189088,30.3729167 67.3428988,30.2874512 67.6581323,30.2874859 C67.9988018,30.2875234 68.3283631,30.3864983 68.6123737,30.5596458 C68.8995463,30.7347209 69.1406651,30.9858667 69.298871,31.2904099 C69.4194798,31.5225796 69.4913006,31.7857392 69.4992348,32.0691012 L69.4962081,32.2414564 L63.3852547,77.9023794 C63.3270799,78.3368112 63.1213967,78.7190339 62.8228112,79.0006509 C62.5691156,79.2399292 62.2483777,79.4066596 61.8942844,79.4707854 L61.7146141,79.4941588 L18.4669125,79.5 C18.0312537,79.5 17.6275116,79.3462784 17.3104533,79.0871707 C17.039902,78.8660697 16.8323538,78.5683188 16.7217721,78.2237229 L16.674719,78.0476592 L10.517664,32.0667521 C10.4676651,31.693258 10.5266607,31.3462878 10.6657776,31.0467805 C10.816464,30.7223652 11.0597637,30.4540485 11.353785,30.266498 C11.6473939,30.0792105 11.9921741,29.9720903 12.3482045,29.9729535 Z M36.4391554,42.8333333 C33.7742873,42.8333333 31.2822875,43.8428659 29.4209047,45.6728608 C27.6530553,47.4108489 26.5461801,49.7833495 26.3088686,52.3556621 C26.2307272,53.2027194 26.1855889,53.9845 26.1545123,55.4348958 L26.1545123,55.4348958 L29.8884053,55.4348958 L29.8884053,56.1927083 L26.1678252,56.1927083 L26.246714,57.249248 L26.2987315,57.7666786 C26.511415,59.6377903 26.963491,61.2333174 27.5861686,62.9455091 C27.7951986,63.5202609 28.0316557,64.0850006 28.2926525,64.6360462 L28.2926525,64.6360462 L28.6955905,65.4544271 L32.9135951,65.4544271 L32.9135951,66.2122396 L29.0855669,66.2122396 L29.9151821,67.4397438 L30.1986374,67.8352591 C30.8696984,68.7464144 31.6076928,69.5745044 32.3974249,70.2971012 C34.9296455,72.6140545 37.9599954,73.8333333 41.1570044,73.8333333 C44.6487726,73.8333333 47.8141218,72.483712 50.1071342,70.3075446 C52.4098599,68.122159 53.8333333,65.1041463 53.8333333,61.777474 C53.8333333,61.3283529 53.8078513,60.8825709 53.6849775,59.8255208 L53.6849775,59.8255208 L50.3364512,59.8255208 L50.3364512,59.0025438 L53.381721,58.5759178 L53.2591108,58.1783659 C52.8696621,56.9921082 52.2860164,55.8647093 51.5180448,54.8305657 C50.2123685,53.072332 48.4634372,51.6938314 46.4233693,50.8087218 C46.0424261,48.7345876 44.957368,46.8330782 43.3084788,45.3862175 C41.4337052,43.7410907 38.9945359,42.8333333 36.4391554,42.8333333 Z M43.9857072,64.5755208 L43.9857072,65.3333333 L43.1335124,65.3333333 L43.1335124,64.5755208 L43.9857072,64.5755208 Z M42.0100327,56.4505013 L42.0100327,57.2083138 L41.1578379,57.2083138 L41.1578379,56.4505013 L42.0100327,56.4505013 Z M35.753689,50.2005404 L35.753689,50.9583529 L34.9014941,50.9583529 L34.9014941,50.2005404 L35.753689,50.2005404 Z M41.0693193,26.1463166 C45.8108246,25.6406808 46.9297795,26.4844819 47.2833855,26.7884532 C47.5776047,27.0413648 47.7556481,27.3632184 47.8002074,27.7266767 C47.7991209,28.2207626 47.7028311,28.5351719 47.494374,28.7993881 C46.9347249,29.3528574 45.9859544,29.9696181 43.011389,30.1016946 C42.4856019,30.1252317 41.8996315,30.1330303 41.2462135,30.1218179 C40.5617445,30.1097078 39.6986702,29.9935968 38.7975384,29.7692913 C39.5913,29.4072983 40.4996907,29.1227654 41.3584716,29.0282283 C44.3893744,28.9420073 45.6275848,28.6081297 46.1354641,28.377191 C46.322342,28.2922154 46.5847205,28.1418834 46.9441706,27.8747986 C46.5745251,27.6500285 46.2920227,27.519634 46.0938982,27.4501853 C45.5198804,27.2489743 44.0731867,27.0051752 41.1936839,27.3118841 C39.8156177,27.4591318 38.2106286,28.0332147 36.9990507,28.7658984 C36.3942405,29.1316484 35.8867201,29.5382011 35.5412369,29.9473808 C35.1528744,30.4073452 34.9659664,30.8789205 34.9854185,31.315506 C35.0063635,31.7901248 35.2796318,32.2872961 35.7844948,32.7450141 C35.9081475,32.9562375 35.9754211,33.1423198 35.9772713,33.3026278 C35.226591,33.5658245 34.974136,33.4828678 34.7101215,33.3387827 C34.1933996,32.7851318 33.848287,32.1327694 33.8142441,31.367799 C33.757588,30.0913005 34.5734082,29.0548849 35.6605947,28.2444837 C37.2938893,27.0270072 39.5849819,26.3049648 41.0693193,26.1463166 Z M29.8821232,27.0798304 C30.3244633,27.5057759 30.6870646,28.0047725 30.6870646,28.6312009 C30.6870646,30.4263323 29.8410715,31.0173678 27.7326333,32.330999 C27.1117242,32.2331073 26.9552903,32.076087 26.9142133,31.8843424 C27.1518959,31.350915 27.3749127,31.2027373 27.6964384,31.0709954 C28.4522883,30.8609804 28.9227011,30.684923 29.219037,30.2931031 C29.4474796,29.9910528 29.5995995,29.5577539 29.4985317,28.8851175 C29.4486074,28.552133 29.2728464,28.2213958 28.9809678,27.9130088 C29.3132711,27.6417421 29.6135043,27.3635338 29.8821232,27.0798304 Z M62.5082452,27.5369774 C62.6740508,28.1340874 62.688971,28.745284 62.4775143,29.3489001 C61.4493403,28.63193 61.4484076,28.2573366 61.3343101,27.8485158 C61.750313,27.7648313 62.141678,27.6604972 62.5082452,27.5369774 Z M28.9966063,21.2516682 C29.4221152,21.702325 29.7206993,22.2357397 29.8159257,22.868128 C30.0090603,24.1546964 29.2938774,25.2914048 28.2789597,26.2279486 C26.7565231,27.6328198 24.516275,28.6065999 23.0319196,28.9247619 C18.288548,29.9408103 17.0673781,29.2045089 16.6772358,28.934489 C16.3514766,28.7090323 16.1360252,28.4011976 16.0522036,28.0362765 C15.9954953,27.4731757 16.0947413,27.0936848 16.3517662,26.767509 C16.6029449,26.4489132 17.3408529,25.6139487 20.64606,25.1177132 C21.1750236,25.0380628 21.7666249,24.967925 22.4284922,24.910088 C23.1276389,24.8490881 24.0215355,24.8756718 24.9651087,25.0094857 C24.1958485,25.465252 23.2988302,25.8548747 22.4324122,26.0431197 C19.3808086,26.452045 18.1657041,26.9202185 17.677449,27.2072125 C17.4995432,27.3117846 17.2536795,27.4889703 16.9242805,27.7913211 C17.3151137,27.9757228 17.6101245,28.0760723 17.8154308,28.1247661 C18.4165279,28.2673322 19.903526,28.3595954 22.7787597,27.7440508 C24.1548319,27.4491624 25.7147016,26.6991273 26.8604525,25.830676 C27.4320629,25.3974092 27.9012054,24.9333163 28.2064837,24.4836973 C28.5487305,23.9796304 28.6873619,23.4851965 28.6216112,23.0478782 C28.5717949,22.7147171 28.3960473,22.3838732 28.1042365,22.0754775 C28.4328795,21.8072146 28.730151,21.5320882 28.9966063,21.2516682 Z M40.8107118,20.3161876 C45.5518473,19.8100237 46.6708521,20.6543346 47.0245085,20.9583492 C47.3186999,21.2111638 47.4966356,21.5326588 47.5412412,21.8960855 C47.5388149,22.4481693 47.4042367,22.8067934 47.1226633,23.0976025 C46.6842133,23.5192993 45.7404941,24.1390209 42.7529447,24.2716739 C42.2271234,24.294824 41.6411857,24.302776 40.9873101,24.2914026 C40.3028584,24.2792927 39.4397911,24.1633173 38.5383888,23.9390607 C39.3321981,23.5770082 40.2406391,23.2923791 41.0995787,23.1980752 C44.1308006,23.1116273 45.368687,22.7779049 45.8763815,22.5472353 C46.0631604,22.4623729 46.3254534,22.3122457 46.6845749,22.0453969 C46.3154806,21.8204188 46.0332863,21.6898377 45.8352685,21.6202777 C45.2612549,21.4186374 43.8146222,21.1747491 40.9351632,21.481512 C39.5569826,21.6288129 37.9520118,22.2028678 36.7404184,22.9355017 C36.1355847,23.3012363 35.6280368,23.7077703 35.2825122,24.1169345 C34.8941102,24.5768734 34.7071394,25.0484288 34.7265205,25.4852106 C34.7413318,25.8190188 34.8807607,26.1635691 35.1376284,26.4979435 C34.7905935,26.7331525 34.4731342,26.9727181 34.1850346,27.2188169 C33.8599019,26.7911295 33.6382221,26.3105752 33.5736246,25.7709732 C33.5173512,24.4067129 34.3160626,23.3133078 35.3983051,22.4691608 C37.0264701,21.1991954 39.323857,20.4748554 40.8107118,20.3161876 Z M50.7032357,20.9354568 C51.0740341,20.7709228 52.116378,20.3775012 55.2703309,21.4824303 C55.7752959,21.6595737 56.3310409,21.8736124 56.943832,22.1321128 C57.5905314,22.4045238 58.3685451,22.8455614 59.1403615,23.4046849 C58.2467581,23.4483517 57.2710483,23.373535 56.4169553,23.1349508 C53.5282087,22.0715643 52.2356856,21.9180295 51.6700728,21.943605 C51.4640241,21.952922 51.1640467,21.9946178 50.7315688,22.1078452 C50.9907438,22.4536161 51.2045414,22.6802496 51.3632359,22.819234 C51.8278623,23.2261534 53.0995387,24.0022357 55.9294541,24.801329 C57.2840381,25.1833304 59.0136298,25.2487742 60.4323644,25.0161081 C61.1401743,24.9000304 61.7717784,24.7088386 62.251738,24.4539067 C62.7898227,24.1681014 63.1433753,23.7957054 63.2897428,23.3777747 C63.4020419,23.0567009 63.3999712,22.6778565 63.2826109,22.2641954 C63.7046299,22.1725834 64.0997795,22.0652546 64.4690402,21.9402012 C64.634737,22.5372727 64.6495121,23.1483516 64.4379885,23.752079 C64.0045553,24.9894756 62.8401143,25.6671978 61.5036725,26.0248266 C59.4996389,26.5611015 57.0631992,26.3756139 55.6017854,25.9633163 C50.9331317,24.6460529 50.1973578,23.4243913 49.9787075,23.0038313 C49.7957198,22.6518783 49.7494015,22.2787977 49.8454522,21.9170981 C50.0586345,21.3929082 50.3234583,21.1039921 50.7032357,20.9354568 Z M28.1175813,15.3888425 C28.542044,15.8389263 28.8400844,16.3716373 28.9347326,17.0033697 C29.1294737,18.3001074 28.4164566,19.4434063 27.4018147,20.3839779 C25.8803985,21.7943287 23.6395501,22.7684203 22.1547502,23.0864951 C17.4116387,24.1027949 16.1904875,23.3662226 15.8004113,23.0962879 C15.4743259,22.8707124 15.2592106,22.5628205 15.175177,22.1980883 C15.1184006,21.6348198 15.2180558,21.2555821 15.4750757,20.9292804 C15.7260865,20.6105205 16.4637476,19.775806 19.7688268,19.2793594 C20.2979231,19.2000881 20.889406,19.1297921 21.5516236,19.0718148 C22.2507511,19.0108164 23.1446894,19.0372608 24.0886671,19.1710623 C23.319359,19.6269564 22.4222143,20.0166527 21.5555259,20.2048495 C18.5037253,20.6139038 17.2889164,21.0820383 16.8006727,21.368885 C16.6227711,21.4734034 16.3768862,21.6504664 16.047192,21.9526704 C16.4380596,22.1372584 16.7331072,22.2377154 16.9384539,22.2864671 C17.5395617,22.4291772 19.0264405,22.5216037 21.9018008,21.9061737 C23.2779093,21.6111453 24.8377295,20.8610652 25.9834817,19.9926276 C26.5551022,19.5593605 27.0242644,19.0952809 27.3295795,18.6456842 C27.6718696,18.1416394 27.8105593,17.6472346 27.7448308,17.2095614 C27.6974207,16.8938629 27.5387626,16.5811714 27.2754576,16.2880814 C27.4368441,16.1094262 27.598927,15.9388946 27.7569636,15.7724435 C27.8801083,15.6427421 28.0009225,15.5153643 28.1175813,15.3888425 Z M40.5527888,14.5121981 C45.2941527,14.0063067 46.4132041,14.8503545 46.7669153,15.1544582 C47.0609285,15.4072331 47.2392252,15.7288751 47.2835134,16.0926651 C47.2826283,16.5883019 47.1856865,16.9031398 46.9758799,17.1678337 C46.4724051,17.6789581 45.5611962,18.3316556 42.4949628,18.4675929 C41.9692345,18.4911274 41.3831996,18.4989124 40.7296827,18.4874376 C40.045271,18.4753285 39.1823475,18.3592421 38.2811959,18.1349945 C39.074944,17.7730606 39.9832527,17.4884893 40.8419333,17.3941114 C43.8729479,17.3077694 45.1111304,16.9740388 45.6188514,16.7432261 C45.805609,16.6583251 46.0678379,16.5081093 46.4271624,16.2412734 C46.0578895,16.0163377 45.7755902,15.8857991 45.5775359,15.8162759 C45.0035182,15.6147777 43.5567521,15.3710374 40.6774072,15.6779255 C39.2992764,15.825093 37.6942615,16.3990988 36.4826678,17.1317463 C35.8778437,17.4974818 35.3703136,17.904031 35.0248227,18.313221 C34.6364607,18.7731862 34.4495442,19.2447763 34.4689836,19.6812072 C34.4834298,20.0115237 34.6200721,20.3525522 34.8717755,20.6837392 C34.5275921,20.909559 34.2125803,21.1450289 33.9264297,21.3886787 C33.5602574,20.9067703 33.3255112,20.3577184 33.2975686,19.7335727 C33.2410042,18.4570892 34.0569098,17.4206559 35.1441601,16.6102402 C36.7774559,15.3928126 39.0684394,14.6707749 40.5527888,14.5121981 Z M52.6641433,15.3386049 C53.034811,15.1740732 54.0769063,14.7805722 57.2311563,15.8856428 C57.7361287,16.0626557 58.292014,16.276699 58.9044264,16.5348298 C59.5513326,16.8075271 60.3292336,17.2485228 61.1010093,17.8076295 C60.2073187,17.8513408 59.2316362,17.7767199 58.3776902,17.5381308 C55.4889496,16.4746048 54.1965669,16.3207966 53.6305338,16.3463721 C53.4242628,16.3556922 53.1240752,16.397436 52.6914488,16.5107289 C52.950951,16.8564814 53.1649791,17.0830962 53.3237936,17.2221012 C53.7886886,17.629008 55.0603599,18.4054412 57.8903217,19.2045075 C59.2448259,19.5864333 60.9744122,19.6518063 62.3931629,19.4191091 C63.100978,19.3030164 63.7325926,19.1118204 64.21256,18.8568976 C64.7506611,18.5710985 65.10422,18.1987186 65.2504846,17.7811223 C65.3618975,17.4632507 65.3609291,17.0887525 65.2469242,16.6798343 C65.6628701,16.5961664 66.0542452,16.4918119 66.4208916,16.3682191 C66.5865085,16.9654343 66.6012859,17.5765201 66.3900482,18.1801363 C65.9599377,19.4079819 64.7966668,20.0789747 63.4618479,20.4329565 C61.4594581,20.9639719 59.0236642,20.7784316 57.5625123,20.3663581 C52.8940989,19.049036 52.1581817,17.8278803 51.939369,17.4064965 C51.7563955,17.0547698 51.7101358,16.6819181 51.8061843,16.3201807 C52.0190803,15.795729 52.2839727,15.506956 52.6641433,15.3386049 Z M27.2388833,9.5489217 C27.6642858,9.99938466 27.9629183,10.5328517 28.0579596,11.1651559 C28.2511888,12.4517299 27.5360903,13.5884115 26.5212355,14.524934 C24.9988054,15.9298544 22.7584476,16.9036509 21.2741111,17.221884 C16.5305702,18.2376887 15.309524,17.5016268 14.9195024,17.2317297 C14.5935012,17.0061437 14.3782777,16.6980457 14.2942291,16.3334006 C14.2377784,15.7704034 14.3369201,15.3909293 14.5940488,15.0646217 C14.845064,14.7459821 15.5828337,13.9113548 18.8883592,13.4148412 C19.417381,13.3351821 20.0089146,13.2650374 20.6706561,13.2069455 C21.3698008,13.1459457 22.2637605,13.1725286 23.2076781,13.3062838 C22.4383661,13.7621658 21.5411775,14.151809 20.6745963,14.3402442 C17.6230933,14.7490354 16.4079765,15.2173601 15.9195749,15.5044981 C15.7415859,15.6091402 15.4956368,15.7864163 15.1658458,16.0889854 C15.5571375,16.2732473 15.8524053,16.3734599 16.0578115,16.4220808 C16.6588787,16.5643569 18.145811,16.6566884 21.0212248,16.0413076 C22.3972232,15.746345 23.9570588,14.9962348 25.1027899,14.1277485 C25.6743848,13.6944685 26.1435173,13.230373 26.4487889,12.7807653 C26.7910362,12.2766992 26.9296607,11.7822813 26.8638812,11.344811 C26.8139603,11.0118498 26.6382062,10.6809896 26.3464522,10.3726598 C26.6751221,10.1043796 26.9724135,9.8292902 27.2388833,9.5489217 Z M40.2954094,8.70895469 C45.0364437,8.20307228 46.1553532,9.04714425 46.5090952,9.35113822 C46.8032666,9.60400865 46.981329,9.9255313 47.0260617,10.2890462 C47.0234464,10.8407619 46.8892291,11.1994666 46.6077868,11.4901024 C46.1695121,11.9117867 45.2261235,12.5317417 42.2372739,12.6644358 C41.7116319,12.6878564 41.1256493,12.6957895 40.4720677,12.6844325 C39.787687,12.6722421 38.9245574,12.5561672 38.0231511,12.3319484 C38.8169457,11.9699048 39.7253579,11.6854039 40.5842788,11.5911039 C43.6153856,11.50464 44.8532969,11.1707757 45.3611473,10.9399812 C45.5479835,10.8550728 45.8103125,10.7049012 46.1694686,10.4380369 C45.800205,10.2130791 45.5179215,10.0825323 45.3199139,10.0130137 C44.7460318,9.81152901 43.2991352,9.5676324 40.4197797,9.87452157 C39.0416327,10.0216755 37.4366877,10.595712 36.2251002,11.3283881 C35.6202418,11.6941606 35.1126745,12.1007499 34.7671449,12.5099727 C34.378746,12.9699671 34.1917889,13.441579 34.211199,13.8782519 C34.2257688,14.2084066 34.3624356,14.5493312 34.6142251,14.8805039 C34.2699813,15.1063787 33.9549237,15.3418434 33.6687946,15.5855847 C33.3026309,15.1037008 33.0677981,14.5546361 33.0400246,13.930542 C32.9833605,12.6540315 33.7992426,11.6175635 34.8865127,10.8071146 C36.5198034,9.5896629 38.8108536,8.86757951 40.2954094,8.70895469 Z M56.5675784,4.19520057 C56.9386175,4.03054571 57.9806771,3.63751408 61.1333013,4.74200317 C61.6387663,4.91900235 62.19474,5.13316561 62.8080681,5.39168899 C64.2071715,5.98136641 66.2261945,7.35622473 67.4594793,9.02062377 C68.2816894,10.1302505 68.7719789,11.3806026 68.3418524,12.6085951 C67.9117209,13.8363991 66.7483577,14.5073781 65.4134585,14.8613429 C63.41112,15.3922873 60.975453,15.2067791 59.514288,14.7945516 C54.845846,13.4774744 54.1101814,12.2559807 53.8912078,11.834907 C53.7082615,11.4832325 53.6617067,11.110389 53.7581299,10.748575 C53.9711148,10.2242159 54.2361483,9.93526285 54.6155578,9.76685626 C54.9864872,9.60231994 56.028584,9.2088543 59.1829562,10.3138432 C59.6879031,10.4908472 60.2437599,10.7050142 60.8563467,10.9633515 C61.5030406,11.2357602 62.2810477,11.6767939 63.0528915,12.2358709 C62.1592419,12.2795421 61.1836081,12.2049198 60.3294863,11.96633 C57.4409447,10.9029152 56.1481106,10.7491323 55.5822043,10.7748489 C55.3760142,10.7842188 55.0758807,10.8260725 54.6431894,10.9394699 C54.9027728,11.2851274 55.1168447,11.511673 55.2756583,11.6506288 C55.7405506,12.0573919 57.0122263,12.8338067 59.8419201,13.632554 C61.1964301,14.0146826 62.9259414,14.0801427 64.3446568,13.8475081 C65.0525322,13.7314339 65.6841992,13.5402343 66.1641976,13.2852989 C66.7023541,12.9994748 67.0559262,12.6270518 67.2021713,12.2093949 C67.3485413,11.7916086 67.3046633,11.2799618 67.0625962,10.7208605 C66.846658,10.222109 66.4724489,9.67856092 65.9918243,9.1461784 C65.0284225,8.0790292 63.6360778,7.05095398 62.339346,6.50440064 C59.0406131,5.11386231 57.5403742,5.14711237 57.1673304,5.25768653 C55.8787191,4.67325916 56.1671753,4.3726832 56.5675784,4.19520057 Z M18.9170527,1.53088253 C20.4294984,1.39880367 22.857036,1.67129652 24.7250167,2.56688802 C25.9702682,3.16391591 26.9877826,4.04039973 27.1810649,5.32709126 C27.3743057,6.61364207 26.6590968,7.75036099 25.644125,8.68689884 C24.1216894,10.0916852 21.8814312,11.0654002 20.3968844,11.3834208 C15.6539421,12.3997114 14.4327787,11.6634292 14.0425481,11.3933482 C13.7164305,11.1677504 13.501327,10.8597125 13.4173111,10.4948662 C13.3605408,9.93195124 13.4601899,9.55255015 13.7173045,9.22626045 C13.968191,8.90775018 14.7059569,8.07288495 18.0110853,7.57653681 C18.5401159,7.49714232 19.1315259,7.42699149 19.7939562,7.36912857 C20.4930544,7.30785598 21.3870193,7.33436468 22.3307907,7.46811319 C21.5614682,7.92399549 20.6643222,8.31366309 19.7977964,8.50177498 C16.7461844,8.91082325 15.5312413,9.37907074 15.0428637,9.6659135 C14.8648536,9.77046563 14.6187827,9.94758641 14.288946,10.2499106 C14.6800841,10.4344459 14.9752839,10.5348335 15.1806991,10.5835532 C15.7817928,10.7261185 17.2684992,10.8186492 20.1440783,10.203233 C21.5201767,9.90819085 23.0800801,9.15805503 24.2258486,8.28952665 C24.7974363,7.85624528 25.2665639,7.3921466 25.5718426,6.94251876 C25.9140732,6.43846655 26.0527274,5.94404259 25.9869639,5.50632576 C25.9211981,5.06855291 25.6433809,4.63667395 25.1681661,4.25542531 C24.7442496,3.91533163 24.1594722,3.60956952 23.4858116,3.36339156 C22.135513,2.86994765 20.4241865,2.61141521 19.0222076,2.73390888 C15.456032,3.04493959 14.1455904,3.77488264 13.8670098,4.04684065 C12.4544819,4.13272709 12.569035,3.73225726 12.8402118,3.3882316 C13.0912255,3.06971953 13.829173,2.23515712 17.1324749,1.73867834 C17.6621824,1.65914906 18.2538716,1.58886266 18.9170527,1.53088253 Z M40.0364151,2.87886229 C44.7775817,2.37286972 45.8964952,3.21693442 46.2502372,3.5209284 C46.5443489,3.77374751 46.7225347,4.09519407 46.7670676,4.45864125 C46.7643804,5.01261669 46.6293948,5.37200493 46.3454898,5.66354009 L46.3454898,5.66354009 L46.2866303,5.7221796 C45.9565882,6.03939068 45.0547622,6.69763184 41.9784579,6.83411219 C41.452762,6.85764521 40.8668932,6.86544419 40.2130607,6.85382216 C39.528656,6.8418925 38.6657047,6.7257858 37.7646751,6.50152294 C38.5584072,6.13959938 39.4666867,5.85505237 40.3253028,5.76074778 C43.3564814,5.67428302 44.5945119,5.34066373 45.1023867,5.10972711 C45.289294,5.02473814 45.5516852,4.87436612 45.9109549,4.60713166 C45.5413796,4.38248028 45.2589126,4.25215866 45.0608208,4.18272138 C44.4867962,3.98150801 43.0401261,3.73730283 40.1607583,4.04430115 C38.7826535,4.19153756 37.1777126,4.76559597 35.9661448,5.49825387 C35.3613175,5.86400436 34.8537777,6.27055964 34.5082692,6.67974279 C34.119883,7.13970579 33.9329409,7.61128136 33.9523463,8.04771252 C33.966046,8.36095868 34.088139,8.68285395 34.3140878,8.99644812 C34.1396528,9.15283906 33.9654197,9.30139011 33.7954915,9.4464282 C33.6638209,9.55881247 33.5345969,9.66922396 33.4093729,9.77921011 C33.0442336,9.29804212 32.8100698,8.74964765 32.7824383,8.12642064 C32.7252942,6.83988695 33.5397364,5.7968176 34.627134,4.982455 C36.2600022,3.75958433 38.5516542,3.03730661 40.0364151,2.87886229 Z M32.6767805,1.87438514 C33.2447919,1.67744106 33.394084,1.73643314 33.5047549,1.83765553 C33.6154689,1.9389174 33.6875318,2.08242947 33.6947264,2.24391906 C33.7092825,2.57415071 33.8459346,2.91520712 34.0974709,3.24631848 C33.7533204,3.47216394 33.438352,3.70761874 33.1522371,3.95133653 C32.7861112,3.46953355 32.5512298,2.92048295 32.5235599,2.29639033 C32.5164268,2.13455998 32.5754711,1.98512823 32.6767805,1.87438514 Z" stroke="#1F1E1E" fill="#1F1E1E"></path>
        </g>
    </g>
</svg>