<?xml version="1.0" encoding="UTF-8"?>
<svg width="80px" height="80px" viewBox="0 0 80 80" version="1.1" xmlns="http://www.w3.org/2000/svg" xmlns:xlink="http://www.w3.org/1999/xlink">
    <title>E89830E3-B917-4CE4-8F21-D06A6710CCB9</title>
    <g id="🧬-Symbols" stroke="none" stroke-width="1" fill="none" fill-rule="evenodd">
        <g id="icons/tortilla-chips">
            <rect id="icon-space" x="0" y="0" width="80" height="80"></rect>
            <path d="M22.4268402,35.6458755 C23.0190433,35.6458755 23.5681899,35.9294216 23.9118055,36.3963704 L24.0003009,36.528192 L44.1593349,76.8321838 C44.4454421,77.4034381 44.4146113,78.0821987 44.0784304,78.6258515 C43.7979466,79.080083 43.3373382,79.3856993 42.8205533,79.4737889 L42.6639565,79.4936211 L2.34383922,79.5 C1.70471335,79.5 1.11120993,79.1691467 0.775249981,78.6258515 C0.49938289,78.1790967 0.429411436,77.6408608 0.571892643,77.14604 L0.62726399,76.9828928 L20.7781761,36.6651209 C20.934196,36.352841 21.1718296,36.0980544 21.4576974,35.9213225 C21.7436106,35.7445625 22.0777804,35.6458755 22.4268402,35.6458755 Z M17.40609,64.7709966 C16.6233537,64.7709966 15.9116503,65.0897011 15.3960596,65.605292 C14.8814112,66.1199405 14.5623408,66.8304611 14.5623408,67.6147465 C14.5623408,68.3987503 14.8814502,69.1093624 15.3962098,69.6241221 C15.9117942,70.1397066 16.6234417,70.4584964 17.40609,70.4584964 C18.1887384,70.4584964 18.9003859,70.1397066 19.4159703,69.6241221 C19.9307299,69.1093624 20.2498392,68.3987503 20.2498392,67.6147465 C20.2498392,66.8304611 19.9307689,66.1199405 19.4161205,65.605292 C18.9005298,65.0897011 18.1888264,64.7709966 17.40609,64.7709966 Z M25.6641438,59.7502447 C24.8814074,59.7502447 24.1697041,60.0689492 23.6541134,60.5845401 C23.139465,61.0991886 22.8203946,61.8097092 22.8203946,62.5939946 C22.8203946,63.3779984 23.139504,64.0886105 23.6542636,64.6033703 C24.1698479,65.1189548 24.8814955,65.4377445 25.6641438,65.4377445 C26.4467921,65.4377445 27.1584397,65.1189548 27.674024,64.6033703 C28.1887836,64.0886105 28.507893,63.3779984 28.507893,62.5939946 C28.507893,61.8097092 28.1888226,61.0991886 27.6741742,60.5845401 C27.1585836,60.0689492 26.4468802,59.7502447 25.6641438,59.7502447 Z M51.3993301,51.3989145 C51.8557647,50.9420358 52.5146426,50.7603396 53.1355472,50.9102758 L53.1355472,50.9102758 L78.2396639,59.2719122 C78.8454834,59.4740121 79.3040844,59.9750826 79.4505967,60.5971588 C79.5847883,61.1650614 79.4413492,61.7593477 79.0717197,62.2027215 L79.0717197,62.2027215 L62.3290104,78.9610218 C61.5926653,79.6973672 60.6796175,79.4714549 60.605392,79.4527288 C60.0302037,79.3172146 59.559946,78.9187893 59.3303187,78.3842182 L59.3303187,78.3842182 L50.9535405,53.2861009 C50.8431032,52.9547891 50.8309737,52.6065502 50.9082291,52.2793801 C50.9854837,51.9522136 51.152119,51.6461259 51.3993301,51.3989145 Z M53.8475973,0.824219671 L53.9848654,0.928439297 L78.9598641,25.891885 C79.4116895,26.3437106 79.5975037,26.9972016 79.4505966,27.6193964 C79.3277936,28.1391025 78.9876438,28.5746401 78.5251463,28.8216541 L78.3828216,28.8899982 L40.9595159,41.3701421 C40.6399817,41.4766535 40.2871151,41.4943855 39.9481117,41.4143154 C39.6314857,41.3395307 39.327113,41.1787564 39.0729409,40.9243523 C38.6541801,40.5059983 38.4665608,39.917559 38.5536819,39.3444612 L38.5842867,39.1886814 L51.0536005,1.76040185 C51.2557167,1.15453321 51.7573647,0.695984804 52.3794571,0.549468689 C52.8904506,0.428724172 53.4232149,0.532332264 53.8475973,0.824219671 Z M56.672434,16.1973896 C55.8896977,16.1973896 55.1779943,16.5160942 54.6624036,17.031685 C54.1477552,17.5463336 53.8286848,18.2568542 53.8286848,19.0411396 C53.8286848,19.8251434 54.1477942,20.5357555 54.6625538,21.0505152 C55.1781382,21.5660997 55.8897857,21.8848895 56.672434,21.8848895 C57.4550824,21.8848895 58.1667299,21.5660997 58.6823143,21.0505152 C59.1970739,20.5357555 59.5161832,19.8251434 59.5161832,19.0411396 C59.5161832,18.2568542 59.1971129,17.5463336 58.6824645,17.031685 C58.1668738,16.5160942 57.4551704,16.1973896 56.672434,16.1973896 Z M17.8218992,1.0402013 C18.273805,0.588295434 18.9279091,0.403092275 19.5497655,0.549552683 C20.1214465,0.684195699 20.5911119,1.08277227 20.8205887,1.61699952 L20.8205887,1.61699952 L29.1968619,26.7154316 C29.3075009,27.0466286 29.3197594,27.3947449 29.2426127,27.721807 C29.1654375,28.04899 28.998798,28.35509 28.7517514,28.6021366 C28.4390405,28.9148475 28.0316924,29.0987145 27.6063809,29.1354752 C27.1945055,29.1400906 26.8197275,29.0340209 24.9078279,28.401292 L24.4570191,28.2518472 C24.2183237,28.1726211 23.9592118,28.0865126 23.6775241,27.9929512 C22.3420382,27.5488556 21.2796659,27.1944977 19.9892903,26.7636683 L19.9892903,26.7636683 L18.8816421,26.3937789 L17.6671267,25.9881053 L16.6956085,25.6635714 L15.6606074,25.3178338 L12.7819726,24.3563874 L11.6392067,23.9748045 L9.8144575,23.3656339 L7.8525014,22.7108552 C6.04602888,22.1080634 4.07091176,21.4492651 1.91124575,20.7293111 C1.30527321,20.5271602 0.846640552,20.0259099 0.699702576,19.4040646 C0.565517851,18.8361909 0.708956744,18.2419279 1.07896705,17.7985946 L1.07896705,17.7985946 Z" stroke="#1F1E1E" fill="#1F1E1E"></path>
        </g>
    </g>
</svg>