<?xml version="1.0" encoding="UTF-8"?>
<svg width="80px" height="80px" viewBox="0 0 80 80" version="1.1" xmlns="http://www.w3.org/2000/svg" xmlns:xlink="http://www.w3.org/1999/xlink">
    <title>06E2707D-2ABF-4A87-A3FF-DA7B1C9B753B</title>
    <g id="🧬-Symbols" stroke="none" stroke-width="1" fill="none" fill-rule="evenodd">
        <g id="icons/clean">
            <rect id="icon-space" x="0" y="0" width="80" height="80"></rect>
            <path d="M39.9997512,40.4997512 C40.6506289,40.4997512 41.239915,40.7636093 41.6664843,41.1901786 C42.0930536,41.616748 42.3569118,42.2060341 42.3569122,42.8575113 C42.3618054,46.9383451 44.0177301,50.6322877 46.6926425,53.3072001 C49.3675185,55.9820762 53.0613533,57.6379502 57.1427149,57.6427149 C57.7935927,57.6427149 58.3828788,57.9065731 58.8094481,58.3331424 C59.2360174,58.7597118 59.4998756,59.3489979 59.4998756,59.9998756 C59.4998756,60.6507533 59.2360174,61.2400394 58.8094481,61.6666087 C58.3828788,62.0931781 57.7935927,62.3570362 57.1421154,62.3570366 C53.0612816,62.3619298 49.367339,64.0178545 46.6924267,66.6927669 C44.0175506,69.367643 42.3616765,73.0614777 42.3569118,77.1428394 C42.3569118,77.7937171 42.0930536,78.3830032 41.6664843,78.8095725 C41.239915,79.2361419 40.6506289,79.5 39.9997512,79.5 C39.3488735,79.5 38.7595874,79.2361419 38.333018,78.8095725 C37.9064487,78.3830032 37.6425905,77.7937171 37.6425902,77.1422398 C37.6376969,73.061406 35.9817722,69.3674635 33.3068599,66.6925511 C30.6319838,64.017675 26.938149,62.361801 22.8567874,62.3570362 C22.2059097,62.3570362 21.6166236,62.0931781 21.1900542,61.6666087 C20.7634849,61.2400394 20.4996267,60.6507533 20.4996267,59.9998756 C20.4996267,59.3489979 20.7634849,58.7597118 21.1900542,58.3331424 C21.6166236,57.9065731 22.2059097,57.6427149 22.8573869,57.6427146 C26.9382207,57.6378213 30.6321633,55.9818967 33.3070757,53.3069843 C35.9819517,50.6321082 37.6378258,46.9382734 37.6425905,42.8569118 C37.6425905,42.2060341 37.9064487,41.616748 38.333018,41.1901786 C38.7595874,40.7636093 39.3488735,40.4997512 39.9997512,40.4997512 Z M64.2853677,21.9284559 C64.9362454,21.9284559 65.5255315,22.192314 65.9521008,22.6188834 C66.3786702,23.0454527 66.6425283,23.6347388 66.6425287,24.2862251 C66.6460557,27.1841433 67.8219833,29.8072166 69.7214723,31.7067056 C71.6210038,33.6062371 74.2441298,34.7821513 77.1425905,34.7856787 C77.7935709,34.7856787 78.3828691,35.0494651 78.809417,35.4760129 C79.2359648,35.9025608 79.4997512,36.491859 79.4997512,37.1428394 C79.4997512,37.7937171 79.235893,38.3830032 78.8093237,38.8095725 C78.3827543,39.2361419 77.7934682,39.5 77.141982,39.5000004 C74.2440638,39.5035274 71.6209905,40.679455 69.7215015,42.578944 C67.82197,44.4784755 66.6460558,47.1016015 66.6425283,50.0000622 C66.6425283,50.6509399 66.3786702,51.240226 65.9521008,51.6667954 C65.5255315,52.0933647 64.9362454,52.3572228 64.2853677,52.3572228 C63.63449,52.3572228 63.0452039,52.0933647 62.6186345,51.6667954 C62.1920652,51.240226 61.9282071,50.6509399 61.9282067,49.9994537 C61.9246797,47.1015355 60.7487521,44.4784621 58.8492631,42.5789732 C56.9497316,40.6794417 54.3266056,39.5035275 51.4281448,39.5 C50.7772671,39.5 50.187981,39.2361419 49.7614117,38.8095725 C49.3348424,38.3830032 49.0709842,37.7937171 49.0709842,37.1428394 C49.0709842,36.4919617 49.3348424,35.9026756 49.7614117,35.4761062 C50.187981,35.0495369 50.7772671,34.7856787 51.4287534,34.7856784 C54.3266716,34.7821513 56.9497449,33.6062237 58.8492339,31.7067348 C60.7487654,29.8072033 61.9246796,27.1840772 61.9282071,24.2856165 C61.9282071,23.6347388 62.1920652,23.0454527 62.6186345,22.6188834 C63.0452039,22.192314 63.63449,21.9284559 64.2853677,21.9284559 Z M22.8570362,0.5 C23.5079895,0.5 24.0972604,0.763825201 24.5238015,1.19036633 C24.9503776,1.6169424 25.2141968,2.20625587 25.2141971,2.85769968 C25.2194469,7.72718744 27.1952049,12.135019 30.3870213,15.3268354 C33.5788747,18.5186888 37.9868149,20.4944974 42.8569118,20.4998756 C43.5077895,20.4998756 44.0970756,20.7637337 44.5236449,21.1903031 C44.9502143,21.6168724 45.2140724,22.2061585 45.2140724,22.8570362 C45.2140724,23.5079139 44.9502143,24.0972 44.5236449,24.5237694 C44.0970756,24.9503387 43.5077895,25.2141968 42.8563727,25.2141971 C37.986885,25.2194469 33.5790535,27.1952049 30.3872371,30.3870213 C27.1953836,33.5788747 25.219575,37.9868149 25.2141968,42.8569118 C25.2141968,43.5077895 24.9503387,44.0970756 24.5237694,44.5236449 C24.0972,44.9502143 23.5079139,45.2140724 22.8570362,45.2140724 C22.2061314,45.2140724 21.616818,44.9502532 21.1902419,44.5236771 C20.7637008,44.097136 20.4998756,43.5078651 20.4998753,42.8563727 C20.4946255,37.986885 18.5188675,33.5790535 15.3270511,30.3872371 C12.1351977,27.1953836 7.72725757,25.219575 2.85716063,25.2141968 C2.20628293,25.2141968 1.61699682,24.9503387 1.19042748,24.5237694 C0.763858146,24.0972 0.5,23.5079139 0.5,22.8570362 C0.5,22.2061585 0.763858146,21.6168724 1.19042748,21.1903031 C1.61699682,20.7637337 2.20628293,20.4998756 2.85769968,20.4998753 C7.72718744,20.4946255 12.135019,18.5188675 15.3268354,15.3270511 C18.5186888,12.1351977 20.4944974,7.72725757 20.4998756,2.85716063 C20.4998756,2.20625587 20.7636948,1.6169424 21.1902709,1.19036633 C21.616812,0.763825201 22.2060829,0.5 22.8570362,0.5 Z" stroke="#1F1E1E" fill="#1F1E1E"></path>
        </g>
    </g>
</svg>