<?xml version="1.0" encoding="UTF-8"?>
<svg width="80px" height="80px" viewBox="0 0 80 80" version="1.1" xmlns="http://www.w3.org/2000/svg" xmlns:xlink="http://www.w3.org/1999/xlink">
    <title>CC23781E-568F-4D04-9BC2-298ECFDF4EBB</title>
    <g id="🧬-Symbols" stroke="none" stroke-width="1" fill="none" fill-rule="evenodd">
        <g id="icons/refill">
            <rect id="icon-space" x="0" y="0" width="80" height="80"></rect>
            <path d="M80,75 C80,77.6885855 77.8775286,79.8818092 75.2168766,79.9953801 L75,80 L5,80 C2.31141447,80 0.118190789,77.8775286 0.00461986532,75.2168766 L0,75 L0,5 C0,2.31141447 2.12247143,0.118190789 4.78312338,0.00461986532 L5,-2.1431319e-15 L15,-2.1431319e-15 C17.76125,-2.1431319e-15 20,2.23875 20,5 C20,7.68858553 17.8775286,9.88180921 15.2168766,9.99538013 L15,10 L10,10 L10,70 L70,70 L70,10 L65,10 C62.23875,10 60,7.76125 60,5 C60,2.31141447 62.1224714,0.118190789 64.7831234,0.00461986532 L65,-2.1431319e-15 L75,-2.1431319e-15 C77.6885855,-2.1431319e-15 79.8818092,2.12247143 79.9953801,4.78312338 L80,5 L80,75 Z M54.4079688,37.6415625 C55.2387216,39.186733 55.1909197,41.058781 54.2940529,42.5613704 L54.1601563,42.7734375 L44.1601563,57.7734375 C43.2325,59.165 41.6723438,60 40,60 C38.4072917,60 36.9163407,59.2426304 35.9766126,57.9684159 L35.8398438,57.7734375 L25.8398438,42.7734375 C25.2820313,41.9360937 25,40.9692187 25,40 C25,39.191875 25.1965625,38.3789062 25.5920313,37.6415625 C26.4250326,36.0833724 28.0157161,35.085695 29.7702653,35.0052604 L30,35 L35,35 L35,5 C35,2.23875 37.23875,1.40958178e-15 40,1.40958178e-15 C42.6885855,1.40958178e-15 44.8818092,2.12247143 44.9953801,4.78312338 L45,5 L45,35 L50,35 C51.8445313,35 53.53875,36.015625 54.4079688,37.6415625 Z" fill="#1F1E1E" fill-rule="nonzero"></path>
        </g>
    </g>
</svg>