<?xml version="1.0" encoding="UTF-8"?>
<svg width="80px" height="80px" viewBox="0 0 80 80" version="1.1" xmlns="http://www.w3.org/2000/svg" xmlns:xlink="http://www.w3.org/1999/xlink">
    <title>DF852C71-65D8-4307-BADF-919137CCD639</title>
    <g id="🧬-Symbols" stroke="none" stroke-width="1" fill="none" fill-rule="evenodd">
        <g id="icons/potato-waffle">
            <rect id="icon-space" x="0" y="0" width="80" height="80"></rect>
            <path d="M12.3482045,29.9729535 C12.6764704,29.9737494 13.013428,30.067312 13.3279543,30.2708143 C19.4638106,34.2418709 29.6021025,36.2757188 39.811241,36.3300755 C50.0442828,36.3845594 60.333361,34.4512404 66.7132149,30.5593426 C67.0288248,30.3668695 67.363964,30.2820606 67.6887801,30.2877564 C68.0404363,30.2939228 68.3790644,30.4050897 68.6666335,30.5939937 C68.9547205,30.7832379 69.1921062,31.0508471 69.338864,31.3724372 C69.4519902,31.6203305 69.5105064,31.9000744 69.4983262,32.199672 L69.4824058,32.381717 L63.3852547,77.9023794 C63.3239761,78.3599892 63.0990112,78.7596625 62.7742372,79.0448597 C62.4906624,79.2938782 62.1309767,79.4555811 61.7380184,79.4921159 L61.5676955,79.5 L18.4669125,79.5 C18.0079571,79.5 17.5844418,79.3293807 17.260348,79.0447151 C16.9761537,78.7950951 16.7683846,78.4578184 16.6798704,78.0707835 L16.649362,77.9019754 L10.517664,32.0667521 C10.4676651,31.693258 10.5266607,31.3462878 10.6657776,31.0467805 C10.816464,30.7223652 11.0597637,30.4540485 11.353785,30.266498 C11.6473939,30.0792105 11.9921741,29.9720903 12.3482045,29.9729535 Z M36.4391554,42.8333333 C33.7742873,42.8333333 31.2822875,43.8428659 29.4209047,45.6728608 C27.6530553,47.4108489 26.5461801,49.7833495 26.3088686,52.3556621 C26.2046162,53.4857648 26.1594185,54.5000072 26.1646804,55.4348958 L26.1646804,55.4348958 L29.8884053,55.4348958 L29.8884053,56.1927083 L26.1678252,56.1927083 L26.246714,57.249248 L26.2987315,57.7666786 C26.511415,59.6377903 26.963491,61.2333174 27.5861686,62.9455091 C27.9000432,63.8085433 28.2757651,64.6490082 28.7035389,65.4544271 L28.7035389,65.4544271 L32.9135951,65.4544271 L32.9135951,66.2122396 L29.0855669,66.2122396 L29.9151821,67.4397438 L30.1986374,67.8352591 C30.8696984,68.7464144 31.6076928,69.5745044 32.3974249,70.2971012 C34.9296455,72.6140545 37.9599954,73.8333333 41.1570044,73.8333333 C44.6487726,73.8333333 47.8141218,72.483712 50.1071342,70.3075446 C52.4098599,68.122159 53.8333333,65.1041463 53.8333333,61.777474 C53.8333333,61.1181305 53.7769088,60.4660297 53.6680399,59.8255208 L53.6680399,59.8255208 L50.3364512,59.8255208 L50.3364512,59.0025438 L53.381721,58.5759178 L53.2591108,58.1783659 C52.8696621,56.9921082 52.2860164,55.8647093 51.5180448,54.8305657 C50.2123685,53.072332 48.4634372,51.6938314 46.4233693,50.8087218 C46.0424261,48.7345876 44.957368,46.8330782 43.3084788,45.3862175 C41.4337052,43.7410907 38.9945359,42.8333333 36.4391554,42.8333333 Z M43.9857072,64.5755208 L43.9857072,65.3333333 L43.1335124,65.3333333 L43.1335124,64.5755208 L43.9857072,64.5755208 Z M42.0100327,56.4505013 L42.0100327,57.2083138 L41.1578379,57.2083138 L41.1578379,56.4505013 L42.0100327,56.4505013 Z M35.753689,50.2005404 L35.753689,50.9583529 L34.9014941,50.9583529 L34.9014941,50.2005404 L35.753689,50.2005404 Z M34.8032496,0.896968663 C35.0470879,1.11065464 35.2279022,1.3966905 35.3133691,1.72199382 L35.3480072,1.88776461 L35.3682636,4.78024693 L38.1879367,4.44404995 L38.1879367,3.7357773 C38.1879367,3.32402698 38.3361617,2.94677145 38.5817343,2.65689467 C38.8247815,2.36999886 39.1632412,2.16831921 39.5472021,2.10591886 C40.4200016,2.08546089 40.8092386,2.25727594 41.0977565,2.53551546 C41.39087,2.8181868 41.5805827,3.21055965 41.6032638,3.6470091 C42.2551619,4.1767674 42.5057659,4.3221751 42.7064479,4.52076069 C42.901925,4.71419581 43.0500689,4.95820738 43.1294588,5.23449652 C43.2443092,6.03053298 43.1808033,6.35734441 43.0383138,6.64142149 C42.9205877,6.87612834 42.7489259,7.08194869 42.5356388,7.23731888 L42.4027701,7.32431447 L41.8761309,7.57316242 L41.6193432,10.2907454 L42.8598628,10.1405495 C42.8480714,9.6464911 43.1318881,9.19694629 43.5625811,8.99846712 L43.6835726,8.95071639 L44.9624618,8.77431129 L44.9624618,7.89706662 C44.9624618,7.59951809 45.0669571,7.32626471 45.241113,7.11382374 C45.4117489,6.90567658 45.6492495,6.7555171 45.9204127,6.70021754 C46.5937782,6.67681349 46.8580487,6.78240168 47.0636786,6.95683849 C47.2360339,7.10304836 47.3675675,7.2973881 47.4383023,7.51933019 L47.4732875,7.65564351 L47.5425535,8.4648175 L49.9460004,8.17781508 L49.9460004,5.05308769 C49.9460004,4.75560752 50.0504557,4.48247936 50.2245652,4.27015545 C50.3952051,4.06206263 50.6327302,3.91199192 50.9039085,3.8567256 C51.5773626,3.83333333 51.8416838,3.9388576 52.047342,4.11325897 C52.2197707,4.25948108 52.3513302,4.4538798 52.4220076,4.67592555 L52.4569481,4.8123064 L52.4801746,7.87436509 L54.9942603,7.57373296 L54.9942603,5.05308769 C54.9942603,4.75560752 55.0987156,4.48247936 55.2728251,4.27015545 C55.443465,4.06206263 55.6809901,3.91199192 55.9521684,3.8567256 C56.6251322,3.83333333 56.8894534,3.9388576 57.0951116,4.11325897 C57.2675403,4.25948108 57.3990998,4.4538798 57.4697772,4.67592555 L57.5047177,4.8123064 L57.5279442,7.27016245 L59.9836827,6.97735835 L59.9836827,6.32195517 C59.9836827,6.02440664 60.088178,5.75115327 60.2623339,5.5387123 C60.4329698,5.33056514 60.6704704,5.18040565 60.9416336,5.1251061 C61.6425192,5.10170205 61.9294164,5.22859928 62.1421217,5.43372691 C62.3589978,5.64287687 62.4992982,5.93321755 62.5160791,6.25613033 C63.2846397,6.81597512 63.6049282,7.11889759 63.7310646,7.51637385 C63.8266712,8.1454199 63.7815867,8.38347611 63.6797,8.59134728 C63.5996546,8.75465732 63.4845476,8.89958039 63.3417113,9.01289743 L63.2294993,9.09175253 L62.7397419,9.32890189 L62.5176585,11.679209 L64.2320842,11.4741637 C64.5448199,11.4354016 64.854871,11.5269392 65.102825,11.7258665 C65.299178,11.8836135 65.4390187,12.0947176 65.5086839,12.3339699 C65.6062018,13.0217085 65.517105,13.3422297 65.3176165,13.5991782 C65.1949097,13.7572873 65.0389869,13.8797819 64.8622891,13.9585816 L64.7260647,14.0093622 L62.5173666,14.2919869 L62.5173666,16.8490651 L64.8190506,16.5744218 C65.105002,16.5406627 65.3795135,16.6141428 65.6037381,16.7629466 C65.8288355,16.9123296 66.003683,17.1372199 66.0898929,17.406763 C66.1924841,18.0920383 66.1198193,18.3761364 65.9710581,18.6081019 C65.8494156,18.7977809 65.6769086,18.952929 65.4701947,19.0499806 L65.3421949,19.1010515 L62.5173666,19.4620699 L62.5173666,21.9548623 L63.3354482,21.855931 C63.621126,21.8224413 63.8958939,21.8963149 64.1204756,22.0453857 C64.3456035,22.1948191 64.5208043,22.4195155 64.6071535,22.6889375 C64.713362,23.4032487 64.6242325,23.724298 64.4253021,23.9809774 C64.3024403,24.1392278 64.1465262,24.2616332 63.9698022,24.3402501 L63.8335488,24.3908783 L62.5173666,24.5667805 L62.5173666,25.3195548 C62.5173666,25.6171505 62.4129335,25.8904545 62.2388135,26.1029241 C62.0682901,26.3110051 61.8309369,26.4611184 61.5598818,26.5164047 C60.8988972,26.539808 60.6448367,26.4429471 60.4431942,26.2815056 C60.2733337,26.1455098 60.1403128,25.9639524 60.0620108,25.7551523 L60.0217389,25.6267496 L59.9098152,24.8779762 L57.5279442,25.1637474 L57.5279442,28.2797469 C57.5279442,28.5772954 57.4234489,28.8505488 57.249293,29.0629898 C57.0786571,29.2711369 56.8411565,29.4212964 56.5699933,29.476596 C55.8971181,29.5 55.6328476,29.3944118 55.4272177,29.219975 C55.254735,29.0736571 55.1231344,28.8791381 55.0524373,28.6569912 L55.0174876,28.5205523 L54.9942603,25.4667642 L52.4801746,25.7682246 L52.4801746,28.2797469 C52.4801746,28.5772954 52.3756793,28.8505488 52.2015234,29.0629898 C52.0308875,29.2711369 51.7933869,29.4212964 51.5222237,29.476596 C50.8488582,29.5 50.5845877,29.3944118 50.3789578,29.219975 C50.2064751,29.0736571 50.0748745,28.8791381 50.0041774,28.6569912 L49.9692277,28.5205523 L49.9460004,26.0708579 L47.496636,26.3641864 L47.496636,26.8941675 C47.496636,27.1917161 47.3921407,27.4649694 47.2179848,27.6774104 C47.0473489,27.8855576 46.8098483,28.035717 46.5386851,28.0910166 C45.8645865,28.1144206 45.5965816,28.0063872 45.3885403,27.8274265 C45.1773386,27.645747 45.027451,27.3908702 44.9793552,27.0987372 C44.6293773,26.6908213 44.4311988,26.5214057 44.2660897,26.3641952 L44.205492,26.3053714 L41.6050415,26.6526934 L41.6050415,27.4827769 C41.6050415,27.8945815 41.4569023,28.2718944 41.2113861,28.5618009 C40.9684833,28.8486216 40.630209,29.0502477 40.2463699,29.1126358 C39.422579,29.1330933 39.0736771,28.9983321 38.79838,28.7740541 C38.5591279,28.5791411 38.3750734,28.3168912 38.2741745,28.0158559 L38.2307841,27.8622383 L38.1189878,27.0688915 L35.3682636,27.3989168 L35.3682636,31.1830169 C35.3682636,31.5947672 35.2200386,31.9720228 34.974466,32.2618996 C34.7314188,32.5487954 34.3929591,32.750475 34.0089981,32.8128754 C33.1645361,32.8333333 32.7980813,32.683229 32.5163121,32.4362205 C32.2724107,32.2224082 32.0915482,31.9362156 32.0060612,31.610792 L31.9714154,31.4449644 L31.9511587,27.8076726 L29.0585516,28.1545209 L29.0585516,31.1830169 C29.0585516,31.5947672 28.9103266,31.9720228 28.664754,32.2618996 C28.4217068,32.5487954 28.0832471,32.750475 27.6992862,32.8128754 C26.8542112,32.8333333 26.4877565,32.683229 26.2059873,32.4362205 C25.9620859,32.2224082 25.7812233,31.9362156 25.6957364,31.610792 L25.6610906,31.4449644 L25.6408339,28.5627685 L22.8291283,28.8994898 L22.8291283,29.4510427 C22.8291283,29.8627931 22.6809033,30.2400486 22.4353307,30.5299254 C22.1922835,30.8168212 21.8538238,31.0185008 21.4698629,31.0809012 C20.63336,31.1013591 20.2697117,30.9551497 19.987492,30.7123794 C19.7019089,30.4667158 19.4992224,30.1220807 19.4341878,29.727061 C18.7547176,29.0688292 18.1811364,28.6050283 17.9731846,28.0640507 C17.8522684,27.3052168 17.9154204,26.9804182 18.0565122,26.6973295 C18.173315,26.4629748 18.3435721,26.2568592 18.5550593,26.1005904 L18.6868014,26.0129835 L19.2159009,25.7578085 L19.4020605,22.9290919 L16.3918018,23.288803 C15.9659124,23.3414168 15.5462686,23.2171426 15.2094434,22.9469161 C14.9426833,22.732684 14.7526552,22.4451545 14.6588726,22.1192359 C14.5343041,21.2418137 14.6384979,20.8493951 14.8493042,20.5321834 C15.0282944,20.2628471 15.2841873,20.0473758 15.5896717,19.9234717 L15.7464201,19.8693249 L19.4114106,19.4092997 L19.4114106,16.4645881 L15.6585197,16.9135063 C15.2609839,16.9598451 14.8792613,16.8539027 14.5705654,16.6417223 C14.2602955,16.4284601 14.0233442,16.1081543 13.9171274,15.7258739 C13.7939138,14.83711 13.9137701,14.4040889 14.1829397,14.0573885 C14.357965,13.8323436 14.5819375,13.660885 14.835958,13.5550338 L14.9918249,13.4994921 L19.4114106,12.9465568 L19.4114106,10.2077535 L18.6068473,10.3036808 C18.2090852,10.3507796 17.8280863,10.2454236 17.5201116,10.0337401 C17.2094712,9.82022436 16.9727291,9.498979 16.866425,9.11600365 C16.7468395,8.25739455 16.8510084,7.86481269 17.0617707,7.54748763 C17.2407057,7.27808201 17.4965144,7.06256651 17.8018702,6.93864643 L17.9585506,6.8844939 L19.4114106,6.69026877 L19.4114106,5.7046666 C19.4114106,5.29291629 19.5596356,4.91566075 19.8052081,4.62578398 C20.0482553,4.33888816 20.386715,4.13720852 20.770676,4.07480816 C21.6157509,4.0543502 21.9822057,4.20445452 22.2639749,4.45146303 C22.5077464,4.66516145 22.6885462,4.95116305 22.7740891,5.27637157 L22.808773,5.44208985 L22.8668125,6.2758945 L25.6408339,5.94464073 L25.6408339,2.14969295 C25.6408339,1.73802015 25.7890119,1.36092593 26.0345282,1.0711985 C26.2750675,0.787344297 26.6090807,0.586992293 26.9882784,0.522439576 C27.7186675,0.508079609 28.1481082,0.63934333 28.4660513,0.894761237 C28.7357153,1.11139434 28.9241351,1.40595406 29.0085514,1.74154423 L29.0382959,1.88777308 L29.0585516,5.53545179 L31.9511587,5.18955639 L31.9511587,2.14969295 C31.9511587,1.73802015 32.0993368,1.36092593 32.3448531,1.0711985 C32.587908,0.784375711 32.9264021,0.582810807 33.3103887,0.52044703 C34.1549389,0.5 34.521451,0.650016411 34.8032496,0.896968663 Z M25.0428254,21.0057297 L24.8748902,21.018576 L23.1742977,21.2220488 L23.0086785,21.2498776 C22.6287691,21.3323661 22.2964431,21.5357011 22.0502221,21.8171205 C21.7711603,22.1360753 21.6029174,22.5554202 21.6029174,23.0109417 L21.6029174,23.0109417 L21.6029174,24.7566321 L21.6108896,24.9266887 C21.6531952,25.3768497 21.8621718,25.7968127 22.197001,26.0999117 C22.5177915,26.390543 22.9267366,26.5664193 23.5686711,26.5483398 L23.5686711,26.5483398 L25.2960322,26.3416534 L25.4616007,26.3138152 C25.8414023,26.2313111 26.173692,26.027997 26.4198723,25.7464716 C26.6986298,25.4276917 26.8667996,25.00853 26.8667996,24.5527604 L26.8667996,24.5527604 L26.8667996,22.80707 L26.8588385,22.6369003 C26.8165891,22.1864662 26.6078561,21.7664742 26.2728624,21.4639921 C25.8911168,21.1183262 25.3782097,20.9550114 24.8748902,21.018576 Z M37.589961,19.5044715 L37.4224465,19.5170776 L35.7139354,19.7212451 L35.5483019,19.7490817 C35.1683625,19.831602 34.8360266,20.0350602 34.5897894,20.3166338 C34.3107171,20.6357545 34.1424817,21.0552852 34.1424817,21.5107703 L34.1424817,21.5107703 L34.1424817,23.2558372 L34.1504561,23.4259011 C34.1585689,23.5122217 34.1728091,23.5974505 34.1928882,23.6809689 L33.172,23.886 L33.1767567,23.7978117 L33.1767567,22.0521213 L33.1688056,21.8820472 C33.1266076,21.4318513 32.9181153,21.0119407 32.5832861,20.7088417 C32.2008259,20.3634014 31.6907962,20.2000549 31.1851604,20.2635879 L31.1851604,20.2635879 L29.4034433,20.4764412 L29.2378551,20.5042878 C28.8580122,20.5868249 28.5257126,20.7902624 28.2795161,21.0719422 C28.0007481,21.3908879 27.8325859,21.8102352 27.8325859,22.2659684 L27.8325859,22.2659684 L27.8325859,24.0110353 L27.840553,24.1810337 C27.8828371,24.6312287 28.09177,25.0525978 28.4275504,25.3551105 C28.7475156,25.6449967 29.1566649,25.8214757 29.7977822,25.8033637 L29.7977822,25.8033637 L31.6060703,25.5866949 L31.771612,25.55886 C32.1513594,25.4763624 32.4836492,25.2730483 32.7298294,24.9915229 C32.9403758,24.7507474 33.0878338,24.4527059 33.1473921,24.1248777 L34.2971892,23.9899463 C34.3986582,24.2201279 34.5475734,24.4286582 34.7365653,24.5997402 C35.0578293,24.8899498 35.4668155,25.0662524 36.1075859,25.0481682 L36.1075859,25.0481682 L37.8428569,24.8408697 L38.0084465,24.8130229 C38.3882922,24.7304854 38.7205918,24.527048 38.9667883,24.2453682 C39.174122,24.0081523 39.3202726,23.7153979 39.3815604,23.393442 L42.4880896,23.0290972 L42.6450308,23.0185242 C43.1645016,23.0093807 43.6429112,23.2576224 43.9483524,23.6547876 L43.9483524,23.6547876 L44.7572667,24.706619 L44.9656614,21.5118691 L39.413,22.629 L39.4137185,21.3062751 L39.4057514,21.1360496 C39.3634673,20.6854005 39.1545344,20.2647126 38.818754,19.9621999 C38.4387048,19.617293 37.9241735,19.4543688 37.4224465,19.5170776 Z M49.3825881,20.0375833 L49.2207159,20.0489822 L47.8608908,20.2116806 L47.6991944,20.2399605 C47.3821349,20.3132617 47.1048008,20.4851049 46.8982505,20.7211824 C46.659609,20.9939388 46.5156673,21.3525274 46.5156673,21.7420867 L46.5156673,21.7420867 L46.5156673,23.138639 L46.5242895,23.3021045 C46.5642993,23.6802642 46.7419549,24.0322416 47.0238235,24.2873988 C47.3127484,24.5491604 47.6878699,24.6877613 48.0714636,24.6797382 L48.0714636,24.6797382 L49.5797822,24.5062127 L49.7422724,24.4778248 C50.0606783,24.4043424 50.3379883,24.2325098 50.5445093,23.9963377 C50.7828874,23.7237347 50.926773,23.3653098 50.926773,22.9755416 L50.926773,22.9755416 L50.926773,21.5789894 L50.9181593,21.4153979 C50.8781871,21.0369752 50.7006711,20.6849656 50.4186406,20.4303066 C50.0915648,20.1341434 49.6519595,19.9945201 49.2207159,20.0489822 Z M54.4314036,19.4335965 L54.2689947,19.4449838 L52.8442253,19.6151924 L52.6825452,19.6434918 C52.3655149,19.7168386 52.0881902,19.8887727 51.8816524,20.125078 C51.6432736,20.3978134 51.499402,20.7563852 51.499402,21.146108 L51.499402,21.146108 L51.499402,22.5421615 L51.5080233,22.7056022 C51.5480332,23.0838742 51.7257416,23.4370278 52.0084393,23.691717 C52.2964892,23.9526885 52.6717499,24.0918416 53.0553166,24.0837557 L53.0553166,24.0837557 L54.6279351,23.9022321 L54.790356,23.8738522 C55.108644,23.8003835 55.385954,23.6285508 55.592475,23.3923787 C55.8308531,23.1197757 55.9747387,22.7613509 55.9747387,22.3715827 L55.9747387,22.3715827 L55.9747387,20.9750304 L55.9661375,20.8115458 C55.9262216,20.4333544 55.7489414,20.0814278 55.4670728,19.8262706 C55.1392825,19.5302083 54.7021868,19.3905533 54.2689947,19.4449838 Z M59.420372,18.836597 L59.2588884,18.8477674 L57.8926156,19.0110359 L57.7308996,19.0393247 C57.4138046,19.1126559 57.1364557,19.2846005 56.9298886,19.5208111 C56.6912464,19.7936999 56.5473187,20.1524356 56.5473187,20.5419496 L56.5473187,20.5419496 L56.5473187,21.9380031 L56.5559437,22.1014749 C56.5959652,22.4797116 56.7736646,22.8321572 57.0554749,23.0872616 C57.3296948,23.3349745 57.6780174,23.4880499 58.226787,23.4716967 L58.226787,23.4716967 L59.6194807,23.3053231 L59.7811623,23.2770235 C60.0981953,23.2036763 60.37552,23.0317423 60.5820578,22.795437 C60.8204366,22.5227016 60.9643082,22.1641298 60.9643082,21.7744069 L60.9643082,21.7744069 L60.9643082,20.3783534 L60.9556869,20.2147011 C60.915677,19.8360761 60.7379686,19.4834872 60.4552709,19.228798 C60.1297691,18.9333939 59.6887846,18.7940365 59.2588884,18.8477674 Z M25.0425918,14.5420703 L24.8747851,14.5549215 L23.1742977,14.7583809 L23.0086637,14.78622 C22.6287175,14.8687523 22.2963392,15.0722702 22.0500849,15.3539992 C21.7711268,15.6731432 21.6029174,16.0927433 21.6029174,16.5485208 L21.6029174,16.5485208 L21.6029174,18.3758845 L21.6108918,18.5459484 C21.6532083,18.9961967 21.862231,19.4167422 22.197001,19.7197876 C22.5177998,20.0104264 22.9276144,20.1863006 23.5686807,20.1682146 L23.5686807,20.1682146 L25.2960322,19.9615293 L25.4615907,19.9336862 C25.8413732,19.8511563 26.1736729,19.6477188 26.4198693,19.366039 C26.6986373,19.0470933 26.8667996,18.627746 26.8667996,18.1720128 L26.8667996,18.1720128 L26.8667996,16.3440257 L26.8588324,16.1740272 C26.8165483,15.7238323 26.6076154,15.3024631 26.271835,14.9999505 C25.8915706,14.6548483 25.3775517,14.4913185 24.8747851,14.5549215 Z M49.3823808,14.8666578 L49.2206109,14.8780612 L47.8608908,15.0407463 L47.6991765,15.0690377 C47.3820786,15.1423806 47.1046924,15.3143785 46.8981093,15.5507214 C46.6595739,15.8236196 46.5156673,16.1823993 46.5156673,16.57215 L46.5156673,16.57215 L46.5156673,18.034041 L46.5242923,18.1975128 C46.5643138,18.5757495 46.7420132,18.9281951 47.0238235,19.1832995 C47.2975766,19.4313157 47.6466058,19.5840903 48.195672,19.5677336 L48.195672,19.5677336 L49.5820398,19.4018485 L49.7436865,19.3735531 C50.0606601,19.300213 50.3379848,19.1282789 50.5445227,18.8919736 C50.7829014,18.6192383 50.926773,18.2606664 50.926773,17.8709436 L50.926773,17.8709436 L50.926773,16.4085539 L50.9181517,16.2451133 C50.8781418,15.8668412 50.7004334,15.5136876 50.4177357,15.2589984 C50.0920186,14.963399 49.651424,14.8235608 49.2206109,14.8780612 Z M31.354397,13.7870823 L31.1853674,13.7998941 L29.4032723,14.0134173 L29.2377405,14.0412572 C28.8580122,14.1237806 28.5257126,14.3272181 28.2795161,14.6088978 C28.0007481,14.9278435 27.8325859,15.3471909 27.8325859,15.802924 L27.8325859,15.802924 L27.8325859,17.6309112 L27.8405469,17.8008539 C27.8827963,18.250834 28.0915294,18.671507 28.426523,18.9739891 C28.748054,19.2645347 29.157032,19.4406983 29.7976919,19.4226188 L29.7976919,19.4226188 L31.6058993,19.2065913 L31.7714875,19.1787447 C32.1513304,19.0962076 32.48363,18.8927701 32.7298265,18.6110903 C33.0085945,18.2921446 33.1767567,17.8727973 33.1767567,17.4170641 L33.1767567,17.4170641 L33.1767567,15.589077 L33.1687896,15.4190785 C33.1265055,14.9688836 32.9175725,14.5475144 32.5817922,14.2450017 C32.2013613,13.9006206 31.6928793,13.7363404 31.1853674,13.7998941 Z M54.4320893,14.2626622 L54.2692017,14.2740236 L52.8440543,14.4447774 L52.6824375,14.4730692 C52.3655149,14.5464032 52.0881902,14.7183372 51.8816524,14.9546425 C51.6432736,15.2273779 51.499402,15.5859497 51.499402,15.9756726 L51.499402,15.9756726 L51.499402,17.4380623 L51.5080157,17.6014421 C51.5479879,17.9795119 51.725504,18.332086 52.0075345,18.5867451 C52.2818974,18.8346682 52.6302134,18.9876052 53.178872,18.9712572 L53.178872,18.9712572 L54.6299155,18.7979003 L54.7915955,18.7696009 C55.1086258,18.696254 55.3859505,18.5243199 55.5924884,18.2880147 C55.8308672,18.0152793 55.9747387,17.6567075 55.9747387,17.2669846 L55.9747387,17.2669846 L55.9747387,15.8045949 L55.9661175,15.6411543 C55.9261075,15.2628822 55.7483991,14.9097286 55.4657015,14.6550395 C55.1398178,14.3600364 54.7040248,14.2195724 54.2692017,14.2740236 Z M37.5894233,13.041278 L37.4217041,13.0541266 L35.7139354,13.2582007 L35.5482771,13.2860426 C35.1682818,13.3685809 34.8359034,13.5720988 34.5896492,13.8538277 C34.3106911,14.1729717 34.1424817,14.5925719 34.1424817,15.0483494 L34.1424817,15.0483494 L34.1424817,16.8757131 L34.15045,17.0457209 C34.1927317,17.4957536 34.4015543,17.9156026 34.7355376,18.2186168 C35.0579592,18.5099685 35.4668496,18.6854828 36.1075814,18.6674212 L36.1075814,18.6674212 L37.8428569,18.4601222 L38.0084465,18.4322754 C38.3882922,18.3497379 38.7205918,18.1463004 38.9667883,17.8646207 C39.2455563,17.545675 39.4137185,17.1263276 39.4137185,16.6705945 L39.4137185,16.6705945 L39.4137185,14.8426073 L39.4057575,14.6726646 C39.3635081,14.2226846 39.154775,13.8020115 38.8197814,13.4995294 C38.4380052,13.1538358 37.9241936,12.9905587 37.4217041,13.0541266 Z M59.4198184,13.6660238 L59.2581461,13.6774253 L57.8926156,13.8406004 L57.7308741,13.868895 C57.41373,13.9422434 57.1363438,14.1142414 56.9297608,14.3505842 C56.6912253,14.6234824 56.5473187,14.9822621 56.5473187,15.3720128 L56.5473187,15.3720128 L56.5473187,16.8339038 L56.5559361,16.9973145 C56.5959199,17.3753484 56.7734267,17.727214 57.0545699,17.9822878 C57.3298255,18.2310188 57.6780509,18.3834299 58.2267817,18.3670993 L58.2267817,18.3670993 L59.6194807,18.2007251 L59.7811623,18.1724255 C60.0981953,18.0990783 60.37552,17.9271442 60.5820578,17.6908389 C60.8204366,17.4181036 60.9643082,17.0595318 60.9643082,16.6698089 L60.9643082,16.6698089 L60.9643082,15.2074192 L60.9556945,15.0440394 C60.9157222,14.6659695 60.7382062,14.3133954 60.4561757,14.0587364 C60.1290694,13.7625456 59.6886822,13.6229599 59.2581461,13.6774253 Z M49.363839,9.8616803 L49.2198715,9.87291201 L47.8608908,10.035503 L47.6991689,10.0637887 C47.3820603,10.1371071 47.1046889,10.3090037 46.8981226,10.5452134 C46.6595879,10.8179793 46.5156673,11.1766118 46.5156673,11.5664079 L46.5156673,11.5664079 L46.5156673,12.8637052 L46.5242895,13.0271707 C46.5642993,13.4053304 46.7419549,13.7573078 47.0238235,14.012465 C47.2975682,14.2604736 47.64585,14.4132501 48.1956618,14.3969003 L48.1956618,14.3969003 L49.5820398,14.231014 L49.743694,14.2027242 C50.0606783,14.1294087 50.3379883,13.957576 50.5445093,13.7214039 C50.7828874,13.4488009 50.926773,13.0903761 50.926773,12.7006079 L50.926773,12.7006079 L50.926773,11.4028118 L50.9181593,11.239432 C50.8781871,10.8613622 50.7006711,10.5087881 50.4186406,10.254129 C50.0913191,9.95774341 49.6513237,9.81767717 49.2198715,9.87291201 Z M54.4306494,9.25728994 L54.2681543,9.26891253 L52.8442253,9.43901482 L52.6825782,9.46731409 C52.3656077,9.54066824 52.0883055,9.71265031 51.8817669,9.94895649 C51.6432806,10.2218148 51.499402,10.5804897 51.499402,10.9699305 L51.499402,10.9699305 L51.499402,12.2672278 L51.5080233,12.4306684 C51.5480332,12.8089404 51.7257416,13.1620941 52.0084393,13.4167832 C52.2813568,13.664045 52.6298459,13.8173007 53.1789632,13.8009187 L53.1789632,13.8009187 L54.6300864,13.6270453 L54.7917107,13.5987591 C55.108644,13.5254497 55.385954,13.353617 55.592475,13.1174449 C55.8308531,12.8448419 55.9747387,12.4864171 55.9747387,12.0966489 L55.9747387,12.0966489 L55.9747387,10.7988528 L55.9661375,10.6355798 C55.9262216,10.2577409 55.7489414,9.90525025 55.4670728,9.65009302 C55.1390382,9.35381009 54.7015556,9.21370982 54.2681543,9.26891253 Z M25.0420568,8.28536772 L24.8740457,8.29846143 L23.1742977,8.5018268 L23.0086537,8.5296609 C22.6286884,8.61216742 22.29632,8.81556207 22.0500819,9.09713675 C21.7711343,9.41611489 21.6029174,9.83552931 21.6029174,10.2913432 L21.6029174,10.2913432 L21.6029174,11.9129649 L21.6108896,12.0830215 C21.6531952,12.5331825 21.8621718,12.9531455 22.197001,13.2562445 C22.5177915,13.5468758 22.9267366,13.7227521 23.5686711,13.7046727 L23.5686711,13.7046727 L25.2960322,13.4979862 L25.4616007,13.470148 C25.8414023,13.387644 26.173692,13.1843298 26.4198723,12.9028044 C26.6986298,12.5840245 26.8667996,12.1648628 26.8667996,11.7090932 L26.8667996,11.7090932 L26.8667996,10.0868481 L26.8588385,9.9169054 C26.8165891,9.46692533 26.6078561,9.04625228 26.2728624,8.74377019 C25.8908711,8.39788182 25.3775739,8.23399937 24.8740457,8.29846143 Z M59.4196106,8.66029053 L59.2580407,8.67169656 L57.8926156,8.83485833 L57.7308741,8.86315292 C57.41373,8.93650132 57.1363438,9.1084993 56.9297608,9.34484213 C56.6912253,9.61774032 56.5473187,9.97652002 56.5473187,10.3662708 L56.5473187,10.3662708 L56.5473187,11.6630693 L56.5559437,11.8265412 C56.5959652,12.2047778 56.7736646,12.5572234 57.0554749,12.8123279 C57.3296948,13.0600408 57.6780174,13.2131162 58.226787,13.196763 L58.226787,13.196763 L59.6194807,13.0303893 L59.7811623,13.0020897 C60.0981953,12.9287426 60.37552,12.7568085 60.5820578,12.5205032 C60.8204366,12.2477679 60.9643082,11.889196 60.9643082,11.4994732 L60.9643082,11.4994732 L60.9643082,10.2021759 L60.9556869,10.0387353 C60.915677,9.66046322 60.7379686,9.3073096 60.4552709,9.05262044 C60.1295232,8.75699327 59.6881459,8.61719286 59.2580407,8.67169656 Z M31.3529229,7.53038892 L31.18432,7.54347222 L29.4034433,7.75621923 L29.2378898,7.78406548 C28.8581219,7.8666105 28.5258548,8.07011154 28.2796592,8.35179029 C28.0007666,8.67087854 27.8325859,9.09034209 27.8325859,9.54574644 L27.8325859,9.54574644 L27.8325859,11.1673681 L27.840553,11.3373665 C27.8828371,11.7875615 28.09177,12.2089306 28.4275504,12.5114433 C28.7475156,12.8013295 29.1566649,12.9778085 29.7977822,12.9596965 L29.7977822,12.9596965 L31.6060703,12.7430278 L31.771612,12.7151928 C32.1513594,12.6326952 32.4836492,12.4293811 32.7298294,12.1478557 C33.0085869,11.8290758 33.1767567,11.4099141 33.1767567,10.9541445 L33.1767567,10.9541445 L33.1767567,9.33189937 L33.1688056,9.16205216 C33.1266076,8.71231002 32.9181153,8.29171876 32.5832861,7.98861978 C32.2005816,7.64295876 31.690165,7.47904228 31.18432,7.54347222 Z M37.5891893,6.78410892 L37.4215987,6.79696231 L35.7139354,7.00102311 L35.5482771,7.02886504 C35.1682818,7.11140328 34.8359034,7.31492118 34.5896492,7.59665014 C34.3106911,7.91579412 34.1424817,8.3353943 34.1424817,8.79117179 L34.1424817,8.79117179 L34.1424817,10.41217 L34.1504561,10.5822339 C34.1927726,11.0324821 34.4017953,11.4530276 34.7365653,11.756073 C35.0578293,12.0462826 35.4668155,12.2225852 36.1075859,12.204501 L36.1075859,12.204501 L37.8428569,11.9972025 L38.0084465,11.9693557 C38.3882922,11.8868182 38.7205918,11.6833808 38.9667883,11.401701 C39.2455563,11.0827553 39.4137185,10.663408 39.4137185,10.2076748 L39.4137185,10.2076748 L39.4137185,8.58605318 L39.4057514,8.41605471 C39.3634673,7.96585977 39.1545344,7.54449062 38.818754,7.24197796 C38.438459,6.896848 37.9235347,6.73335609 37.4215987,6.79696231 Z" stroke="#1F1E1E" fill="#1F1E1E"></path>
        </g>
    </g>
</svg>