<?xml version="1.0" encoding="UTF-8"?>
<svg width="80px" height="80px" viewBox="0 0 80 80" version="1.1" xmlns="http://www.w3.org/2000/svg" xmlns:xlink="http://www.w3.org/1999/xlink">
    <title>88650E04-78AE-4D14-B4C9-802178C5ADEA</title>
    <g id="🧬-Symbols" stroke="none" stroke-width="1" fill="none" fill-rule="evenodd">
        <g id="icons/loading">
            <rect id="icon-space" x="0" y="0" width="80" height="80"></rect>
            <g fill="#1F1E1E" fill-rule="nonzero">
                <path d="M52.678988,10.1514584 C54.6566233,10.9911397 56.9403272,10.0682162 57.7797836,8.09005096 C58.6192399,6.11188577 57.6965636,3.82756985 55.7189284,2.98788854 C53.7412932,2.14820723 51.4575892,3.07113078 50.6181329,5.04929597 C49.7786765,7.02746116 50.7013528,9.31177708 52.678988,10.1514584 Z" id="Oval" fill-opacity="0.96"></path>
                <path d="M24.3062112,77.0114437 C26.2838465,77.851125 28.5675504,76.9282014 29.4070068,74.9500362 C30.2464631,72.971871 29.3237868,70.6875551 27.3461516,69.8478738 C25.3685164,69.0081925 23.0848124,69.931116 22.245356,71.9092812 C21.4058997,73.8874464 22.328576,76.1717624 24.3062112,77.0114437 Z" id="Oval" fill-opacity="0.48"></path>
                <path d="M34.0938398,7.47389814 C36.071475,8.31357945 38.355179,7.39065591 39.1946353,5.41249071 C40.0340917,3.43432552 39.1114154,1.1500096 37.1337802,0.310328291 C35.1561449,-0.529353015 32.872441,0.393570527 32.0329846,2.37173572 C31.1935283,4.34990091 32.1162046,6.63421684 34.0938398,7.47389814 Z" id="Oval" fill-opacity="0.88"></path>
                <path d="M48.2746967,75.633987 C48.5202641,77.7109206 47.0114777,79.6065954 44.8844348,79.9716213 C42.8080576,80.2172545 40.9128908,78.7080638 40.5479626,76.5804509 C40.3023952,74.5035173 41.8111816,72.6078426 43.9382245,72.2428166 C46.0146017,71.9971835 48.0291294,73.5570534 48.2746967,75.633987 Z" id="Path" fill-opacity="0.4"></path>
                <path d="M21.2087988,8.6255872 C22.4745252,10.2902393 22.1593473,12.6927065 20.4444755,14.078165 C18.7802693,15.3442306 16.3784457,15.0289683 14.9933584,13.3136369 C13.727632,11.6489848 14.0428099,9.24651755 15.7576817,7.86105909 C17.4725536,6.47560063 19.9430723,6.96093505 21.2087988,8.6255872 Z" id="Path" fill-opacity="0.8"></path>
                <path d="M65.0317812,66.6856953 C66.2975076,68.3503474 65.9823298,70.7528146 64.2674579,72.1382731 C62.6032517,73.4043387 60.2014281,73.0890764 58.8163408,71.373745 C57.5506144,69.7090929 57.8657923,67.3066257 59.5806641,65.9211672 C61.2448703,64.6551016 63.6466939,64.9703639 65.0317812,66.6856953 Z" id="Path" fill-opacity="0.32"></path>
                <path d="M5.07156293,29.391261 C7.04919817,30.2309424 9.33290212,29.3080188 10.1723585,27.3298536 C11.0118148,25.3516884 10.0891385,23.0673725 8.1115033,22.2276912 C6.13386807,21.3880099 3.85016411,22.3109334 3.01070776,24.2890986 C2.1712514,26.2672638 3.09392769,28.5515797 5.07156293,29.391261 Z" id="Oval" fill-opacity="0.72"></path>
                <path d="M71.9136363,57.771641 C73.8912716,58.6113223 76.1749755,57.6883988 77.0144319,55.7102336 C77.8538882,53.7320684 76.9312119,51.4477525 74.9535767,50.6080712 C72.9759415,49.7683898 70.6922375,50.6913134 69.8527811,52.6694786 C69.0133248,54.6476438 69.9360011,56.9319597 71.9136363,57.771641 Z" id="Oval" fill-opacity="0.24"></path>
                <path d="M3.44158501,40.5352023 C5.51796222,40.2895692 7.41312908,41.7987598 7.77805726,43.9263727 C8.02362461,46.0033064 6.51483827,47.8989811 4.38779538,48.264007 C2.31141816,48.5096402 0.416251307,47.0004495 0.0513231199,44.8728366 C-0.313605068,42.7452238 1.31454212,40.9002283 3.44158501,40.5352023 Z" id="Path" fill-opacity="0.64"></path>
                <path d="M75.6373442,31.7353252 C77.7137215,31.489692 79.6088883,32.9988827 79.9738165,35.1264956 C80.2193838,37.2034292 78.7105975,39.0991039 76.5835546,39.4641299 C74.5071774,39.709763 72.6120105,38.2005724 72.2470824,36.0729595 C72.001515,33.9960258 73.560967,31.9809583 75.6373442,31.7353252 Z" id="Path" fill-opacity="0.16"></path>
                <path d="M8.64689607,58.808476 C10.3111023,57.5424104 12.7129258,57.8576728 14.0980131,59.5730042 C15.3637396,61.2376563 15.0485617,63.6401235 13.3336898,65.025582 C11.6694837,66.2916476 9.26766008,65.9763853 7.88257278,64.2610539 C6.667512,62.4770089 6.98268989,60.0745417 8.64689607,58.808476 Z" id="Path" fill-opacity="0.56"></path>
                <path d="M66.6914498,14.9737502 C68.355656,13.7076846 70.7574795,14.0229469 72.1425668,15.7382783 C73.4082933,17.4029305 73.0931154,19.8053977 71.3782436,21.1908562 C69.7140374,22.4569218 67.3122138,22.1416594 65.9271265,20.426328 C64.6614,18.7616759 64.9765779,16.3592087 66.6914498,14.9737502 Z" id="Path" fill-opacity="0.08"></path>
            </g>
        </g>
    </g>
</svg>