<?xml version="1.0" encoding="UTF-8"?>
<svg width="80px" height="80px" viewBox="0 0 80 80" version="1.1" xmlns="http://www.w3.org/2000/svg" xmlns:xlink="http://www.w3.org/1999/xlink">
    <title>177C9F1E-D3E1-4D2D-9319-0CA4741C5237</title>
    <g id="🧬-Symbols" stroke="none" stroke-width="1" fill="none" fill-rule="evenodd">
        <g id="icons/frying-basket" transform="translate(0.000000, -0.000004)">
            <rect id="icon-space" x="0" y="4.22695894e-06" width="80" height="79.9038527"></rect>
            <path d="M24.6047576,73.115967 L28.1908175,76.8762785 L24.4116962,79.1562644 C23.9722078,79.4192948 23.475314,79.5292137 22.9901773,79.4934189 C22.5076766,79.4578185 22.0367684,79.2781633 21.6455799,78.9615848 L21.6455799,78.9615848 L19.0152293,76.4871319 L24.6047576,73.115967 Z M34.8560534,66.9315083 L38.2011987,70.837528 L31.5753293,74.835544 L27.9891946,71.0738487 L34.8560534,66.9315083 Z M18.4702184,66.6826783 L21.877632,70.2558621 L16.1037459,73.7378759 L12.4667652,70.3031581 L18.4702184,66.6826783 Z M44.5411026,61.0906765 L47.1616804,65.4320282 L41.5494427,68.8178874 L38.2057712,64.9121951 L44.5411026,61.0906765 Z M29.1343231,60.2497842 L32.3122772,63.9612795 L25.2608758,68.2138769 L21.8546799,64.6407486 L29.1343231,60.2497842 Z M12.528558,60.451061 L15.7432101,63.8227503 L9.55627233,67.5546978 L6.12622791,64.3142222 L12.528558,60.451061 Z M53.203862,55.8665282 L54.6059906,58.1968094 C54.9280564,58.7309086 55.0135553,59.3416663 54.8925646,59.9069816 C54.7718149,60.4711706 54.4455815,60.9902352 53.9434475,61.3424507 L53.9434475,61.3424507 L50.4704057,63.4397798 L47.8450529,59.0983019 L53.203862,55.8665282 Z M41.3919153,36.2905776 L42.390507,37.9369684 L1.95742414,62.323845 C0.705384009,62.174411 0.516001557,61.8604652 0.509253446,61.5174405 C0.503568094,61.2124369 0.642491263,60.9251196 0.879645843,60.7402889 L0.879645843,60.7402889 L41.3919153,36.2905776 Z M40.0580296,53.6603298 L42.5486785,57.7872544 L35.662003,61.9419098 L32.4838905,58.2289354 L40.0580296,53.6603298 Z M23.5927002,53.7780356 L26.590581,57.2782529 L19.1276278,61.7806053 L15.9131238,58.4103521 L23.5927002,53.7780356 Z M48.7264985,48.4110538 L51.2185917,52.5372274 L45.8597179,55.773837 L43.3676247,51.6476633 L48.7264985,48.4110538 Z M35.7149432,46.4644088 L38.0641373,50.3583837 L29.9402127,55.2587118 L26.9409686,51.7570958 L35.7149432,46.4644088 Z M44.3858796,41.2060996 L46.7369219,45.0987344 L41.3780481,48.3353439 L39.0270058,44.4427091 L44.3858796,41.2060996 Z M48.5337853,20.163967 L49.5279595,21.8165348 L44.9923829,24.5504187 C44.2250863,25.0138409 43.6733995,25.7635022 43.4586004,26.6342548 C43.2622199,27.4317043 43.3634631,28.2706961 43.7386043,28.9954823 L43.7386043,28.9954823 L48.3295996,36.6000865 C48.6558197,37.1493138 48.7407268,37.7753607 48.6151606,38.354489 C48.5249991,38.7703256 48.3264145,39.162042 48.0307068,39.483701 L48.0307068,39.483701 L39.9686675,26.46757 C39.8400769,26.2542343 39.8031168,26.0110453 39.8467399,25.7840688 C39.8893607,25.5623072 40.0086598,25.3558632 40.1947046,25.2080872 L40.1947046,25.2080872 L48.5337853,20.163967 Z M74.1758533,0.500003872 C74.4400353,0.499689136 74.7038255,0.518561658 74.9650898,0.5564302 C76.199274,0.800509184 77.2414762,1.3656016 78.0146442,2.15113479 C78.7997979,2.94884545 79.3058734,3.97288024 79.4547829,5.10854009 C79.5972004,6.1946894 79.39828,7.26641235 78.9254929,8.19749482 C78.4529048,9.12818549 77.7067147,9.91839085 76.7542549,10.4419689 L76.7542549,10.4419689 L53.8665483,21.5357839 L50.8096084,16.4340201 L71.0851509,1.51930131 C71.9798427,0.857833802 73.0629945,0.500578319 74.1758533,0.500003872 Z" id="icons/salt-citrus" stroke="#1F1E1E" fill="#1F1E1E"></path>
        </g>
    </g>
</svg>