<?xml version="1.0" encoding="UTF-8"?>
<svg width="80px" height="80px" viewBox="0 0 80 80" version="1.1" xmlns="http://www.w3.org/2000/svg" xmlns:xlink="http://www.w3.org/1999/xlink">
    <title>E5C8D6DF-6BAD-4A85-962A-94C350DD6D16</title>
    <g id="🧬-Symbols" stroke="none" stroke-width="1" fill="none" fill-rule="evenodd">
        <g id="icons/tacos-regular">
            <rect id="icon-space" x="0" y="0" width="80" height="80"></rect>
            <path d="M2.16835323,34.0446261 C3.40000741,34.4817915 4.35568097,34.8743906 5.30633065,35.1299643 C6.34796735,39.5537963 8.36549471,43.4838846 11.3362527,46.7572069 C10.4490398,47.2679597 10.3668213,47.3045493 10.3436052,47.3139929 C9.74070303,47.5235489 9.14403324,47.5452558 8.59742138,47.4202937 C8.00394747,47.2846184 7.47016136,46.9772324 7.05143748,46.5561894 C6.63277548,46.1352086 6.32870378,45.6001626 6.19699407,45.0067916 C6.07507362,44.4575226 6.10187794,43.8588753 6.31859243,43.2566136 C6.77876711,41.9856999 6.58719519,41.2587108 6.19690045,40.7029345 C5.78878957,40.1217882 5.11582185,39.7252814 4.31478848,39.7252814 C3.348047,39.7252814 2.60858447,39.4383263 2.04160683,38.9464673 C1.4813598,38.4604472 1.08837817,37.7809088 0.977397827,37.0052621 C0.884877645,36.3613788 0.966095693,35.7414401 1.20947759,35.2026639 C1.41616428,34.7451202 1.73990574,34.3475215 2.16835323,34.0446261 Z M29.9070202,7.36641035 C35.6871988,7.33935363 41.4523119,9.55807734 45.8989552,13.9549994 C46.847001,14.9039733 47.3119959,16.1355821 47.3118432,17.3624612 C47.3116987,18.5228408 46.8959452,19.6790314 46.0793083,20.5877764 L45.8981841,20.7786314 L20.7858713,45.8918817 C20.0847426,46.5923406 19.2244357,47.033074 18.3217313,47.2126231 C17.3927576,47.3973971 16.4191386,47.3059383 15.5280818,46.9374126 C14.7348214,46.6100789 14.2462919,46.1897853 13.7237205,45.6489118 C9.42757429,41.223308 7.33615552,35.5221143 7.37902739,29.8508253 C7.42231305,24.1247992 9.6408825,18.4292525 13.9622374,14.1079898 C18.4491003,9.62144625 24.1845984,7.39319671 29.9070202,7.36641035 Z M17.3739761,41.2402053 C17.0175192,41.2402053 16.661055,41.3761945 16.3890482,41.6482013 C16.1170595,41.92019 15.9810523,42.2766235 15.9810523,42.6332464 C15.9810523,42.9895259 16.1168248,43.3460401 16.388574,43.6185197 C16.661055,43.8910014 17.0175192,44.0269906 17.3739761,44.0269906 C17.730433,44.0269906 18.0868972,43.8910014 18.3589041,43.6189946 C18.6315205,43.3463782 18.7676031,42.98969 18.7676031,42.6332816 C18.7676031,42.2765643 18.6313093,41.9199488 18.3584768,41.6477745 C18.0868972,41.3761945 17.730433,41.2402053 17.3739761,41.2402053 Z M19.9005289,38.7137698 C19.543906,38.7137698 19.1874725,38.849777 18.9154838,39.1217657 C18.643477,39.3937726 18.5074878,39.7502368 18.5074878,40.1066937 C18.5074878,40.4631506 18.643477,40.8196148 18.9154838,41.0916216 C19.1871292,41.3639978 19.543764,41.5003206 19.9005289,41.5003206 C20.2569506,41.5003206 20.6136661,41.3642326 20.8862771,41.0916216 C21.1582549,40.8197168 21.2942731,40.4632334 21.2942731,40.1067288 C21.2942731,39.7502587 21.1582785,39.3937671 20.8862771,39.1217657 C20.6133225,38.8495423 20.2568084,38.7137698 19.9005289,38.7137698 Z M16.1107584,37.450177 C15.7540031,37.450177 15.3972961,37.5862386 15.1253617,37.858173 C14.8534273,38.1301074 14.7173657,38.4868143 14.7173657,38.8435696 C14.7173657,39.2003249 14.8534273,39.5570319 15.1253617,39.8289663 C15.3973305,40.100862 15.7540173,40.2368919 16.1107584,40.2368919 C16.4674994,40.2368919 16.8241862,40.100862 17.0961075,39.8290138 C17.3680894,39.5570319 17.504151,39.2003249 17.504151,38.8435696 C17.504151,38.4868143 17.3680894,38.1301074 17.096155,37.858173 C16.8242206,37.5862386 16.4675137,37.450177 16.1107584,37.450177 Z M7.5865715,18.1911129 C5.96655253,21.7233096 4.87973498,25.8066952 4.87973498,29.9996389 C4.87973498,30.7235375 4.91730012,31.4778307 4.96730617,32.1043341 C2.72687982,31.1930159 1.25859223,29.3363653 0.731620277,27.2389829 C0.147599612,24.914543 0.719727801,22.2976722 2.66858627,20.3487697 C3.96972833,19.0488674 5.71161737,18.2676517 7.5865715,18.1911129 Z M7.52734583,12.9280217 C7.73274471,12.9280217 7.9103017,12.9561942 8.08458659,12.9823653 C8.2700014,13.0102077 8.45245959,13.0360242 8.64869109,13.0427591 L8.64869109,13.0427591 L8.56880007,15.5751975 C7.22415702,15.6197653 5.95782805,15.7906477 4.75929938,16.1921368 C4.62200924,15.4131247 4.80306207,14.6802134 5.20648957,14.1067432 C5.70996617,13.3910537 6.55346792,12.9280217 7.52734583,12.9280217 Z M12.0719679,5.9724342 L15.6702169,6.4851852 C15.6486751,7.48089749 15.663917,8.36093129 15.77782,9.20571525 C14.1545996,10.437203 12.6967213,11.7525945 11.446918,13.1191169 C11.4126696,12.570262 11.4471905,12.2184492 11.4804553,11.885392 C11.5789635,10.8995667 11.6673016,10.0167121 11.8782368,7.90861818 L11.8782368,7.90861818 L12.0719679,5.9724342 Z M36.2428104,0.930267801 C37.2304323,0.820136468 38.2410779,1.20431437 38.9574887,2.03117462 C39.456976,2.60675895 39.7322652,3.34343131 39.7322652,4.10522111 C39.7322652,4.94529774 39.9897954,5.52043576 40.4058452,5.93648557 C40.8225342,6.35317461 41.3984746,6.61043287 42.0349872,6.61043287 C42.4265063,6.61043287 42.6826336,6.52564181 43.0940175,6.37387776 C44.2874651,5.94191562 45.3517063,6.13735988 46.1572098,6.70271992 C46.9558951,7.26329452 47.5,8.1883049 47.5,9.28746076 C47.5,9.7100632 47.4046242,10.1486253 47.3135064,10.3537498 L47.3135064,10.3537498 L46.8503146,11.4078449 C43.5300052,8.36807777 39.5348988,6.31969169 35.166247,5.40774776 C34.8993319,4.37349255 34.4683698,3.39501451 33.8786082,2.4895291 C34.5099112,1.52478117 35.3610406,1.02859539 36.2428104,0.930267801 Z M20.3556787,2.66167729 C22.2795384,0.737817591 24.8865827,0.153788493 27.2351372,0.689489805 C29.3604792,1.17427672 31.2750815,2.57628128 32.2788046,4.73473488 C27.8073636,4.5330055 22.6533015,5.46994636 18.3939246,7.72239522 C18.2643883,5.73412455 19.0521487,3.9652073 20.3556787,2.66167729 Z" id="icons/tacos-small" stroke="#1F1E1E" fill="#1F1E1E"></path>
            <path d="M34.1683532,66.0446261 C35.4000074,66.4817915 36.355681,66.8743906 37.3063306,67.1299643 C38.3479673,71.5537963 40.3654947,75.4838846 43.3362527,78.7572069 C42.4490398,79.2679597 42.3668213,79.3045493 42.3436052,79.3139929 C41.740703,79.5235489 41.1440332,79.5452558 40.5974214,79.4202937 C40.0039475,79.2846184 39.4701614,78.9772324 39.0514375,78.5561894 C38.6327755,78.1352086 38.3287038,77.6001626 38.1969941,77.0067916 C38.0750736,76.4575226 38.1018779,75.8588753 38.3185924,75.2566136 C38.7787671,73.9856999 38.5871952,73.2587108 38.1969005,72.7029345 C37.7887896,72.1217882 37.1158218,71.7252814 36.3147885,71.7252814 C35.348047,71.7252814 34.6085845,71.4383263 34.0416068,70.9464673 C33.4813598,70.4604472 33.0883782,69.7809088 32.9773978,69.0052621 C32.8848776,68.3613788 32.9660957,67.7414401 33.2094776,67.2026639 C33.4161643,66.7451202 33.7399057,66.3475215 34.1683532,66.0446261 Z M61.9070202,39.3664103 C67.6871988,39.3393536 73.4523119,41.5580773 77.8989552,45.9549994 C78.847001,46.9039733 79.3119959,48.1355821 79.3118432,49.3624612 C79.3116987,50.5228408 78.8959452,51.6790314 78.0793083,52.5877764 L77.8981841,52.7786314 L52.7858713,77.8918817 C52.0847426,78.5923406 51.2244357,79.033074 50.3217313,79.2126231 C49.3927576,79.3973971 48.4191386,79.3059383 47.5280818,78.9374126 C46.7348214,78.6100789 46.2462919,78.1897853 45.7237205,77.6489118 C41.4275743,73.223308 39.3361555,67.5221143 39.3790274,61.8508253 C39.422313,56.1247992 41.6408825,50.4292525 45.9622374,46.1079898 C50.4491003,41.6214462 56.1845984,39.3931967 61.9070202,39.3664103 Z M49.3739761,73.2402053 C49.0175192,73.2402053 48.661055,73.3761945 48.3890482,73.6482013 C48.1170595,73.92019 47.9810523,74.2766235 47.9810523,74.6332464 C47.9810523,74.9895259 48.1168248,75.3460401 48.388574,75.6185197 C48.661055,75.8910014 49.0175192,76.0269906 49.3739761,76.0269906 C49.730433,76.0269906 50.0868972,75.8910014 50.3589041,75.6189946 C50.6315205,75.3463782 50.7676031,74.98969 50.7676031,74.6332816 C50.7676031,74.2765643 50.6313093,73.9199488 50.3584768,73.6477745 C50.0868972,73.3761945 49.730433,73.2402053 49.3739761,73.2402053 Z M51.9005289,70.7137698 C51.543906,70.7137698 51.1874725,70.849777 50.9154838,71.1217657 C50.643477,71.3937726 50.5074878,71.7502368 50.5074878,72.1066937 C50.5074878,72.4631506 50.643477,72.8196148 50.9154838,73.0916216 C51.1871292,73.3639978 51.543764,73.5003206 51.9005289,73.5003206 C52.2569506,73.5003206 52.6136661,73.3642326 52.8862771,73.0916216 C53.1582549,72.8197168 53.2942731,72.4632334 53.2942731,72.1067288 C53.2942731,71.7502587 53.1582785,71.3937671 52.8862771,71.1217657 C52.6133225,70.8495423 52.2568084,70.7137698 51.9005289,70.7137698 Z M48.1107584,69.450177 C47.7540031,69.450177 47.3972961,69.5862386 47.1253617,69.858173 C46.8534273,70.1301074 46.7173657,70.4868143 46.7173657,70.8435696 C46.7173657,71.2003249 46.8534273,71.5570319 47.1253617,71.8289663 C47.3973305,72.100862 47.7540173,72.2368919 48.1107584,72.2368919 C48.4674994,72.2368919 48.8241862,72.100862 49.0961075,71.8290138 C49.3680894,71.5570319 49.504151,71.2003249 49.504151,70.8435696 C49.504151,70.4868143 49.3680894,70.1301074 49.096155,69.858173 C48.8242206,69.5862386 48.4675137,69.450177 48.1107584,69.450177 Z M39.5865715,50.1911129 C37.9665525,53.7233096 36.879735,57.8066952 36.879735,61.9996389 C36.879735,62.7235375 36.9173001,63.4778307 36.9673062,64.1043341 C34.7268798,63.1930159 33.2585922,61.3363653 32.7316203,59.2389829 C32.1475996,56.914543 32.7197278,54.2976722 34.6685863,52.3487697 C35.9697283,51.0488674 37.7116174,50.2676517 39.5865715,50.1911129 Z M39.5273458,44.9280217 C39.7327447,44.9280217 39.9103017,44.9561942 40.0845866,44.9823653 C40.2700014,45.0102077 40.4524596,45.0360242 40.6486911,45.0427591 L40.6486911,45.0427591 L40.5688001,47.5751975 C39.224157,47.6197653 37.957828,47.7906477 36.7592994,48.1921368 C36.6220092,47.4131247 36.8030621,46.6802134 37.2064896,46.1067432 C37.7099662,45.3910537 38.5534679,44.9280217 39.5273458,44.9280217 Z M44.0719679,37.9724342 L47.6702169,38.4851852 C47.6486751,39.4808975 47.663917,40.3609313 47.77782,41.2057152 C46.1545996,42.437203 44.6967213,43.7525945 43.446918,45.1191169 C43.4126696,44.570262 43.4471905,44.2184492 43.4804553,43.885392 C43.5789635,42.8995667 43.6673016,42.0167121 43.8782368,39.9086182 L43.8782368,39.9086182 L44.0719679,37.9724342 Z M68.2428104,32.9302678 C69.2304323,32.8201365 70.2410779,33.2043144 70.9574887,34.0311746 C71.456976,34.606759 71.7322652,35.3434313 71.7322652,36.1052211 C71.7322652,36.9452977 71.9897954,37.5204358 72.4058452,37.9364856 C72.8225342,38.3531746 73.3984746,38.6104329 74.0349872,38.6104329 C74.4265063,38.6104329 74.6826336,38.5256418 75.0940175,38.3738778 C76.2874651,37.9419156 77.3517063,38.1373599 78.1572098,38.7027199 C78.9558951,39.2632945 79.5,40.1883049 79.5,41.2874608 C79.5,41.7100632 79.4046242,42.1486253 79.3135064,42.3537498 L79.3135064,42.3537498 L78.8503146,43.4078449 C75.5300052,40.3680778 71.5348988,38.3196917 67.166247,37.4077478 C66.8993319,36.3734925 66.4683698,35.3950145 65.8786082,34.4895291 C66.5099112,33.5247812 67.3610406,33.0285954 68.2428104,32.9302678 Z M52.3556787,34.6616773 C54.2795384,32.7378176 56.8865827,32.1537885 59.2351372,32.6894898 C61.3604792,33.1742767 63.2750815,34.5762813 64.2788046,36.7347349 C59.8073636,36.5330055 54.6533015,37.4699464 50.3939246,39.7223952 C50.2643883,37.7341246 51.0521487,35.9652073 52.3556787,34.6616773 Z" stroke="#1F1E1E" fill="#1F1E1E"></path>
        </g>
    </g>
</svg>