<?xml version="1.0" encoding="UTF-8"?>
<svg width="80px" height="80px" viewBox="0 0 80 80" version="1.1" xmlns="http://www.w3.org/2000/svg" xmlns:xlink="http://www.w3.org/1999/xlink">
    <title>34DA9C5C-2229-40A7-BD81-302C29BFA609</title>
    <g id="🧬-Symbols" stroke="none" stroke-width="1" fill="none" fill-rule="evenodd">
        <g id="icons/maximize">
            <rect id="icon-space" x="0" y="0" width="80" height="80"></rect>
            <path d="M80,2.75862069 L80,34.4827586 C80,36.7680748 78.1473852,38.6206897 75.862069,38.6206897 C73.5767528,38.6206897 71.7241379,36.7680748 71.7241379,34.4827586 L71.7241379,14.1241379 L14.1241379,71.7241379 L34.4827586,71.7241379 C36.7680748,71.7241379 38.6206897,73.5767528 38.6206897,75.862069 C38.6206897,78.1473852 36.7680748,80 34.4827586,80 L2.75862069,80 C1.23696294,79.9954554 0.00454455326,78.7630371 0,77.2413793 L0,45.5172414 C0,43.2319252 1.85261483,41.3793103 4.13793103,41.3793103 C6.42324724,41.3793103 8.27586207,43.2319252 8.27586207,45.5172414 L8.27586207,65.8758621 L65.8758621,8.27586207 L45.5172414,8.27586207 C43.2319252,8.27586207 41.3793103,6.42324724 41.3793103,4.13793103 C41.3793103,1.85261483 43.2319252,0 45.5172414,0 L77.2413793,0 C78.7630371,0.00454455326 79.9954554,1.23696294 80,2.75862069 L80,2.75862069 Z" fill="#1F1E1E" fill-rule="nonzero"></path>
        </g>
    </g>
</svg>