<?xml version="1.0" encoding="UTF-8"?>
<svg width="80px" height="80px" viewBox="0 0 80 80" version="1.1" xmlns="http://www.w3.org/2000/svg" xmlns:xlink="http://www.w3.org/1999/xlink">
    <title>18C8A291-B317-4FE2-86E5-9C7DBCCEE1E7</title>
    <g id="🧬-Symbols" stroke="none" stroke-width="1" fill="none" fill-rule="evenodd">
        <g id="icons/e-stop">
            <rect id="icon-space" x="0" y="0" width="80" height="80"></rect>
            <path d="M54.4912452,-2.1431319e-15 L25.0888112,-2.1431319e-15 C24.0241067,-2.1431319e-15 23.0033353,0.424474016 22.2525631,1.1794156 L1.16375183,22.385341 C0.418392368,23.1348397 0,24.1488969 0,25.2059254 L0,55.2161847 C0,56.2864167 0.428880088,57.3120137 1.19074296,58.0636529 L22.2572567,78.8474682 C23.0057893,79.585956 24.0150075,80 25.0665137,80 L54.9113534,80 C55.9760631,80 56.9968389,79.5755219 57.747612,78.8205739 L78.8362586,57.6146572 C79.5816117,56.8651593 80,55.8511066 80,54.7940833 L80,25.2278329 C80,24.1578529 79.5713212,23.1324757 78.8097742,22.3808751 L57.3010195,1.15304219 C56.5524419,0.414241668 55.5430031,-2.1431319e-15 54.4912452,-2.1431319e-15 Z M39.9999993,62.5471579 C37.4159357,62.5471579 35.3124973,60.5010441 35.3124973,57.9874035 C35.3124973,55.4737629 37.4159357,53.4276492 39.9999993,53.4276492 C42.584063,53.4276492 44.6875014,55.4737629 44.6875014,57.9874035 C44.6875014,60.5010441 42.584063,62.5471579 39.9999993,62.5471579 Z M44.6875014,44.3081404 C44.6875014,46.821781 42.584063,48.8678948 39.9999993,48.8678948 C37.4159357,48.8678948 35.3124973,46.821781 35.3124973,44.3081404 L35.3124973,21.5093685 C35.3124973,18.9957279 37.4159357,16.9496141 39.9999993,16.9496141 C42.584063,16.9496141 44.6875014,18.9957279 44.6875014,21.5093685 L44.6875014,44.3081404 Z" fill="#1F1E1E" fill-rule="nonzero"></path>
        </g>
    </g>
</svg>