<?xml version="1.0" encoding="UTF-8"?>
<svg width="80px" height="80px" viewBox="0 0 80 80" version="1.1" xmlns="http://www.w3.org/2000/svg" xmlns:xlink="http://www.w3.org/1999/xlink">
    <title>B0F4EBA8-9022-43AC-996A-928406041F6D</title>
    <g id="🧬-Symbols" stroke="none" stroke-width="1" fill="none" fill-rule="evenodd">
        <g id="icons/cheese-sticks">
            <rect id="icon-space" x="0" y="0" width="80" height="80"></rect>
            <path d="M12.3482045,29.9729535 C12.6764704,29.9737494 13.013428,30.067312 13.3279543,30.2708143 C19.4638106,34.2418709 29.6021025,36.2757188 39.811241,36.3300755 C50.0442828,36.3845594 60.333361,34.4512404 66.7132149,30.5593426 C67.0189088,30.3729167 67.3428988,30.2874512 67.6581323,30.2874859 C67.9988018,30.2875234 68.3283631,30.3864983 68.6123737,30.5596458 C68.8995463,30.7347209 69.1406651,30.9858667 69.298871,31.2904099 C69.4194798,31.5225796 69.4913006,31.7857392 69.4992348,32.0691012 L69.4962081,32.2414564 L63.3852547,77.9023794 C63.3270799,78.3368112 63.1213967,78.7190339 62.8228112,79.0006509 C62.5691156,79.2399292 62.2483777,79.4066596 61.8942844,79.4707854 L61.7146141,79.4941588 L18.4669125,79.5 C18.0312537,79.5 17.6275116,79.3462784 17.3104533,79.0871707 C17.039902,78.8660697 16.8323538,78.5683188 16.7217721,78.2237229 L16.674719,78.0476592 L10.517664,32.0667521 C10.4676651,31.693258 10.5266607,31.3462878 10.6657776,31.0467805 C10.816464,30.7223652 11.0597637,30.4540485 11.353785,30.266498 C11.6473939,30.0792105 11.9921741,29.9720903 12.3482045,29.9729535 Z M53.0741832,52.2589574 C52.6513337,51.9242219 52.1173928,51.7646579 51.3909049,51.8874335 L51.3909049,51.8874335 L27.5168341,57.9371787 L27.3597153,57.9980711 C27.0525878,58.1323793 26.7891792,58.3404993 26.588547,58.5985291 C26.3649268,58.8861235 26.2098922,59.233625 26.1666252,59.8136907 L26.1666252,59.8136907 L26.1734853,62.999331 L26.1963063,63.1787305 C26.2677018,63.5913947 26.4641689,63.9605369 26.7446823,64.244607 C27.0555352,64.5594015 27.4663758,64.7817194 28.127203,64.8324222 L28.127203,64.8324222 L29.7442338,64.8392791 L29.8622289,64.8609366 C30.0546615,64.9089503 30.2247297,65.0151902 30.3538936,65.1592124 C30.5136785,65.3373781 30.6110417,65.5737756 30.6110417,65.8325083 C30.6110417,66.0912341 30.513669,66.3276235 30.3538856,66.5057861 C30.1885566,66.6901322 29.9533231,66.8004102 29.6065562,66.8326031 L29.6065562,66.8326031 L27.9817894,66.8394757 L27.8034945,66.86269 C27.3933895,66.9352763 27.0266677,67.1348487 26.7446823,67.4204096 C26.4350902,67.7339272 26.2161884,68.14828 26.1666191,68.8137998 L26.1666191,68.8137998 L26.1744824,72.0096897 L26.1988629,72.1908945 C26.2855233,72.6690976 26.5434438,73.1035766 26.9268546,73.4068045 C27.3508278,73.7410746 27.884685,73.8999218 28.6085748,73.7791138 L28.6085748,73.7791138 L52.4832751,67.7292414 L52.6403088,67.668285 C52.9472852,67.533802 53.210652,67.3252435 53.4112792,67.066862 C53.6350389,66.778689 53.7900414,66.4306597 53.8333457,65.8516672 L53.8333457,65.8516672 L53.8255606,53.6557734 L53.8012523,53.4748012 C53.714828,52.9972674 53.4574623,52.5637351 53.0741832,52.2589574 Z M37.0370139,63.3325749 C37.3073989,63.3325749 37.5515834,63.4441467 37.728477,63.6232543 C37.9079637,63.8049874 38.0184722,64.0560859 38.0184722,64.3326168 C38.0184954,64.6098177 37.9084839,64.8608232 37.7292641,65.042286 C37.5522639,65.2215016 37.3077057,65.3325749 37.0370139,65.3325749 C36.7666948,65.3325749 36.5221228,65.2212586 36.3450044,65.0419234 C36.1658232,64.8604997 36.0555556,64.6096525 36.0555556,64.3325749 C36.0555556,64.0562083 36.1662912,63.8052851 36.3457225,63.6236081 C36.522741,63.4443741 36.7669668,63.3325749 37.0370139,63.3325749 Z M45.9259028,60.3324305 C46.604978,60.3324305 47.219757,60.612005 47.6649837,61.0628047 C48.1124483,61.5158703 48.3888889,62.1417719 48.3888889,62.8325046 C48.3888889,63.5232373 48.1124483,64.1491389 47.6649837,64.6022045 C47.219757,65.0530041 46.604978,65.3325786 45.9259028,65.3325786 C45.2468275,65.3325786 44.6320486,65.0530041 44.1868219,64.6022045 C43.7393572,64.1491389 43.4629167,63.5232373 43.4629167,62.8325046 C43.4629167,62.1417719 43.7393572,61.5158703 44.1868219,61.0628047 C44.6320486,60.612005 45.2468275,60.3324305 45.9259028,60.3324305 Z M40,58.832499 C40.270385,58.832499 40.5145695,58.9440708 40.6914631,59.1231784 C40.8709498,59.3049115 40.9814583,59.55601 40.9814583,59.832499 C40.9814583,60.1097163 40.8714285,60.3607366 40.6921982,60.5422101 C40.5152024,60.7214211 40.270664,60.832499 40,60.832499 C39.7296809,60.832499 39.4851089,60.7211827 39.3079905,60.5418475 C39.1288093,60.3604237 39.0185417,60.1095766 39.0185417,59.832499 C39.0185417,59.5561324 39.1292773,59.3052092 39.3087086,59.1235322 C39.4857271,58.9442982 39.7299529,58.832499 40,58.832499 Z M47.2872081,44.0688362 C45.4255816,43.1269467 42.962171,42.5707317 39.7615478,43.06157 L39.7615478,43.06157 L26.5314374,56.4572827 L52.4968181,49.8790583 L52.4622505,49.7660393 C52.3840993,49.5165915 52.3248718,49.3679237 52.3134884,49.3397633 C52.2550976,49.1953144 50.8985556,45.8959967 47.2872081,44.0688362 Z M41.1840635,0.5 C41.69025,0.5 42.148433,0.706211446 42.4801336,1.03930099 C42.8125888,1.37314832 43.0180494,1.83439604 43.0180494,2.34376457 L43.0180494,2.34376457 L43.0183554,30.5906818 C41.1654942,30.663152 39.3604657,30.663955 37.4832028,30.5912572 L37.4832028,30.5912572 L37.4833558,2.34375916 C37.4833558,1.83437959 37.6887918,1.3731144 38.0212514,1.03926259 C38.3529355,0.706189659 38.8111104,0.5 39.3173416,0.5 L39.3173416,0.5 Z M31.8152285,5.18798706 L31.8152285,30.1441148 C29.8823195,29.9094246 28.0260637,29.5957414 26.2799153,29.2102358 L26.2799153,29.2102358 L26.2800681,7.03174622 C26.2800681,6.5223831 26.4855287,6.06113538 26.8179839,5.72728805 C27.1496845,5.39419851 27.6078675,5.18798706 28.114054,5.18798706 L28.114054,5.18798706 L31.8152285,5.18798706 Z M52.3873512,5.18798706 C52.8935376,5.18798706 53.3517207,5.39419851 53.6834213,5.72728805 C54.0158765,6.06113538 54.221337,6.5223831 54.221337,7.03175656 L54.221337,7.03175656 L54.2217956,29.2005657 C52.4732452,29.5874494 50.6164164,29.9028294 48.6864878,30.1390434 L48.6864878,30.1390434 L48.6864878,5.18798706 Z M20.6119408,9.87597412 L20.6119408,27.5309273 C18.8140809,26.739318 15.9289363,25.0631924 15.076936,24.5621356 L15.076936,24.5621356 L15.076936,11.7197333 C15.076936,11.2103702 15.2823966,10.7491224 15.6148518,10.4152751 C15.9465524,10.0821856 16.4047354,9.87597412 16.9109219,9.87597412 L16.9109219,9.87597412 L20.6119408,9.87597412 Z M63.5906388,9.87597412 C64.0968253,9.87597412 64.5550084,10.0821856 64.8867089,10.4152751 C65.2191641,10.7491224 65.4246247,11.2103702 65.4246247,11.7197333 L65.4246247,11.7197333 L65.4246247,24.7195483 C64.4891779,25.2288293 61.602189,26.7849621 59.8897755,27.5245866 L59.8897755,27.5245866 L59.8897755,9.87597412 Z" stroke="#1F1E1E" fill="#1F1E1E"></path>
        </g>
    </g>
</svg>