<?xml version="1.0" encoding="UTF-8"?>
<svg width="80px" height="80px" viewBox="0 0 80 80" version="1.1" xmlns="http://www.w3.org/2000/svg" xmlns:xlink="http://www.w3.org/1999/xlink">
    <title>9F5EBF68-FE94-474F-9B7A-1D3797F2444C</title>
    <g id="🧬-Symbols" stroke="none" stroke-width="1" fill="none" fill-rule="evenodd">
        <g id="icons/chicken-filet-spicy">
            <rect id="icon-space" x="0" y="0" width="80" height="80"></rect>
            <path d="M79.445873,40.92875 L79.445873,43.6276557 C79.0512333,47.4304805 76.9192249,50.6085536 73.986998,53.1609253 C70.2338323,56.4278874 65.1667977,58.6748312 60.6229001,59.878228 C58.5361361,60.4313544 56.4567441,60.7262957 54.4437331,61.0128853 C47.6172886,61.9872942 46.0564824,62.511609 39.5107499,66.3951493 C34.835366,69.1683587 30.2194608,71.910481 24.443263,71.4491213 C20.6143867,71.1397885 16.7087975,69.7137094 13.145348,67.3349819 C9.80459618,65.1040567 6.82880779,62.0906211 4.53806122,58.6214938 C2.46905527,55.4874558 1.1232646,51.8802246 0.673440683,48.307468 C3.24794681,51.46077 6.35094355,54.2812759 9.78021243,56.4373695 C14.8369705,59.615348 20.2796013,61.0910512 24.8012811,61.0910512 C31.1166046,61.0910512 36.3794236,58.174361 41.0200438,55.5820736 C43.6257701,54.128452 46.0604278,52.7660644 48.5289266,51.9680436 C50.7858205,51.2380848 53.2180792,50.9147534 55.768543,50.5726438 C57.9932774,50.2742263 60.3065222,49.9629891 62.6731288,49.3731561 C65.253243,48.7295 73.6520589,46.3028599 79.445873,40.92875 L79.445873,40.92875 Z M66.831066,16.8749907 C69.7292334,18.0928339 73.9299477,20.1791387 76.7072297,23.0815278 C78.5313306,24.9877983 79.7446511,27.2524841 79.458069,29.8723458 C79.2072696,32.1602835 78.0844621,34.1663641 76.4820357,35.9034941 C72.5581163,40.1550594 65.7746899,42.8037187 61.2814297,43.9244055 C59.2025336,44.4421328 57.0997135,44.7229751 54.9939127,45.0052382 C52.2397858,45.3744035 49.4809575,45.7468096 46.7604764,46.625912 C44.0104074,47.5149226 41.4239788,48.9062621 38.8636969,50.3316444 L38.2240916,50.6884283 L37.1884698,51.2653499 C32.9290623,53.6267463 28.6559818,55.8074546 23.6690784,55.4276725 C18.9964585,55.0719492 14.4526652,53.0758444 10.6535295,50.1844132 C6.60857062,47.1058919 3.4039256,43.0099101 1.79497643,38.7740803 C0.488446722,35.3312108 0.194317644,31.9355255 0.805956218,28.7100098 C1.43898324,25.3717008 3.04078205,22.2178882 5.47967474,19.3810039 C10.2793984,13.7909076 17.723852,10.3276648 24.6033911,9.14647111 C38.6326184,6.7331173 53.9197816,11.4517186 66.831066,16.8749907 Z M24.3931071,22.5222982 C22.4293959,22.5222982 20.5792645,23.1992565 19.1028411,24.4517554 C17.701872,25.640244 16.6351444,27.3493259 16.1390492,29.4987421 L16.1390492,29.4987421 L12.0251262,45.8333333 L29.4235335,45.8333333 L29.48,42.665 L29.5972753,44.4237517 L29.7802924,44.5541453 C30.4042986,44.9720397 31.1653044,45.2198385 31.9886068,45.2198385 C33.0472459,45.2198385 34.004562,44.8124418 34.697949,44.157287 C35.4018893,43.4921609 35.8345744,42.5725341 35.8345744,41.5583623 C35.8345744,40.227597 34.5563592,37.332537 33.0920269,35.8105053 C32.9155098,35.6270328 32.7189517,35.4454922 32.50742,35.2679935 L32.608,35.355 L40.3861243,31.1582492 L31.1911342,26.1959028 C32.0698297,27.4930331 32.6703909,29.04163 32.8848512,30.7285991 C32.6141332,28.6422162 31.743736,26.7744547 30.4794527,25.3521432 C28.9218175,23.5998123 26.7681433,22.5222982 24.3931071,22.5222982 Z M32.7713745,34.1746944 C32.7127984,34.5228882 32.6386419,34.9213663 32.5455092,35.3896134 L32.56,35.313 L32.50742,35.2679935 C32.4714686,35.3876875 32.4332737,35.5066755 32.3928419,35.6250194 L32.2648421,35.978181 C31.6901325,37.4772887 30.7798934,38.8030346 29.3078103,40.0832144 L29.529,39.884 L29.5313614,39.7885689 L29.7517164,39.5977883 C31.2018712,38.2997355 32.2706108,36.4821738 32.7272994,34.393339 Z M60.8720391,24.671187 C60.6988318,24.8180577 60.5335154,24.967794 60.3782625,25.1218583 C59.8093377,25.6864276 59.2974908,26.3865788 58.7714764,27.1108419 C56.5928701,30.110272 55.6807531,30.7915313 51.0587057,30.5199687 C50.2723608,30.4715587 49.4053316,30.4336369 48.7554268,30.6507122 C48.1662633,30.8474991 47.7293382,31.2266707 47.5598421,31.8928318 C47.3607798,32.6746852 47.6683812,33.6313437 48.5097461,34.5502846 C49.2142135,35.3197057 50.2884087,36.0643192 51.6493413,36.623467 C53.7753552,37.4969533 56.607918,37.9233523 59.7856738,37.290329 C61.8676811,36.8755627 63.8102332,36.0273214 65.3282946,34.7458493 C66.7228479,33.5686366 67.7620961,32.0272536 67.9233025,29.5297803 C67.0884484,29.2140031 65.7915168,29.5343787 64.8827269,29.6591151 C64.852872,29.0969543 64.7871813,28.5320776 64.1292599,27.3796639 C63.424179,27.316552 62.6139317,27.4360574 61.9382945,27.441781 C61.8609376,26.9212235 61.7053646,26.3174819 61.178418,25.2546664 C61.0707708,25.0375495 60.9689904,24.844366 60.8720391,24.671187 Z M26.1761068,28.5990804 C26.7087447,28.5990804 27.1908423,28.8373441 27.5505422,29.2167389 C27.8406609,29.5227428 28.0522377,29.9199673 28.152142,30.3664465 C28.0203119,29.9773682 27.8373154,29.6419537 27.604495,29.3805566 C27.2301163,28.9602262 26.7261582,28.7240804 26.1761068,28.7240804 C25.6388238,28.7240804 25.1460092,28.9509587 24.7771587,29.3307991 C24.6987282,29.4115664 24.6259716,29.499319 24.5597648,29.5931891 L24.543,29.618 L24.5510923,29.5991401 C24.5965849,29.5045167 24.6568785,29.4140671 24.7245946,29.3293474 L24.7945116,29.2465953 C25.1542765,28.8423525 25.6393112,28.5990804 26.1761068,28.5990804 Z M68.4631966,21.4531317 L66.3262503,22.0950929 L66.3198549,22.220467 C66.2904089,22.6712079 66.1745753,23.4331149 65.8191752,23.9930126 C64.3401505,23.4414999 62.5827235,23.6121911 61.2243658,24.9669141 C61.3929519,25.2889321 61.7960535,26.0995577 62.5516258,27.2667073 C63.6049155,27.1331752 64.1645361,27.1946347 64.6012866,27.2839695 C64.7606284,27.7583745 64.9028606,28.2695601 64.995412,28.9659676 C65.0223685,29.1688031 65.0411528,29.357572 65.0534998,29.5356045 C65.2499851,29.4743966 65.437686,29.4257945 65.6041524,29.3871385 C66.1938573,29.2502001 67.0777735,29.1078773 67.8152798,29.3135883 C67.9989811,29.3648277 68.1792785,29.4392445 68.3531725,29.5286409 C68.3926875,29.3185999 68.4234614,29.1037054 68.446794,28.8850185 C68.5920961,27.5231616 68.4242865,26.2441834 67.5988004,25.2346832 C68.4808128,23.8807187 68.5002415,22.0905665 68.5000082,21.9987298 C68.4999331,21.9691564 68.4969243,21.7634839 68.4631966,21.4531317 L68.4631966,21.4531317 Z M28.5152995,14.8333333 C27.1308313,14.8333333 25.8696952,15.4420192 24.9419831,16.4420208 C24.2098791,15.6650651 23.2219244,15.1933645 22.1379394,15.1933645 C20.9932189,15.1933645 19.9545008,15.716145 19.2118868,16.6074183 C18.6362566,17.2982804 18.2387714,18.2139045 18.121802,19.273597 C17.905559,19.2266991 17.6822356,19.2019552 17.4537354,19.2019552 C16.4946173,19.2019552 15.6228272,19.6338237 14.9930945,20.3422828 C14.3834323,21.0281622 14.00236,21.9746507 14.00236,23.0222982 C14.00236,23.9231974 14.2842532,24.7492973 14.7510035,25.3987093 C15.2400537,26.0791483 15.9314416,26.5655817 17.2650782,26.5239577 C18.0875581,25.141405 19.2531864,24.0402565 20.6297424,23.3228507 C21.7652031,22.7310883 23.0416075,22.3972982 24.3931071,22.3972982 C24.6163623,22.3972982 24.8368369,22.4102364 25.0558467,22.4292718 C27.1991048,22.6158335 29.119648,23.697637 31.1912547,25.42344 C32.6576601,24.4248883 33.6519369,22.6226408 33.6519369,20.5495732 C33.6519369,18.9783752 33.0822346,17.5579185 32.1676045,16.5289552 C31.2328961,15.4774036 29.9397856,14.8333333 28.5152995,14.8333333 Z" stroke="#1F1E1E" fill="#1F1E1E"></path>
        </g>
    </g>
</svg>