<?xml version="1.0" encoding="UTF-8"?>
<svg width="80px" height="80px" viewBox="0 0 80 80" version="1.1" xmlns="http://www.w3.org/2000/svg" xmlns:xlink="http://www.w3.org/1999/xlink">
    <title>F4B08E83-01B0-4749-9CF7-FD2282CA6F4C</title>
    <g id="🧬-Symbols" stroke="none" stroke-width="1" fill="none" fill-rule="evenodd">
        <g id="icons/potato-fries">
            <rect id="icon-space" x="0" y="0" width="80" height="80"></rect>
            <path d="M12.3482045,29.9729535 C12.6764704,29.9737494 13.013428,30.067312 13.3279543,30.2708143 C19.4638106,34.2418709 29.6021025,36.2757188 39.811241,36.3300755 C50.0442828,36.3845594 60.333361,34.4512404 66.7132149,30.5593426 C67.0288248,30.3668695 67.363964,30.2820606 67.6887801,30.2877564 C68.0404363,30.2939228 68.3790644,30.4050897 68.6666335,30.5939937 C68.9547205,30.7832379 69.1921062,31.0508471 69.338864,31.3724372 C69.4519902,31.6203305 69.5105064,31.9000744 69.4983262,32.199672 L69.4824058,32.381717 L63.3852547,77.9023794 C63.3239761,78.3599892 63.0990112,78.7596625 62.7742372,79.0448597 C62.4906624,79.2938782 62.1309767,79.4555811 61.7380184,79.4921159 L61.5676955,79.5 L18.4669125,79.5 C18.0079571,79.5 17.5844418,79.3293807 17.260348,79.0447151 C16.9761537,78.7950951 16.7683846,78.4578184 16.6798704,78.0707835 L16.649362,77.9019754 L10.517664,32.0667521 C10.4676651,31.693258 10.5266607,31.3462878 10.6657776,31.0467805 C10.816464,30.7223652 11.0597637,30.4540485 11.353785,30.266498 C11.6473939,30.0792105 11.9921741,29.9720903 12.3482045,29.9729535 Z M36.4391554,42.8333333 C33.7742873,42.8333333 31.2822875,43.8428659 29.4209047,45.6728608 C27.6530553,47.4108489 26.5461801,49.7833495 26.3088686,52.3556621 C26.2046162,53.4857648 26.1594185,54.5000072 26.1646804,55.4348958 L26.1646804,55.4348958 L29.8884053,55.4348958 L29.8884053,56.1927083 L26.1810553,56.1927083 L26.2062527,56.7032183 C26.3494257,59.0501288 26.8480298,60.9158311 27.5861686,62.9455091 C27.9000432,63.8085433 28.2757651,64.6490082 28.7035389,65.4544271 L28.7035389,65.4544271 L32.9135951,65.4544271 L32.9135951,66.2122396 L29.1276491,66.2122396 L29.4082246,66.6734718 C30.2672997,68.042365 31.2806318,69.2752469 32.3974249,70.2971012 C34.9296455,72.6140545 37.9599954,73.8333333 41.1570044,73.8333333 C44.6487726,73.8333333 47.8141218,72.483712 50.1071342,70.3075446 C52.4098599,68.122159 53.8333333,65.1041463 53.8333333,61.777474 C53.8333333,61.1181305 53.7769088,60.4660297 53.6680399,59.8255208 L53.6680399,59.8255208 L50.3364512,59.8255208 L50.3364512,59.0677083 L53.5120031,59.0677083 L53.4048263,58.6570767 C53.0223923,57.295115 52.3886573,56.0029246 51.5180448,54.8305657 C50.2123685,53.072332 48.4634372,51.6938314 46.4233693,50.8087218 C46.0424261,48.7345876 44.957368,46.8330782 43.3084788,45.3862175 C41.4337052,43.7410907 38.9945359,42.8333333 36.4391554,42.8333333 Z M43.9857072,64.5755208 L43.9857072,65.3333333 L43.1335124,65.3333333 L43.1335124,64.5755208 L43.9857072,64.5755208 Z M42.0100327,56.4505013 L42.0100327,57.2083138 L41.1578379,57.2083138 L41.1578379,56.4505013 L42.0100327,56.4505013 Z M35.753689,50.2005404 L35.753689,50.9583529 L34.9014941,50.9583529 L34.9014941,50.2005404 L35.753689,50.2005404 Z M41.1840635,0.5 C41.69025,0.5 42.148433,0.706211446 42.4801336,1.03930099 C42.8125888,1.37314832 43.0180494,1.83439604 43.0180494,2.34376457 L43.0180494,2.34376457 L43.0183554,30.5906818 C41.1654942,30.663152 39.3604657,30.663955 37.4832028,30.5912572 L37.4832028,30.5912572 L37.4833558,2.34375916 C37.4833558,1.83437959 37.6887918,1.3731144 38.0212514,1.03926259 C38.3529355,0.706189659 38.8111104,0.5 39.3173416,0.5 L39.3173416,0.5 Z M31.8152285,5.18798706 L31.8152285,30.1441148 C29.8823195,29.9094246 28.0260637,29.5957414 26.2799153,29.2102358 L26.2799153,29.2102358 L26.2800681,7.03174622 C26.2800681,6.5223831 26.4855287,6.06113538 26.8179839,5.72728805 C27.1496845,5.39419851 27.6078675,5.18798706 28.114054,5.18798706 L28.114054,5.18798706 L31.8152285,5.18798706 Z M52.3873512,5.18798706 C52.8935376,5.18798706 53.3517207,5.39419851 53.6834213,5.72728805 C54.0158765,6.06113538 54.221337,6.5223831 54.221337,7.03175656 L54.221337,7.03175656 L54.2217956,29.2005657 C52.4732452,29.5874494 50.6164164,29.9028294 48.6864878,30.1390434 L48.6864878,30.1390434 L48.6864878,5.18798706 Z M20.6119408,9.87597412 L20.6119408,27.5309273 C18.8140809,26.739318 15.9289363,25.0631924 15.076936,24.5621356 L15.076936,24.5621356 L15.076936,11.7197333 C15.076936,11.2103702 15.2823966,10.7491224 15.6148518,10.4152751 C15.9465524,10.0821856 16.4047354,9.87597412 16.9109219,9.87597412 L16.9109219,9.87597412 L20.6119408,9.87597412 Z M63.5906388,9.87597412 C64.0968253,9.87597412 64.5550084,10.0821856 64.8867089,10.4152751 C65.2191641,10.7491224 65.4246247,11.2103702 65.4246247,11.7197333 L65.4246247,11.7197333 L65.4246247,24.7195483 C64.4891779,25.2288293 61.602189,26.7849621 59.8897755,27.5245866 L59.8897755,27.5245866 L59.8897755,9.87597412 Z" stroke="#1F1E1E" fill="#1F1E1E"></path>
        </g>
    </g>
</svg>