<?xml version="1.0" encoding="UTF-8"?>
<svg width="80px" height="80px" viewBox="0 0 80 80" version="1.1" xmlns="http://www.w3.org/2000/svg" xmlns:xlink="http://www.w3.org/1999/xlink">
    <title>838D4194-58C7-4943-864D-C58C198E6078</title>
    <g id="🧬-Symbols" stroke="none" stroke-width="1" fill="none" fill-rule="evenodd">
        <g id="icons/salt">
            <rect id="icon-space" x="0" y="0" width="80" height="79.9038527"></rect>
            <path d="M6.66794398,75.0429418 C7.14346308,75.0429418 7.57390392,75.2363041 7.88550494,75.5487419 C8.19759059,75.8616655 8.39050515,76.2939971 8.39050515,76.7714709 C8.39050515,77.2489447 8.19759059,77.6812763 7.88550494,77.9941999 C7.57390392,78.3066376 7.14346308,78.5 6.66794398,78.5 C6.19242488,78.5 5.76198404,78.3066376 5.45038302,77.9941999 C5.13829737,77.6812763 4.94538281,77.2489447 4.94538281,76.7714709 C4.94538281,76.2939971 5.13829737,75.8616655 5.45038302,75.5487419 C5.76198404,75.2363041 6.19242488,75.0429418 6.66794398,75.0429418 Z M22.2263931,72.8144126 C22.7019122,72.8144126 23.1323531,73.007775 23.4439541,73.3202127 C23.7560397,73.6331364 23.9489543,74.0654679 23.9489543,74.5429418 C23.9489543,75.0204156 23.7560397,75.4527471 23.4439541,75.7656708 C23.1323531,76.0781085 22.7019122,76.2714709 22.2263931,76.2714709 C21.750874,76.2714709 21.3204332,76.0781085 21.0088321,75.7656708 C20.6967465,75.4527471 20.5038319,75.0204156 20.5038319,74.5429418 C20.5038319,74.0654679 20.6967465,73.6331364 21.0088321,73.3202127 C21.3204332,73.007775 21.750874,72.8144126 22.2263931,72.8144126 Z M13.335888,68.3570932 C13.8114071,68.3570932 14.2418479,68.5504556 14.5534489,68.8628933 C14.8655346,69.175817 15.0584491,69.6081485 15.0584491,70.0856224 C15.0584491,70.5630962 14.8655346,70.9954277 14.5534489,71.3083514 C14.2418479,71.6207891 13.8114071,71.8141515 13.335888,71.8141515 C12.8603689,71.8141515 12.429928,71.6207891 12.118327,71.3083514 C11.8062414,70.9954277 11.6133268,70.5630962 11.6133268,70.0856224 C11.6133268,69.6081485 11.8062414,69.175817 12.118327,68.8628933 C12.429928,68.5504556 12.8603689,68.3570932 13.335888,68.3570932 Z M2.22256117,66.1285641 C2.69808027,66.1285641 3.12852111,66.3219265 3.44012214,66.6343642 C3.75220778,66.9472879 3.94512234,67.3796194 3.94512234,67.8570932 C3.94512234,68.3345671 3.75220778,68.7668986 3.44012214,69.0798223 C3.12852111,69.39226 2.69808027,69.5856224 2.22256117,69.5856224 C1.74704207,69.5856224 1.31660123,69.39226 1.00500021,69.0798223 C0.692914564,68.7668986 0.5,68.3345671 0.5,67.8570932 C0.5,67.3796194 0.692914564,66.9472879 1.00500021,66.6343642 C1.31660123,66.3219265 1.74704207,66.1285641 2.22256117,66.1285641 Z M16.4880075,47.4360552 L33.6932327,64.6810863 C32.6439235,65.049943 31.5262919,65.1945135 30.4127111,65.1022299 C26.8097457,64.5967895 23.501985,62.8270251 21.076884,60.1074681 C18.0808025,57.5268214 16.2865383,53.8997772 16.0581267,50.0126153 C16.0572412,49.134098 16.2031015,48.263346 16.4880075,47.4360552 L16.4880075,47.4360552 Z M6.66794398,59.4427156 C7.14346308,59.4427156 7.57390392,59.636078 7.88550494,59.9485157 C8.19759059,60.2614393 8.39050515,60.6937709 8.39050515,61.1712447 C8.39050515,61.6487185 8.19759059,62.0810501 7.88550494,62.3939737 C7.57390392,62.7064114 7.14346308,62.8997738 6.66794398,62.8997738 C6.19242488,62.8997738 5.76198404,62.7064114 5.45038302,62.3939737 C5.13829737,62.0810501 4.94538281,61.6487185 4.94538281,61.1712447 C4.94538281,60.6937709 5.13829737,60.2614393 5.45038302,59.9485157 C5.76198404,59.636078 6.19242488,59.4427156 6.66794398,59.4427156 Z M23.448893,41.7659971 L28.3913231,46.7216984 L39.3341567,57.6939153 L37.4941808,60.7692494 L20.375807,43.6130957 L23.448893,41.7659971 Z M28.5869131,34.3060656 L46.7897308,52.5554983 L44.3350828,54.98919 L26.1492847,36.7417373 L28.5869131,34.3060656 Z M79.436526,26.2143418 C79.5959735,27.2727579 79.4506924,28.3322509 79.0477393,29.2817982 C78.5891695,30.3624046 77.7968657,31.3006385 76.747831,31.9281493 L76.747831,31.9281493 L49.5192439,47.5607098 L42.4189613,40.4493119 C44.9043474,39.6224836 47.5259262,39.2744678 50.1449818,39.4263788 C50.9392037,39.4530108 51.6967971,39.1501538 52.2467533,38.5910837 C54.1027231,36.699844 56.3302821,35.2155416 58.7880742,34.2323809 C61.4851259,33.081055 64.4007646,32.5770605 67.3147636,32.7559364 C67.8536036,32.7987975 68.3795403,32.6798786 68.8346873,32.4308339 C69.291541,32.1808554 69.6770853,31.7997518 69.9326424,31.3194154 C71.3298552,28.6918481 75.0474835,26.7873124 79.436526,26.2143418 Z M52.2957329,1.76950295 C53.5866745,1.35690746 55.0243519,1.40601276 56.3441009,2.0017895 C61.1419379,4.53611276 65.4824097,7.85879649 69.1850524,11.8315876 C72.0935928,14.6534074 74.6863409,17.7492853 76.9395582,21.0870846 C72.7335169,21.8055089 68.9037335,23.9804184 66.1238146,27.2414019 C62.8936912,27.2524154 59.6977326,27.9104801 56.7313728,29.1750688 C53.9686916,30.296963 51.4285931,31.9041611 49.2297417,33.9200393 C45.4321282,33.7921059 41.6614773,34.5927383 38.2424776,36.2517038 L38.2424776,36.2517038 L33.5560953,31.5607252 L49.1231309,4.31500436 C49.8561029,3.05982153 51.0022309,2.18291678 52.2957329,1.76950295 Z" stroke="#1F1E1E" fill="#1F1E1E"></path>
        </g>
    </g>
</svg>