<?xml version="1.0" encoding="UTF-8"?>
<svg width="80px" height="80px" viewBox="0 0 80 80" version="1.1" xmlns="http://www.w3.org/2000/svg" xmlns:xlink="http://www.w3.org/1999/xlink">
    <title>443047A6-6D19-48E5-ABF6-196C29A45974</title>
    <g id="🧬-Symbols" stroke="none" stroke-width="1" fill="none" fill-rule="evenodd">
        <g id="icons/clean-pillow">
            <rect id="icon-space" x="0" y="0" width="80" height="80"></rect>
            <path d="M52.65625,0 C67.4543837,0 79.5447247,11.8163015 79.9874403,26.5090718 L80,27.34375 L80,52.65625 C80,67.4543837 68.1836985,79.5447247 53.4909282,79.9874403 L52.65625,80 L27.34375,80 C12.5456163,80 0.455275313,68.1836985 0.0125597111,53.4909282 L0,52.65625 L0,27.34375 C0,12.5456163 11.8163015,0.455275313 26.5090718,0.0125597111 L27.34375,0 L52.65625,0 Z M39.9998507,39.9998507 C39.0531207,39.9998507 38.2855543,40.7674171 38.2855543,41.7141471 C38.2800301,46.4457066 34.445632,50.2799555 29.7140724,50.285629 C28.7673425,50.285629 27.999776,51.0531954 27.999776,51.9999253 C27.999776,52.9466553 28.7673425,53.7142217 29.7140724,53.7142217 C34.445632,53.7197459 38.2798808,57.5541441 38.2855543,62.2857036 C38.2855543,63.2324336 39.0531207,64 39.9998507,64 C40.9465807,64 41.7141471,63.2324336 41.7141471,62.2857036 C41.7196713,57.5541441 45.5540694,53.7198952 50.285629,53.7142217 C51.2323589,53.7142217 51.9999253,52.9466553 51.9999253,51.9999253 C51.9999253,51.0531954 51.2323589,50.285629 50.285629,50.285629 C45.5540694,50.2801048 41.7198206,46.4457066 41.7141471,41.7141471 C41.7141471,40.7674171 40.9465807,39.9998507 39.9998507,39.9998507 Z M54.5712206,28.8570735 C53.6244907,28.8570735 52.8569242,29.62464 52.8569242,30.5713699 C52.8528931,33.8833571 50.1690234,36.5673761 46.8568869,36.5714072 C45.910157,36.5714072 45.1425905,37.3389737 45.1425905,38.2857036 C45.1425905,39.2324336 45.910157,40 46.8568869,40 C50.1688741,40.0040312 52.8528931,42.6879009 52.8569242,46.0000373 C52.8569242,46.9467673 53.6244907,47.7143337 54.5712206,47.7143337 C55.5179506,47.7143337 56.285517,46.9467673 56.285517,46.0000373 C56.2895482,42.6880502 58.9734179,40.0040312 62.2855543,40 C63.2322843,40 63.9998507,39.2324336 63.9998507,38.2857036 C63.9998507,37.3388244 63.2324336,36.5714072 62.2855543,36.5714072 C58.9735672,36.5673761 56.2895482,33.8835064 56.285517,30.5713699 C56.285517,29.62464 55.5179506,28.8570735 54.5712206,28.8570735 Z M29.7142217,16 C28.7673425,16 27.9999253,16.7675664 27.9999253,17.7142964 C27.9936546,23.3922873 23.3922873,27.9938039 17.7142964,27.9999253 C16.7675664,27.9999253 16,28.7674918 16,29.7142217 C16,30.6609517 16.7675664,31.4285181 17.7142964,31.4285181 C23.3922873,31.4347888 27.9938039,36.0361562 27.9999253,41.7141471 C27.9999253,42.6610263 28.7674918,43.4284435 29.7142217,43.4284435 C30.6609517,43.4284435 31.4285181,42.660877 31.4285181,41.7141471 C31.4347888,36.0361562 36.0361562,31.4346395 41.7141471,31.4285181 C42.660877,31.4285181 43.4284435,30.6609517 43.4284435,29.7142217 C43.4284435,28.7674918 42.660877,27.9999253 41.7141471,27.9999253 C36.0361562,27.9936546 31.4346395,23.3922873 31.4285181,17.7142964 C31.4285181,16.7675664 30.661101,16 29.7142217,16 Z" fill="#1F1E1E"></path>
        </g>
    </g>
</svg>