<?xml version="1.0" encoding="UTF-8"?>
<svg width="80px" height="80px" viewBox="0 0 80 80" version="1.1" xmlns="http://www.w3.org/2000/svg" xmlns:xlink="http://www.w3.org/1999/xlink">
    <title>788C6101-34AF-4FA8-AC00-34CA009B6524</title>
    <g id="🧬-Symbols" stroke="none" stroke-width="1" fill="none" fill-rule="evenodd">
        <g id="icons/dash">
            <rect id="icon-space" x="0" y="0" width="80" height="80"></rect>
            <path d="M70,30.5 C72.6233526,30.5 74.9983526,31.5633237 76.7175144,33.2824856 C78.4366763,35.0016474 79.5,37.3766474 79.5,40 C79.5,42.6233526 78.4366763,44.9983526 76.7175144,46.7175144 C74.9983526,48.4366763 72.6233526,49.5 70,49.5 L70,49.5 L10,49.5 C7.37664744,49.5 5.00164744,48.4366763 3.28248558,46.7175144 C1.56332372,44.9983526 0.5,42.6233526 0.5,40 C0.5,37.3766474 1.56332372,35.0016474 3.28248558,33.2824856 C5.00164744,31.5633237 7.37664744,30.5 10,30.5 L10,30.5 Z" stroke="#1F1E1E" fill="#1F1E1E"></path>
        </g>
    </g>
</svg>