<?xml version="1.0" encoding="UTF-8"?>
<svg width="80px" height="80px" viewBox="0 0 80 80" version="1.1" xmlns="http://www.w3.org/2000/svg" xmlns:xlink="http://www.w3.org/1999/xlink">
    <title>615F6BBE-DE6F-42B2-9EB1-8696D6850B94</title>
    <g id="🧬-Symbols" stroke="none" stroke-width="1" fill="none" fill-rule="evenodd">
        <g id="icons/potatoes-hashed-browns">
            <rect id="icon-space" x="0" y="0" width="80" height="80"></rect>
            <path d="M77.2612799,37.8252623 C77.3463596,37.8252623 77.4313526,37.8306912 77.5157409,37.8415159 C78.6113337,37.9820508 79.3855612,38.9841304 79.2450263,40.0797232 L79.2450263,40.0797232 L74.8613332,78.2544609 C74.7333149,79.2524763 73.8837794,80 72.8775868,80 L72.8775868,80 L7.12241316,80 C6.11622062,80 5.26668514,79.2524763 5.1386668,78.2544609 L5.1386668,78.2544609 L0.754973699,40.0797232 C0.744148972,39.995335 0.738720063,39.910342 0.738720063,39.8252623 C0.738720063,38.7206928 1.63415056,37.8252623 2.73872006,37.8252623 L2.73872006,37.8252623 Z M36.7724887,44 C34.2411558,44 31.8731864,44.9574805 30.1047725,46.6960742 C28.4191517,48.3532227 27.3663024,50.6162305 27.1400877,53.0682617 C27.0556893,53.9831445 27.0104958,54.820918 27,55.6015625 L30.7217386,55.6015625 L30.7217386,57.359375 L27.0398839,57.359375 C27.1814534,59.6443555 27.6699389,61.4629883 28.3893931,63.4412891 C28.6609866,64.1880664 28.9801198,64.9175 29.340063,65.6210938 L33.7469284,65.6210938 L33.7469284,67.3789062 L30.3603136,67.3789062 C31.1515713,68.5872266 32.0668642,69.6785938 33.0682843,70.5948828 C35.5029326,72.8225586 38.4152621,74 41.4903377,74 C48.2043588,74 53.6666667,68.8160938 53.6666667,62.4441406 C53.6666667,61.9553516 53.6342533,61.4707227 53.5712169,60.9921875 L50.1697845,60.9921875 L50.1697845,59.234375 L53.1911465,59.234375 C52.8199667,58.0128125 52.2355374,56.8531836 51.4499599,55.795332 C50.1434216,54.0359375 48.3742668,52.6731641 46.3087609,51.8292383 C45.9945669,49.7615234 44.943755,47.8605078 43.3120331,46.4287109 C41.5272581,44.8625586 39.204791,44 36.7724887,44 Z M44.8190406,64.7421875 L44.8190406,66.5 L42.9668457,66.5 L42.9668457,64.7421875 L44.8190406,64.7421875 Z M42.8433661,56.617168 L42.8433661,58.3749805 L40.9911712,58.3749805 L40.9911712,56.617168 L42.8433661,56.617168 Z M36.5870223,50.367207 L36.5870223,52.1250195 L34.7348274,52.1250195 L34.7348274,50.367207 L36.5870223,50.367207 Z M26.4543215,21.7231575 C26.5484905,21.618942 26.6245231,21.4992347 26.7242725,21.3985398 L34.1126975,13.9400779 C36.4690135,11.5614258 40.0034877,10.8298036 43.0971117,12.0810957 L48.6942343,6.43654978 L43.8672044,1.56376312 C41.7027139,-0.521254372 38.2972861,-0.521254372 36.1327956,1.56376312 L21.3057221,16.5313864 L26.4543215,21.7231575 Z M45.8873025,13.9457112 L53.5714877,21.7027369 L61.255673,13.9457112 C64.5069428,10.6636218 69.7790082,10.6636218 73.030278,13.9457112 L73.9287194,14.8526692 C74.6946266,12.8317303 74.2063434,10.545323 72.6842943,9.02222502 L65.2958692,1.56376312 C63.1313787,-0.521254372 59.725951,-0.521254372 57.5614605,1.56376312 L45.5713134,13.6612306 C45.6801308,13.7569963 45.7882506,13.8450165 45.8873025,13.9457112 Z M36.1327956,15.9849583 L28.7443706,23.4434202 C28.6439237,23.5441152 28.5671934,23.6610056 28.4758147,23.7694463 L34.704218,30.0568902 C36.2709102,31.6292795 37.1491226,33.7699257 37.1428447,36 L61.4286956,36 C61.4335477,34.5346432 60.8566758,33.12914 59.8270954,32.0961374 L43.8672044,15.9849583 C41.7027139,13.8999409 38.2972861,13.8999409 36.1327956,15.9849583 Z M63.2757711,15.9849583 L55.5915858,23.7419841 L61.8471935,30.0568902 C63.4138857,31.6292795 64.2920981,33.7699257 64.2858202,36 L73.6943434,36 L78.3986049,31.2511455 C80.5337984,29.0950079 80.5337984,25.599558 78.3986049,23.4434202 L71.0101799,15.9849583 C68.8456894,13.8999409 65.4402616,13.8999409 63.2757711,15.9849583 Z M6.96972204,13.9457112 C10.2209918,10.6636218 15.4930572,10.6636218 18.744327,13.9457112 L19.285624,14.4921393 L27.2655695,6.43654978 L22.4385395,1.56376312 C20.274049,-0.521254372 16.8686213,-0.521254372 14.7041308,1.56376312 L7.31570569,9.02222502 C5.79295905,10.545323 5.30537336,12.8317303 6.07128063,14.8526692 L6.96972204,13.9457112 Z M6.30565665,36 L34.2857201,36 C34.2905722,34.5346432 33.7137003,33.12914 32.6841199,32.0961374 L16.7242289,15.9849583 C14.5597384,13.8999409 11.1543106,13.8999409 8.98982014,15.9849583 L1.60139506,23.4434202 C-0.533798354,25.599558 -0.533798354,29.0950079 1.60139506,31.2511455 L6.30565665,36 Z" fill="#1F1E1E" fill-rule="nonzero"></path>
        </g>
    </g>
</svg>