<?xml version="1.0" encoding="UTF-8"?>
<svg width="80px" height="80px" viewBox="0 0 80 80" version="1.1" xmlns="http://www.w3.org/2000/svg" xmlns:xlink="http://www.w3.org/1999/xlink">
    <title>DA059F55-189A-4A0E-9DB5-746267064AFB</title>
    <g id="🧬-Symbols" stroke="none" stroke-width="1" fill="none" fill-rule="evenodd">
        <g id="icons/cleaning">
            <rect id="icon-space" x="0" y="0" width="80" height="80"></rect>
            <path d="M72.7644724,34.1606626 L72.9397615,34.1747319 L77.9077232,35.1816522 C78.3087406,35.2635857 78.6588737,35.4719724 78.9174153,35.7619446 C79.175542,36.0514513 79.3423033,36.42225 79.3773055,36.829089 C79.4413718,37.5784846 79.4783297,38.3312657 79.4927549,39.087926 L79.4927549,39.087926 L79.5,39.8590088 C79.5,50.7761585 75.0581982,60.6800039 67.9055486,67.857865 C60.7432258,75.0454334 50.8623514,79.5 40,79.5 C29.8621484,79.5 20.423461,75.5104972 13.4707668,69.1869626 L13.4707668,69.1869626 L12.736162,68.5099483 L10.1363326,71.1090726 C9.93635714,71.3350084 9.66878014,71.5050307 9.35176993,71.5891062 C9.04927229,71.6693327 8.70402993,71.6711334 8.32969285,71.5779824 C7.71900166,71.4059842 7.27101047,70.916829 7.09080848,70.3233802 C6.91691576,69.5043476 6.18273217,65.8546446 5.43673339,62.1463436 L5.43673339,62.1463436 L5.29312714,61.4324898 C4.51630409,57.5709818 3.76812091,53.8520016 3.72572072,53.6421557 C3.61654732,53.0587902 3.78840627,52.3969967 4.22881732,51.9933662 C4.61991955,51.5693913 5.1588887,51.3918594 5.71113877,51.4352917 C6.21580503,51.6082874 6.84644138,51.8244992 7.70241611,52.1106106 C9.41305538,52.6798508 11.1688478,53.2537479 12.952498,53.831826 L12.952498,53.831826 L13.6382111,54.0538293 C17.0777218,55.1662248 20.4292432,56.2321625 20.8298384,56.3363626 C21.5384401,56.4945103 22.0604698,56.9742302 22.2883987,57.6038875 C22.4517529,58.2134525 22.3089261,58.8522951 21.9129284,59.3231827 L21.9129284,59.3231827 L18.7350904,62.5122101 C24.2474792,67.7675591 31.8584906,71.125 40,71.125 C48.5277237,71.125 56.309512,67.6085781 61.9590079,61.9590822 C67.6086062,56.3094839 71.125,48.527568 71.125,40 C71.125,38.9696396 71.0495755,37.6179311 70.8796399,36.2280582 C70.8065607,35.6274674 71.0277689,35.0761713 71.4145253,34.6940892 C71.8004449,34.3128336 72.3512748,34.0993518 72.9397615,34.1747319 Z M39.9998756,40.4998756 C40.2562825,40.4998756 40.4884235,40.6038241 40.6564655,40.771866 C40.8245074,40.939908 40.9284559,41.172049 40.9284563,41.4290554 C40.9309855,43.5383905 41.7869138,45.447746 43.1695445,46.8303767 C44.5521594,48.2129916 46.4614634,49.0688945 48.5713575,49.0713575 C48.8277644,49.0713575 49.0599054,49.1753059 49.2279474,49.3433479 C49.3959893,49.5113899 49.4999378,49.7435309 49.4999378,49.9999378 C49.4999378,50.2563447 49.3959893,50.4884857 49.2279474,50.6565277 C49.0599054,50.8245696 48.8277644,50.9285181 48.5707579,50.9285185 C46.4614228,50.9310477 44.5520674,51.786976 43.1694366,53.1696067 C41.7868217,54.5522216 40.9309189,56.4615256 40.9284559,58.5714197 C40.9284559,58.8278266 40.8245074,59.0599676 40.6564655,59.2280096 C40.4884235,59.3960515 40.2562825,59.5 39.9998756,59.5 C39.7434687,59.5 39.5113277,59.3960515 39.3432857,59.2280096 C39.1752437,59.0599676 39.0712953,58.8278266 39.0712949,58.5708201 C39.0687656,56.461485 38.2128374,54.5521296 36.8302066,53.1694988 C35.4475917,51.786884 33.5382878,50.9309811 31.4283937,50.9285181 C31.1719868,50.9285181 30.9398458,50.8245696 30.7718038,50.6565277 C30.6037618,50.4884857 30.4998134,50.2563447 30.4998134,49.9999378 C30.4998134,49.7435309 30.6037618,49.5113899 30.7718038,49.3433479 C30.9398458,49.1753059 31.1719868,49.0713575 31.4289932,49.0713571 C33.5383283,49.0688279 35.4476838,48.2128996 36.8303145,46.8302688 C38.2129294,45.4476539 39.0688323,43.53835 39.0712953,41.4284559 C39.0712953,41.172049 39.1752437,40.939908 39.3432857,40.771866 C39.5113277,40.6038241 39.7434687,40.4998756 39.9998756,40.4998756 Z M52.1426838,31.2142279 C52.3990907,31.2142279 52.6312318,31.3181764 52.7992737,31.4862184 C52.9673157,31.6542603 53.0712642,31.8864014 53.0712645,32.1434168 C53.0731119,33.6612937 53.6890417,35.0352117 54.6839595,36.0301295 C55.6788993,37.0250693 57.0528448,37.6409916 58.5712953,37.6428394 C58.8277426,37.6428394 59.0598958,37.7467471 59.2279318,37.9147831 C59.3959678,38.0828192 59.4998756,38.3149724 59.4998756,38.5714197 C59.4998756,38.8278266 59.3959271,39.0599676 59.2278851,39.2280096 C59.0598432,39.3960515 58.8277022,39.5 58.5706867,39.5000004 C57.0528098,39.5018478 55.6788918,40.1177775 54.683974,41.1126953 C53.6890342,42.1076351 53.073112,43.4815806 53.0712642,45.0000311 C53.0712642,45.256438 52.9673157,45.488579 52.7992737,45.656621 C52.6312318,45.8246629 52.3990907,45.9286114 52.1426838,45.9286114 C51.886277,45.9286114 51.6541359,45.8246629 51.486094,45.656621 C51.318052,45.488579 51.2141035,45.256438 51.2141032,44.9994226 C51.2122558,43.4815457 50.596326,42.1076277 49.6014082,41.1127099 C48.6064684,40.11777 47.2325229,39.5018478 45.7140724,39.5 C45.4576655,39.5 45.2255245,39.3960515 45.0574825,39.2280096 C44.8894406,39.0599676 44.7854921,38.8278266 44.7854921,38.5714197 C44.7854921,38.3150128 44.8894406,38.0828718 45.0574825,37.9148298 C45.2255245,37.7467878 45.4576655,37.6428394 45.714681,37.642839 C47.2325579,37.6409916 48.6064759,37.0250618 49.6013936,36.0301441 C50.5963335,35.0352042 51.2122557,33.6612588 51.2141035,32.1428083 C51.2141035,31.8864014 51.318052,31.6542603 51.486094,31.4862184 C51.6541359,31.3181764 51.886277,31.2142279 52.1426838,31.2142279 Z M40,0.5 C50.0883656,0.5 59.5236166,4.33643624 66.4759824,10.6501528 L66.4759824,10.6501528 L67.2140109,11.3297498 L69.8536754,8.74405636 C70.0942391,8.50349267 70.3903696,8.33673186 70.7050956,8.25326214 C71.0158035,8.17085808 71.3449598,8.16959156 71.6630171,8.263121 C72.2780349,8.43400869 72.7292189,8.92551458 72.9102336,9.52170328 C73.0025743,9.94144661 73.138006,10.621898 73.3290632,11.5813696 L73.3290632,11.5813696 L74.0696358,15.2991274 L74.2000775,15.9537916 L74.3748133,16.8307076 L74.492725,17.4224197 L74.6111537,18.0167027 C75.1703208,20.8225842 75.7290364,23.6254274 76.0363325,25.1661041 C76.1993241,25.9831775 76.2636654,26.3054268 76.274322,26.3580722 C76.4021974,27.0396231 76.1472742,27.6325277 75.7415407,28.0381717 C75.5045806,28.2750795 75.2163986,28.4500829 74.9193178,28.5407641 C74.6654588,28.6182522 74.4040962,28.6353081 74.1703473,28.5610756 C73.5716614,28.3194297 73.0441822,28.139154 72.3723595,27.9143155 C69.999767,27.1274255 68.1905153,26.5374692 66.40199,25.9589295 L66.40199,25.9589295 L65.7584105,25.7509511 C62.4183881,24.6726387 59.3215039,23.6920308 59.113805,23.6503835 C58.4567006,23.5043034 57.9387222,23.0229641 57.7116268,22.3962075 C57.548061,21.7859749 57.6913531,21.14639 58.0883178,20.675337 L58.0883178,20.675337 L61.2635563,17.4361508 C55.7515958,12.2321861 48.1410033,8.875 40,8.875 C31.4721991,8.875 23.6903484,12.3913327 18.0408405,18.0408405 C12.3913327,23.6903484 8.875,31.4721991 8.875,40 C8.875,41.1424183 8.95541424,42.441145 9.11232172,43.7484996 C9.18407371,44.3468188 8.96346108,44.8968465 8.57777981,45.2785416 C8.19357011,45.6587803 7.64537292,45.8726051 7.05829924,45.7993744 L7.05829924,45.7993744 L2.10456595,44.8143317 C1.70328837,44.7338359 1.35241694,44.5267627 1.09277544,44.2378028 C0.833530344,43.949284 0.665302243,43.5791594 0.62860947,43.1724214 C0.566365089,42.4796148 0.512008631,41.5953622 0.501762085,40.4808195 C0.500893992,29.4133745 4.92687951,19.4389469 12.0589631,12.2208072 C19.2237328,4.96958701 29.1194839,0.5 40,0.5 Z M31.4285181,20.5 C31.6849539,20.5 31.9170923,20.6039281 32.0851241,20.7719599 C32.2531703,20.9400061 32.3570984,21.1721619 32.3570987,21.4291194 C32.3597979,23.9327932 33.3756439,26.1991043 35.0167339,27.8401944 C36.6578406,29.481301 38.9242041,30.4971724 41.4284559,30.4999378 C41.6848628,30.4999378 41.9170038,30.6038863 42.0850458,30.7719282 C42.2530877,30.9399702 42.3570362,31.1721112 42.3570362,31.4285181 C42.3570362,31.684925 42.2530877,31.917066 42.0850458,32.085108 C41.9170038,32.2531499 41.6848628,32.3570984 41.4279168,32.3570987 C38.9242431,32.3597979 36.6579319,33.3756439 35.0168418,35.0167339 C33.3757352,36.6578406 32.3598638,38.9242041 32.3570984,41.4284559 C32.3570984,41.6848628 32.2531499,41.9170038 32.085108,42.0850458 C31.917066,42.2530877 31.684925,42.3570362 31.4285181,42.3570362 C31.1720997,42.3570362 30.9399439,42.2531081 30.7718977,42.0850619 C30.6038659,41.9170301 30.4999378,41.6848917 30.4999375,41.4279168 C30.4972383,38.9242431 29.4813923,36.6579319 27.8403023,35.0168418 C26.1991956,33.3757352 23.9328322,32.3598638 21.4285803,32.3570984 C21.1721734,32.3570984 20.9400324,32.2531499 20.7719904,32.085108 C20.6039485,31.917066 20.5,31.684925 20.5,31.4285181 C20.5,31.1721112 20.6039485,30.9399702 20.7719904,30.7719282 C20.9400324,30.6038863 21.1721734,30.4999378 21.4291194,30.4999375 C23.9327932,30.4972383 26.1991043,29.4813923 27.8401944,27.8403023 C29.481301,26.1991956 30.4971724,23.9328322 30.4999378,21.4285803 C30.4999378,21.1721619 30.6038659,20.9400061 30.7719121,20.7719599 C30.9399439,20.6039281 31.1720823,20.5 31.4285181,20.5 Z" stroke="#1F1E1E" fill="#1F1E1E"></path>
        </g>
    </g>
</svg>