<?xml version="1.0" encoding="UTF-8"?>
<svg width="80px" height="80px" viewBox="0 0 80 80" version="1.1" xmlns="http://www.w3.org/2000/svg" xmlns:xlink="http://www.w3.org/1999/xlink">
    <title>55E24687-5B54-4E54-925C-8210408032C8</title>
    <g id="🧬-Symbols" stroke="none" stroke-width="1" fill="none" fill-rule="evenodd">
        <g id="icons/edit">
            <rect id="icon-space" x="0" y="0" width="80" height="80"></rect>
            <path d="M49.4044123,14.0782755 L65.8514205,30.5425493 L22.1834614,74.2525689 C22.0570545,74.3791085 21.9052221,74.4774052 21.737921,74.539305 L21.737921,74.539305 L2.0753638,79.451311 C1.45142998,79.4831073 1.10617102,79.3847586 0.862051628,79.140383 C0.588487987,78.8665321 0.460996683,78.4809454 0.510411074,78.102394 L0.510411074,78.102394 L5.41449971,58.3644296 C5.45810194,58.1916562 5.54050476,58.0287081 5.65286863,57.8890625 L5.65286863,57.8890625 L49.4044123,14.0782755 Z M66.2944495,0.501161731 C68.3667673,0.467349338 70.4538576,1.170599 72.012597,2.62073476 L72.012597,2.62073476 L77.1094206,7.71581642 C78.6509874,9.2590015 79.5,11.3122201 79.5,13.4958769 C79.5,15.57722 78.7287897,17.540145 77.3214807,19.0552185 L77.3214807,19.0552185 L71.4609431,24.9292652 L55.0147223,8.46577961 L60.6637538,2.81081789 C62.17057,1.3021272 64.2274277,0.534887713 66.2944495,0.501161731 Z" stroke="#1F1E1E" fill="#1F1E1E"></path>
        </g>
    </g>
</svg>