<?xml version="1.0" encoding="UTF-8"?>
<svg width="80px" height="80px" viewBox="0 0 80 80" version="1.1" xmlns="http://www.w3.org/2000/svg" xmlns:xlink="http://www.w3.org/1999/xlink">
    <title>79379802-5B69-46FD-B071-3ECE8517EB31</title>
    <g id="🧬-Symbols" stroke="none" stroke-width="1" fill="none" fill-rule="evenodd">
        <g id="icons/reset">
            <rect id="icon-space" x="0" y="0" width="80" height="79.9038527"></rect>
            <path d="M39.9841777,0.500083899 L40.5275192,0.504887166 C50.4563539,0.660133831 60.3380784,4.51438261 67.9270202,12.0668063 C73.5821652,17.7209136 77.2534197,24.8001474 78.7437948,32.311753 C80.2341653,39.8233356 79.543668,47.7672836 76.4753341,55.1508376 C73.4069877,62.5344215 68.2634363,68.6293226 61.8873783,72.8745208 C55.5112506,77.1197654 47.902589,79.5152694 39.9016358,79.5000023 C29.8359439,79.5302772 20.5632093,75.7763598 13.5205743,69.5157472 C6.47802159,63.2552076 1.66551913,54.488026 0.519710424,44.4875127 C0.462084863,44.0194018 0.532304086,43.5538334 0.711522895,43.1348539 C0.890755936,42.7158411 1.17900439,42.3434258 1.55741434,42.0616496 C1.93586408,41.7798437 2.37539561,41.6103612 2.82838304,41.5586311 C3.28138167,41.5068996 3.74783924,41.5729257 4.18013175,41.7621523 C4.6123894,41.9513635 4.97725637,42.2492108 5.24642602,42.6170362 C5.51556751,42.9848231 5.68903034,43.4225736 5.73883108,43.89458 C6.5974941,51.5954422 10.0739604,58.7685064 15.585769,64.213614 C22.2901014,70.8962918 31.0961361,74.2379966 39.9023581,74.2379966 C48.70858,74.2379966 57.5146147,70.8962918 64.2186036,64.213956 C70.6640173,57.801806 74.2875922,49.0865902 74.2875922,39.996684 C74.2875922,30.9067778 70.6640173,22.1915621 64.2189471,15.7797541 C57.7082871,9.29012313 49.2156047,5.95124313 40.6654904,5.76373807 C31.6831754,5.56675481 22.6379175,8.84798573 15.7610364,15.6062758 L15.7610364,15.6062758 L23.2453095,15.6072361 C23.9706115,15.6072361 24.6272581,15.9010927 25.1025733,16.3762217 C25.5778176,16.8512798 25.8717792,17.5075618 25.8717792,18.2324807 C25.8717792,18.9573995 25.5778176,19.6136815 25.1025733,20.0887396 C24.6272581,20.5638686 23.9706115,20.8577252 23.2453095,20.8577252 L23.2453095,20.8577252 L11.1022595,20.8577253 C9.88131167,20.8573396 8.77577303,20.3629279 7.97499294,19.5634777 C7.17428368,18.7640982 6.6782846,17.6597287 6.67634866,16.4401529 L6.67634866,16.4401529 L6.67634866,4.34076842 C6.67634866,3.61584955 6.9703102,2.95956754 7.44555452,2.48450944 C7.92086976,2.00938043 8.5775163,1.71552382 9.30281828,1.71552382 C10.0281203,1.71552382 10.6847668,2.00938043 11.160082,2.48450944 C11.6353264,2.95956754 11.9292879,3.61584955 11.9292879,4.34074868 L11.9292879,4.34074868 L11.9289848,12.0158656 C19.8308144,4.18035885 30.2046675,0.343479675 40.5275192,0.504887166 Z M46,16.5 C46.4145463,16.5 46.7894191,16.6677757 47.0607055,16.9390621 C47.3322524,17.210609 47.5,17.5857966 47.5,18 C47.5,18.3938712 47.3483428,18.7524813 47.0999328,19.0202146 C46.8887955,19.2477757 46.6078396,19.4098246 46.2907859,19.4719566 L46.129407,19.494537 L41.5,19.500661 L41.5,22.5619579 C45.6944535,22.8656329 49.5468961,24.435131 52.6662626,26.8926132 L53.0098222,27.1693019 L56.923558,23.9557868 C57.2187611,23.6517368 57.6093274,23.4995 58,23.4995 C58.383657,23.4995 58.7672114,23.6463182 59.0604466,23.9395534 C59.3370968,24.2162036 59.4834143,24.573572 59.4990865,24.9354414 C59.512392,25.2426646 59.4317131,25.5531723 59.2566824,25.8199952 L59.1613027,25.9495488 L55.5096814,29.6099962 C58.6170595,33.2055629 60.5,37.8861463 60.5,43 C60.5,48.6521429 58.2008698,53.7770235 54.4889466,57.4889466 C50.7770235,61.2008698 45.6521429,63.5 40,63.5 C34.3478571,63.5 29.2229765,61.2008698 25.5110534,57.4889466 C21.7991302,53.7770235 19.5,48.6521429 19.5,43 C19.5,37.7656545 21.4726761,32.9846152 24.7133616,29.3595836 C27.9711983,25.7153667 32.5104308,23.238981 37.6158781,22.645302 L38.0815496,22.5965376 L38.5885172,19.5 L34,19.5 C33.5854537,19.5 33.2105809,19.3322243 32.9392945,19.0609379 C32.6677476,18.789391 32.5,18.4142034 32.5,18 C32.5,17.6061288 32.6516572,17.2475187 32.9000672,16.9797854 C33.1111674,16.7522642 33.3920617,16.5902324 33.709047,16.5280761 L33.8703911,16.5054802 L46,16.5 Z M40,29.5 C39.3299722,29.5 38.7212382,29.7625378 38.2696467,30.2141293 C37.8366037,30.6471723 37.5459957,31.2573624 37.5,31.9834971 L37.5,31.9834971 L37.5,43 L37.5045183,43.1524613 C37.5291216,43.5591427 37.6582072,43.9708369 37.9888843,44.4851791 L37.9888843,44.4851791 L44,52.5 L44.1181396,52.6456752 C44.6080495,53.2062097 45.3007805,53.5 46.002,53.5 C46.5221389,53.5 47.0498497,53.3376127 47.5,53 C48.0343224,52.5998628 48.3631311,52.0271833 48.4534154,51.3951932 C48.5397272,50.7910105 48.4075417,50.1284374 48.0109234,49.5145632 L48.0109234,49.5145632 L42.5,42.1673214 L42.5,32 L42.4917129,31.7948073 C42.442313,31.185828 42.1749674,30.6391104 41.7680447,30.2321878 C41.3155139,29.779657 40.6902962,29.5 40,29.5 Z" stroke="#1F1E1E" fill="#1F1E1E"></path>
        </g>
    </g>
</svg>