<?xml version="1.0" encoding="UTF-8"?>
<svg width="80px" height="80px" viewBox="0 0 80 80" version="1.1" xmlns="http://www.w3.org/2000/svg" xmlns:xlink="http://www.w3.org/1999/xlink">
    <title>BD5C84E0-8669-4165-9319-0F9E10A1221F</title>
    <g id="🧬-Symbols" stroke="none" stroke-width="1" fill="none" fill-rule="evenodd">
        <g id="icons/oil">
            <rect id="icon-space" x="0" y="0" width="80" height="79.9038527"></rect>
            <path d="M68.4510913,44.4672346 C70.7425203,45.6956144 72.7364038,47.0757633 74.3601411,48.5661475 C77.7077653,51.6420694 79.5,55.2002666 79.5,58.8746875 C79.5,61.7411085 78.4380333,64.4861223 76.4278027,66.9940175 C74.3786732,69.5504416 71.3506861,71.8580639 67.4518374,73.8035021 C60.0805107,77.480021 50.3290313,79.5 40,79.5 C29.669422,79.5 19.9194948,77.4800225 12.5482056,73.8033673 C8.64884729,71.8580574 5.62104613,69.5506662 3.57212436,66.9945012 C1.5617546,64.4864324 0.5,61.7411928 0.5,58.8745312 C0.5,55.2003046 2.29066533,51.6421307 5.63971515,48.5664357 C7.24807331,47.0897734 9.21795802,45.7235593 11.4818821,44.5037846 C12.8360798,51.0459804 16.4030644,56.7906621 21.3649456,60.9199476 C26.409621,65.1181346 32.8956714,67.6467187 39.9625,67.6467187 C47.0359657,67.6467187 53.5274255,65.1135573 58.5740304,60.9085298 C63.5379782,56.7723755 67.1035689,51.0185263 68.4510913,44.4672346 Z M39.9625,0.673865434 L41.2001174,1.79209812 C42.102435,2.60732425 63.3546875,21.9288833 63.3546875,38.6254688 C63.3546875,45.0610846 60.7311158,50.8966194 56.4956988,55.1233667 C52.2598955,59.3504995 46.4118105,61.96875 39.9625,61.96875 C33.5131432,61.96875 27.6650828,59.3504859 23.4293035,55.1233493 C19.1938702,50.8965582 16.5703125,45.0609594 16.5703125,38.6253125 C16.5703125,22.0957257 37.3994297,2.99339655 38.6917544,1.82207271 L38.7248941,1.7920877 L39.9625,0.673865434 Z M52.3374348,37.55875 L46.6432916,37.55875 L46.6566437,37.8631532 C46.7115894,40.0865244 45.8267879,42.1081144 44.3716381,43.560279 C42.8501886,45.0786071 40.7050725,45.9746669 38.3573437,45.8277699 L38.3573437,45.8277699 L38.3573438,51.5123323 L38.7477535,51.5209695 C42.5099655,51.5509456 45.9245454,50.0357984 48.3910133,47.5743743 C50.9431347,45.0274719 52.4799962,41.4676437 52.3374348,37.55875 L52.3374348,37.55875 Z" stroke="#1F1E1E" fill="#1F1E1E"></path>
        </g>
    </g>
</svg>