<?xml version="1.0" encoding="UTF-8"?>
<svg width="80px" height="80px" viewBox="0 0 80 80" version="1.1" xmlns="http://www.w3.org/2000/svg" xmlns:xlink="http://www.w3.org/1999/xlink">
    <title>D4323392-D1D8-47E9-9BE7-24EEE6438124</title>
    <g id="🧬-Symbols" stroke="none" stroke-width="1" fill="none" fill-rule="evenodd">
        <g id="icons/chicken-tenders">
            <rect id="icon-space" x="0" y="0" width="80" height="80"></rect>
            <path d="M72.774423,33.8534948 C74.0851787,34.0243855 74.8105298,34.4796314 75.3011997,35.114447 C75.7522056,35.6979464 76.0051069,36.4331216 75.9783359,37.2089995 L75.9640394,37.4215283 L70.8992507,76.7561666 C70.7800416,77.5148294 70.4040871,78.1777272 69.868262,78.6618081 C69.3851331,79.0982816 68.7720643,79.3894713 68.1000355,79.4743267 L67.8739395,79.4948861 L12.7491007,79.5 C11.9787489,79.5 11.2636925,79.2299221 10.7016475,78.7734359 C10.1976224,78.3640727 9.81656429,77.8048455 9.62910686,77.1560378 L9.57388834,76.9365335 L4.49923664,37.6055421 C4.4730266,37.4387459 4.45986246,37.2701632 4.45986246,37.1013266 C4.45986246,36.2043848 4.82341995,35.3923564 5.41121288,34.8045635 C5.98967803,34.2260984 6.78531826,33.8648083 7.66786211,33.8536952 C22.1328924,36.3537841 32.9836363,37.6013266 40.2198111,37.6013266 C47.456428,37.6013266 58.3080557,36.3536317 72.774423,33.8534948 Z M38.3931071,50.5222982 C36.4293959,50.5222982 34.5792645,51.1992565 33.1028411,52.4517554 C31.701872,53.640244 30.6351444,55.3493259 30.1390492,57.4987421 L30.1390492,57.4987421 L26.0251262,73.8333333 L43.4235335,73.8333333 L43.48,70.666 L43.5972753,72.4237517 L43.7802924,72.5541453 C44.4042986,72.9720397 45.1653044,73.2198385 45.9886068,73.2198385 C47.0472459,73.2198385 48.004562,72.8124418 48.697949,72.157287 C49.4018893,71.4921609 49.8345744,70.5725341 49.8345744,69.5583623 C49.8345744,68.227597 48.5563592,65.332537 47.0920269,63.8105053 C46.9155098,63.6270328 46.7189517,63.4454922 46.50742,63.2679935 L46.608,63.355 L54.3861243,59.1582492 L45.1911342,54.1959028 C46.0698297,55.4930331 46.6703909,57.04163 46.8848512,58.7285991 C46.6141332,56.6422162 45.743736,54.7744547 44.4794527,53.3521432 C42.9218175,51.5998123 40.7681433,50.5222982 38.3931071,50.5222982 Z M46.7688689,62.1895627 C46.7106879,62.5342227 46.637319,62.9280176 46.5455092,63.3896134 L46.56,63.313 L46.50742,63.2679935 C46.4714686,63.3876875 46.4332737,63.5066755 46.3928419,63.6250194 L46.2648421,63.978181 C45.6901325,65.4772887 44.7798934,66.8030346 43.3078103,68.0832144 L43.529,67.884 L43.5313614,67.7885689 L43.7517164,67.5977883 C45.2018712,66.2997355 46.2706108,64.4821738 46.7272994,62.393339 Z M40.1761068,56.5990804 C40.7087447,56.5990804 41.1908423,56.8373441 41.5505422,57.2167389 C41.8406609,57.5227428 42.0522377,57.9199673 42.152142,58.3664465 C42.0203119,57.9773682 41.8373154,57.6419537 41.604495,57.3805566 C41.2301163,56.9602262 40.7261582,56.7240804 40.1761068,56.7240804 C39.6388238,56.7240804 39.1460092,56.9509587 38.7771587,57.3307991 C38.6987282,57.4115664 38.6259716,57.499319 38.5597648,57.5931891 L38.543,57.618 L38.5510923,57.5991401 C38.5965849,57.5045167 38.6568785,57.4140671 38.7245946,57.3293474 L38.7945116,57.2465953 C39.1542765,56.8423525 39.6393112,56.5990804 40.1761068,56.5990804 Z M42.5152995,42.8333333 C41.1308313,42.8333333 39.8696952,43.4420192 38.9419831,44.4420208 C38.2098791,43.6650651 37.2219244,43.1933645 36.1379394,43.1933645 C34.9932189,43.1933645 33.9545008,43.716145 33.2118868,44.6074183 C32.6362566,45.2982804 32.2387714,46.2139045 32.121802,47.273597 C31.905559,47.2266991 31.6822356,47.2019552 31.4537354,47.2019552 C30.4946173,47.2019552 29.6228272,47.6338237 28.9930945,48.3422828 C28.3834323,49.0281622 28.00236,49.9746507 28.00236,51.0222982 C28.00236,51.9231974 28.2842532,52.7492973 28.7510035,53.3987093 C29.2400537,54.0791483 29.9314416,54.5655817 31.2650782,54.5239577 C32.0875581,53.141405 33.2531864,52.0402565 34.6297424,51.3228507 C35.7652031,50.7310883 37.0416075,50.3972982 38.3931071,50.3972982 C38.6163623,50.3972982 38.8368369,50.4102364 39.0558467,50.4292718 C41.1991048,50.6158335 43.119648,51.697637 45.1912547,53.42344 C46.6576601,52.4248883 47.6519369,50.6226408 47.6519369,48.5495732 C47.6519369,46.9783752 47.0822346,45.5579185 46.1676045,44.5289552 C45.2328961,43.4774036 43.9397856,42.8333333 42.5152995,42.8333333 Z M64.8720391,39.671187 C64.6988318,39.8180577 64.5335154,39.967794 64.3782625,40.1218583 C63.8093377,40.6864276 63.2974908,41.3865788 62.7714764,42.1108419 C60.5928701,45.110272 59.6807531,45.7915313 55.0587057,45.5199687 C54.2723608,45.4715587 53.4053316,45.4336369 52.7554268,45.6507122 C52.1662633,45.8474991 51.7293382,46.2266707 51.5598421,46.8928318 C51.3607798,47.6746852 51.6683812,48.6313437 52.5097461,49.5502846 C53.2142135,50.3197057 54.2884087,51.0643192 55.6493413,51.623467 C57.7753552,52.4969533 60.607918,52.9233523 63.7856738,52.290329 C65.8676811,51.8755627 67.8102332,51.0273214 69.3282946,49.7458493 C70.7228479,48.5686366 71.7620961,47.0272536 71.9233025,44.5297803 C71.0884484,44.2140031 69.7915168,44.5343787 68.8827269,44.6591151 C68.852872,44.0969543 68.7871813,43.5320776 68.1292599,42.3796639 C67.424179,42.316552 66.6139317,42.4360574 65.9382945,42.441781 C65.8609376,41.9212235 65.7053646,41.3174819 65.178418,40.2546664 C65.0707708,40.0375495 64.9689904,39.844366 64.8720391,39.671187 Z M72.4631966,36.4531317 L70.3262503,37.0950929 L70.3198549,37.220467 C70.2904089,37.6712079 70.1745753,38.4331149 69.8191752,38.9930126 C68.3401505,38.4414999 66.5827235,38.6121911 65.2243658,39.9669141 C65.3929519,40.2889321 65.7960535,41.0995577 66.5516258,42.2667073 C67.6049155,42.1331752 68.1645361,42.1946347 68.6012866,42.2839695 C68.7606284,42.7583745 68.9028606,43.2695601 68.995412,43.9659676 C69.0223685,44.1688031 69.0411528,44.357572 69.0534998,44.5356045 C69.2499851,44.4743966 69.437686,44.4257945 69.6041524,44.3871385 C70.1938573,44.2502001 71.0777735,44.1078773 71.8152798,44.3135883 C71.9989811,44.3648277 72.1792785,44.4392445 72.3531725,44.5286409 C72.3926875,44.3185999 72.4234614,44.1037054 72.446794,43.8850185 C72.5920961,42.5231616 72.4242865,41.2441834 71.5988004,40.2346832 C72.4808128,38.8807187 72.5002415,37.0905665 72.5000082,36.9987298 C72.4999331,36.9691564 72.4969243,36.7634839 72.4631966,36.4531317 L72.4631966,36.4531317 Z M32.206795,0.52485016 C33.04187,0.679355661 33.3611023,1.04634287 33.5890555,1.56709497 L33.5890555,1.56709497 L41.6422676,31.9971667 C38.0342952,31.9646347 35.3021944,31.8763111 33.4460031,31.7314948 C31.5450758,31.5831883 28.7256364,31.2323148 24.9878647,30.6794897 C24.7549458,27.2955734 24.8563636,17.4132704 25.307777,14.5712247 C26.2292811,8.76949987 28.4967818,3.87833493 31.7192282,0.814555615 C31.8743261,0.666992274 32.0379826,0.568284531 32.206795,0.52485016 Z M52.9637917,6.91172102 C53.8579918,7.13974998 54.1835516,7.58960308 54.393028,8.16910434 C56.0940211,12.8751686 56.6043813,25.3856423 56.0922011,30.698617 C54.1604861,31.0865407 52.6974249,31.3388285 51.7028708,31.4544658 C50.7860801,31.5610615 49.4707477,31.6440926 47.7569511,31.7044481 L47.7569511,31.7044481 L42.8657912,15.3190279 L52.450614,7.19889712 C52.6102443,7.04985806 52.7831106,6.94972443 52.9637917,6.91172102 Z M68.9952037,3.87756487 C69.8755972,4.10035204 70.2069017,4.53241411 70.4250318,5.13578922 C72.4719147,10.7985601 72.8010171,22.4044597 71.6830346,28.3987433 C69.3049563,28.8100671 67.5077271,29.1033137 66.2913285,29.2783616 C65.1198271,29.4469484 63.4095446,29.6609631 61.1608033,29.9203311 C61.4399391,25.6518474 61.2841933,15.990823 60.6582316,11.7468968 L60.6582316,11.7468968 L68.4897559,4.15894926 C68.6508118,4.01046334 68.8206614,3.91426128 68.9952037,3.87756487 Z M10.8358812,6.19451369 C11.4627116,6.13587098 11.6198605,6.20829361 11.7703438,6.32566053 L11.7703438,6.32566053 L20.2416832,14.130802 C19.8592092,17.3923221 19.7583967,26.3357178 19.9337048,29.9316892 C17.3133164,29.6739634 15.3250253,29.4559635 13.9688499,29.2775354 C12.6993612,29.1105125 10.8243161,28.8181606 8.34388763,28.3999936 C7.6328036,22.7937408 8.19181262,12.1875377 9.92886183,7.38224493 C10.1397013,6.79883641 10.4563566,6.37692408 10.8358812,6.19451369 Z" stroke="#1F1E1E" fill="#1F1E1E"></path>
        </g>
    </g>
</svg>