<?xml version="1.0" encoding="UTF-8"?>
<svg width="80px" height="80px" viewBox="0 0 80 80" version="1.1" xmlns="http://www.w3.org/2000/svg" xmlns:xlink="http://www.w3.org/1999/xlink">
    <title>FA946F34-A1C9-42F7-9297-4918ECFDFD3B</title>
    <g id="🧬-Symbols" stroke="none" stroke-width="1" fill="none" fill-rule="evenodd">
        <g id="icons/citrus">
            <rect id="icon-space" x="0" y="0" width="80" height="79.9038527"></rect>
            <path d="M68.6267258,55.5450561 C67.3247074,61.9028503 64.0597502,67.4817415 59.5258076,71.6524808 C54.3237548,76.4378095 47.4511209,79.3693447 39.9560878,79.4957286 C32.5262379,79.3877388 25.8241626,76.8323813 20.6325482,72.5766955 C15.8984327,68.6960321 12.4211602,63.4021483 10.7932054,57.2662563 L10.7932054,57.2662563 L11.4093388,58.0199177 C17.8916912,66.9751371 28.216858,72.2768234 39.2091526,72.2948717 C45.7484166,72.2977235 52.0045886,70.4265598 57.3490138,67.075336 C61.8983343,64.222683 65.7870221,60.297563 68.6267258,55.5450561 Z M38.9829788,48.4145908 L43.5506923,66.8496791 C42.1135526,67.0717978 40.6622075,67.1863585 39.211474,67.1923121 C37.3035602,67.1842858 35.4016155,66.9873013 33.5390116,66.6058106 L33.5390116,66.6058106 L38.9829788,48.4145908 Z M44.3974838,49.1922451 L55.2595598,62.343305 C53.1746955,63.7246564 50.9232694,64.8305092 48.564493,65.632477 L48.564493,65.632477 L44.3974838,49.1922451 Z M34.0305921,47.2694654 L28.4987874,65.1322252 C25.4974622,63.9326996 22.712376,62.2438064 20.2583312,60.1364335 L20.2583312,60.1364335 L34.0305921,47.2694654 Z M46.8924587,44.2326238 L65.5700042,50.5132012 C64.0241223,53.7543549 61.9035966,56.6825723 59.3164929,59.1500574 L59.3164929,59.1500574 L46.8924587,44.2326238 Z M29.1709968,44.8403146 L16.6409536,56.4261827 C16.3256274,56.0550587 16.0800682,55.7662168 15.8502395,55.4759225 L15.8502395,55.4759225 L15.4971028,55.0102606 L11.0476839,48.8353635 L29.1709968,44.8403146 Z M68.883477,36.072382 L68.3505057,40.874122 C68.1739864,42.4659181 67.8710315,44.0404643 67.4462815,45.5771223 L67.4462815,45.5771223 L50.6122396,40.1003884 L68.883477,36.072382 Z M57.552983,21.0128205 C59.0987748,21.0128205 60.4980227,21.6452883 61.5109564,22.6672259 C62.5254846,23.690772 63.1526102,25.1048905 63.1526102,26.6666667 C63.1526102,28.2284428 62.5254846,29.6425613 61.5109564,30.6661075 C60.4980227,31.6880451 59.0987748,32.3205128 57.552983,32.3205128 C56.0071911,32.3205128 54.6079432,31.6880451 53.5950095,30.6661075 C52.5804813,29.6425613 51.9533557,28.2284428 51.9533557,26.6666667 C51.9533557,25.1048905 52.5804813,23.690772 53.5950095,22.6672259 C54.6079432,21.6452883 56.0071911,21.0128205 57.552983,21.0128205 Z M39.2541012,16.9102564 C40.799893,16.9102564 42.199141,17.5427242 43.2120747,18.5646618 C44.2266028,19.5882079 44.8537285,21.0023264 44.8537285,22.5641026 C44.8537285,24.1258787 44.2266028,25.5399972 43.2120747,26.5635434 C42.199141,27.585481 40.799893,28.2179487 39.2541012,28.2179487 C37.7083094,28.2179487 36.3090615,27.585481 35.2961277,26.5635434 C34.2815996,25.5399972 33.654474,24.1258787 33.654474,22.5641026 C33.654474,21.0023264 34.2815996,19.5882079 35.2961277,18.5646618 C36.3090615,17.5427242 37.7083094,16.9102564 39.2541012,16.9102564 Z M63.6526102,0.5 C65.198402,0.5 66.5976499,1.13246776 67.6105837,2.15440536 C68.6251118,3.17795152 69.2522374,4.59207001 69.2522374,6.15384615 C69.2522374,7.7156223 68.6251118,9.12974079 67.6105837,10.153287 C66.5976499,11.1752246 65.198402,11.8076923 63.6526102,11.8076923 C62.1068184,11.8076923 60.7075705,11.1752246 59.6946367,10.153287 C58.6801086,9.12974079 58.052983,7.7156223 58.052983,6.15384615 C58.052983,4.59207001 58.6801086,3.17795152 59.6946367,2.15440536 C60.7075705,1.13246776 62.1068184,0.5 63.6526102,0.5 Z" stroke="#1F1E1E" fill="#1F1E1E"></path>
        </g>
    </g>
</svg>