<?xml version="1.0" encoding="UTF-8"?>
<svg width="80px" height="80px" viewBox="0 0 80 80" version="1.1" xmlns="http://www.w3.org/2000/svg" xmlns:xlink="http://www.w3.org/1999/xlink">
    <title>3F3355DE-EB52-4286-B756-26F5C8BA4F13</title>
    <g id="🧬-Symbols" stroke="none" stroke-width="1" fill="none" fill-rule="evenodd">
        <g id="icons/chevron-left">
            <rect id="icon-space" x="0" y="0" width="80" height="80"></rect>
            <path d="M56.6667176,0.500000003 C57.3875598,0.499962933 58.1060505,0.803874398 58.655087,1.4029251 C59.2204516,2.01968585 59.5,2.82878428 59.5,3.63634022 C59.5,4.44389616 59.2204516,5.25299459 58.6550834,5.86975929 L58.6550834,5.86975929 L27.3688468,40.0009036 L58.655087,74.1300931 C59.2204516,74.7468539 59.5,75.5559523 59.5,76.3635083 C59.5,77.1710642 59.2204516,77.9801626 58.6550296,78.5969861 C58.105933,79.1962045 57.3874011,79.5 56.6665463,79.5 C55.9457281,79.5 55.2272099,79.1962594 54.6784455,78.5974033 L54.6784455,78.5974033 L21.3450241,42.2346727 C20.8020464,41.6423339 20.5,40.8382048 20.5,40.0011364 C20.5,39.1642947 20.8018319,38.3601728 21.3448063,37.7678376 L21.3448063,37.7678376 L54.6782565,1.40313619 C55.2273544,0.804018587 55.9458778,0.500037074 56.6667176,0.500000003 Z" stroke="#1F1E1E" fill="#1F1E1E"></path>
        </g>
    </g>
</svg>