<?xml version="1.0" encoding="UTF-8"?>
<svg width="80px" height="80px" viewBox="0 0 80 80" version="1.1" xmlns="http://www.w3.org/2000/svg" xmlns:xlink="http://www.w3.org/1999/xlink">
    <title>BBA708FD-F564-44E4-9449-DEF681817E98</title>
    <g id="🧬-Symbols" stroke="none" stroke-width="1" fill="none" fill-rule="evenodd">
        <g id="icons/chicken-filet">
            <rect id="icon-space" x="0" y="0" width="80" height="80"></rect>
            <path d="M79.445873,40.92875 L79.445873,43.6276557 C79.0512333,47.4304805 76.9192249,50.6085536 73.986998,53.1609253 C70.2338323,56.4278874 65.1667977,58.6748312 60.6229001,59.878228 C58.5361361,60.4313544 56.4567441,60.7262957 54.4437331,61.0128853 C47.6172886,61.9872942 46.0564824,62.511609 39.5107499,66.3951493 C34.835366,69.1683587 30.2194608,71.910481 24.443263,71.4491213 C20.6143867,71.1397885 16.7087975,69.7137094 13.145348,67.3349819 C9.80459618,65.1040567 6.82880779,62.0906211 4.53806122,58.6214938 C2.46905527,55.4874558 1.1232646,51.8802246 0.673440683,48.307468 C3.24794681,51.46077 6.35094355,54.2812759 9.78021243,56.4373695 C14.8369705,59.615348 20.2796013,61.0910512 24.8012811,61.0910512 C31.1166046,61.0910512 36.3794236,58.174361 41.0200438,55.5820736 C43.6257701,54.128452 46.0604278,52.7660644 48.5289266,51.9680436 C50.7858205,51.2380848 53.2180792,50.9147534 55.768543,50.5726438 C57.9932774,50.2742263 60.3065222,49.9629891 62.6731288,49.3731561 C65.253243,48.7295 73.6520589,46.3028599 79.445873,40.92875 L79.445873,40.92875 Z M66.831066,16.8749907 C69.7292334,18.0928339 73.9299477,20.1791387 76.7072297,23.0815278 C78.5313306,24.9877983 79.7446511,27.2524841 79.458069,29.8723458 C79.2072696,32.1602835 78.0844621,34.1663641 76.4820357,35.9034941 C72.5581163,40.1550594 65.7746899,42.8037187 61.2814297,43.9244055 C59.2025336,44.4421328 57.0997135,44.7229751 54.9939127,45.0052382 C52.2397858,45.3744035 49.4809575,45.7468096 46.7604764,46.625912 C44.0104074,47.5149226 41.4239788,48.9062621 38.8636969,50.3316444 L38.2240916,50.6884283 L37.1884698,51.2653499 C32.9290623,53.6267463 28.6559818,55.8074546 23.6690784,55.4276725 C18.9964585,55.0719492 14.4526652,53.0758444 10.6535295,50.1844132 C6.60857062,47.1058919 3.4039256,43.0099101 1.79497643,38.7740803 C0.488446722,35.3312108 0.194317644,31.9355255 0.805956218,28.7100098 C1.43898324,25.3717008 3.04078205,22.2178882 5.47967474,19.3810039 C10.2793984,13.7909076 17.723852,10.3276648 24.6033911,9.14647111 C38.6326184,6.7331173 53.9197816,11.4517186 66.831066,16.8749907 Z M38.7264404,20.1889648 C36.7627292,20.1889648 34.9125978,20.8659232 33.4361744,22.1184221 C32.0352054,23.3069106 30.9684777,25.0159926 30.4723826,27.1654088 L30.4723826,27.1654088 L26.3584595,43.5 L43.7568668,43.5 L43.813,40.328 L43.9306086,42.0904184 L44.1136258,42.2208119 C44.7376319,42.6387064 45.4986378,42.8865051 46.3219401,42.8865051 C47.3805792,42.8865051 48.3378953,42.4791084 49.0312823,41.8239537 C49.7352227,41.1588275 50.1679077,40.2392008 50.1679077,39.225029 C50.1679077,37.8942637 48.8896925,34.9992037 47.4253603,33.4771719 C47.2488432,33.2936995 47.0522851,33.1121588 46.8407533,32.9346602 L46.941,33.022 L54.7194576,28.8249158 L45.5244675,23.8625694 C46.4576003,25.2400601 47.0770691,26.9011403 47.2535721,28.7103674 C47.0333532,26.4963986 46.1401584,24.5120962 44.8127861,23.0188098 C43.2551508,21.266479 41.1014766,20.1889648 38.7264404,20.1889648 Z M47.1018667,31.8582164 C47.0437392,32.2024027 46.9704759,32.5955711 46.8788426,33.05628 L46.893,32.98 L46.8407533,32.9346602 C46.8048019,33.0543542 46.766607,33.1733422 46.7261752,33.2916861 L46.5981754,33.6448476 C46.0234659,35.1439554 45.1132267,36.4697013 43.6411436,37.7498811 L43.862,37.552 L43.8646947,37.4552356 L44.0850497,37.264455 C45.5352046,35.9664022 46.6039442,34.1488405 47.0606328,32.0600057 Z M40.5094401,26.2657471 C41.042078,26.2657471 41.5241756,26.5040108 41.8838755,26.8834056 C42.1739942,27.1894094 42.3855711,27.586634 42.4854754,28.0331132 C42.3536452,27.6440349 42.1706487,27.3086203 41.9378284,27.0472233 C41.5634497,26.6268928 41.0594915,26.3907471 40.5094401,26.3907471 C39.9721571,26.3907471 39.4793426,26.6176254 39.110492,26.9974658 C39.0320615,27.0782331 38.9593049,27.1659857 38.8930982,27.2598558 L38.875,27.287 L38.8844256,27.2658067 C38.9299182,27.1711834 38.9902118,27.0807337 39.0579279,26.996014 L39.1278449,26.9132619 C39.4876098,26.5090191 39.9726445,26.2657471 40.5094401,26.2657471 Z M42.8486328,12.5 C41.4641646,12.5 40.2030285,13.1086859 39.2753164,14.1086874 C38.5432125,13.3317318 37.5552578,12.8600311 36.4712728,12.8600311 C35.3265523,12.8600311 34.2878341,13.3828117 33.5452201,14.274085 C32.9695899,14.9649471 32.5721047,15.8805711 32.4551354,16.9402637 C32.2388923,16.8933658 32.0155689,16.8686218 31.7870687,16.8686218 C30.8279506,16.8686218 29.9561605,17.3004904 29.3264278,18.0089494 C28.7167656,18.6948288 28.3356934,19.6413174 28.3356934,20.6889648 C28.3356934,21.5898641 28.6175865,22.415964 29.0843368,23.065376 C29.573387,23.7458149 30.2647749,24.2322484 31.5984115,24.1906244 C32.4208914,22.8080717 33.5865197,21.7069232 34.9630757,20.9895174 C36.0985365,20.397755 37.3749408,20.0639648 38.7264404,20.0639648 C38.9496957,20.0639648 39.1701703,20.0769031 39.3891801,20.0959385 C41.5324381,20.2825002 43.4529814,21.3643036 45.5245881,23.0901067 C46.9909935,22.091555 47.9852702,20.2893075 47.9852702,18.2162399 C47.9852702,16.6450419 47.4155679,15.2245852 46.5009379,14.1956219 C45.5662294,13.1440703 44.2731189,12.5 42.8486328,12.5 Z" stroke="#1F1E1E" fill="#1F1E1E"></path>
        </g>
    </g>
</svg>