<?xml version="1.0" encoding="UTF-8"?>
<svg width="80px" height="80px" viewBox="0 0 80 80" version="1.1" xmlns="http://www.w3.org/2000/svg" xmlns:xlink="http://www.w3.org/1999/xlink">
    <title>7E3ADF25-F7AF-44D8-8140-07B6CC2F7FC5</title>
    <g id="🧬-Symbols" stroke="none" stroke-width="1" fill="none" fill-rule="evenodd">
        <g id="icons/lock">
            <rect id="icon-space" x="0" y="0" width="80" height="79.9038527"></rect>
            <path d="M40,0.5 C45.3772583,0.5 50.2521507,2.68655246 53.7827991,6.21720085 C57.215374,9.64977567 59.3774878,14.3529516 59.4949566,19.5530761 L59.5,20 L59.5,30.5 L62.5,30.5 C64.4293087,30.5 66.179529,31.2852868 67.4473365,32.5530943 C68.6478786,33.7536364 69.4159891,35.3870287 69.4935172,37.1967849 L69.5,37.5 L69.5,72.5 C69.5,74.4301473 68.7145754,76.1796668 67.4473365,77.4469057 C66.2462558,78.6479865 64.6122061,79.4160016 62.8030952,79.4935182 L62.5,79.5 L17.5,79.5 C15.5706913,79.5 13.820471,78.7147132 12.5526635,77.4469057 C11.3521214,76.2463636 10.5840109,74.6129713 10.5064828,72.8032151 L10.5,72.5 L10.5,37.5 C10.5,35.5698527 11.2854246,33.8203332 12.5526635,32.5530943 C13.7537442,31.3520135 15.3877939,30.5839984 17.1969048,30.5064818 L17.5,30.5 L20.5,30.5 L20.5,20 C20.5,14.6227417 22.6865525,9.74784924 26.2172009,6.21720085 C29.7478493,2.68655246 34.6227417,0.5 40,0.5 Z M40,6.16687016 C36.1853617,6.16687016 32.7269729,7.71765383 30.2223134,10.2223133 C27.7176539,12.7269729 26.1668702,16.1853617 26.1668702,20 L26.1668702,20 L26.1668702,30.5 L53.8331298,30.5 L53.8331298,20 L53.8276223,19.6066775 C53.725045,15.9479861 52.1959786,12.6406053 49.7776866,10.2223133 C47.2730271,7.71765383 43.8146383,6.16687016 40,6.16687016 Z" stroke="#1F1E1E" fill="#1F1E1E"></path>
        </g>
    </g>
</svg>