<?xml version="1.0" encoding="UTF-8"?>
<svg width="80px" height="80px" viewBox="0 0 80 80" version="1.1" xmlns="http://www.w3.org/2000/svg" xmlns:xlink="http://www.w3.org/1999/xlink">
    <title>CB90E9F5-0D93-4A3D-A88A-2372CED2729D</title>
    <g id="🧬-Symbols" stroke="none" stroke-width="1" fill="none" fill-rule="evenodd">
        <g id="icons/onion-rings">
            <rect id="icon-space" x="0" y="0" width="80" height="80"></rect>
            <path d="M72.774423,33.8534948 C74.0851787,34.0243855 74.8105298,34.4796314 75.3011997,35.114447 C75.7522056,35.6979464 76.0051069,36.4331216 75.9783359,37.2089995 L75.9640394,37.4215283 L70.8992507,76.7561666 C70.7800416,77.5148294 70.4040871,78.1777272 69.868262,78.6618081 C69.3851331,79.0982816 68.7720643,79.3894713 68.1000355,79.4743267 L67.8739395,79.4948861 L12.7491007,79.5 C11.9787489,79.5 11.2636925,79.2299221 10.7016475,78.7734359 C10.1976224,78.3640727 9.81656429,77.8048455 9.62910686,77.1560378 L9.57388834,76.9365335 L4.49923664,37.6055421 C4.4730266,37.4387459 4.45986246,37.2701632 4.45986246,37.1013266 C4.45986246,36.2043848 4.82341995,35.3923564 5.41121288,34.8045635 C5.98967803,34.2260984 6.78531826,33.8648083 7.66786211,33.8536952 C22.1328924,36.3537841 32.9836363,37.6013266 40.2198111,37.6013266 C47.456428,37.6013266 58.3080557,36.3536317 72.774423,33.8534948 Z M42.1611906,46.2052271 C41.7786148,46.1153439 41.3951341,46.1863831 41.0844923,46.3728242 C40.7690996,46.5621167 40.528957,46.8699101 40.4363414,47.2490306 C39.9573043,49.2081144 40.2558072,50.6713931 41.0793046,51.9029309 C42.0468605,53.349908 43.7902451,54.4739281 45.9570619,55.7010797 C47.4171102,56.5251464 48.8570409,57.4098165 49.8177084,58.8146131 C50.5269759,59.8517843 50.9655928,61.1746298 50.9655928,62.9608931 L50.9655928,62.9608931 L50.9609258,63.2719414 C50.9018095,65.2241911 50.281074,66.8391095 49.0981724,68.0825903 L49.0981724,68.0825903 L49.037,68.143 L49.0907144,68.0161973 C49.5001244,66.9799121 49.7225503,65.8432424 49.7225503,64.6378284 C49.7225503,60.6771134 46.8002958,58.6129879 44.3935395,56.9764722 C42.8846274,55.9503921 41.4338702,55.1014872 41.4338702,53.8013318 C41.4338702,53.4099097 41.2724615,53.0550248 41.009839,52.7983501 C40.7514094,52.5457734 40.3946432,52.3886116 40,52.3886116 C39.6053568,52.3886116 39.2485906,52.5457734 38.990161,52.7983501 C38.7275385,53.0550248 38.5661298,53.4099097 38.5661298,53.8013318 C38.5661298,55.1014855 37.1153656,55.9503828 35.6062887,56.9764673 C33.1997025,58.612996 30.2774497,60.6771173 30.2774497,64.6378284 L30.2774497,64.6378284 L30.284087,64.9973586 C30.3238047,66.0695725 30.5408166,67.0835406 30.9092856,68.0161973 L30.9092856,68.0161973 L30.962,68.143 L30.9018016,68.0825705 C29.656668,66.7736631 29.0344072,65.0531708 29.0344072,62.9608931 C29.0344072,61.1083723 29.5084527,59.7561323 30.4598746,58.5943619 C31.6310428,57.1642619 33.4897047,56.0173263 36.003973,54.5842847 C37.3502012,53.7659502 38.5901693,52.7933885 39.2625785,51.4239683 C39.7985862,50.3323416 39.9883646,48.9859204 39.5636328,47.248925 C39.4711223,46.8700995 39.2310178,46.562757 38.9157867,46.3735615 C38.6050043,46.187036 38.2213986,46.1159496 37.8387709,46.205236 C37.4532728,46.2951602 37.1424877,46.530395 36.9503818,46.8361412 C36.7554967,47.1463107 36.6821479,47.529202 36.7755225,47.9109951 C37.0566608,49.0607961 36.9564441,49.8741564 36.4146757,50.5870115 C35.7180999,51.5035611 34.3940872,52.2598463 32.4787078,53.3278892 C30.7588462,54.3058893 28.9413645,55.4884219 27.7016425,57.3711355 C26.7769986,58.7753532 26.1666667,60.5678019 26.1666667,62.9608931 C26.1666667,66.341392 27.4573944,69.0425508 29.8640932,70.9149772 C32.203312,72.7349036 35.623133,73.7714695 39.991673,73.8332833 C44.309816,73.8333333 47.7426483,72.8144395 50.1042526,70.9774422 C52.5127681,69.1039545 53.8333333,66.3799388 53.8333333,62.9608931 C53.8333333,60.503204 53.1901321,58.6785323 52.1598289,57.2211183 C50.8477923,55.3651786 48.8908944,54.1091512 46.7860462,52.9156268 C45.2456241,52.0578322 44.0991653,51.4040848 43.4984399,50.5255332 C43.0385858,49.8530036 42.9471451,49.0452306 43.2244841,47.9109685 C43.3178521,47.529202 43.2445033,47.1463107 43.0496182,46.8361412 C42.8575123,46.530395 42.5467272,46.2951602 42.1611906,46.2052271 Z M39.9908583,63.3865763 L40.2934503,63.6510351 L40.2934503,63.6510351 L40.5966684,63.9039778 L40.8564038,64.1192824 C41.7592143,64.8737669 42.5732349,65.6670832 42.5732349,67.4186863 C42.5732349,68.4603845 42.2755605,69.263086 41.8505988,69.8446654 C41.3184561,70.5729268 40.5919126,70.9581216 40.0706814,71.0034707 C39.5165856,70.9942808 38.7469459,70.6284008 38.1823753,69.9031932 C37.727007,69.3182592 37.4082237,68.4964408 37.4082237,67.4186863 C37.4082237,65.5001857 38.3847608,64.7313008 39.3846939,63.9042324 C39.5852209,63.7384246 39.7912398,63.5675015 39.9908583,63.3865763 Z M40.0000513,57.1221527 C40.6740715,57.8345693 41.5255484,58.4527595 42.392433,59.0481517 L42.7644259,59.3021322 L43.1748845,59.5808458 C45.0833538,60.8787864 46.8548456,62.1669931 46.8548456,64.6378634 C46.8548456,66.2288367 46.2906945,67.6476639 45.3296793,68.7389413 C45.4019838,68.3235194 45.4410649,67.8833586 45.4410649,67.4187038 C45.4410649,64.2512253 43.7169618,62.7955633 42.4406411,61.7401017 C41.858476,61.2584568 41.430335,61.0144289 41.4331749,60.6130658 C41.4360007,60.2512745 41.3005792,59.9197463 41.0743014,59.6673489 C40.8488007,59.4158183 40.5326152,59.2433676 40.1749549,59.2002682 C39.6587983,59.1943141 39.2878218,59.3442654 39.0243221,59.5696347 C38.7165206,59.8328951 38.5452316,60.2036944 38.5482822,60.6128728 C38.5512667,61.0148393 38.1230273,61.2585299 37.5408753,61.7400539 C36.2646656,62.7955824 34.5405727,64.251239 34.5405727,67.4187038 C34.5405727,67.873738 34.5779983,68.3053324 34.6472795,68.7131994 C33.7003013,67.6250345 33.145226,66.2161158 33.145226,64.6378634 C33.145226,61.9905113 35.1788109,60.7008013 37.2353885,59.3023071 C38.2275896,58.6274847 39.2297093,57.9363434 40.0000513,57.1221527 Z M40,0.5 C45.442873,0.5 50.2574275,3.18981196 53.1872366,7.31246631 C54.658486,7.28509771 55.6487429,7.16666667 56.6666667,7.16666667 C60.2104938,7.16666667 63.4188271,8.60308643 65.7412037,10.925463 C68.0635802,13.2478395 69.5,16.4561729 69.5,20 C69.5,23.5438271 68.0635802,26.7521605 65.7412037,29.074537 C63.4188271,31.3969136 60.2104938,32.8333333 56.6666667,32.8333333 C53.853187,32.8333333 51.2511066,31.928076 49.1360205,30.3927055 C46.0909992,31.9321641 43.1507235,32.8333333 40,32.8333333 C36.8494336,32.8333333 33.9092943,31.9322514 31.4234641,30.3734448 C28.7495035,31.9278697 26.1471409,32.8333333 23.3333333,32.8333333 C19.7895062,32.8333333 16.5811729,31.3969136 14.2587963,29.074537 C11.9364198,26.7521605 10.5,23.5438271 10.5,20 C10.5,16.4561729 11.9364198,13.2478395 14.2587963,10.925463 C16.5811729,8.60308643 19.7895062,7.16666667 23.3333333,7.16666667 C24.3510846,7.16666667 25.3411789,7.28506016 26.2905661,7.50893827 C29.7425663,3.18980973 34.5571251,0.5 40,0.5 Z M23.3333333,12.8333333 C21.354313,12.8333333 19.5626463,13.6354898 18.2657347,14.9324014 C16.9688232,16.229313 16.1666667,18.0209796 16.1666667,20 C16.1666667,21.9790204 16.9688232,23.770687 18.2657347,25.0675986 C19.5626463,26.3645102 21.354313,27.1666667 23.3333333,27.1666667 C24.4380676,27.1666667 25.4843679,26.9165441 26.4188662,26.4701488 C26.5952253,26.3859047 26.7686492,26.2941704 26.9386308,26.1949973 C26.829026,26.0444571 26.7216153,25.8920817 26.6169283,25.7379947 C24.8595595,23.1513539 23.8333333,20.0288365 23.8333333,16.6666667 C23.8333333,16.2897773 23.8461271,15.9158561 23.8587227,15.5449808 C23.8847858,14.7775616 23.9087652,14.0226979 23.3333333,12.8333333 Z M56.3333437,12.8414724 C56.1250773,12.8418946 55.9194548,12.8498751 55.7167095,12.8651243 C55.7626964,13.0567379 55.8053388,13.2487234 55.844348,13.4409239 C56.0559791,14.4836438 56.1666667,15.5622265 56.1666667,16.6666667 C56.1666667,20.0288634 55.1404277,23.1514038 53.383828,25.7379144 C53.2794012,25.8916779 53.1722619,26.0437406 53.0624448,26.1940217 C53.232267,26.2937521 53.4055069,26.3855725 53.5816453,26.4698528 C54.514672,26.916296 55.5614215,27.1666667 56.6666667,27.1666667 C58.645687,27.1666667 60.4373537,26.3645102 61.7342653,25.0675986 C63.0311768,23.770687 63.8333333,21.9790204 63.8333333,20 C63.8333333,17.9993131 63.0141649,16.1901016 61.6474818,14.8898973 C60.3153489,13.6225626 58.4606735,12.8371596 56.3333437,12.8414724 Z M40,7.83333333 C37.2333699,7.83333333 34.7637465,9.10518198 33.1497516,11.7340549 C35.0327549,13.9674156 36.1666667,16.8513011 36.1666667,20 C36.1666667,21.3438072 35.9602418,22.6393986 35.8164993,24.4467352 C37.0609729,25.118931 38.4859702,25.5 40,25.5 C41.513723,25.5 42.9384563,25.1190876 44.4235318,23.8577657 C44.0398547,22.6399962 43.8333333,21.3441173 43.8333333,20 C43.8333333,16.8512829 44.9672488,13.9673791 46.8548662,11.096956 C45.2364283,9.10528057 42.76674,7.83333333 40,7.83333333 Z" stroke="#1F1E1E" fill="#1F1E1E"></path>
        </g>
    </g>
</svg>