<?xml version="1.0" encoding="UTF-8"?>
<svg width="80px" height="80px" viewBox="0 0 80 80" version="1.1" xmlns="http://www.w3.org/2000/svg" xmlns:xlink="http://www.w3.org/1999/xlink">
    <title>235332E5-1DAD-4C94-93EB-F5DD1AAC6ECC</title>
    <g id="🧬-Symbols" stroke="none" stroke-width="1" fill="none" fill-rule="evenodd">
        <g id="icons/shrimp-bites">
            <rect id="icon-space" x="0" y="0" width="80" height="80"></rect>
            <path d="M72.774423,33.8534948 C74.0851787,34.0243855 74.8105298,34.4796314 75.3011997,35.114447 C75.7522056,35.6979464 76.0051069,36.4331216 75.9783359,37.2089995 L75.9640394,37.4215283 L70.8992507,76.7561666 C70.7800416,77.5148294 70.4040871,78.1777272 69.868262,78.6618081 C69.3851331,79.0982816 68.7720643,79.3894713 68.1000355,79.4743267 L67.8739395,79.4948861 L12.7491007,79.5 C11.9787489,79.5 11.2636925,79.2299221 10.7016475,78.7734359 C10.1976224,78.3640727 9.81656429,77.8048455 9.62910686,77.1560378 L9.57388834,76.9365335 L4.49923664,37.6055421 C4.4730266,37.4387459 4.45986246,37.2701632 4.45986246,37.1013266 C4.45986246,36.2043848 4.82341995,35.3923564 5.41121288,34.8045635 C5.98967803,34.2260984 6.78531826,33.8648083 7.66786211,33.8536952 C22.1328924,36.3537841 32.9836363,37.6013266 40.2198111,37.6013266 C47.456428,37.6013266 58.3080557,36.3536317 72.774423,33.8534948 Z M45.1826395,61.7009509 C44.8913263,61.6937 44.5980342,61.7670405 44.3441181,61.9195486 L44.3441181,61.9195486 L41.7134766,63.4979335 L41.7134766,72.0359793 L44.3443146,73.6144821 L44.4937129,73.6931116 C44.6979086,73.7863943 44.9205556,73.8333919 45.1431641,73.8333919 C45.4486805,73.8333919 45.7530575,73.7447308 46.0089031,73.572035 C49.07843,71.5000728 49.2239583,68.37201 49.2239583,67.7669857 C49.2239583,64.3183158 46.5474195,62.3253335 46.0089114,61.9618248 C45.7639802,61.7965395 45.4748285,61.7082236 45.1826395,61.7009509 Z M36.5039221,63.9955662 L32.634548,70.9461724 L32.8644821,71.006448 C33.9329203,71.279907 34.9548184,71.4435945 36.6729711,71.4895833 L36.6729711,71.4895833 L40.7603516,71.4895833 L40.7603516,64.0507061 L36.5039221,63.9955662 Z M34.9375877,62.2747818 L23.4356349,62.6316545 L23.5526209,62.9605566 C24.7706608,66.2298856 27.4313452,68.9032857 31.2889471,70.5145051 L31.2889471,70.5145051 L35.5974699,63.401282 L35.4765942,63.2844362 C35.2055712,63.0025792 35.0134682,62.6574317 34.9375877,62.2747818 L34.9375877,62.2747818 Z M25.3945329,51.7351848 C23.7810396,53.7827664 22.8333333,56.2826597 22.8333333,58.9778646 C22.8333333,59.6391202 22.8898943,60.2884962 23.1074704,61.538489 L23.1074704,61.538489 L35.957953,61.2422629 Z M36.8541667,46.4672481 C32.6076573,46.4206232 28.8023442,48.0935523 25.9222282,51.0847333 L25.9222282,51.0847333 L36.8541667,60.5135413 Z M53.671875,42.8333333 L37.3307292,42.8333333 L37.1822444,42.8402264 C36.8406743,42.8721056 36.535257,43.0125341 36.3057195,43.2191179 C36.023311,43.4732855 35.8541667,43.8259991 35.8541667,44.2122396 C35.8541667,44.59848 36.023311,44.9511937 36.3057195,45.2053613 C36.5680481,45.4414571 36.929485,45.5911458 37.3307292,45.5911458 L37.3307292,45.5911458 L53.671875,46.4661458 L37.8072917,46.4661458 L37.8072917,59.7708333 L42.5390625,59.7708333 L42.8809452,59.7653021 C45.2664613,59.6879774 47.4851179,58.8023051 49.1628571,57.2578577 C50.9411934,55.6207314 51.8832858,53.4554735 51.8256883,51.1651188 C51.8082867,50.4741988 51.624249,49.8169206 51.3071606,49.2239583 L51.3071606,49.2239583 L53.671875,49.2239583 L53.9091539,49.2166756 C54.7716057,49.1635696 55.5473431,48.8233472 56.1229915,48.3052636 C56.7710729,47.7219904 57.1666667,46.9150391 57.1666667,46.0286458 C57.1666667,45.1422526 56.7710729,44.3353013 56.1229915,43.7520281 C55.4950114,43.186846 54.6289089,42.8333333 53.671875,42.8333333 L53.671875,42.8333333 Z M46.8013575,51.1108495 C46.8723995,51.1747874 46.921875,51.2615269 46.921875,51.3606771 C46.921875,51.4598272 46.8723995,51.5465668 46.8013575,51.6105046 C46.7102356,51.6925143 46.5833912,51.7395833 46.4453125,51.7395833 C46.3072338,51.7395833 46.1803894,51.6925143 46.0892675,51.6105046 C46.0182255,51.5465668 45.96875,51.4598272 45.96875,51.3606771 C45.96875,51.2615269 46.0182255,51.1747874 46.0892675,51.1108495 C46.5833912,50.9817708 46.7102356,51.0288399 46.8013575,51.1108495 Z M40.6481706,24.9440554 C42.3149061,24.9440554 43.8251139,25.5748948 44.9178156,26.5987826 C45.9983613,27.61128 46.6698602,29.0091331 46.669895,30.5491362 C46.667694,30.7356591 46.6557617,31.3592928 46.5360137,31.8469127 C46.4907011,32.0314277 46.4299504,32.1967352 46.3697431,32.3409713 C43.7224277,32.7640556 41.8104647,32.8333333 40.5204158,32.8333333 C39.2155753,32.8333333 37.2862234,32.7656089 34.7326824,32.6305716 C34.6865409,32.4148391 34.6437065,32.1744969 34.6248073,31.9279434 C34.5937857,31.5232423 34.6095877,31.1021655 34.6194937,30.8234441 C34.6259419,29.0250454 35.2920774,27.6168108 36.3785257,26.5987826 C37.4712273,25.5748948 38.9814352,24.9440554 40.6481706,24.9440554 Z M49.9450153,21.7779831 C51.4624941,21.1329419 53.2026564,21.10888 54.7444389,21.7185201 C56.2300318,22.3059422 57.3955328,23.4290976 57.9758116,24.829313 C55.9004265,26.4862082 54.5822539,29.3325235 54.4409291,31.9044853 L54.4409291,31.9044853 L50.2694113,32.3812864 C50.4659882,30.0209258 49.7354754,26.9029333 48.2725236,25.0551972 C49.0641258,24.0827559 49.6334316,22.9670693 49.9450153,21.7779831 Z M28.9071227,21.277517 C29.7412918,21.2806747 30.5646812,21.4471862 31.3243809,21.7656508 C31.3767851,21.9982522 31.4113238,22.1360379 31.4565769,22.2720978 C31.8000217,23.2809535 32.3290017,24.2247584 33.0186519,25.0609851 C31.5640529,26.9042032 30.8564276,29.9188685 31.0509625,32.260612 C30.1866253,32.1838879 29.530739,32.1199254 29.083312,32.0686461 C28.5311494,32.0053633 27.7662857,31.9047352 26.78886,31.7664884 C26.6574064,29.2039881 25.3976805,26.4796519 23.3246212,24.8299312 C23.7487278,23.8219645 24.4664767,22.9743264 25.3652611,22.3603854 C26.3707691,21.6735437 27.6028925,21.2787586 28.9071227,21.277517 Z M64.1263385,26.1662782 C64.6404684,26.1662782 66.5447646,26.199909 67.8656721,26.9125203 C68.4972073,27.2532248 69.0216053,27.6555076 69.415874,28.0298115 C69.6198841,28.223491 69.8053726,28.4045169 69.9384759,28.5548507 C67.5583022,29.1655205 65.7485222,29.6160532 64.5091211,29.9063872 C63.0629445,30.2451591 60.9394257,30.6673436 58.1391874,31.1730048 C58.2891681,29.8688214 58.9188663,28.6997721 59.8566935,27.8210054 C60.9493952,26.7971176 62.459603,26.1662782 64.1263385,26.1662782 Z M17.1694458,26.1662779 C18.8355258,26.1681339 20.3448653,26.7994288 21.4373657,27.8231281 C22.3770413,28.7036268 23.0077563,29.8751784 23.157062,31.1819634 C21.152036,30.8455505 19.4584693,30.5156347 18.0764295,30.1918871 C16.7850469,29.8893763 14.540145,29.3407105 11.3418136,28.5458852 C11.5101808,28.3452518 11.7711683,28.0978061 12.0551371,27.8454107 C12.5217218,27.4307039 13.1209031,27.0131247 13.7865134,26.7326303 C15.1044537,26.1772379 16.781412,26.1667114 17.1694458,26.1662779 Z M20.5353046,14.0205847 C22.0816471,13.8889849 23.5558992,14.315834 24.7165061,15.1343551 C25.7276936,15.8474978 26.5008462,16.858694 26.8690338,18.0559447 C23.8853322,18.6614066 21.3853665,20.5631315 20.1296155,23.1707672 C18.8629227,22.7748398 17.5187142,22.6410869 16.1901623,22.7798696 C15.4589924,21.8465974 15.0612685,20.7179454 15.0612485,19.5599313 C15.074575,18.1219409 15.6706663,16.8070352 16.6428368,15.8182659 C17.6255136,14.818811 18.9916511,14.1519557 20.5353046,14.0205847 Z M56.5670459,15.1120327 C57.7292656,14.2878825 59.2083475,13.8572732 60.7606319,13.9893059 C62.3102036,14.121108 63.6804014,14.7923229 64.6636586,15.7974809 C65.6363626,16.7918506 66.2295878,18.1136461 66.2350716,19.5548272 C66.2339791,20.7155311 65.8365799,21.8426426 65.1071414,22.7749995 C63.7780981,22.6361534 62.4334097,22.7699793 61.1662205,23.1659532 C59.9074674,20.557206 57.4036305,18.6566107 54.4174294,18.0544506 C54.7808494,16.8495843 55.5534715,15.8307759 56.5670459,15.1120327 Z M40.6470561,13.9441824 C42.3124456,13.9478947 43.8209412,14.5796382 44.9132715,15.6031659 C45.9935128,16.615366 46.6659821,18.0117153 46.6699454,19.5579621 C46.6713997,19.817841 46.6476508,20.0773616 46.5990362,20.3333148 C46.464771,21.2285736 46.1094306,22.0593101 45.563588,22.7758544 C44.0511194,21.9245869 42.3486989,21.4983398 40.6460485,21.4983398 C38.9427171,21.4983398 37.2396481,21.9249279 35.7267719,22.7768402 C35.0088563,21.8421774 34.6205919,20.7162153 34.6262602,19.5582675 C34.6358377,18.0152159 35.3096905,16.620981 36.3895192,15.6091882 C37.4813178,14.5861797 38.9873743,13.9531499 40.6470561,13.9441824 Z M50.8535069,6.62753735 C52.3623207,6.57643124 53.7713883,7.05180718 54.8659618,7.88741936 C55.8485919,8.63757249 56.5777491,9.67866835 56.8911932,10.8879123 C55.2416743,11.5939722 53.8575116,12.5909247 52.8132838,13.7920641 C51.7597032,15.0039618 51.0507917,16.4240147 50.7611593,17.9683353 C50.5478588,18.004355 50.3359592,18.0471642 50.1258004,18.0966623 C49.6429273,15.3082579 47.7972976,12.8801105 45.1227553,11.5529816 C45.2857772,10.2528792 45.9254235,9.0938108 46.8696225,8.22771158 C47.9047995,7.27815953 49.305484,6.67997153 50.8535069,6.62753735 Z M30.212955,6.61098025 C31.8073892,6.61234121 33.2641581,7.19380785 34.3448217,8.15004841 C35.332867,9.02433445 36.0060739,10.2126805 36.1747417,11.5538631 C33.5032036,12.8834697 31.6585756,15.3095888 31.1715144,18.095724 C30.961101,18.0460447 30.748934,18.0030703 30.5353691,17.9668327 C30.2359851,16.3669632 29.4882597,14.9036548 28.4057066,13.7055141 C27.3411361,12.5272759 25.9524913,11.6055517 24.3499251,11.0647091 C24.6213372,9.85130486 25.3071548,8.79410898 26.2527816,8.01526425 C27.3157869,7.13974328 28.7068331,6.61518618 30.212955,6.61098025 Z M40.6476999,0.499999778 C42.0282741,0.501299662 43.3206345,0.940947604 44.3515156,1.69527845 C45.2653903,2.36399175 45.973746,3.28044476 46.3511806,4.35708211 C43.8730687,5.67229172 42.1483524,7.95102224 41.6307981,10.5710642 C40.9771291,10.510695 40.3187347,10.5106569 39.6650222,10.5707801 C39.1457269,7.95308246 37.4209521,5.67714394 34.9446834,4.36377615 C35.3210901,3.28576304 36.0291036,2.36783481 36.9431742,1.69791237 C37.9741268,0.942327086 39.2671647,0.501670888 40.6476999,0.499999778 Z" stroke="#1F1E1E" fill="#1F1E1E"></path>
        </g>
    </g>
</svg>