<?xml version="1.0" encoding="UTF-8"?>
<svg width="80px" height="80px" viewBox="0 0 80 80" version="1.1" xmlns="http://www.w3.org/2000/svg" xmlns:xlink="http://www.w3.org/1999/xlink">
    <title>95628F6B-B4BE-4F8D-B763-4640D8921D69</title>
    <g id="🧬-Symbols" stroke="none" stroke-width="1" fill="none" fill-rule="evenodd">
        <g id="icons/add-brew-pillow">
            <rect id="icon-space" x="0" y="0" width="80" height="80"></rect>
            <path d="M52.65625,0 C67.4543837,0 79.5447247,11.8163015 79.9874403,26.5090718 L80,27.34375 L80,52.65625 C80,67.4543837 68.1836985,79.5447247 53.4909282,79.9874403 L52.65625,80 L27.34375,80 C12.5456163,80 0.455275313,68.1836985 0.0125597111,53.4909282 L0,52.65625 L0,27.34375 C0,12.5456163 11.8163015,0.455275313 26.5090718,0.0125597111 L27.34375,0 L52.65625,0 Z M41.2071279,16 C43.4391414,16 45.2669287,17.8074144 45.3756541,20.0721014 L45.3807706,20.2857143 L45.3805285,21.4686044 C44.0705679,21.6732064 42.9055514,22.3237838 42.0407902,23.2627314 L42.0418564,21.1428571 C42.0418564,20.1978571 41.2926876,19.4285714 40.3723994,19.4285714 L22.0083713,19.4285714 C21.1365193,19.4285714 20.4182481,20.1190107 20.3450557,20.9951934 L20.3389142,21.1428571 L20.3389142,58.8571429 C20.3389142,59.752406 21.0112984,60.4899644 21.8645689,60.5651222 L22.0083713,60.5714286 L40.3723994,60.5714286 C41.2442514,60.5714286 41.9625226,59.8809893 42.0357149,59.0048066 L42.0418564,58.8571429 L42.0404666,56.1369173 C42.9052331,57.0760239 44.0703299,57.7267265 45.3804027,57.931376 L45.3807706,59.7142857 C45.3807706,62.0062338 43.6206202,63.8831011 41.4151548,63.994746 L41.2071279,64 L21.1736427,64 C18.9416292,64 17.113842,62.1925856 17.0051166,59.9278986 L17,59.7142857 L17,20.2857143 C17,17.9937662 18.7601505,16.1168989 20.9656159,16.005254 L21.1736427,16 L41.2071279,16 Z M40.0593761,21.1428571 C40.2075703,21.1428571 40.3316936,21.2485743 40.364133,21.3905802 L40.3723994,21.4642857 L40.372,33.829 L34.0182802,33.8301887 C30.8238044,33.8301887 28.234055,36.4581927 28.234055,39.7 L28.2366115,39.876205 C28.3284277,43.0365023 30.8818883,45.5698113 34.018422,45.5698113 L40.372,45.568 L40.3723994,58.5357143 C40.3723994,58.6878878 40.2694467,58.815344 40.1311543,58.8486545 L40.0593761,58.8571429 L22.3213945,58.8571429 C22.1732004,58.8571429 22.0490771,58.7514257 22.0166377,58.6094198 L22.0083713,58.5357143 L22.0083713,21.4642857 C22.0083713,21.3121122 22.111324,21.184656 22.2496164,21.1513455 L22.3213945,21.1428571 L40.0593761,21.1428571 Z M46.2676697,23.1264151 C48.522694,23.1264151 50.3507523,24.9814768 50.3507523,27.2698113 L50.3507523,35.5559132 L58.5169174,35.5566038 C60.7719417,35.5566038 62.6,37.4116655 62.6,39.7 C62.6,41.9883345 60.7719417,43.8433962 58.5169174,43.8433962 L50.3507523,43.8427057 L50.3507523,52.1301887 C50.3507523,54.4185232 48.522694,56.2735849 46.2676697,56.2735849 C44.0126455,56.2735849 42.1845872,54.4185232 42.1845872,52.1301887 L42.1845872,43.8427057 L34.018422,43.8433962 C31.7633978,43.8433962 29.9353394,41.9883345 29.9353394,39.7 C29.9353394,37.4116655 31.7633978,35.5566038 34.018422,35.5566038 L42.1845872,35.5559132 L42.1845872,27.2698113 C42.1845872,24.9814768 44.0126455,23.1264151 46.2676697,23.1264151 Z" fill="#1F1E1E"></path>
        </g>
    </g>
</svg>