<?xml version="1.0" encoding="UTF-8"?>
<svg width="80px" height="80px" viewBox="0 0 80 80" version="1.1" xmlns="http://www.w3.org/2000/svg" xmlns:xlink="http://www.w3.org/1999/xlink">
    <title>4D7BEA1C-19E1-4983-A2C7-DDB977AD6D4E</title>
    <g id="🧬-Symbols" stroke="none" stroke-width="1" fill="none" fill-rule="evenodd">
        <g id="icons/french-toast-sticks">
            <rect id="icon-space" x="0" y="0" width="80" height="80"></rect>
            <path d="M12.3482045,29.9729535 C12.6764704,29.9737494 13.013428,30.067312 13.3279543,30.2708143 C19.4638106,34.2418709 29.6021025,36.2757188 39.811241,36.3300755 C50.0442828,36.3845594 60.333361,34.4512404 66.7132149,30.5593426 C67.0189088,30.3729167 67.3428988,30.2874512 67.6581323,30.2874859 C67.9988018,30.2875234 68.3283631,30.3864983 68.6123737,30.5596458 C68.8995463,30.7347209 69.1406651,30.9858667 69.298871,31.2904099 C69.4194798,31.5225796 69.4913006,31.7857392 69.4992348,32.0691012 L69.4962081,32.2414564 L63.3852547,77.9023794 C63.3270799,78.3368112 63.1213967,78.7190339 62.8228112,79.0006509 C62.5691156,79.2399292 62.2483777,79.4066596 61.8942844,79.4707854 L61.7146141,79.4941588 L18.4669125,79.5 C18.0312537,79.5 17.6275116,79.3462784 17.3104533,79.0871707 C17.039902,78.8660697 16.8323538,78.5683188 16.7217721,78.2237229 L16.674719,78.0476592 L10.517664,32.0667521 C10.4676651,31.693258 10.5266607,31.3462878 10.6657776,31.0467805 C10.816464,30.7223652 11.0597637,30.4540485 11.353785,30.266498 C11.6473939,30.0792105 11.9921741,29.9720903 12.3482045,29.9729535 Z M52.164995,49.4377308 C51.9475563,50.7953255 51.2928795,51.9865337 49.9952769,53.1376151 L49.9952769,53.1376151 L49.9904445,65.6520952 L49.9726826,65.8832807 C49.8675617,66.8774624 49.3993023,67.7694018 48.678904,68.4359505 C47.9029038,69.1539449 46.8365436,69.6098435 45.614984,69.6628795 L45.614984,69.6628795 L29.0415754,69.8242455 L29.1144058,69.9918558 C29.5457299,70.9304758 30.2998371,71.6740003 31.6968,71.9584732 L31.6968,71.9584732 L49.574788,74.4998037 L49.8135454,74.4940409 C50.4475677,74.4565579 51.0576207,74.2427944 51.5799691,73.8682043 C52.2265148,73.4047509 52.6772205,72.7494584 52.8924062,71.7625224 L52.8924062,71.7625224 L55.0503559,58.9699334 L55.2677864,58.8486274 C56.5513264,58.091647 57.4509025,56.8157363 57.6865581,55.3269731 C57.8936331,54.0184996 57.5544127,52.6989628 56.7261044,51.6128648 C55.9576735,50.6052999 54.8199908,49.8926425 53.2915426,49.5997854 L53.2915426,49.5997854 Z M45.972815,43.5 L27.4224031,43.5065726 L27.1658597,43.5257217 C25.9720122,43.6441604 24.8306441,44.1674119 23.9729824,45.000702 C22.9892265,45.9563862 22.4539974,47.2124911 22.4599108,48.5350524 C22.4671345,50.1269365 23.2377981,51.5952046 24.7028261,52.6354649 L24.7028261,52.6354649 L24.707897,65.6357875 L24.7265305,65.8423861 C24.819258,66.5931597 25.1783185,67.2668781 25.733898,67.7725572 C26.3080431,68.2951343 27.0948939,68.6393128 28.0155132,68.6887817 L28.0155132,68.6887817 L45.814145,68.6837739 L46.0259422,68.6657618 C46.7954852,68.5761315 47.4847427,68.2292383 48.0022987,67.6971131 C48.5476705,67.136389 48.9043045,66.3682656 48.9544416,65.4724615 L48.9544416,65.4724615 L49.143695,52.5158329 L49.340298,52.3647356 C50.4946841,51.4323511 51.1906249,50.0418856 51.1974608,48.53515 C51.2032278,47.2124584 50.668075,45.9564604 49.6843966,45.000707 C48.7031217,44.0473164 47.3504929,43.5 45.972815,43.5 L45.972815,43.5 Z M41.1840635,0.5 C41.69025,0.5 42.148433,0.706211446 42.4801336,1.03930099 C42.8125888,1.37314832 43.0180494,1.83439604 43.0180494,2.34376457 L43.0180494,2.34376457 L43.0183554,30.5906818 C41.1654942,30.663152 39.3604657,30.663955 37.4832028,30.5912572 L37.4832028,30.5912572 L37.4833558,2.34375916 C37.4833558,1.83437959 37.6887918,1.3731144 38.0212514,1.03926259 C38.3529355,0.706189659 38.8111104,0.5 39.3173416,0.5 L39.3173416,0.5 Z M31.8152285,5.18798706 L31.8152285,30.1441148 C29.8823195,29.9094246 28.0260637,29.5957414 26.2799153,29.2102358 L26.2799153,29.2102358 L26.2800681,7.03174622 C26.2800681,6.5223831 26.4855287,6.06113538 26.8179839,5.72728805 C27.1496845,5.39419851 27.6078675,5.18798706 28.114054,5.18798706 L28.114054,5.18798706 L31.8152285,5.18798706 Z M52.3873512,5.18798706 C52.8935376,5.18798706 53.3517207,5.39419851 53.6834213,5.72728805 C54.0158765,6.06113538 54.221337,6.5223831 54.221337,7.03175656 L54.221337,7.03175656 L54.2217956,29.2005657 C52.4732452,29.5874494 50.6164164,29.9028294 48.6864878,30.1390434 L48.6864878,30.1390434 L48.6864878,5.18798706 Z M20.6119408,9.87597412 L20.6119408,27.5309273 C18.8140809,26.739318 15.9289363,25.0631924 15.076936,24.5621356 L15.076936,24.5621356 L15.076936,11.7197333 C15.076936,11.2103702 15.2823966,10.7491224 15.6148518,10.4152751 C15.9465524,10.0821856 16.4047354,9.87597412 16.9109219,9.87597412 L16.9109219,9.87597412 L20.6119408,9.87597412 Z M63.5906388,9.87597412 C64.0968253,9.87597412 64.5550084,10.0821856 64.8867089,10.4152751 C65.2191641,10.7491224 65.4246247,11.2103702 65.4246247,11.7197333 L65.4246247,11.7197333 L65.4246247,24.7195483 C64.4891779,25.2288293 61.602189,26.7849621 59.8897755,27.5245866 L59.8897755,27.5245866 L59.8897755,9.87597412 Z" id="icons/potato-fries" stroke="#1F1E1E" fill="#1F1E1E"></path>
        </g>
    </g>
</svg>