<?xml version="1.0" encoding="UTF-8"?>
<svg width="80px" height="80px" viewBox="0 0 80 80" version="1.1" xmlns="http://www.w3.org/2000/svg" xmlns:xlink="http://www.w3.org/1999/xlink">
    <title>FA5DCA3B-5333-4A93-BC14-E2D6D61A072A</title>
    <g id="🧬-Symbols" stroke="none" stroke-width="1" fill="none" fill-rule="evenodd">
        <g id="icons/gear">
            <rect id="icon-space" x="0" y="0" width="80" height="80"></rect>
            <path d="M79.7487177,35.5597284 C79.6224364,34.4353054 78.3108402,33.5893934 77.17673,33.5893934 C73.5114572,33.5893934 70.2585881,31.4381129 68.8944036,28.108437 C67.501849,24.6988407 68.4003494,20.7232272 71.1311403,18.2180129 C71.9912373,17.4316087 72.0960682,16.114823 71.3750536,15.2007536 C69.4984782,12.8183609 67.3665723,10.6660424 65.0381519,8.80088423 C64.1271963,8.07018231 62.788614,8.17189934 61.9980582,9.04687337 C59.6139356,11.6873644 55.3310951,12.6685532 52.0214859,11.2877618 C48.5786759,9.83915908 46.4055988,6.34929624 46.6190662,2.60341096 C46.6892993,1.42605364 45.8285103,0.403001756 44.6553047,0.266341122 C41.6671075,-0.0796351677 38.6526161,-0.0896684801 35.6557695,0.242814734 C34.4974409,0.370825961 33.6373438,1.36965951 33.6757472,2.53213984 C33.8054883,6.24135164 31.6078469,9.66963069 28.1982506,11.066337 C24.9284287,12.4021514 20.6753421,11.4282282 18.2960632,8.81091754 C17.5096591,7.94874463 16.1946032,7.84287589 15.2774201,8.55800888 C12.8804963,10.439082 10.7004997,12.5927844 8.80662553,14.9558024 C8.0686581,15.8743695 8.17764063,17.2056862 9.04500319,17.9948581 C11.8297663,20.5166793 12.7275748,24.5265445 11.2817399,27.9759281 C9.90129451,31.2644328 6.48685451,33.3828456 2.57836036,33.3828456 C1.31001129,33.3420204 0.407359148,34.19416 0.267238751,35.3476449 C-0.084273159,38.351757 -0.0880788982,41.4143392 0.250285913,44.4430156 C0.376567259,45.5722822 1.72691272,46.4109287 2.87347814,46.4109287 C6.35745937,46.3223588 9.70028228,48.4777911 11.1046,51.8915391 C12.5019983,55.3011355 11.6024599,59.2750191 8.86717138,61.7836932 C8.01157201,62.5700973 7.90224351,63.8837693 8.624642,64.7968007 C10.4821887,67.1643165 12.6161705,69.3180189 14.9515104,71.1990919 C15.8683476,71.9374053 17.2017402,71.8339584 17.9964477,70.9579465 C20.3899117,68.3112279 24.6720602,67.331769 27.9681763,68.7153282 C31.4210197,70.1601251 33.5930589,73.649642 33.3809754,77.3965652 C33.3114342,78.5739225 34.174299,79.6000882 35.3433529,79.7336351 C36.8725681,79.9125048 38.4097408,80.0010747 39.9517571,80.0010747 C41.4152368,80.0010747 42.8790625,79.9211542 44.3428881,79.7581994 C45.5026007,79.6301881 46.3613138,78.6303167 46.3222185,77.4674904 C46.1883257,73.7600084 48.3908107,70.3313834 51.7962554,68.9374449 C55.0878738,67.5929811 59.3219316,68.5769376 61.7025944,71.1904425 C62.4931503,72.0508856 63.8002487,72.1553704 64.7212376,71.4430052 C67.1140096,69.5667758 69.2898545,67.4141113 71.1920321,65.0448657 C71.9306915,64.1280285 71.8258607,62.7949819 70.9536545,62.0044261 C68.1695833,59.4843348 67.2669311,55.4727397 68.712766,52.0268159 C70.0717609,48.7825962 73.3592276,46.6043295 76.8951053,46.6043295 L77.3898514,46.6174766 C78.5378007,46.7105442 79.5926824,45.8265748 79.7314189,44.655445 C80.0846607,41.6485651 80.0884664,38.5894428 79.7487177,35.5597284 Z M39.9998478,63.0613836 C27.2634226,63.0613836 16.9391442,52.7371052 16.9391442,40.001026 C16.9391442,27.2649468 27.2637686,16.9406684 39.9998478,16.9406684 C52.735927,16.9406684 63.0605514,27.2649468 63.0605514,40.001026 C63.0605514,44.3239998 61.8686631,48.3674246 59.7986869,51.8251117 L49.7010229,41.7271017 C50.4320708,40.0034478 50.8181804,38.1348299 50.8178344,36.2063581 C50.8178344,32.4300269 49.3470892,28.8799642 46.6764982,26.2100651 C44.0065992,23.5401661 40.4565365,22.0697669 36.6808972,22.0697669 C35.4208516,22.0697669 34.1666875,22.2372194 32.9533487,22.5676268 C32.4219291,22.7125908 31.9873829,23.1505968 31.8458786,23.6830543 C31.7012605,24.227621 31.8642153,24.7856808 32.2897662,25.2115776 C32.2897662,25.2115776 37.2749385,30.2351533 38.9428902,31.902759 C39.1176082,32.077477 39.1172623,32.4943785 39.092698,32.6445322 L39.077129,32.7542067 C38.9089845,34.587881 38.5848048,36.7889821 38.3173651,37.6348942 C38.2813836,37.6705297 38.2474779,37.7006297 38.2108044,37.7373032 C38.172401,37.7757065 38.1371114,37.812726 38.100092,37.8507834 C37.2431087,38.1258345 35.0081019,38.45382 33.1453655,38.6205806 L33.1457115,38.6105473 L33.0619853,38.6316519 C33.0471083,38.6333817 33.0194302,38.6354576 32.9827567,38.6354576 C32.7813985,38.6354576 32.4852428,38.5790635 32.2160732,38.3102399 C30.4799642,36.5741309 25.6902685,31.8186868 25.6902685,31.8186868 C25.2605659,31.3903681 24.8197921,31.3004143 24.5260582,31.3004143 C23.8413712,31.3004143 23.2283012,31.7951604 23.0352464,32.5047578 C21.7167308,37.3840614 23.114475,42.6325217 26.6839124,46.202305 C29.3545033,48.87255 32.904912,50.3429493 36.6812432,50.3429493 C38.6097151,50.3429493 40.478333,49.9571857 42.2016409,49.2261378 L52.4089794,59.4334763 C48.825357,61.7266071 44.5698486,63.0613836 39.9998478,63.0613836 Z" fill="#1F1E1E" fill-rule="nonzero"></path>
        </g>
    </g>
</svg>