<?xml version="1.0" encoding="UTF-8"?>
<svg width="80px" height="80px" viewBox="0 0 80 80" version="1.1" xmlns="http://www.w3.org/2000/svg" xmlns:xlink="http://www.w3.org/1999/xlink">
    <title>8E14392C-39F4-4F43-A0EA-A57FC74AC9D2</title>
    <g id="🧬-Symbols" stroke="none" stroke-width="1" fill="none" fill-rule="evenodd">
        <g id="icons/plus">
            <rect id="icon-space" x="0" y="0" width="80" height="80"></rect>
            <path d="M40,0.5 C42.6233526,0.5 44.9983526,1.56332372 46.7175144,3.28248558 C48.4366763,5.00164744 49.5,7.37664744 49.5,10 L49.5,10 L49.5,30.498975 L70,30.5 C72.6233526,30.5 74.9983526,31.5633237 76.7175144,33.2824856 C78.4366763,35.0016474 79.5,37.3766474 79.5,40 C79.5,42.6233526 78.4366763,44.9983526 76.7175144,46.7175144 C74.9983526,48.4366763 72.6233526,49.5 70.000025,49.5 L70.000025,49.5 L49.5,49.498975 L49.5,70 C49.5,72.6233526 48.4366763,74.9983526 46.7175144,76.7175144 C44.9983526,78.4366763 42.6233526,79.5 40,79.5 C37.3766474,79.5 35.0016474,78.4366763 33.2824856,76.7175144 C31.5633237,74.9983526 30.5,72.6233526 30.5,70 L30.5,70 L30.5,49.498975 L10,49.5 C7.37664744,49.5 5.00164744,48.4366763 3.28248558,46.7175144 C1.56332372,44.9983526 0.5,42.6233526 0.5,40 C0.5,37.3766474 1.56332372,35.0016474 3.28248558,33.2824856 C5.00164744,31.5633237 7.37664744,30.5 10.000025,30.5 L10.000025,30.5 L30.5,30.498975 L30.5,10 C30.5,7.37664744 31.5633237,5.00164744 33.2824856,3.28248558 C35.0016474,1.56332372 37.3766474,0.5 40,0.5 Z" stroke="#1F1E1E" fill="#1F1E1E"></path>
        </g>
    </g>
</svg>