<?xml version="1.0" encoding="UTF-8"?>
<svg width="80px" height="80px" viewBox="0 0 80 80" version="1.1" xmlns="http://www.w3.org/2000/svg" xmlns:xlink="http://www.w3.org/1999/xlink">
    <title>DB46AC67-D6C4-450F-9DDB-927670A77AE7</title>
    <g id="🧬-Symbols" stroke="none" stroke-width="1" fill="none" fill-rule="evenodd">
        <g id="icons/help-pillow">
            <rect id="icon-space" x="0" y="0" width="80" height="80"></rect>
            <path d="M52.65625,0 C67.4543837,0 79.5447247,11.8163015 79.9874403,26.5090718 L80,27.34375 L80,52.65625 C80,67.4543837 68.1836985,79.5447247 53.4909282,79.9874403 L52.65625,80 L27.34375,80 C12.5456163,80 0.455275313,68.1836985 0.0125597111,53.4909282 L0,52.65625 L0,27.34375 C0,12.5456163 11.8163015,0.455275313 26.5090718,0.0125597111 L27.34375,0 L52.65625,0 Z M41.2411858,54.9646769 L39.054762,54.9646769 C37.5149614,54.9646769 36.2635827,56.2915717 36.2635827,57.9242936 L36.2635827,61.1256123 C36.2635827,62.7583341 37.5149614,64.0852289 39.054762,64.0852289 L41.2411858,64.0852289 C42.781033,64.0852289 44.0323652,62.7583341 44.0323652,61.1256123 L44.0323652,57.9242936 C44.0323652,56.2866884 42.781033,54.9646769 41.2411858,54.9646769 Z M40.3666628,16.0852289 C35.6774815,16.0852289 31.8954335,17.4318545 29.0112149,20.1300383 C26.554977,22.4286739 25.0616961,25.1515212 24.536024,28.2936476 C24.3731587,29.2111287 24.9639583,30.0694176 25.8245719,30.1828695 L29.8578261,30.7156005 C31.1371166,30.8833121 32.3512796,30.1039464 32.8118242,28.8263786 C33.3933199,27.2133875 34.2027619,25.9407523 35.2401503,25.0134058 C36.7102179,23.7013091 38.5383938,23.040328 40.7248177,23.040328 C42.9903249,23.040328 44.7952875,23.6717129 46.1350536,24.92955 C47.4748197,26.1923198 48.1400508,27.7017242 48.1400508,29.4725615 C48.1400508,30.7451967 47.7632416,31.9093126 47.0096232,32.9649092 L46.7122065,33.3270862 L46.7122065,33.3270862 L46.2709749,33.794446 L46.2709749,33.794446 L45.6861315,34.3670966 L45.6861315,34.3670966 L44.5400393,35.4237283 L44.5400393,35.4237283 L43.597056,36.260077 L43.597056,36.260077 L42.5111724,37.2020937 C39.999111,39.3576811 38.3291019,41.3011134 37.4917481,43.0275565 C36.6357864,44.7935104 36.3380606,46.7517407 36.2636292,48.7150024 C36.1985482,50.3970512 37.4638363,51.7979365 39.0548085,51.7979365 L41.3342717,51.7979365 C42.7856849,51.7979365 43.9858921,50.6190225 44.1161471,49.0898872 C44.2091864,47.9899457 44.3813091,47.1563203 44.6418657,46.5890605 C45.0305219,45.725247 45.9668833,44.615934 47.4443828,43.257657 L49.5579716,41.3595789 C52.2114852,38.9190508 53.9900836,36.9406609 54.8994033,35.421391 C55.9693554,33.6308229 56.5089834,31.7317356 56.5089834,29.724129 C56.5089834,26.0985986 55.0529182,22.9170107 52.1361357,20.184298 C49.2240053,17.4515853 45.2977463,16.0852289 40.3666628,16.0852289 Z" fill="#1F1E1E"></path>
        </g>
    </g>
</svg>