<?xml version="1.0" encoding="UTF-8"?>
<svg width="80px" height="80px" viewBox="0 0 80 80" version="1.1" xmlns="http://www.w3.org/2000/svg" xmlns:xlink="http://www.w3.org/1999/xlink">
    <title>3A8C96B3-9572-45F3-A204-271BBA10A00B</title>
    <g id="🧬-Symbols" stroke="none" stroke-width="1" fill="none" fill-rule="evenodd">
        <g id="icons/number-pad">
            <rect id="icon-space" x="0" y="0" width="80" height="79.9038527"></rect>
            <path d="M18.25,65.9545455 C20.1137825,65.9545455 21.8010497,66.7124806 23.0224179,67.9376776 C24.2443517,69.1634419 25,70.8568563 25,72.7272727 C25,74.5976892 24.2443517,76.2911036 23.0224179,77.5168678 C21.8010497,78.7420648 20.1137825,79.5 18.25,79.5 C16.3862175,79.5 14.6989503,78.7420648 13.4775821,77.5168678 C12.2556483,76.2911036 11.5,74.5976892 11.5,72.7272727 C11.5,70.8568563 12.2556483,69.1634419 13.4775821,67.9376776 C14.6989503,66.7124806 16.3862175,65.9545455 18.25,65.9545455 Z M40,65.9545455 C41.8637825,65.9545455 43.5510497,66.7124806 44.7724179,67.9376776 C45.9943517,69.1634419 46.75,70.8568563 46.75,72.7272727 C46.75,74.5976892 45.9943517,76.2911036 44.7724179,77.5168678 C43.5510497,78.7420648 41.8637825,79.5 40,79.5 C38.1362175,79.5 36.4489503,78.7420648 35.2275821,77.5168678 C34.0056483,76.2911036 33.25,74.5976892 33.25,72.7272727 C33.25,70.8568563 34.0056483,69.1634419 35.2275821,67.9376776 C36.4489503,66.7124806 38.1362175,65.9545455 40,65.9545455 Z M61.75,65.9545455 C63.6137825,65.9545455 65.3010497,66.7124806 66.5224179,67.9376776 C67.7443517,69.1634419 68.5,70.8568563 68.5,72.7272727 C68.5,74.5976892 67.7443517,76.2911036 66.5224179,77.5168678 C65.3010497,78.7420648 63.6137825,79.5 61.75,79.5 C59.8862175,79.5 58.1989503,78.7420648 56.9775821,77.5168678 C55.7556483,76.2911036 55,74.5976892 55,72.7272727 C55,70.8568563 55.7556483,69.1634419 56.9775821,67.9376776 C58.1989503,66.7124806 59.8862175,65.9545455 61.75,65.9545455 Z M18.25,44.1363636 C20.1137825,44.1363636 21.8010497,44.8942988 23.0224179,46.1194958 C24.2443517,47.3452601 25,49.0386745 25,50.9090909 C25,52.7795073 24.2443517,54.4729217 23.0224179,55.698686 C21.8010497,56.923883 20.1137825,57.6818182 18.25,57.6818182 C16.3862175,57.6818182 14.6989503,56.923883 13.4775821,55.698686 C12.2556483,54.4729217 11.5,52.7795073 11.5,50.9090909 C11.5,49.0386745 12.2556483,47.3452601 13.4775821,46.1194958 C14.6989503,44.8942988 16.3862175,44.1363636 18.25,44.1363636 L18.25,44.1363636 Z M40,44.1363636 C41.8637825,44.1363636 43.5510497,44.8942988 44.7724179,46.1194958 C45.9943517,47.3452601 46.75,49.0386745 46.75,50.9090909 C46.75,52.7795073 45.9943517,54.4729217 44.7724179,55.698686 C43.5510497,56.923883 41.8637825,57.6818182 40,57.6818182 C38.1362175,57.6818182 36.4489503,56.923883 35.2275821,55.698686 C34.0056483,54.4729217 33.25,52.7795073 33.25,50.9090909 C33.25,49.0386745 34.0056483,47.3452601 35.2275821,46.1194958 C36.4489503,44.8942988 38.1362175,44.1363636 40,44.1363636 Z M61.75,44.1363636 C63.6137825,44.1363636 65.3010497,44.8942988 66.5224179,46.1194958 C67.7443517,47.3452601 68.5,49.0386745 68.5,50.9090909 C68.5,52.7795073 67.7443517,54.4729217 66.5224179,55.698686 C65.3010497,56.923883 63.6137825,57.6818182 61.75,57.6818182 C59.8862175,57.6818182 58.1989503,56.923883 56.9775821,55.698686 C55.7556483,54.4729217 55,52.7795073 55,50.9090909 C55,49.0386745 55.7556483,47.3452601 56.9775821,46.1194958 C58.1989503,44.8942988 59.8862175,44.1363636 61.75,44.1363636 Z M18.25,22.3181818 C20.1137825,22.3181818 21.8010497,23.076117 23.0224179,24.301314 C24.2443517,25.5270783 25,27.2204927 25,29.0909091 C25,30.9613255 24.2443517,32.6547399 23.0224179,33.8805042 C21.8010497,35.1057012 20.1137825,35.8636364 18.25,35.8636364 C16.3862175,35.8636364 14.6989503,35.1057012 13.4775821,33.8805042 C12.2556483,32.6547399 11.5,30.9613255 11.5,29.0909091 C11.5,27.2204927 12.2556483,25.5270783 13.4775821,24.301314 C14.6989503,23.076117 16.3862175,22.3181818 18.25,22.3181818 Z M40,22.3181818 C41.8637825,22.3181818 43.5510497,23.076117 44.7724179,24.301314 C45.9943517,25.5270783 46.75,27.2204927 46.75,29.0909091 C46.75,30.9613255 45.9943517,32.6547399 44.7724179,33.8805042 C43.5510497,35.1057012 41.8637825,35.8636364 40,35.8636364 C38.1362175,35.8636364 36.4489503,35.1057012 35.2275821,33.8805042 C34.0056483,32.6547399 33.25,30.9613255 33.25,29.0909091 C33.25,27.2204927 34.0056483,25.5270783 35.2275821,24.301314 C36.4489503,23.076117 38.1362175,22.3181818 40,22.3181818 Z M61.75,22.3181818 C63.6137825,22.3181818 65.3010497,23.076117 66.5224179,24.301314 C67.7443517,25.5270783 68.5,27.2204927 68.5,29.0909091 C68.5,30.9613255 67.7443517,32.6547399 66.5224179,33.8805042 C65.3010497,35.1057012 63.6137825,35.8636364 61.75,35.8636364 C59.8862175,35.8636364 58.1989503,35.1057012 56.9775821,33.8805042 C55.7556483,32.6547399 55,30.9613255 55,29.0909091 C55,27.2204927 55.7556483,25.5270783 56.9775821,24.301314 C58.1989503,23.076117 59.8862175,22.3181818 61.75,22.3181818 Z M18.25,0.5 C20.1137825,0.5 21.8010497,1.25793517 23.0224179,2.48313217 C24.2443517,3.70889645 25,5.40231083 25,7.27272727 C25,9.14314371 24.2443517,10.8365581 23.0224179,12.0623224 C21.8010497,13.2875194 20.1137825,14.0454545 18.25,14.0454545 C16.3862175,14.0454545 14.6989503,13.2875194 13.4775821,12.0623224 C12.2556483,10.8365581 11.5,9.14314371 11.5,7.27272727 C11.5,5.40231083 12.2556483,3.70889645 13.4775821,2.48313217 C14.6989503,1.25793517 16.3862175,0.5 18.25,0.5 Z M40,0.5 C41.8637825,0.5 43.5510497,1.25793517 44.7724179,2.48313217 C45.9943517,3.70889645 46.75,5.40231083 46.75,7.27272727 C46.75,9.14314371 45.9943517,10.8365581 44.7724179,12.0623224 C43.5510497,13.2875194 41.8637825,14.0454545 40,14.0454545 C38.1362175,14.0454545 36.4489503,13.2875194 35.2275821,12.0623224 C34.0056483,10.8365581 33.25,9.14314371 33.25,7.27272727 C33.25,5.40231083 34.0056483,3.70889645 35.2275821,2.48313217 C36.4489503,1.25793517 38.1362175,0.5 40,0.5 Z M61.75,0.5 C63.6137825,0.5 65.3010497,1.25793517 66.5224179,2.48313217 C67.7443517,3.70889645 68.5,5.40231083 68.5,7.27272727 C68.5,9.14314371 67.7443517,10.8365581 66.5224179,12.0623224 C65.3010497,13.2875194 63.6137825,14.0454545 61.75,14.0454545 C59.8862175,14.0454545 58.1989503,13.2875194 56.9775821,12.0623224 C55.7556483,10.8365581 55,9.14314371 55,7.27272727 C55,5.40231083 55.7556483,3.70889645 56.9775821,2.48313217 C58.1989503,1.25793517 59.8862175,0.5 61.75,0.5 Z" stroke="#1F1E1E" fill="#1F1E1E"></path>
        </g>
    </g>
</svg>