<?xml version="1.0" encoding="UTF-8"?>
<svg width="80px" height="80px" viewBox="0 0 80 80" version="1.1" xmlns="http://www.w3.org/2000/svg" xmlns:xlink="http://www.w3.org/1999/xlink">
    <title>F07BCE61-35FA-4CA5-898F-C8F9CF09189F</title>
    <g id="🧬-Symbols" stroke="none" stroke-width="1" fill="none" fill-rule="evenodd">
        <g id="icons/car">
            <rect id="icon-space" x="0" y="0" width="80" height="79.9038527"></rect>
            <path d="M18.4121003,43.0333609 C20.5525898,43.0357793 22.490193,43.9020293 23.8932431,45.3015736 C25.2958411,46.7006669 26.1641952,48.6327464 26.1666186,50.7666903 C26.1666186,52.9020473 25.2988303,54.8351935 23.8959808,56.2345377 C22.492678,57.6343341 20.5540037,58.5000194 18.4126652,58.5000194 C16.2713268,58.5000194 14.3326525,57.6343341 12.9293497,56.2345377 C11.5265002,54.8351935 10.6587119,52.9020473 10.6587119,50.7666903 C10.6587119,48.6313332 11.5265002,46.698187 12.9293497,45.2988428 C14.3326525,43.8990464 16.2713268,43.0333612 18.4121003,43.0333609 Z M18.4126652,46.4666922 C17.2227684,46.4666922 16.1455751,46.947883 15.3658191,47.7256905 C14.5856099,48.5039502 14.1031483,49.5791358 14.1031483,50.7666903 C14.1031483,51.9542448 14.5856099,53.0294303 15.3658191,53.8076901 C16.1455751,54.5854976 17.2227684,55.0666883 18.4126652,55.0666883 C19.6025621,55.0666883 20.6797554,54.5854976 21.4595114,53.8076901 C22.2397206,53.0294303 22.7221822,51.9542448 22.7221822,50.7666903 C22.7221822,49.5791358 22.2397206,48.5039502 21.4595114,47.7256905 C20.6797554,46.947883 19.6025621,46.4666922 18.4126652,46.4666922 Z M64.1263037,43.0333609 C66.2667932,43.0357793 68.2043964,43.9020293 69.6074465,45.3015736 C71.0100444,46.7006669 71.8783985,48.6327464 71.880822,50.7666903 C71.880822,52.9020473 71.0130337,54.8351935 69.6101842,56.2345377 C68.2068814,57.6343341 66.2682071,58.5000194 64.1268686,58.5000194 C61.9855302,58.5000194 60.0468559,57.6343341 58.6435531,56.2345377 C57.2407035,54.8351935 56.3729152,52.9020473 56.3729152,50.7666903 C56.3729152,48.6313332 57.2407035,46.698187 58.6435531,45.2988428 C60.0468559,43.8990464 61.9855302,43.0333612 64.1263037,43.0333609 Z M64.1268686,46.4666922 C62.9369717,46.4666922 61.8597784,46.947883 61.0800225,47.7256905 C60.2998133,48.5039502 59.8173517,49.5791358 59.8173517,50.7666903 C59.8173517,51.9542448 60.2998133,53.0294303 61.0800225,53.8076901 C61.8597784,54.5854976 62.9369717,55.0666883 64.1268686,55.0666883 C65.3167655,55.0666883 66.3939588,54.5854976 67.1737147,53.8076901 C67.953924,53.0294303 68.4363856,51.9542448 68.4363856,50.7666903 C68.4363856,49.5791358 67.953924,48.5039502 67.1737147,47.7256905 C66.3939588,46.947883 65.3167655,46.4666922 64.1268686,46.4666922 Z M43.2575707,21.5000192 C44.5626547,21.5011849 45.8324074,21.8938733 46.9046391,22.6201825 L47.1484971,22.7936882 L60.0993683,33.5019085 L75.0619629,36.2248799 C76.3046248,36.4045181 77.3904032,37.014403 78.1769653,37.8897023 C78.9063872,38.7014148 79.3785493,39.7413642 79.479626,40.877925 L79.4963122,41.1418633 L79.4999286,46.9661247 C79.4983405,48.3652992 78.9433972,49.635118 78.04174,50.5696536 C77.2585368,51.381416 76.2137973,51.940334 75.042876,52.1112556 C75.1255107,50.1843395 74.749686,48.2610379 73.9562625,46.5347137 C73.1072763,44.6874962 71.7807247,43.0659201 70.0276314,41.9032824 C68.2402085,40.7178774 66.1835452,40.1251402 64.1268686,40.1251402 C62.070192,40.1251402 60.0135288,40.7178774 58.2261059,41.9032824 C56.4849992,43.0579707 55.1648973,44.665207 54.3619571,46.4960923 C53.6806133,48.0497104 53.371665,49.764378 53.4938521,51.5003199 L53.5266555,51.8725821 L28.9785101,52.1597659 C29.2327545,50.2555943 28.961188,48.3557361 28.2409714,46.643665 C27.4450428,44.7516143 26.1011623,43.0888938 24.313428,41.9032824 C22.5260051,40.7178774 20.4693419,40.1251402 18.4126652,40.1251402 C16.3559886,40.1251402 14.2993254,40.7178774 12.5119025,41.9032824 C10.7707959,43.0579707 9.45069392,44.665207 8.64775375,46.4960923 C7.95396017,48.0780986 7.64629558,49.8270937 7.78677886,51.5954994 L7.82376443,51.9746868 L6.93219069,52.1664243 C5.20327759,52.1508536 3.63576045,51.4613748 2.4810084,50.3484026 C1.38162814,49.2887987 0.656285193,47.8453514 0.522419056,46.2343529 L0.50430361,45.9303799 L0.499999691,38.7339191 C0.501555623,37.334752 1.05647818,36.0649396 1.95812034,35.1304072 C2.80138859,34.2563781 3.94786119,33.6754693 5.22878278,33.5561507 L5.50526237,33.537709 L11.3782463,33.5331889 L19.5951912,23.9332395 C20.7085099,22.5345366 22.3485238,21.6671103 24.1166137,21.5217551 L24.396792,21.5048327 L43.2575707,21.5000192 Z M37.46025,35.7000311 L34.920572,35.7000311 L34.7233886,35.7079838 C34.1381183,35.7553908 33.6121497,36.0119547 33.2205935,36.4025325 C32.7850778,36.83696 32.5158135,37.4371459 32.5158135,38.1000301 C32.5158135,38.7426892 32.7679037,39.3264422 33.2025929,39.7600452 C33.618212,40.1746259 34.2042529,40.4539945 34.9033952,40.5000291 L34.9033952,40.5000291 L37.46025,40.5000291 L37.6574334,40.4920764 C38.2427037,40.4446694 38.7686723,40.1881055 39.1602285,39.7975277 C39.5957442,39.3631002 39.8650085,38.7629143 39.8650085,38.1000301 C39.8650085,37.4371459 39.5957442,36.83696 39.1602285,36.4025325 C38.725166,35.9685572 38.1241623,35.7000311 37.46025,35.7000311 L37.46025,35.7000311 Z M43.4202393,23.8250372 L34.2856525,23.8250372 L34.0944249,23.8325096 C33.5266085,23.8771354 33.0140543,24.1197556 32.6232504,24.509583 C32.207236,24.9245579 31.9270596,25.5097352 31.8808941,26.2077787 L31.8808941,26.2077787 L31.8808941,31.1378003 L31.8883637,31.3284308 C31.9329744,31.8945025 32.1755388,32.4057424 32.5657539,32.7958927 C32.9803072,33.2103774 33.5649792,33.4902443 34.2628966,33.5377583 L34.2628966,33.5377583 L52.4557309,33.5799191 L52.6088585,33.5723259 C52.861241,33.5464337 53.0981017,33.4553192 53.2988844,33.3134283 C53.5401532,33.1429264 53.729327,32.8991258 53.8312729,32.6070294 C53.9272806,32.3319472 53.9374724,32.0428554 53.8534294,31.756054 C53.7787192,31.5011011 53.6270988,31.2442663 53.3782971,31.0064577 L53.3782971,31.0064577 L44.9093225,24.3406399 L44.7457242,24.2226225 C44.3537828,23.964162 43.8930558,23.8250372 43.4202393,23.8250372 L43.4202393,23.8250372 Z M26.0316991,23.8250369 L23.9244014,23.8250369 L23.7544951,23.8308136 C23.189818,23.8699652 22.6418297,24.1112762 22.1080984,24.6507431 L22.1080984,24.6507431 L16.5537458,31.1407587 L16.4517662,31.2746854 C16.3272492,31.4595931 16.2487621,31.6684207 16.2187872,31.8839508 C16.1813047,32.1534633 16.2196724,32.4334783 16.3385481,32.6907496 C16.544145,33.1357033 16.949505,33.4661923 17.6319329,33.5333662 L17.6319329,33.5333662 L26.0316991,33.5333662 L26.2229268,33.5258937 C26.7907432,33.481268 27.3032974,33.2386478 27.6941013,32.8488203 C28.1101157,32.4338454 28.3902921,31.8486681 28.4364576,31.1506245 L28.4364576,31.1506245 L28.4364576,26.2250362 L28.4284827,26.0281549 C28.3809423,25.4437724 28.1236418,24.9185233 27.7316776,24.5275385 C27.2966152,24.093563 26.6956115,23.8250369 26.0316991,23.8250369 L26.0316991,23.8250369 Z" stroke="#1F1E1E" fill="#1F1E1E"></path>
        </g>
    </g>
</svg>