<?xml version="1.0" encoding="UTF-8"?>
<svg width="80px" height="80px" viewBox="0 0 80 80" version="1.1" xmlns="http://www.w3.org/2000/svg" xmlns:xlink="http://www.w3.org/1999/xlink">
    <title>E78D5078-1CEE-4BD8-8084-1C1BC5D23527</title>
    <g id="🧬-Symbols" stroke="none" stroke-width="1" fill="none" fill-rule="evenodd">
        <g id="icons/tacos-large" transform="translate(0.000000, -0.000000)">
            <rect id="icon-space" x="0" y="1.42108547e-14" width="80" height="80"></rect>
            <path d="M3.7606223,56.2473836 C5.77752994,57.138882 7.43668347,57.8456017 9.12259804,58.2774232 C10.882647,65.8944571 14.3844936,72.6331383 19.5870395,78.189213 C17.3797681,79.1594542 17.3893369,79.1571701 17.351529,79.1707665 L17.351529,79.1707665 C16.2794034,79.5468985 15.2185144,79.5845838 14.2469105,79.3609781 C13.1975913,79.1194869 12.2530687,78.5744382 11.5123717,77.8276333 C10.7721006,77.0812577 10.2349759,76.1329024 10.0022937,75.0818083 C9.78690776,74.1088466 9.83341682,73.0484439 10.2173612,71.9814384 L10.2173612,71.9814384 L10.4880224,71.2367259 C10.8976061,70.1022687 10.6824113,68.9226787 10.055379,68.0297903 C9.43434471,67.145443 8.41024611,66.5421357 7.19131414,66.5421357 C5.65523835,66.5421357 4.2889843,66.0356484 3.25351824,65.1848337 C2.20500957,64.3233023 1.49746611,63.1095737 1.29905184,61.7228469 C1.13532242,60.5833913 1.28150115,59.4869221 1.71201923,58.5338812 C2.13329854,57.6012923 2.82695386,56.807896 3.7606223,56.2473836 Z M49.8434735,11.9440209 C59.5621371,11.8985283 69.2559333,15.6282122 76.7340762,23.0227454 C78.3797106,24.6699908 79.1866704,26.8078861 79.1864053,28.9374769 C79.1861494,30.9927427 78.4345323,33.0403171 76.9593766,34.6315447 L76.7326801,34.8667502 L34.8787085,76.7222843 C33.6616454,77.9381847 32.1681635,78.7029722 30.6012455,79.0146342 C28.9889676,79.3353184 27.2991959,79.1766365 25.7529883,78.5371516 C24.3823818,77.9715798 23.5363078,77.2479265 22.633693,76.3136977 C15.4096252,68.8719441 11.8929654,59.2852302 11.9650552,49.7488558 C12.0378393,40.1206355 15.7684289,30.5437236 23.0347017,23.2776057 C30.5786901,15.7341544 40.2224222,11.9890565 49.8434735,11.9440209 Z M28.9566269,69.0670089 C28.4478339,69.0670089 27.9390336,69.2611201 27.5507826,69.6493711 C27.1625498,70.037604 26.9684204,70.5463736 26.9684204,71.0554107 C26.9684204,71.5641044 27.1623151,72.0731109 27.5503084,72.4621472 C27.9390336,72.8508731 28.4478339,73.0449843 28.9566269,73.0449843 C29.4654199,73.0449843 29.9742202,72.8508731 30.3624712,72.4626221 C30.7516443,72.073449 30.9460052,71.5642841 30.9460052,71.0554693 C30.9460052,70.5463456 30.7514331,70.037394 30.3620439,69.6489443 C29.9742202,69.2611201 29.4654199,69.0670089 28.9566269,69.0670089 Z M33.1675482,64.8562829 C32.658511,64.8562829 32.1497414,65.0504123 31.7615086,65.4386452 C31.3732576,65.8268961 31.1791464,66.3356964 31.1791464,66.8444894 C31.1791464,67.3532824 31.3732576,67.8620827 31.7615086,68.2503337 C32.1493981,68.6392666 32.658369,68.8338677 33.1675482,68.8338677 C33.676384,68.8338677 34.1855919,68.6395013 34.5747596,68.2503337 C34.9629816,67.8622161 35.1571218,67.3533965 35.1571218,66.844548 C35.1571218,66.335734 34.9630051,65.8268907 34.5747596,65.4386452 C34.1852484,65.0501776 33.6762418,64.8562829 33.1675482,64.8562829 Z M26.8512639,62.750295 C26.3420163,62.750295 25.832817,62.9444787 25.4446384,63.3326572 C25.0564599,63.7208358 24.8622762,64.2300351 24.8622762,64.7392827 C24.8622762,65.2485303 25.0564599,65.7577296 25.4446384,66.1459082 C25.8328514,66.5340168 26.3420306,66.7281532 26.8512639,66.7281532 C27.3604973,66.7281532 27.8696765,66.5340168 28.2578419,66.1459557 C28.646068,65.7577296 28.8402516,65.2485303 28.8402516,64.7392827 C28.8402516,64.2300351 28.646068,63.7208358 28.2578894,63.3326572 C27.8697109,62.9444787 27.3605116,62.750295 26.8512639,62.750295 Z M13.17142,29.9752167 C10.3670107,35.9297922 8.46622497,42.8686217 8.46622497,49.9993982 C8.46622497,51.422917 8.55403378,52.91755 8.65935082,54.0429715 C4.32128349,52.6898051 1.69845079,49.2642868 0.823609949,45.4332497 C-0.0894829949,41.4347018 0.897770426,36.9931598 4.2120539,33.6788016 C6.56384246,31.3292539 9.75683686,29.9696191 13.17142,29.9752167 Z M12.5455764,21.2133695 C12.9060916,21.2133695 13.2178539,21.2616947 13.5238103,21.3076379 C13.9216366,21.3673766 14.3108925,21.4228787 14.7585346,21.4035001 L14.7585346,21.4035001 L14.604606,26.2828314 C12.147695,26.3426726 9.84868877,26.6446805 7.68492128,27.4258136 C7.30160185,25.8924429 7.61913839,24.436336 8.40485238,23.3194475 C9.30312327,22.0425598 10.8069791,21.2133695 12.5455764,21.2133695 Z M20.5885287,9.2469938 L20.6979383,9.26284237 L26.4566755,10.5426591 C26.4105119,12.3726672 26.4300517,13.9629588 26.6537851,15.49049 C23.7259558,17.6972352 21.1185034,20.0684786 18.9222147,22.5362267 L18.9222147,22.5362267 L18.8170407,19.6293789 L18.8170407,19.6293789 L18.8456388,19.343167 C18.9699124,18.0995638 19.1030464,16.769027 19.414088,13.6604896 L19.414088,13.6604896 L19.7883129,9.92043742 C19.810887,9.69775969 19.9282745,9.50831598 20.0958358,9.38722269 C20.262205,9.26699095 20.4780135,9.21471036 20.6979383,9.26284237 Z M60.462201,1.15261505 C62.1594864,1.0391157 63.9251276,1.71743881 65.1809039,3.16681914 C66.0659969,4.18675615 66.5537754,5.49214993 66.5537754,6.84203519 C66.5537754,7.96309308 66.9311792,8.89741849 67.5289719,9.56235802 C68.16913,10.2744215 69.0653882,10.6840548 70.058312,10.6840548 C70.6688432,10.6840548 71.0671686,10.5468053 71.7079926,10.3103983 C71.7960065,10.277929 71.8892109,10.2435415 71.9890359,10.2074602 C73.8070855,9.55071214 75.6928649,9.89657087 77.1201797,10.8983627 C78.5356286,11.8918262 79.5,13.531118 79.5,15.4791013 C79.5,16.2379993 79.3238158,17.0238565 79.161014,17.3903478 L79.161014,17.3903478 L78.2007964,19.5755349 C72.6353631,14.3668017 65.8925958,10.8665002 58.504965,9.33118514 C57.8493983,7.36701652 57.1005241,5.69896187 56.0773879,4.16807115 C57.229961,2.125271 58.8118455,1.26297615 60.462201,1.15261505 Z M33.690429,4.20042655 C36.9834754,0.907380156 41.4458718,-0.0928264736 45.4660241,0.824163473 C49.2668675,1.69112941 52.6734383,4.27205858 54.3218967,8.25197019 C46.647712,7.80701334 37.6689247,9.41170364 30.3688107,13.4043215 C29.9685771,9.78198327 31.3402635,6.55059206 33.690429,4.20042655 Z" stroke="#1F1E1E" fill="#1F1E1E"></path>
        </g>
    </g>
</svg>