<?xml version="1.0" encoding="UTF-8"?>
<svg width="80px" height="80px" viewBox="0 0 80 80" version="1.1" xmlns="http://www.w3.org/2000/svg" xmlns:xlink="http://www.w3.org/1999/xlink">
    <title>E9AF776B-1C72-4E1B-A678-8CE4E1955AED</title>
    <g id="🧬-Symbols" stroke="none" stroke-width="1" fill="none" fill-rule="evenodd">
        <g id="icons/stop-x">
            <rect id="icon-space" x="0" y="0" width="80" height="80"></rect>
            <path d="M54.4912452,0 C55.5430031,0 56.5524419,0.414241668 57.3010195,1.15304219 L57.3010195,1.15304219 L78.8097742,22.3808751 C79.5713212,23.1324757 80,24.1578529 80,25.2278329 L80,25.2278329 L80,54.7940833 C80,55.8511066 79.5816117,56.8651593 78.8362586,57.6146572 L78.8362586,57.6146572 L57.747612,78.8205739 C56.9968389,79.5755219 55.9760631,80 54.9113534,80 L54.9113534,80 L25.0665137,80 C24.0150075,80 23.0057893,79.585956 22.2572567,78.8474682 L22.2572567,78.8474682 L1.19074296,58.0636529 C0.428880088,57.3120137 0,56.2864167 0,55.2161847 L0,55.2161847 L0,25.2059254 C0,24.1488969 0.418392368,23.1348397 1.16375183,22.385341 L1.16375183,22.385341 L22.2525631,1.1794156 C23.0033353,0.424474016 24.0241067,0 25.0888112,0 L25.0888112,0 Z M33.121168,25.563 C31.0360084,23.4776667 27.6656226,23.4776667 25.580463,25.563 C23.4953035,27.6483333 23.4953035,31.019 25.580463,33.1043333 L25.580463,33.1043333 L32.4758884,40.0003333 L25.580463,46.8963333 C23.4953035,48.9816667 23.4953035,52.3523333 25.580463,54.4376667 C26.6203764,55.4776667 27.9855959,56.0003333 29.3508155,56.0003333 C30.7160351,56.0003333 32.0812546,55.4776667 33.1265009,54.4376667 L33.1265009,54.4376667 L40.0165934,47.5416667 L46.9120187,54.4376667 C47.9519321,55.4776667 49.3171516,56.0003333 50.6823712,56.0003333 C52.0475908,56.0003333 53.4128103,55.4776667 54.4527237,54.4376667 C56.5378833,52.3523333 56.5378833,48.9816667 54.4527237,46.8963333 L54.4527237,46.8963333 L47.5572983,40.0003333 L54.4473908,33.1043333 C56.5325504,31.019 56.5325504,27.6483333 54.4473908,25.563 C52.3622312,23.4776667 48.9918454,23.4776667 46.9066859,25.563 L46.9066859,25.563 L40.0112605,32.459 Z" fill="#1F1E1E" fill-rule="nonzero"></path>
        </g>
    </g>
</svg>