<?xml version="1.0" encoding="UTF-8"?>
<svg width="80px" height="80px" viewBox="0 0 80 80" version="1.1" xmlns="http://www.w3.org/2000/svg" xmlns:xlink="http://www.w3.org/1999/xlink">
    <title>8D298529-DF7E-474B-8852-5DD5C40534F7</title>
    <g id="🧬-Symbols" stroke="none" stroke-width="1" fill="none" fill-rule="evenodd">
        <g id="icons/mixing">
            <rect id="icon-space" x="0" y="0" width="80" height="80"></rect>
            <path d="M72.7644724,34.1606626 L72.9397615,34.1747319 L77.9077232,35.1816522 C78.3087406,35.2635857 78.6588737,35.4719724 78.9174153,35.7619446 C79.175542,36.0514513 79.3423033,36.42225 79.3773055,36.829089 C79.4413718,37.5784846 79.4783297,38.3312657 79.4927549,39.087926 L79.4927549,39.087926 L79.5,39.8590088 C79.5,50.7761585 75.0581982,60.6800039 67.9055486,67.857865 C60.7432258,75.0454334 50.8623514,79.5 40,79.5 C29.8621484,79.5 20.423461,75.5104972 13.4707668,69.1869626 L13.4707668,69.1869626 L12.736162,68.5099483 L10.1363326,71.1090726 C9.93635714,71.3350084 9.66878014,71.5050307 9.35176993,71.5891062 C9.04927229,71.6693327 8.70402993,71.6711334 8.32969285,71.5779824 C7.71900166,71.4059842 7.27101047,70.916829 7.09080848,70.3233802 C6.91691576,69.5043476 6.18273217,65.8546446 5.43673339,62.1463436 L5.43673339,62.1463436 L5.29312714,61.4324898 C4.51630409,57.5709818 3.76812091,53.8520016 3.72572072,53.6421557 C3.61654732,53.0587902 3.78840627,52.3969967 4.22881732,51.9933662 C4.62518639,51.563644 5.17468402,51.3867152 5.73524091,51.4373625 C6.47341907,51.7024168 9.29110685,52.6415926 12.3228078,53.6274052 L12.952498,53.831826 L13.6382111,54.0538293 C17.0777218,55.1662248 20.4292432,56.2321625 20.8298384,56.3363626 C21.5384401,56.4945103 22.0604698,56.9742302 22.2883987,57.6038875 C22.4517529,58.2134525 22.3089261,58.8522951 21.9129284,59.3231827 L21.9129284,59.3231827 L18.7350904,62.5122101 C24.2474792,67.7675591 31.8584906,71.125 40,71.125 C48.5277237,71.125 56.309512,67.6085781 61.9590079,61.9590822 C67.6086062,56.3094839 71.125,48.527568 71.125,40 C71.125,38.9696396 71.0495755,37.6179311 70.8796399,36.2280582 C70.8065607,35.6274674 71.0277689,35.0761713 71.4145253,34.6940892 C71.8004449,34.3128336 72.3512748,34.0993518 72.9397615,34.1747319 Z M40,0.5 C50.0883656,0.5 59.5236166,4.33643624 66.4759824,10.6501528 L66.4759824,10.6501528 L67.2140109,11.3297498 L69.8536754,8.74405636 C70.0942391,8.50349267 70.3903696,8.33673186 70.7050956,8.25326214 C71.0158035,8.17085808 71.3449598,8.16959156 71.6630171,8.263121 C72.2780349,8.43400869 72.7292189,8.92551458 72.9102336,9.52170328 C73.0025743,9.94144661 73.138006,10.621898 73.3290632,11.5813696 L73.3290632,11.5813696 L74.0696358,15.2991274 L74.2000775,15.9537916 L74.3748133,16.8307076 L74.492725,17.4224197 L74.6111537,18.0167027 C74.6304376,18.1134685 74.6497209,18.2102307 74.6689934,18.3069376 L74.7844158,18.8861011 C75.532743,22.6409683 76.2332152,26.1543308 76.274322,26.3580722 C76.4021974,27.0396231 76.1472742,27.6325277 75.7415407,28.0381717 C75.5045806,28.2750795 75.2163986,28.4500829 74.9193178,28.5407641 C74.6654588,28.6182522 74.4040962,28.6353081 74.1703473,28.5610756 C73.5716614,28.3194297 73.0441822,28.139154 72.3723595,27.9143155 C69.999767,27.1274255 68.1905153,26.5374692 66.40199,25.9589295 L66.40199,25.9589295 L65.7584105,25.7509511 C62.4183881,24.6726387 59.3215039,23.6920308 59.113805,23.6503835 C58.4567006,23.5043034 57.9387222,23.0229641 57.7116268,22.3962075 C57.548061,21.7859749 57.6913531,21.14639 58.0883178,20.675337 L58.0883178,20.675337 L61.2635563,17.4361508 C55.7515958,12.2321861 48.1410033,8.875 40,8.875 C31.4721991,8.875 23.6903484,12.3913327 18.0408405,18.0408405 C12.3913327,23.6903484 8.875,31.4721991 8.875,40 C8.875,41.1424183 8.95541424,42.441145 9.11232172,43.7484996 C9.18407371,44.3468188 8.96346108,44.8968465 8.57777981,45.2785416 C8.19357011,45.6587803 7.64537292,45.8726051 7.05829924,45.7993744 L7.05829924,45.7993744 L2.10456595,44.8143317 C1.70328837,44.7338359 1.35241694,44.5267627 1.09277544,44.2378028 C0.833530344,43.949284 0.665302243,43.5791594 0.62860947,43.1724214 C0.566365089,42.4796148 0.512008631,41.5953622 0.501762085,40.4808195 C0.500893992,29.4133745 4.92687951,19.4389469 12.0589631,12.2208072 C19.2237328,4.96958701 29.1194839,0.5 40,0.5 Z" stroke="#1F1E1E" fill="#1F1E1E"></path>
        </g>
    </g>
</svg>