<?xml version="1.0" encoding="UTF-8"?>
<svg width="80px" height="80px" viewBox="0 0 80 80" version="1.1" xmlns="http://www.w3.org/2000/svg" xmlns:xlink="http://www.w3.org/1999/xlink">
    <title>7A8AD41F-16BA-4587-9F08-78BBDA7B0AAC</title>
    <g id="🧬-Symbols" stroke="none" stroke-width="1" fill="none" fill-rule="evenodd">
        <g id="icons/temp-check">
            <rect id="icon-space" x="0" y="0" width="80" height="79.9038527"></rect>
            <path d="M39.9924211,0.5 C43.2692709,0.5 46.2229682,1.79719546 48.3607405,3.89630011 C50.4159763,5.91436109 51.716839,8.67366972 51.81038,11.73146 L51.8157895,12.0855814 L51.8157895,49.6610568 C55.3075204,52.7981827 57.5,57.3135848 57.5,62.3255814 C57.5,67.0646934 55.5406695,71.3568963 52.3756879,74.4646301 C49.2073718,77.5756382 44.8310577,79.5 40,79.5 C35.1689423,79.5 30.7926282,77.5756382 27.6243121,74.4646301 C24.4593305,71.3568963 22.5,67.0646934 22.5,62.3255814 C22.5,57.452795 24.5724369,53.0529809 27.8962654,49.9257861 L28.1842105,49.6608761 L28.1842105,12.0855814 C28.1842105,8.88702075 29.5049762,5.99197882 31.6392595,3.89630011 C33.776876,1.7973485 36.7302891,0.5 39.9924211,0.5 Z M40,8.43023256 C39.0786367,8.43023256 38.2444244,8.7979638 37.6403195,9.39114175 C37.03288,9.98759396 36.6578947,10.8116702 36.6578947,11.7209302 L36.6578947,11.7209302 L36.6578947,54.0817051 L36.3347713,54.215808 C34.8418485,54.8695031 33.561898,55.9104348 32.627646,57.2081841 C31.5860377,58.6550596 30.9736842,60.4208171 30.9736842,62.3255814 C30.9736842,64.7753066 31.985301,66.9947316 33.6215826,68.6014164 C35.2545296,70.2048269 37.5097946,71.1976744 40,71.1976744 C42.4902054,71.1976744 44.7454704,70.2048269 46.3784174,68.6014164 C48.014699,66.9947316 49.0263158,64.7753066 49.0263158,62.3255814 C49.0263158,60.4208171 48.4139623,58.6550596 47.372354,57.2081841 C46.3713697,55.8177384 44.9735377,54.7221089 43.3421053,54.0817051 L43.3421053,54.0817051 L43.3421053,11.7209302 L43.3355136,11.512678 C43.2830398,10.6862361 42.9203939,9.94171302 42.3596805,9.39114175 C41.7555756,8.7979638 40.9213633,8.43023256 40,8.43023256 Z M40,60.0348837 C40.6474788,60.0348837 41.2343191,60.2922688 41.6590563,60.7093234 C42.0804589,61.1231037 42.3421053,61.6943764 42.3421053,62.3255814 C42.3421053,62.9567864 42.0804589,63.5280591 41.6590563,63.9418394 C41.2343191,64.358894 40.6474788,64.6162791 40,64.6162791 C39.3525212,64.6162791 38.7656809,64.358894 38.3409437,63.9418394 C37.9195411,63.5280591 37.6578947,62.9567864 37.6578947,62.3255814 C37.6578947,61.6943764 37.9195411,61.1231037 38.3409437,60.7093234 C38.7656809,60.2922688 39.3525212,60.0348837 40,60.0348837 Z" stroke="#1F1E1E" fill="#1F1E1E"></path>
        </g>
    </g>
</svg>