<?xml version="1.0" encoding="UTF-8"?>
<svg width="80px" height="80px" viewBox="0 0 80 80" version="1.1" xmlns="http://www.w3.org/2000/svg" xmlns:xlink="http://www.w3.org/1999/xlink">
    <title>A20A7AFC-CC8A-4279-B1F0-BF815FC8E409</title>
    <g id="🧬-Symbols" stroke="none" stroke-width="1" fill="none" fill-rule="evenodd">
        <g id="icons/list-pillow">
            <rect id="icon-space" x="0" y="0" width="80" height="80"></rect>
            <path d="M52.65625,0 C67.4543837,0 79.5447247,11.8163015 79.9874403,26.5090718 L80,27.34375 L80,52.65625 C80,67.4543837 68.1836985,79.5447247 53.4909282,79.9874403 L52.65625,80 L27.34375,80 C12.5456163,80 0.455275313,68.1836985 0.0125597111,53.4909282 L0,52.65625 L0,27.34375 C0,12.5456163 11.8163015,0.455275313 26.5090718,0.0125597111 L27.34375,0 L52.65625,0 Z M19.6666667,50 C21.3235209,50 22.6666667,51.3431458 22.6666667,53 L22.6666667,53.6666667 C22.6666667,55.3235209 21.3235209,56.6666667 19.6666667,56.6666667 C18.0098124,56.6666667 16.6666667,55.3235209 16.6666667,53.6666667 L16.6666667,53 C16.6666667,51.3431458 18.0098124,50 19.6666667,50 Z M19.6666667,36.6666667 C21.3235209,36.6666667 22.6666667,38.0098124 22.6666667,39.6666667 L22.6666667,40.3333333 C22.6666667,41.9901876 21.3235209,43.3333333 19.6666667,43.3333333 C18.0098124,43.3333333 16.6666667,41.9901876 16.6666667,40.3333333 L16.6666667,39.6666667 C16.6666667,38.0098124 18.0098124,36.6666667 19.6666667,36.6666667 Z M19.6666667,23.3333333 C21.3235209,23.3333333 22.6666667,24.6764791 22.6666667,26.3333333 L22.6666667,27 C22.6666667,28.6568542 21.3235209,30 19.6666667,30 C18.0098124,30 16.6666667,28.6568542 16.6666667,27 L16.6666667,26.3333333 C16.6666667,24.6764791 18.0098124,23.3333333 19.6666667,23.3333333 Z M28.3333333,50 L55.3333333,50 C56.4379028,50 57.3333333,50.8954305 57.3333333,52 L57.3333333,54.6666667 C57.3333333,55.7712362 56.4379028,56.6666667 55.3333333,56.6666667 L28.3333333,56.6666667 C27.2287638,56.6666667 26.3333333,55.7712362 26.3333333,54.6666667 L26.3333333,52 C26.3333333,50.8954305 27.2287638,50 28.3333333,50 Z M28.3333333,36.6666667 L47.3333333,36.6666667 C48.4379028,36.6666667 49.3333333,37.5620972 49.3333333,38.6666667 L49.3333333,41.3333333 C49.3333333,42.4379028 48.4379028,43.3333333 47.3333333,43.3333333 L28.3333333,43.3333333 C27.2287638,43.3333333 26.3333333,42.4379028 26.3333333,41.3333333 L26.3333333,38.6666667 C26.3333333,37.5620972 27.2287638,36.6666667 28.3333333,36.6666667 Z M28.3333333,23.3333333 L61.3333333,23.3333333 C62.4379028,23.3333333 63.3333333,24.2287638 63.3333333,25.3333333 L63.3333333,28 C63.3333333,29.1045695 62.4379028,30 61.3333333,30 L28.3333333,30 C27.2287638,30 26.3333333,29.1045695 26.3333333,28 L26.3333333,25.3333333 C26.3333333,24.2287638 27.2287638,23.3333333 28.3333333,23.3333333 Z" fill="#1F1E1E"></path>
        </g>
    </g>
</svg>