<?xml version="1.0" encoding="UTF-8"?>
<svg width="80px" height="80px" viewBox="0 0 80 80" version="1.1" xmlns="http://www.w3.org/2000/svg" xmlns:xlink="http://www.w3.org/1999/xlink">
    <title>6972CEBB-FCE1-49BC-A93D-D32F0D889B41</title>
    <g id="🧬-Symbols" stroke="none" stroke-width="1" fill="none" fill-rule="evenodd">
        <g id="icons/product-levels-pillow">
            <rect id="icon-space" x="0" y="0" width="80" height="79.9038527"></rect>
            <path d="M52.65625,0.5 C59.908615,0.5 66.4983874,3.39115236 71.3338469,8.08116184 C76.0766594,12.6813112 79.1320096,19.0121521 79.4687613,26.0365928 L79.4874969,26.5165946 L79.5,27.34375 L79.5,52.65625 C79.5,59.908615 76.6088476,66.4983874 71.9188382,71.3338469 C67.3186888,76.0766594 60.9878479,79.1320096 53.9634072,79.4687613 L53.4834054,79.4874969 L52.65625,79.5 L27.34375,79.5 C20.091385,79.5 13.5016126,76.6088476 8.66615313,71.9188382 C3.92334055,67.3186888 0.86799045,60.9878479 0.531238656,53.9634072 L0.512503115,53.4834054 L0.5,52.65625 L0.5,27.34375 C0.5,20.091385 3.39115236,13.5016126 8.08116184,8.66615313 C12.6813112,3.92334055 19.0121521,0.86799045 26.0365928,0.531238656 L26.5165946,0.512503115 L27.34375,0.5 L52.65625,0.5 Z M30.0454545,49.9924471 L16.5,49.9924471 L16.5,60.9154079 L16.5071053,61.1084899 C16.5541965,61.7459106 16.8325826,62.3187034 17.2590433,62.7438756 C17.7276019,63.2110187 18.3750419,63.5 19.0909091,63.5 L19.0909091,63.5 L27.4545455,63.5 L27.6671423,63.4914414 C28.2981118,63.4404221 28.8647085,63.1643044 29.2864113,62.7438756 C29.755518,62.2761862 30.0454545,61.6298759 30.0454545,60.9154079 L30.0454545,60.9154079 L30.0454545,49.9924471 Z M63.5,42.5174471 L49.9545455,42.5174471 L49.9545455,60.9154079 L49.9616507,61.1084899 C50.0087419,61.7459106 50.2871281,62.3187034 50.7135887,62.7438756 C51.1821473,63.2110187 51.8295874,63.5 52.5454545,63.5 L52.5454545,63.5 L60.9090909,63.5 L61.1216878,63.4914414 C61.7526573,63.4404221 62.319254,63.1643044 62.7409567,62.7438756 C63.2100634,62.2761862 63.5,61.6298759 63.5,60.9154079 L63.5,60.9154079 L63.5,42.5174471 Z M46.7727273,33.31571 L33.2272727,33.31571 L33.2272727,60.9154079 L33.234378,61.1084899 C33.2814692,61.7459106 33.5598554,62.3187034 33.986316,62.7438756 C34.4548746,63.2110187 35.1023146,63.5 35.8181818,63.5 L35.8181818,63.5 L44.1818182,63.5 L44.3944151,63.4914414 C45.0253845,63.4404221 45.5919813,63.1643044 46.013684,62.7438756 C46.4827907,62.2761862 46.7727273,61.6298759 46.7727273,60.9154079 L46.7727273,60.9154079 L46.7727273,33.31571 Z M27.4545455,16.5 L19.0909091,16.5 L18.8783122,16.5085586 C18.2473427,16.5595779 17.680746,16.8356956 17.2590433,17.2561244 C16.7899366,17.7238138 16.5,18.3701241 16.5,19.0845921 L16.5,19.0845921 L16.5,46.8232628 L30.0454545,46.8232628 L30.0454545,19.0845921 L30.0383493,18.8915101 C29.9912581,18.2540894 29.7128719,17.6812966 29.2864113,17.2561244 C28.8178527,16.7889813 28.1704126,16.5 27.4545455,16.5 L27.4545455,16.5 Z M60.9090909,16.5 L52.5454545,16.5 L52.3328577,16.5085586 C51.7018882,16.5595779 51.1352915,16.8356956 50.7135887,17.2561244 C50.244482,17.7238138 49.9545455,18.3701241 49.9545455,19.0845921 L49.9545455,19.0845921 L49.9545455,39.3482628 L63.5,39.3482628 L63.5,19.0845921 L63.4928947,18.8915101 C63.4458035,18.2540894 63.1674174,17.6812966 62.7409567,17.2561244 C62.2723981,16.7889813 61.6249581,16.5 60.9090909,16.5 L60.9090909,16.5 Z M44.1818182,16.5 L35.8181818,16.5 L35.6055849,16.5085586 C34.9746155,16.5595779 34.4080187,16.8356956 33.986316,17.2561244 C33.5172093,17.7238138 33.2272727,18.3701241 33.2272727,19.0845921 L33.2272727,19.0845921 L33.2272727,30.1465257 L46.7727273,30.1465257 L46.7727273,19.0845921 L46.765622,18.8915101 C46.7185308,18.2540894 46.4401446,17.6812966 46.013684,17.2561244 C45.5451254,16.7889813 44.8976854,16.5 44.1818182,16.5 L44.1818182,16.5 Z" stroke="#1F1E1E" fill="#1F1E1E"></path>
        </g>
    </g>
</svg>