<?xml version="1.0" encoding="UTF-8"?>
<svg width="80px" height="80px" viewBox="0 0 80 80" version="1.1" xmlns="http://www.w3.org/2000/svg" xmlns:xlink="http://www.w3.org/1999/xlink">
    <title>9F355111-FDE3-4298-B2E8-53B99CF5B796</title>
    <g id="🧬-Symbols" stroke="none" stroke-width="1" fill="none" fill-rule="evenodd">
        <g id="icons/checkmark">
            <rect id="icon-space" x="0" y="0" width="80" height="80"></rect>
            <path d="M41.8259752,68.0622625 C39.7254069,70.8016732 36.4542655,72.4853412 32.9174113,72.652673 C29.380557,72.8217298 25.9550149,71.4520245 23.585143,68.9230723 L2.34785926,46.2780824 C-1.02741283,42.6813121 -0.727588128,37.1369381 3.01573224,33.8938071 C6.76264333,30.6506761 12.5293316,30.9404878 15.9046037,34.5389832 L30.9299505,50.5614305 C31.1525749,50.7994901 31.4757392,50.9271453 31.8078804,50.9116196 C32.1418168,50.896094 32.4470276,50.7356625 32.6463123,50.4803522 L63.5300519,10.2327512 C66.5193221,6.33409372 72.2321497,5.5043352 76.2914529,8.37830131 C80.3471655,11.2522674 81.2089371,16.7414392 78.2178715,20.6383716 L41.8259752,68.0622625 Z" fill="#1F1E1E" fill-rule="nonzero"></path>
        </g>
    </g>
</svg>