<?xml version="1.0" encoding="UTF-8"?>
<svg width="80px" height="80px" viewBox="0 0 80 80" version="1.1" xmlns="http://www.w3.org/2000/svg" xmlns:xlink="http://www.w3.org/1999/xlink">
    <title>3036BAD4-39E9-4732-9854-C09D974BCCCC</title>
    <g id="🧬-Symbols" stroke="none" stroke-width="1" fill="none" fill-rule="evenodd">
        <g id="icons/bars-pillow">
            <rect id="icon-space" x="0" y="0" width="80" height="80"></rect>
            <path d="M52.65625,0 C67.4543837,0 79.5447247,11.8163015 79.9874403,26.5090718 L80,27.34375 L80,52.65625 C80,67.4543837 68.1836985,79.5447247 53.4909282,79.9874403 L52.65625,80 L27.34375,80 C12.5456163,80 0.455275313,68.1836985 0.0125597111,53.4909282 L0,52.65625 L0,27.34375 C0,12.5456163 11.8163015,0.455275313 26.5090718,0.0125597111 L27.34375,0 L52.65625,0 Z M18.6666667,50 L61.3333333,50 C62.4379028,50 63.3333333,50.8954305 63.3333333,52 L63.3333333,54.6666667 C63.3333333,55.7712362 62.4379028,56.6666667 61.3333333,56.6666667 L18.6666667,56.6666667 C17.5620972,56.6666667 16.6666667,55.7712362 16.6666667,54.6666667 L16.6666667,52 C16.6666667,50.8954305 17.5620972,50 18.6666667,50 Z M18.6666667,36.6666667 L61.3333333,36.6666667 C62.4379028,36.6666667 63.3333333,37.5620972 63.3333333,38.6666667 L63.3333333,41.3333333 C63.3333333,42.4379028 62.4379028,43.3333333 61.3333333,43.3333333 L18.6666667,43.3333333 C17.5620972,43.3333333 16.6666667,42.4379028 16.6666667,41.3333333 L16.6666667,38.6666667 C16.6666667,37.5620972 17.5620972,36.6666667 18.6666667,36.6666667 Z M18.6666667,23.3333333 L61.3333333,23.3333333 C62.4379028,23.3333333 63.3333333,24.2287638 63.3333333,25.3333333 L63.3333333,28 C63.3333333,29.1045695 62.4379028,30 61.3333333,30 L18.6666667,30 C17.5620972,30 16.6666667,29.1045695 16.6666667,28 L16.6666667,25.3333333 C16.6666667,24.2287638 17.5620972,23.3333333 18.6666667,23.3333333 Z" fill="#1F1E1E"></path>
        </g>
    </g>
</svg>