<?xml version="1.0" encoding="UTF-8"?>
<svg width="80px" height="80px" viewBox="0 0 80 80" version="1.1" xmlns="http://www.w3.org/2000/svg" xmlns:xlink="http://www.w3.org/1999/xlink">
    <title>E349A365-1901-41E8-9DDC-6A97DDFD809B</title>
    <g id="🧬-Symbols" stroke="none" stroke-width="1" fill="none" fill-rule="evenodd">
        <g id="icons/arrow-up">
            <rect id="icon-space" x="0" y="0" width="80" height="80"></rect>
            <path d="M39.9532033,0.5 C40.2412641,0.5 40.5150179,0.622803869 40.716201,0.831548396 L40.716201,0.831548396 L72.5060631,34.180358 C72.6662901,34.3484305 72.7696229,34.5590971 72.8117762,34.782183 C72.8543008,35.0072344 72.8346565,35.2453034 72.7465657,35.466801 C72.6599274,35.6845916 72.5164171,35.8654295 72.3373516,35.9910172 C72.1649211,36.1119515 71.959508,36.1812711 71.7430533,36.1812711 L71.7430533,36.1812711 L53.8324356,36.1812711 L53.8324356,78.333841 C53.8324356,78.6585012 53.7083826,78.9535036 53.5050337,79.1667396 C53.3100764,79.371176 53.0414536,79.5 52.7435315,79.5 L52.7435315,79.5 L27.3218102,79.5 C27.0238881,79.5 26.7552652,79.371176 26.5603079,79.1667396 C26.3569591,78.9535036 26.2329061,78.6585012 26.2329061,78.333841 L26.2329061,78.333841 L26.2329061,36.1811149 L8.25555651,36.1811149 C8.03909462,36.1811149 7.83367932,36.1118124 7.66120007,35.9912293 C7.48205405,35.8659854 7.33836986,35.6857854 7.25284217,35.4719439 C7.16533675,35.2491619 7.14562495,35.0096592 7.18839546,34.7833259 C7.23039432,34.5610761 7.33280193,34.3511499 7.49305885,34.1831001 L7.49305885,34.1831001 L39.190137,0.834900512 C39.3927254,0.622461908 39.6658376,0.5 39.9532033,0.5 Z" stroke="#1F1E1E" fill="#1F1E1E"></path>
        </g>
    </g>
</svg>