<?xml version="1.0" encoding="UTF-8"?>
<svg width="80px" height="80px" viewBox="0 0 80 80" version="1.1" xmlns="http://www.w3.org/2000/svg" xmlns:xlink="http://www.w3.org/1999/xlink">
    <title>039FD63E-C4DF-4939-8DBF-16BE63E4E92E</title>
    <g id="🧬-Symbols" stroke="none" stroke-width="1" fill="none" fill-rule="evenodd">
        <g id="icons/crab-patty">
            <rect id="icon-space" x="0" y="0" width="80" height="80"></rect>
            <path d="M39.9900853,0.5 C41.7024631,0.5 43.4174256,1.00168959 44.7357012,2.01698847 C46.7697475,1.44286683 48.5563769,1.40196467 50.2105507,1.84525109 C51.8645086,2.28847962 53.3911519,3.21714057 54.4022393,4.53966567 C56.5148878,4.51139614 58.2512057,4.93467019 59.7344094,5.79130307 C61.2175344,6.64789053 62.4521769,7.94045554 63.0863376,9.47960458 C65.1344766,9.99890012 66.70206,10.8572497 67.9130017,12.0685126 C69.124214,13.2800462 69.982401,14.8484274 70.1963856,16.498911 C72.0402498,17.5312554 73.332778,18.7663713 74.1893037,20.2502029 C75.0455722,21.7335887 75.468756,23.4701507 75.2484341,25.1201026 C76.7622983,26.5948075 77.690967,28.1220968 78.1341685,29.7768047 C78.5772811,31.4311809 78.5364863,33.2180373 77.8968416,34.7552956 C78.9250872,36.5600522 79.5,38.2723335 79.5,40.0000489 C79.5,41.726762 78.924884,43.4389017 77.9559403,44.7554019 C78.5365128,46.7806787 78.5772871,48.5677678 78.1340585,50.2224515 C77.6908627,51.8770128 76.7623616,53.4043159 75.4402633,54.4155789 C75.4686708,56.528727 75.0455205,58.2659683 74.1889812,59.7498693 C73.3327074,61.2333103 72.0406469,62.4681846 70.5019394,63.102072 C69.9826725,65.1506205 69.1245734,66.7185265 67.9136578,67.9297368 C66.7024839,69.1412055 65.1345711,69.9996053 63.4846027,70.2137196 C62.4525077,72.0580332 61.2177011,73.3509724 59.7342305,74.207786 C58.2513226,75.0642746 56.5153295,75.4876296 54.865984,75.267262 C53.3916753,76.7813967 51.8647803,77.710245 50.2104872,78.153597 C48.5565123,78.5968637 46.7700676,78.5561909 45.2334072,77.9165415 C43.4175466,78.9979262 41.7024855,79.5 39.9900035,79.5 C38.2777018,79.5 36.5626832,78.9980297 35.2438973,77.9820559 C33.2104032,78.5562025 31.4237906,78.5969031 29.7695566,78.1535598 C28.1153608,77.7102268 26.588401,76.7814938 25.5776393,75.4592084 C23.4649262,75.4874666 21.7283352,75.064158 20.2449882,74.207427 C18.7619601,73.3508802 17.5274552,72.0584284 16.8937187,70.5193445 C14.8456683,70.0000278 13.2782317,69.141699 12.0673563,67.9305024 C10.856099,66.7189238 9.99784903,65.1504756 9.78378143,63.500065 C7.93978234,62.4682095 6.64759967,61.23334 5.79123162,59.7498347 C4.93473509,58.2661067 4.51151817,56.5290486 4.73173994,54.8791875 C3.21809847,53.4048241 2.28939924,51.8773123 1.84610818,50.2224218 C1.40294131,48.567995 1.44353919,46.7811237 2.08315309,45.2443801 C1.00192052,43.4280374 0.5,41.7123829 0.5,39.9994443 C0.5,38.286462 1.00194471,36.5708925 2.01767908,35.2519898 C1.44387625,33.2177137 1.40310276,31.4304349 1.84632022,29.7756937 C2.28945537,28.1212599 3.21777264,26.5941923 4.53973375,25.583125 C4.51158263,23.470105 4.93478892,21.7332047 5.79126499,20.2495122 C6.64758084,18.7660973 7.93966553,17.531188 9.47834101,16.8968861 C9.99742865,14.8483517 10.85554,13.2803652 12.0664855,12.0690984 C13.2776678,10.8575948 14.845597,9.99916858 16.4955461,9.78513026 C17.527358,7.94057837 18.762009,6.64790422 20.2452576,5.79126065 C21.7285121,4.93461368 23.4649816,4.5113324 25.1143313,4.7317398 C26.5887567,3.21749164 28.1157889,2.28850789 29.7701467,1.84513146 C31.424044,1.40187847 33.2103196,1.44259063 34.7466835,2.08242863 C36.5625468,1.00170725 38.2776792,0.5 39.9900853,0.5 Z M55.742526,19.5 C55.150032,19.5 54.5532303,19.5706876 53.9688215,19.7098867 C53.4697936,19.8287622 53.0412256,20.1226403 52.7386864,20.5256516 C52.4436719,20.9186392 52.2690755,21.4155372 52.2690755,21.9487839 L52.2690755,21.9487839 L52.2690755,24.4298608 L49.9768229,24.4298608 L49.7853438,24.438627 C49.3428597,24.479294 48.9326361,24.6597548 48.5999491,24.9444405 C48.2295415,25.2614043 47.9554281,25.7083226 47.8459505,26.2321924 C47.7170476,26.8489802 47.6517188,27.4789522 47.6517188,28.1044926 C47.6517188,30.1810386 48.3471767,32.0865956 49.5004505,33.5723058 C50.5546077,34.9303285 51.9909472,35.9373654 53.6302006,36.4091611 C53.3180551,36.9515375 52.8363095,37.3722014 52.2617758,37.5799393 C49.4968488,33.3424971 44.755926,31.2228928 40.0091123,31.2228928 C35.2489953,31.2228928 30.4966253,33.354677 27.7385424,37.5800064 C27.1637728,37.372375 26.6819125,36.9517472 26.3695438,36.4093819 C28.0086919,35.9375083 29.4451394,34.9304264 30.4993555,33.5723276 C31.6526457,32.0865963 32.348099,30.1810159 32.348099,28.1044926 C32.348099,27.4788493 32.2827701,26.8489802 32.153866,26.2321867 C32.0443896,25.7083226 31.7702762,25.2614043 31.3998686,24.9444405 C31.0196549,24.6190855 30.5381688,24.4298608 30.0229948,24.4298608 L30.0229948,24.4298608 L27.7308333,24.4298608 L27.7308333,21.9485893 L27.7227549,21.7504576 C27.6853027,21.2927417 27.5193601,20.8693212 27.2612225,20.525457 C26.9586832,20.1224457 26.5301153,19.8285675 26.0310993,19.709695 C25.4466785,19.570493 24.8499755,19.5 24.2573828,19.5 C22.023246,19.5 19.9955059,20.4672843 18.5275199,22.0346119 C17.0710173,23.589679 16.1666667,25.7360702 16.1666667,28.1043953 C16.1666667,30.0411892 16.7717549,31.8291727 17.7889893,33.2664437 C18.7751028,34.6597432 20.1484077,35.7231912 21.7347524,36.2780836 C22.024004,37.956477 22.8490404,39.435888 24.0114673,40.5092247 C21.9176248,41.3686537 20.0677089,42.6745184 18.6120979,44.3478039 C18.2112838,44.8084981 18.0210445,45.3985524 18.0411847,45.9814556 C18.0613652,46.5655253 18.2926276,47.1399712 18.724935,47.5687055 C19.1701277,48.0102231 19.7414346,48.2142256 20.3033319,48.1920952 C20.8640395,48.1700116 21.4186873,47.92247 21.8311852,47.4482049 C22.8636185,46.2615522 24.2000037,45.3377936 25.7257031,44.9501166 C25.7422736,45.2857765 25.7724354,45.6190549 25.8159215,45.949387 C23.0293077,47.2223677 20.714478,49.2424897 19.1742268,51.7740903 C18.8543957,52.2998935 18.7631919,52.9142893 18.8763701,53.4829347 C18.9908061,54.0579 19.3134079,54.5838999 19.8108788,54.9287891 C20.3220819,55.2833679 20.9196546,55.3813582 21.4719306,55.2560606 C22.0172568,55.1323397 22.5211525,54.789494 22.8494116,54.2499325 C23.8698338,52.5726244 25.4023795,51.2129363 27.257507,50.3026459 C27.3402928,50.4518693 27.4262028,50.5997092 27.5152887,50.7460658 C25.0527107,52.3664789 23.1161803,54.5977514 21.9329101,57.2186771 C21.6781614,57.7829303 21.6613749,58.4040437 21.8408273,58.9521258 C22.0233846,59.509691 22.4078696,59.9899294 22.9447387,60.266131 C23.4944707,60.5490449 24.0996104,60.5666782 24.63345,60.3674367 C25.1571428,60.1719823 25.6141443,59.7659076 25.8744065,59.1892446 C26.7960503,57.1477196 28.4705653,55.3808462 30.558667,54.1982477 C33.2366347,56.3623109 36.6184762,57.4631527 40.0109405,57.4631527 C43.3708291,57.4631527 46.7386699,56.3835946 49.4407247,54.1983949 C51.529312,55.3806207 53.203983,57.1475913 54.1257059,59.1892916 C54.3860396,59.76592 54.8430174,60.1719843 55.3666887,60.3674307 C55.9004468,60.5666417 56.505504,60.5490432 57.0553736,60.2661201 C57.592215,59.9898402 57.9766878,59.5095708 58.1592437,58.9520102 C58.3386973,58.4039242 58.3219196,57.7828465 58.0671711,57.218655 C56.8841734,54.5979384 54.9477458,52.3668656 52.4851234,50.7464217 C52.5739776,50.5999001 52.6597527,50.4519685 52.7424212,50.302688 C54.5975266,51.212679 56.1302677,52.5725082 57.1506681,54.2499137 C57.4789873,54.7895691 57.9828801,55.1322958 58.5281153,55.255996 C59.0805441,55.3813283 59.6782056,55.2832476 60.1893128,54.9287195 C60.6866775,54.5839039 61.0092812,54.0578826 61.1237192,53.482908 C61.2369034,52.9142324 61.1456894,52.299822 60.8258772,51.7741113 C59.2857118,49.2424065 56.970798,47.2223639 54.1841267,45.9494087 C54.2311536,45.5847633 54.2624834,45.1980593 54.2766798,44.7373904 C55.7996264,45.339694 57.1357264,46.2605426 58.1688312,47.4482238 C58.5815581,47.9225421 59.1361431,48.1699756 59.6967098,48.1920536 C60.2586097,48.2141842 60.8298639,48.0101633 61.2750394,47.5687309 C61.7073446,47.1400605 61.9385983,46.5656269 61.9587794,45.9815416 C61.9789203,45.3986197 61.788684,44.8085275 61.3879049,44.3478071 C59.9323811,42.6748002 58.0826209,41.3688696 55.9886843,40.5094653 C57.1507911,39.436168 57.975933,37.9566375 58.2650975,36.2782185 C59.8514289,35.7232718 61.2248469,34.6597735 62.2110215,33.2664049 C63.22825,31.8291603 63.8333333,30.041231 63.8333333,28.1044926 C63.8333333,25.7361564 62.9289738,23.5897303 61.4724462,22.0346366 C60.004451,20.4672991 57.9766978,19.5 55.742526,19.5 Z" stroke="#1F1E1E" fill="#1F1E1E"></path>
        </g>
    </g>
</svg>