<?xml version="1.0" encoding="UTF-8"?>
<svg width="80px" height="80px" viewBox="0 0 80 80" version="1.1" xmlns="http://www.w3.org/2000/svg" xmlns:xlink="http://www.w3.org/1999/xlink">
    <title>0A2EF9AF-2945-4CB1-96FA-1BBFBC148476</title>
    <g id="🧬-Symbols" stroke="none" stroke-width="1" fill="none" fill-rule="evenodd">
        <g id="icons/dining-room">
            <rect id="icon-space" x="0" y="0" width="80" height="79.9038527"></rect>
            <path d="M62.5833466,40.5 C63.2898572,40.5 63.885396,40.7245748 64.2996844,41.1391467 C64.7140896,41.5538355 64.9385357,42.1499538 64.9385357,42.8571429 C64.9385357,43.5643319 64.7140896,44.1604503 64.2996844,44.575139 C63.885396,44.9897109 63.2898572,45.2142857 62.5833466,45.2142857 L62.5833466,45.2142857 L42.0970231,45.2142857 L42.0970231,77.1428571 C42.0970231,77.8500462 41.872577,78.4461645 41.4581718,78.8608533 C41.0438834,79.2754252 40.4483446,79.5 39.741834,79.5 C39.0353235,79.5 38.4397847,79.2754252 38.0254963,78.8608533 C37.6110911,78.4461645 37.386645,77.8500462 37.386645,77.1428571 L37.386645,77.1428571 L37.386645,45.2142857 L16.9003215,45.2142857 C16.1938109,45.2142857 15.5982721,44.9897109 15.1839837,44.575139 C14.7695785,44.1604503 14.5451324,43.5643319 14.5451324,42.8571429 C14.5451324,42.1499538 14.7695785,41.5538355 15.1839837,41.1391467 C15.5982721,40.7245748 16.1938109,40.5 16.9003215,40.5 L16.9003215,40.5 Z M77.5300439,26.1784802 C78.1385896,26.4220651 78.6251486,26.8482621 78.9612785,27.3948469 C79.3014648,27.9480279 79.4880511,28.622248 79.4991296,29.3583225 C77.1002554,37.4004385 76.6914938,45.4400721 76.6489329,52.779192 L76.6457697,53.5358839 L76.6448109,54.2857143 L76.6448109,77.1428571 C76.6448109,77.8500462 76.4203648,78.4461645 76.0059596,78.8608533 C75.5916712,79.2754252 74.9961324,79.5 74.2896219,79.5 C73.6084505,79.5 73.0306325,79.2914896 72.6186934,78.904861 C72.2557321,78.564201 72.0278688,78.0904129 71.9576645,77.527071 L71.9387723,77.3117051 L71.9342457,65.2142857 L53.8032983,65.2142857 L53.8032983,77.1428571 C53.8032983,77.8500462 53.5788522,78.4461645 53.164447,78.8608533 C52.7501586,79.2754252 52.1546198,79.5 51.4481093,79.5 C50.7669379,79.5 50.1891199,79.2914896 49.7771808,78.904861 C49.4142266,78.5642076 49.186365,78.0904312 49.116156,77.5271037 L49.0972617,77.3117433 L49.0929202,57.1428571 C49.0929202,55.7450624 49.6504256,54.4714061 50.5532456,53.5327626 C51.3972636,52.6552544 52.5433708,52.0700636 53.8195309,51.9510258 L54.0949217,51.9327161 L71.9353593,51.9284517 C71.9087277,44.7139621 72.4468007,36.2804805 74.7716415,27.8471657 C74.8997852,27.2125689 75.335339,26.6821026 75.8783351,26.3651381 C76.3766056,26.0742814 76.9784304,25.9576839 77.5300439,26.1784802 Z M71.6489139,56.6428571 L53.5177794,56.6428571 L53.5177794,60.5 L71.6489139,60.5 L71.6489139,56.6428571 Z M3.82580202,26.4975017 C4.33907188,26.797114 4.76113799,27.2780787 5.00637065,27.8792098 C7.11400375,35.5395142 7.74863051,43.1986856 7.82628914,49.9416287 L7.83267237,50.6870277 L7.83615467,51.9285714 L25.4658887,51.9285714 C26.8354801,51.9285714 28.085243,52.4646967 29.0481677,53.3057895 C29.9843187,54.123496 30.6522571,55.2303774 30.8915122,56.4227408 L30.9361612,56.6794814 L30.9617857,76.8571429 C30.9617857,77.5643319 30.7373396,78.1604503 30.3229344,78.575139 C29.908646,78.9897109 29.3131072,79.2142857 28.6065967,79.2142857 C27.9254253,79.2142857 27.3476073,79.0057753 26.9356682,78.6191467 C26.5727069,78.2784867 26.3448436,77.8046986 26.2746393,77.2413567 L26.2557471,77.0259908 L26.2512205,64.9285714 L8.12027313,64.9285714 L8.12027313,76.8571429 C8.12027313,77.5643319 7.89582699,78.1604503 7.48142184,78.575139 C7.06713341,78.9897109 6.47159463,79.2142857 5.76508406,79.2142857 C5.08391272,79.2142857 4.50609471,79.0057753 4.09415561,78.6191467 C3.73120255,78.2784944 3.50334134,77.80472 3.43313151,77.2413949 L3.4142368,77.0260354 L3.40989498,54 C3.40989498,46.2473554 3.11936748,37.9215121 0.540462676,29.0214733 C0.424649289,28.4084045 0.560149255,27.7366267 0.876176749,27.1944946 C1.16100385,26.7058854 1.59744265,26.3154426 2.15146085,26.2045631 C2.73904876,26.0869651 3.32591801,26.2057032 3.82580202,26.4975017 Z M25.9658887,56.6428571 L7.83475423,56.6428571 L7.83475423,60.5 L25.9658887,60.5 L25.9658887,56.6428571 Z M39.741834,0.5 C40.4230054,0.5 41.0008234,0.708510431 41.4127625,1.09513898 C41.7757383,1.43581266 42.0036053,1.90962503 42.0737998,2.47299665 L42.0926877,2.68837397 L42.0973102,9.2658577 C45.4615758,9.9000855 48.387546,11.6915296 50.4357292,14.2022709 C52.3674677,16.5702699 53.5177794,19.5782846 53.5177794,22.8571429 C53.5177794,23.538975 53.3093823,24.1173577 52.9229065,24.5296978 C52.5825834,24.8927965 52.1092747,25.120785 51.5464929,25.1910353 L51.3313406,25.2099409 L28.3210777,25.2142857 C27.6145672,25.2142857 27.0190284,24.9897109 26.60474,24.575139 C26.1903348,24.1604503 25.9658887,23.5643319 25.9658887,22.8571429 C25.9658887,19.6347158 27.0769315,16.6738805 28.948898,14.3250987 C30.8531618,11.935793 33.5442082,10.1796564 36.6535755,9.42385704 L37.0443985,9.33461878 L37.3866693,2.86990989 C37.3839531,2.15712817 37.6085997,1.55632859 38.0254963,1.13914673 C38.4397847,0.724574805 39.0353235,0.5 39.741834,0.5 Z M39.4563151,13.7857143 C37.5347644,13.7857143 35.7583008,14.3652527 34.2899145,15.4148178 C32.6629463,16.5777332 31.4124671,18.3194015 30.7702208,20.5 L30.7702208,20.5 L48.3999995,20.5 L48.3176431,20.1880766 C47.7594158,18.2294841 46.5104612,16.5956104 44.877159,15.4684243 C43.3264676,14.3982501 41.4296985,13.7857143 39.4563151,13.7857143 Z" stroke="#1F1E1E" fill="#1F1E1E"></path>
        </g>
    </g>
</svg>