<?xml version="1.0" encoding="UTF-8"?>
<svg width="80px" height="80px" viewBox="0 0 80 80" version="1.1" xmlns="http://www.w3.org/2000/svg" xmlns:xlink="http://www.w3.org/1999/xlink">
    <title>20CA5BF1-358D-48D1-9254-C5CF1323FBC9</title>
    <g id="🧬-Symbols" stroke="none" stroke-width="1" fill="none" fill-rule="evenodd">
        <g id="icons/arrow-down">
            <rect id="icon-space" x="0" y="0" width="80" height="80"></rect>
            <path d="M52.7435315,0.5 C53.0414536,0.5 53.3100764,0.628824011 53.5050337,0.833260438 C53.7083826,1.04649639 53.8324356,1.34149879 53.8324356,1.66615902 L53.8324356,1.66615902 L53.8324356,43.8187289 L71.7430533,43.8187289 C71.959508,43.8187289 72.1649211,43.8880485 72.3373516,44.0089828 C72.5164171,44.1345705 72.6599274,44.3154084 72.7465498,44.533159 C72.8346565,44.7546966 72.8543008,44.9927656 72.8117762,45.217817 C72.7696229,45.4409029 72.6662901,45.6515695 72.506051,45.8196547 L72.506051,45.8196547 L40.7180896,79.1664812 C40.5150179,79.3771961 40.2412641,79.5 39.9532033,79.5 C39.6658376,79.5 39.3927254,79.3775381 39.1907056,79.1656968 L39.1907056,79.1656968 L7.49249019,45.8163026 C7.33280193,45.6488501 7.23039432,45.4389239 7.18839546,45.2166741 C7.14562495,44.9903408 7.16533675,44.7508381 7.25170764,44.5309186 C7.33836986,44.3142146 7.48205405,44.1340146 7.66120007,44.0087707 C7.83367932,43.8881876 8.03909462,43.8188851 8.25555651,43.8188851 L8.25555651,43.8188851 L26.2329061,43.8188851 L26.2329061,1.66615902 C26.2329061,1.34149879 26.3569591,1.04649639 26.5603079,0.833260438 C26.7552652,0.628824011 27.0238881,0.5 27.3218102,0.5 L27.3218102,0.5 Z" stroke="#1F1E1E" fill="#1F1E1E"></path>
        </g>
    </g>
</svg>