<?xml version="1.0" encoding="UTF-8"?>
<svg width="80px" height="80px" viewBox="0 0 80 80" version="1.1" xmlns="http://www.w3.org/2000/svg" xmlns:xlink="http://www.w3.org/1999/xlink">
    <title>D538E150-E39E-426C-8774-BA66F90EA144</title>
    <g id="🧬-Symbols" stroke="none" stroke-width="1" fill="none" fill-rule="evenodd">
        <g id="icons/macaroni-bites">
            <rect id="icon-space" x="0" y="0" width="80" height="80"></rect>
            <path d="M72.774423,33.8534948 C74.1160858,34.0291819 74.8627565,34.5129659 75.3534571,35.1839458 C75.8043103,35.8004388 76.0390774,36.5749596 75.9675459,37.3841522 L75.9403753,37.605608 L70.8992507,76.7561664 C70.7753201,77.5448775 70.3738931,78.2300776 69.803852,78.7184783 C69.2842814,79.1636369 68.6246326,79.4453019 67.9073521,79.4928348 L67.6905214,79.5 L12.7491007,79.5 C11.9483202,79.5 11.2072978,79.2081527 10.6357702,78.7184783 C10.117551,78.2744776 9.73868229,77.6678329 9.58096898,76.9686329 L9.54037146,76.7561664 L4.49924627,37.6056034 C4.47302982,37.4387873 4.45986246,37.2701839 4.45986246,37.1013266 C4.45986246,36.2043848 4.82341995,35.3923564 5.41121288,34.8045635 C5.98967803,34.2260984 6.78531826,33.8648083 7.66786211,33.8536952 C22.1328924,36.3537841 32.9836363,37.6013266 40.2198111,37.6013266 C47.456428,37.6013266 58.3080557,36.3536317 72.774423,33.8534948 Z M49.7274733,53.2335395 L49.575511,53.2389337 C49.2947933,53.2617104 48.9703991,53.3596938 48.6249185,53.5364714 C48.0349375,53.8383564 47.3666572,54.3774208 46.7535083,55.1021254 C46.1167945,55.8546812 45.662073,56.6632356 45.4624175,57.3975228 C45.2441929,58.2001032 45.3283251,58.9166174 45.7374665,59.4740019 C46.350575,60.2088759 46.6540208,61.1570427 46.6507815,62.1038743 C46.647561,63.0451981 46.3410614,63.9886379 45.7195248,64.7232569 C45.0928553,65.4639426 44.2579286,65.8538089 43.4046054,65.8669507 C42.5536488,65.8800561 41.6924635,65.5188498 40.9513179,64.7376746 C40.7191287,64.5545781 40.4162431,64.4645771 40.052971,64.494049 C39.7722493,64.5168236 39.4478539,64.6148051 39.1023732,64.791583 C38.512398,65.0934655 37.8441281,65.6325296 37.2309811,66.3572521 C36.5952912,67.1085768 36.1401728,67.9153709 35.9121889,68.6091772 C35.7830702,69.0021146 35.7257901,69.3634176 35.7377328,69.6677474 C35.7528398,70.0527141 35.876773,70.358433 36.0793687,70.5754363 C38.1824359,72.8287211 40.9047402,73.9034973 43.598701,73.8294809 C46.2913379,73.755501 48.9621411,72.5334321 50.9627837,70.1687831 C52.9424924,67.8288769 53.8957264,64.801644 53.8299047,61.8003975 C53.7640836,58.7991777 52.6802109,55.8273142 50.4738526,53.4825597 C50.2416709,53.2994614 49.9387875,53.2094584 49.575511,53.2389337 Z M39.6235223,66.3814314 C39.442944,66.9843717 39.1545228,67.4713311 38.7342865,67.968154 C38.26794,68.5193478 37.8169814,68.9011813 37.4808563,69.0715066 C37.6778715,68.4776533 38.0042195,67.9504217 38.4199684,67.4589869 C38.863576,66.9344895 39.2933448,66.5630557 39.6235223,66.3814314 Z M31.0222933,43.0948907 C30.6522153,42.9666523 30.2956717,42.9276019 29.9664885,42.9787095 C29.6291536,43.0310827 29.3166133,43.1759355 28.9981167,43.475617 C27.0745545,45.772198 26.1285239,48.7354171 26.1678447,51.6867936 C26.2070538,54.6297909 27.2258859,57.5572836 29.2164248,59.797255 C31.2731198,62.1116724 33.9777364,63.2602383 36.6858001,63.2449299 C39.3805108,63.229697 42.0858092,62.0618446 44.210252,59.6565703 C44.4768328,59.2447834 44.5061355,58.5575441 44.1922319,57.7293721 C43.9404034,57.0649726 43.4814386,56.3102421 42.8595296,55.6104023 C42.2193388,54.8899899 41.525907,54.3638194 40.9116606,54.0886611 C40.5572726,53.9299091 40.2235662,53.8520206 39.9309416,53.8511683 C39.5775099,53.8501388 39.2748133,53.9561191 38.9833896,54.2089359 C38.3424266,54.9303338 37.5028648,55.2972137 36.6601771,55.2975581 C35.8173681,55.2979025 34.9779839,54.9315931 34.3377301,54.2111098 C33.6734826,53.4636261 33.3470705,52.4797724 33.3569653,51.4899428 C33.3668296,50.5031661 33.7110965,49.5075831 34.445146,48.6678263 C34.711744,48.2560406 34.7410546,47.5688073 34.4271504,46.7406362 C34.1753192,46.0762319 33.7163434,45.3214929 33.094428,44.6216459 C32.4235759,43.8667299 31.6929393,43.3272812 31.0222933,43.0948907 Z M40.454,55.814 L40.4842426,55.8164375 C40.876967,55.8746995 41.3004011,56.2960315 41.6966221,56.7422035 C42.1224993,57.2214469 42.4600506,57.7392211 42.6401594,58.2035278 C42.6581578,58.2499773 42.6738707,58.2941725 42.6873045,58.3360505 C42.3445956,58.1786456 41.8763476,57.8075542 41.3918936,57.2620236 C41.0268036,56.8511845 40.7266334,56.4120251 40.5347805,56.002641 L40.454,55.814 Z M49.1461365,55.1265848 C48.9654738,55.7292634 48.6770924,56.216 48.2568437,56.7125686 C47.8131181,57.2370258 47.3833305,57.6084313 47.0530495,57.7900704 C47.2337572,57.1876001 47.5221519,56.700864 47.942471,56.2040846 C48.3861816,55.679645 48.8159558,55.308233 49.1461365,55.1265848 Z M31.9314865,45.7530993 C32.3397499,46.2129038 32.6290707,46.6680859 32.8044369,47.0503136 C32.8531867,47.1565687 32.8929274,47.2561114 32.9228987,47.3472232 C32.5799614,47.1898934 32.1113814,46.8187651 31.6266202,46.2730738 C31.2182859,45.8135716 30.9289312,45.3585788 30.7535749,44.9764691 C31.0996911,44.8567777 31.5401076,45.3128266 31.9314865,45.7530993 Z M40.6481706,24.9440554 C42.3149061,24.9440554 43.8251139,25.5748948 44.9178156,26.5987826 C45.9983613,27.61128 46.6698602,29.0091331 46.669895,30.5491362 C46.667694,30.7356591 46.6557617,31.3592928 46.5360137,31.8469127 C46.4907011,32.0314277 46.4299504,32.1967352 46.3697431,32.3409713 C43.7224277,32.7640556 41.8104647,32.8333333 40.5204158,32.8333333 C39.2155753,32.8333333 37.2862234,32.7656089 34.7326824,32.6305716 C34.6865409,32.4148391 34.6437065,32.1744969 34.6248073,31.9279434 C34.5937857,31.5232423 34.6095877,31.1021655 34.6194937,30.8234441 C34.6259419,29.0250454 35.2920774,27.6168108 36.3785257,26.5987826 C37.4712273,25.5748948 38.9814352,24.9440554 40.6481706,24.9440554 Z M49.9450153,21.7779831 C51.4624941,21.1329419 53.2026564,21.10888 54.7444389,21.7185201 C56.2300318,22.3059422 57.3955328,23.4290976 57.9758116,24.829313 C55.9004265,26.4862082 54.5822539,29.3325235 54.4409291,31.9044853 L54.4409291,31.9044853 L50.2694113,32.3812864 C50.4659882,30.0209258 49.7354754,26.9029333 48.2725236,25.0551972 C49.0641258,24.0827559 49.6334316,22.9670693 49.9450153,21.7779831 Z M28.9071227,21.277517 C29.7412918,21.2806747 30.5646812,21.4471862 31.3243809,21.7656508 C31.3767851,21.9982522 31.4113238,22.1360379 31.4565769,22.2720978 C31.8000217,23.2809535 32.3290017,24.2247584 33.0186519,25.0609851 C31.5640529,26.9042032 30.8564276,29.9188685 31.0509625,32.260612 C30.1866253,32.1838879 29.530739,32.1199254 29.083312,32.0686461 C28.5311494,32.0053633 27.7662857,31.9047352 26.78886,31.7664884 C26.6574064,29.2039881 25.3976805,26.4796519 23.3246212,24.8299312 C23.7487278,23.8219645 24.4664767,22.9743264 25.3652611,22.3603854 C26.3707691,21.6735437 27.6028925,21.2787586 28.9071227,21.277517 Z M64.1263385,26.1662782 C64.6404684,26.1662782 66.5447646,26.199909 67.8656721,26.9125203 C68.4972073,27.2532248 69.0216053,27.6555076 69.415874,28.0298115 C69.6198841,28.223491 69.8053726,28.4045169 69.9384759,28.5548507 C67.5583022,29.1655205 65.7485222,29.6160532 64.5091211,29.9063872 C63.0629445,30.2451591 60.9394257,30.6673436 58.1391874,31.1730048 C58.2891681,29.8688214 58.9188663,28.6997721 59.8566935,27.8210054 C60.9493952,26.7971176 62.459603,26.1662782 64.1263385,26.1662782 Z M17.1694458,26.1662779 C18.8355258,26.1681339 20.3448653,26.7994288 21.4373657,27.8231281 C22.3770413,28.7036268 23.0077563,29.8751784 23.157062,31.1819634 C21.152036,30.8455505 19.4584693,30.5156347 18.0764295,30.1918871 C16.7850469,29.8893763 14.540145,29.3407105 11.3418136,28.5458852 C11.5101808,28.3452518 11.7711683,28.0978061 12.0551371,27.8454107 C12.5217218,27.4307039 13.1209031,27.0131247 13.7865134,26.7326303 C15.1044537,26.1772379 16.781412,26.1667114 17.1694458,26.1662779 Z M20.5353046,14.0205847 C22.0816471,13.8889849 23.5558992,14.315834 24.7165061,15.1343551 C25.7276936,15.8474978 26.5008462,16.858694 26.8690338,18.0559447 C23.8853322,18.6614066 21.3853665,20.5631315 20.1296155,23.1707672 C18.8629227,22.7748398 17.5187142,22.6410869 16.1901623,22.7798696 C15.4589924,21.8465974 15.0612685,20.7179454 15.0612485,19.5599313 C15.074575,18.1219409 15.6706663,16.8070352 16.6428368,15.8182659 C17.6255136,14.818811 18.9916511,14.1519557 20.5353046,14.0205847 Z M56.5670459,15.1120327 C57.7292656,14.2878825 59.2083475,13.8572732 60.7606319,13.9893059 C62.3102036,14.121108 63.6804014,14.7923229 64.6636586,15.7974809 C65.6363626,16.7918506 66.2295878,18.1136461 66.2350716,19.5548272 C66.2339791,20.7155311 65.8365799,21.8426426 65.1071414,22.7749995 C63.7780981,22.6361534 62.4334097,22.7699793 61.1662205,23.1659532 C59.9074674,20.557206 57.4036305,18.6566107 54.4174294,18.0544506 C54.7808494,16.8495843 55.5534715,15.8307759 56.5670459,15.1120327 Z M40.6470561,13.9441824 C42.3124456,13.9478947 43.8209412,14.5796382 44.9132715,15.6031659 C45.9935128,16.615366 46.6659821,18.0117153 46.6699454,19.5579621 C46.6713997,19.817841 46.6476508,20.0773616 46.5990362,20.3333148 C46.464771,21.2285736 46.1094306,22.0593101 45.563588,22.7758544 C44.0511194,21.9245869 42.3486989,21.4983398 40.6460485,21.4983398 C38.9427171,21.4983398 37.2396481,21.9249279 35.7267719,22.7768402 C35.0088563,21.8421774 34.6205919,20.7162153 34.6262602,19.5582675 C34.6358377,18.0152159 35.3096905,16.620981 36.3895192,15.6091882 C37.4813178,14.5861797 38.9873743,13.9531499 40.6470561,13.9441824 Z M50.8535069,6.62753735 C52.3623207,6.57643124 53.7713883,7.05180718 54.8659618,7.88741936 C55.8485919,8.63757249 56.5777491,9.67866835 56.8911932,10.8879123 C55.2416743,11.5939722 53.8575116,12.5909247 52.8132838,13.7920641 C51.7597032,15.0039618 51.0507917,16.4240147 50.7611593,17.9683353 C50.5478588,18.004355 50.3359592,18.0471642 50.1258004,18.0966623 C49.6429273,15.3082579 47.7972976,12.8801105 45.1227553,11.5529816 C45.2857772,10.2528792 45.9254235,9.0938108 46.8696225,8.22771158 C47.9047995,7.27815953 49.305484,6.67997153 50.8535069,6.62753735 Z M30.212955,6.61098025 C31.8073892,6.61234121 33.2641581,7.19380785 34.3448217,8.15004841 C35.332867,9.02433445 36.0060739,10.2126805 36.1747417,11.5538631 C33.5032036,12.8834697 31.6585756,15.3095888 31.1715144,18.095724 C30.961101,18.0460447 30.748934,18.0030703 30.5353691,17.9668327 C30.2359851,16.3669632 29.4882597,14.9036548 28.4057066,13.7055141 C27.3411361,12.5272759 25.9524913,11.6055517 24.3499251,11.0647091 C24.6213372,9.85130486 25.3071548,8.79410898 26.2527816,8.01526425 C27.3157869,7.13974328 28.7068331,6.61518618 30.212955,6.61098025 Z M40.6476999,0.499999778 C42.0282741,0.501299662 43.3206345,0.940947604 44.3515156,1.69527845 C45.2653903,2.36399175 45.973746,3.28044476 46.3511806,4.35708211 C43.8730687,5.67229172 42.1483524,7.95102224 41.6307981,10.5710642 C40.9771291,10.510695 40.3187347,10.5106569 39.6650222,10.5707801 C39.1457269,7.95308246 37.4209521,5.67714394 34.9446834,4.36377615 C35.3210901,3.28576304 36.0291036,2.36783481 36.9431742,1.69791237 C37.9741268,0.942327086 39.2671647,0.501670888 40.6476999,0.499999778 Z" stroke="#1F1E1E" fill="#1F1E1E"></path>
        </g>
    </g>
</svg>