<?xml version="1.0" encoding="UTF-8"?>
<svg width="80px" height="80px" viewBox="0 0 80 80" version="1.1" xmlns="http://www.w3.org/2000/svg" xmlns:xlink="http://www.w3.org/1999/xlink">
    <title>F5C53660-6526-4A83-98D1-199616D7B11C</title>
    <g id="🧬-Symbols" stroke="none" stroke-width="1" fill="none" fill-rule="evenodd">
        <g id="icons/chevron-right">
            <rect id="icon-space" x="0" y="0" width="80" height="80"></rect>
            <path d="M23.3332824,0.500000003 C24.0541222,0.500037074 24.7726456,0.804018587 25.3217677,1.40316263 L25.3217677,1.40316263 L58.6551981,37.7678425 C59.1981681,38.3601728 59.5,39.1642947 59.5,40.0011364 C59.5,40.8382048 59.1979536,41.6423339 58.6549804,42.2346678 L58.6549804,42.2346678 L25.3214925,78.597471 C24.7727901,79.1962594 24.0542719,79.5 23.3334537,79.5 C22.6125989,79.5 21.894067,79.1962045 21.344913,78.5969234 C20.7795484,77.9801626 20.5,77.1710642 20.5,76.3635083 C20.5,75.5559523 20.7795484,74.7468539 21.3449069,74.1300997 L21.3449069,74.1300997 L52.6311532,40.0009036 L21.344913,5.86975534 C20.7795484,5.25299459 20.5,4.44389616 20.5,3.63634022 C20.5,2.82878428 20.7795484,2.01968585 21.3449417,1.40289376 C21.8939495,0.803874398 22.6124402,0.499962933 23.3332824,0.500000003 Z" stroke="#1F1E1E" fill="#1F1E1E"></path>
        </g>
    </g>
</svg>