<?xml version="1.0" encoding="UTF-8"?>
<svg width="80px" height="80px" viewBox="0 0 80 80" version="1.1" xmlns="http://www.w3.org/2000/svg" xmlns:xlink="http://www.w3.org/1999/xlink">
    <title>940A7670-B3E7-4F32-9D42-41844631D4AD</title>
    <g id="🧬-Symbols" stroke="none" stroke-width="1" fill="none" fill-rule="evenodd">
        <g id="icons/potato-wedges">
            <rect id="icon-space" x="0" y="0" width="80" height="80"></rect>
            <path d="M72.774423,33.8534948 C74.0851787,34.0243855 74.8105298,34.4796314 75.3011997,35.114447 C75.7522056,35.6979464 76.0051069,36.4331216 75.9783359,37.2089995 L75.9640394,37.4215283 L70.8992507,76.7561666 C70.7800416,77.5148294 70.4040871,78.1777272 69.868262,78.6618081 C69.3851331,79.0982816 68.7720643,79.3894713 68.1000355,79.4743267 L67.8739395,79.4948861 L12.7491007,79.5 C11.9787489,79.5 11.2636925,79.2299221 10.7016475,78.7734359 C10.1976224,78.3640727 9.81656429,77.8048455 9.62910686,77.1560378 L9.57388834,76.9365335 L4.49923664,37.6055421 C4.4730266,37.4387459 4.45986246,37.2701632 4.45986246,37.1013266 C4.45986246,36.2043848 4.82341995,35.3923564 5.41121288,34.8045635 C5.98967803,34.2260984 6.78531826,33.8648083 7.66786211,33.8536952 C22.1328924,36.3537841 32.9836363,37.6013266 40.2198111,37.6013266 C47.456428,37.6013266 58.3080557,36.3536317 72.774423,33.8534948 Z M36.4391554,42.8333333 C33.7742873,42.8333333 31.2822875,43.8428659 29.4209047,45.6728608 C27.6530553,47.4108489 26.5461801,49.7833495 26.3088686,52.3556621 C26.2046162,53.4857648 26.1594185,54.5000072 26.1646804,55.4348958 L26.1646804,55.4348958 L29.8884053,55.4348958 L29.8884053,56.1927083 L26.1810553,56.1927083 L26.2062527,56.7032183 C26.3494257,59.0501288 26.8480298,60.9158311 27.5861686,62.9455091 C27.9000432,63.8085433 28.2757651,64.6490082 28.7035389,65.4544271 L28.7035389,65.4544271 L32.9135951,65.4544271 L32.9135951,66.2122396 L29.1276491,66.2122396 L29.4082246,66.6734718 C30.2672997,68.042365 31.2806318,69.2752469 32.3974249,70.2971012 C34.9296455,72.6140545 37.9599954,73.8333333 41.1570044,73.8333333 C44.6487726,73.8333333 47.8141218,72.483712 50.1071342,70.3075446 C52.4098599,68.122159 53.8333333,65.1041463 53.8333333,61.777474 C53.8333333,61.1181305 53.7769088,60.4660297 53.6680399,59.8255208 L53.6680399,59.8255208 L50.3364512,59.8255208 L50.3364512,59.0677083 L53.5120031,59.0677083 L53.4048263,58.6570767 C53.0223923,57.295115 52.3886573,56.0029246 51.5180448,54.8305657 C50.2123685,53.072332 48.4634372,51.6938314 46.4233693,50.8087218 C46.0424261,48.7345876 44.957368,46.8330782 43.3084788,45.3862175 C41.4337052,43.7410907 38.9945359,42.8333333 36.4391554,42.8333333 Z M43.9857072,64.5755208 L43.9857072,65.3333333 L43.1335124,65.3333333 L43.1335124,64.5755208 L43.9857072,64.5755208 Z M42.0100327,56.4505013 L42.0100327,57.2083138 L41.1578379,57.2083138 L41.1578379,56.4505013 L42.0100327,56.4505013 Z M35.753689,50.2005404 L35.753689,50.9583529 L34.9014941,50.9583529 L34.9014941,50.2005404 L35.753689,50.2005404 Z M32.206795,0.52485016 C33.04187,0.679355661 33.3611023,1.04634287 33.5890555,1.56709497 L33.5890555,1.56709497 L41.6422676,31.9971667 C38.0342952,31.9646347 35.3021944,31.8763111 33.4460031,31.7314948 C31.5450758,31.5831883 28.7256364,31.2323148 24.9878647,30.6794897 C24.7549458,27.2955734 24.8563636,17.4132704 25.307777,14.5712247 C26.2292811,8.76949987 28.4967818,3.87833493 31.7192282,0.814555615 C31.8743261,0.666992274 32.0379826,0.568284531 32.206795,0.52485016 Z M52.9637917,6.91172102 C53.8579918,7.13974998 54.1835516,7.58960308 54.393028,8.16910434 C56.0940211,12.8751686 56.6043813,25.3856423 56.0922011,30.698617 C54.1604861,31.0865407 52.6974249,31.3388285 51.7028708,31.4544658 C50.7860801,31.5610615 49.4707477,31.6440926 47.7569511,31.7044481 L47.7569511,31.7044481 L42.8657912,15.3190279 L52.450614,7.19889712 C52.6102443,7.04985806 52.7831106,6.94972443 52.9637917,6.91172102 Z M68.9952037,3.87756487 C69.8755972,4.10035204 70.2069017,4.53241411 70.4250318,5.13578922 C72.4719147,10.7985601 72.8010171,22.4044597 71.6830346,28.3987433 C69.3049563,28.8100671 67.5077271,29.1033137 66.2913285,29.2783616 C65.1198271,29.4469484 63.4095446,29.6609631 61.1608033,29.9203311 C61.4399391,25.6518474 61.2841933,15.990823 60.6582316,11.7468968 L60.6582316,11.7468968 L68.4897559,4.15894926 C68.6508118,4.01046334 68.8206614,3.91426128 68.9952037,3.87756487 Z M10.8358812,6.19451369 C11.4627116,6.13587098 11.6198605,6.20829361 11.7703438,6.32566053 L11.7703438,6.32566053 L20.2416832,14.130802 C19.8592092,17.3923221 19.7583967,26.3357178 19.9337048,29.9316892 C17.3133164,29.6739634 15.3250253,29.4559635 13.9688499,29.2775354 C12.6993612,29.1105125 10.8243161,28.8181606 8.34388763,28.3999936 C7.6328036,22.7937408 8.19181262,12.1875377 9.92886183,7.38224493 C10.1397013,6.79883641 10.4563566,6.37692408 10.8358812,6.19451369 Z" stroke="#1F1E1E" fill="#1F1E1E"></path>
        </g>
    </g>
</svg>