<?xml version="1.0" encoding="UTF-8"?>
<svg width="80px" height="80px" viewBox="0 0 80 80" version="1.1" xmlns="http://www.w3.org/2000/svg" xmlns:xlink="http://www.w3.org/1999/xlink">
    <title>96B4FEAA-7DC7-4195-8493-81B8CEFC4B47</title>
    <g id="🧬-Symbols" stroke="none" stroke-width="1" fill="none" fill-rule="evenodd">
        <g id="icons/jalapenos-stuffed">
            <rect id="icon-space" x="0" y="0" width="80" height="80"></rect>
            <path d="M63.12,44.637931 C65.2837028,44.637931 67.3296567,45.4042922 68.9468461,46.8094936 L69.1861698,47.0250491 L72.2147225,50.0445879 C72.7381373,50.5680027 73.3071911,51.0443116 73.9145331,51.4687287 L74.283474,51.7171136 L75.1770187,52.2630995 C77.6710836,53.7612492 79.2824846,56.4175986 79.4795808,59.3003882 L79.4949032,59.5993774 L79.5,63.7834483 C79.5,66.2980064 78.4579146,68.6540018 76.6204752,70.3379173 L76.3866707,70.5448692 L74.8197187,71.8043267 C73.6409029,72.7491023 72.6501894,73.883414 71.8733596,75.1771731 C70.3764564,77.6711971 67.7190559,79.2824845 64.8362002,79.4795795 L64.5372079,79.4949022 L59.897931,79.5 C56.7883853,79.5 53.8630134,77.8426712 52.2634808,75.1776547 C51.6418127,74.1392386 50.880812,73.2041669 49.9959959,72.3879862 L49.6584162,72.0875218 L47.979963,70.733727 C46.01623,69.162499 44.8262855,66.8787598 44.6584666,64.3936024 L44.6428308,64.0819456 L44.637931,59.897931 C44.637931,56.9880367 46.0893749,54.2407053 48.4599271,52.5877207 L48.7084134,52.4206642 L49.4854454,51.9483791 C50.1211841,51.5657014 50.7229806,51.1291718 51.2813862,50.6436199 L51.611147,50.3464448 L54.7233458,47.2458299 C56.2525786,45.7154089 58.2412807,44.8108735 60.3786686,44.6603501 L60.700353,44.6434427 L63.12,44.637931 Z M63.5793103,46.3965517 L60.5586207,46.3965517 L60.2263352,46.4029962 C58.791893,46.4587754 57.4307336,46.8756874 56.2317671,47.616516 C54.9657362,48.3987831 53.8796081,49.5431407 53.0834821,51.0101743 L53.0834821,51.0101743 L52.7969243,51.5832898 L52.6987398,51.7679855 C52.4239635,52.2555215 52.0406964,52.7070609 51.4317425,53.2160144 L51.4317425,53.2160144 L49.7415351,54.4826418 L49.5128944,54.6604879 C47.6364903,56.1738185 46.4878608,58.4642474 46.3965517,61.1638544 L46.3965517,61.1638544 L46.3965517,63.5806897 L46.4033075,63.9208091 C46.4617193,65.3889048 46.8971153,66.7793178 47.6394781,67.9802405 C48.4389008,69.273469 49.5944773,70.3472463 51.0203472,71.0609147 C51.9052475,71.5027428 52.6367033,72.232955 53.0795575,73.1199075 C53.7759639,74.5120041 54.8153146,75.6461933 56.1066327,76.4440851 C57.3725387,77.2262749 58.8818396,77.685704 60.5501755,77.7413793 L60.5501755,77.7413793 L63.5793103,77.7413793 L63.9195492,77.7346245 C65.3881387,77.6762215 66.7787387,77.2408974 67.9795749,76.4988235 C69.2729991,75.6995336 70.3465574,74.5441856 71.0595814,73.1188713 C71.5014079,72.2327299 72.2327299,71.5014079 73.1182763,71.0598785 C74.5108446,70.3632365 75.6455118,69.3236566 76.443583,68.0320484 C77.2257146,66.7662369 77.6849983,65.2571247 77.7400009,63.5890343 L77.7400009,63.5890343 L77.7400009,61.1724138 L77.7344979,60.8712494 C77.6465046,58.4664794 76.5045384,56.1774988 74.4020192,54.4878978 L74.4020192,54.4878978 L72.6973973,53.2083928 L72.5328631,53.0784879 C72.101403,52.7202744 71.7254279,52.2621565 71.3354022,51.5720807 L71.3354022,51.5720807 L71.0582481,51.0177725 L70.8999899,50.716505 C70.1907627,49.4292189 69.179673,48.3803719 67.9790224,47.6385026 C66.6861403,46.8396445 65.173155,46.3965517 63.5793103,46.3965517 L63.5793103,46.3965517 Z M63.5793103,50.1551724 C64.4209859,50.1551724 65.221938,50.3786307 65.9140386,50.7848191 C66.5281688,51.1452474 67.0564,51.6494322 67.4516206,52.2678715 L67.5935014,52.5050843 L67.979221,53.2654409 C68.4533721,54.2113363 69.1111669,55.0683831 69.9032286,55.7741514 L70.1721543,56.0037189 L72.1414484,57.489707 C73.1669807,58.2585797 73.8244603,59.4317796 73.9576878,60.6960529 L73.9764863,60.9340949 L73.9827586,63.5806897 C73.9827586,64.4577885 73.7393531,65.2908946 73.2992014,66.0027528 C72.8590016,66.7146889 72.2221991,67.3050559 71.4372463,67.6975323 C69.8308353,68.5000043 68.5016466,69.8276383 67.696093,71.4387458 C67.3205006,72.191123 66.7629335,72.8069761 66.0904897,73.2440651 C65.4934202,73.6321607 64.8059859,73.8792148 64.0758184,73.9566064 L63.8000954,73.9776195 L60.5586207,73.9827586 C59.680976,73.9827586 58.8476184,73.7394305 58.1356213,73.2995411 C57.4233742,72.8594972 56.8328673,72.2229405 56.4401538,71.4381359 C55.634818,69.8303982 54.3071832,68.5014712 52.6996107,67.6976849 C51.9474556,67.3213092 51.3313601,66.7631024 50.8940148,66.090238 C50.5059955,65.4932627 50.2587861,64.8062192 50.1813412,64.07668 L50.1603137,63.8012037 L50.1551724,61.1724138 C50.1551724,59.8902208 50.6992153,58.66023 51.6305347,57.7954136 L51.8096572,57.6376163 L53.6979672,56.214627 C54.5447737,55.5771164 55.2692427,54.77681 55.8211675,53.8735825 L55.9986831,53.5687769 L56.4418381,52.6991852 C56.8174305,51.946808 57.3749975,51.3309549 58.0474413,50.893866 C58.6445108,50.5057704 59.3319451,50.2587162 60.0621126,50.1813246 L60.3378356,50.1603115 L63.5793103,50.1551724 Z M62.0689655,64.1204794 L59.5278259,66.661619 L59.3961487,66.8041812 C59.0195453,67.2458504 58.8103448,67.8096232 58.8103448,68.3944828 C58.8103448,69.0514185 59.067865,69.6479414 59.5104002,70.0904766 C59.9349387,70.5150151 60.5330502,70.7998617 61.2441997,70.8448276 L61.2441997,70.8448276 L62.8772414,70.8448276 L63.0782238,70.8367053 C63.6747697,70.7882868 64.2108657,70.5262411 64.6099327,70.1271741 C65.0533405,69.6837663 65.3275862,69.0711869 65.3275862,68.3944828 C65.3275862,67.8244068 65.1379403,67.2687701 64.623135,66.6746489 L64.623135,66.6746489 L62.0689655,64.1204794 Z M55.7434483,58.8103448 C55.0865125,58.8103448 54.4899897,59.067865 54.0474544,59.5104002 C53.6229159,59.9349387 53.3380693,60.5330502 53.2931034,61.2441997 L53.2931034,61.2441997 L53.2931034,62.8772414 L53.3012257,63.0782238 C53.3496442,63.6747697 53.6116899,64.2108657 54.010757,64.6099327 C54.4541648,65.0533405 55.0667441,65.3275862 55.7434483,65.3275862 C56.3135243,65.3275862 56.8691609,65.1379403 57.4632821,64.623135 L57.4632821,64.623135 L60.0174516,62.0689655 L57.476312,59.5278259 L57.3337499,59.3961487 C56.8920806,59.0195453 56.3283078,58.8103448 55.7434483,58.8103448 Z M68.3944828,58.8103448 C67.8244068,58.8103448 67.2687701,58.9999908 66.6746489,59.5147961 L66.6746489,59.5147961 L64.1204794,62.0689655 L66.661619,64.6101051 L66.8041812,64.7417823 C67.2458504,65.1183857 67.8096232,65.3275862 68.3944828,65.3275862 C69.0514185,65.3275862 69.6479414,65.0700661 70.0904766,64.6275308 C70.5150151,64.2029923 70.7998617,63.6048808 70.8448276,62.8937313 L70.8448276,62.8937313 L70.8448276,61.2606897 L70.8367053,61.0597072 C70.7882868,60.4631614 70.5262411,59.9270654 70.1271741,59.5279983 C69.6837663,59.0845905 69.0711869,58.8103448 68.3944828,58.8103448 Z M62.8772414,53.2931034 L61.2606897,53.2931034 L61.0597072,53.3012257 C60.4631614,53.3496442 59.9270654,53.6116899 59.5279983,54.010757 C59.0845905,54.4541648 58.8103448,55.0667441 58.8103448,55.7434483 C58.8103448,56.3135243 58.9999908,56.8691609 59.5147961,57.4632821 L59.5147961,57.4632821 L62.0689655,60.0174516 L64.6101051,57.476312 L64.7417823,57.3337499 C65.1183857,56.8920806 65.3275862,56.3283078 65.3275862,55.7434483 C65.3275862,55.0667441 65.0533405,54.4541648 64.6099327,54.010757 C64.1665249,53.5673491 63.5539455,53.2931034 62.8772414,53.2931034 L62.8772414,53.2931034 Z M43.5963091,12.1730892 L46.4025293,13.5768334 C49.804153,15.278318 52.5619535,17.8386145 54.4690498,20.924588 C56.3761983,24.010646 57.4324138,27.622116 57.4324138,31.4248276 C57.4324138,32.9082721 57.2670495,34.3848251 56.9417104,35.8249806 L56.81222,36.3632752 L56.6654538,36.9067463 L55.1109612,42.3461419 C54.2715228,42.7894609 53.4776362,43.3263941 52.7460993,43.9568183 L52.3856044,44.2798208 L49.2662076,47.3866862 C48.9254231,47.7266036 48.5564473,48.0400584 48.1642332,48.3220709 L47.8657927,48.5276071 L47.0266606,49.0403568 C44.6661302,50.4583939 42.857232,53.1359222 41.8348447,55.625213 C41.1525962,57.4958477 38.5219641,64.8647404 21.8412683,72.2703339 C12.720986,74.8248751 8.63214513,74.5088776 2.94561182,71.7780488 L2.62800749,71.6238546 L1.07141029,70.8477229 C0.895404043,70.759952 0.752310674,70.6276312 0.653464526,70.4677094 C0.554467204,70.307543 0.5,70.1199527 0.5,69.9227586 C0.5,69.6958122 0.571271321,69.4844228 0.696550214,69.3127909 C0.794422601,69.1787059 0.925004806,69.0691293 1.07895759,68.9949027 L1.19865823,68.9460303 L2.36786771,68.6797972 C8.67912991,67.2760442 14.1984741,63.5865968 17.9061863,58.2894632 C20.7536772,54.2210564 22.3476495,49.4934328 22.5475953,44.550363 L22.5636773,44.0199442 L22.5689655,43.4937931 L22.5689655,41.8413793 C22.5689655,38.5484498 21.9500183,35.3300793 20.7263073,32.273615 C20.1183132,30.7536298 19.8103448,29.1526657 19.8103448,27.5158621 C19.8103448,25.4707575 20.3011805,23.4576214 21.23467,21.6473049 L21.4272557,21.2879965 L23.1333667,18.4324138 L26.2910345,18.4324138 C27.4799633,18.4324138 28.6513659,18.7046885 29.714077,19.2251562 L30.001144,19.3732374 L37.1816169,23.6731492 L38.246141,18.3505289 C38.6363986,16.40042 39.7646418,14.6734419 41.3770949,13.53059 L41.6225627,13.3635882 L43.5963091,12.1730892 Z M52.9092736,29.8448276 L49.1499226,29.8448276 L49.1550359,30.4254078 C49.1471742,32.7456423 48.7997588,35.0394167 48.1209813,37.2554132 L48.1209813,37.2554132 L47.705254,38.5424492 L51.3591599,39.4385841 L51.5564228,38.8582757 C52.5095589,35.948302 52.9647326,32.913854 52.9092736,29.8448276 L52.9092736,29.8448276 Z M47.8661895,16.25429 L45.2068991,18.9135804 L45.4796054,19.1725126 C47.0000721,20.6609785 48.0979059,22.5136023 48.7801519,24.9366431 L48.7801519,24.9366431 L49.3326895,27.1467934 L52.9788117,26.2371423 L52.4243816,24.0194218 L52.3181635,23.6164186 C51.5383993,20.8075627 50.0002199,18.2587248 47.8661895,16.25429 L47.8661895,16.25429 Z M35.9737838,10.1999868 L38.9023235,10.6877617 C36.7542249,12.321106 35.2394072,14.6539583 34.6324376,17.2797185 L34.6324376,17.2797185 L32.2255745,16.3161116 C30.5504407,15.3107617 28.6485764,14.7487857 26.700108,14.6796668 L26.700108,14.6796668 L25.223161,14.6756699 L27.1915556,12.7072754 L35.9737838,10.1999868 Z M8.27586207,0.5 C8.8849001,0.5 9.30700104,0.613457195 9.66584921,0.835104615 C10.0154035,1.05101156 10.3051488,1.36337886 10.4975141,1.74754479 L10.4975141,1.74754479 L11.2522079,3.25862069 L23.1131034,3.25862069 C26.3850602,3.25862069 29.4608934,4.53213811 31.7745012,6.84574573 L31.7745012,6.84574573 L32.2750904,7.34696224 L26.7111256,8.93633642 C23.7995699,6.40111168 20.1140316,5.01724138 16.2165517,5.01724138 L16.2165517,5.01724138 L8.27586207,5.01724138 C7.65304741,5.01724138 7.08850169,4.7638087 6.67958787,4.35489489 C6.27067406,3.94598107 6.01724138,3.38143534 6.01724138,2.75862069 C6.01724138,2.13580603 6.27067406,1.57126031 6.67958787,1.16234649 C7.08850169,0.753432678 7.65304741,0.5 8.27586207,0.5 Z" stroke="#1F1E1E" fill="#1F1E1E"></path>
        </g>
    </g>
</svg>