<?xml version="1.0" encoding="UTF-8"?>
<svg width="80px" height="80px" viewBox="0 0 80 80" version="1.1" xmlns="http://www.w3.org/2000/svg" xmlns:xlink="http://www.w3.org/1999/xlink">
    <title>A0437389-2B38-4469-B24E-18DA42037D02</title>
    <g id="🧬-Symbols" stroke="none" stroke-width="1" fill="none" fill-rule="evenodd">
        <g id="icons/close" transform="translate(-0.000000, 0.000000)">
            <rect id="icon-space" x="0" y="0" width="80" height="80"></rect>
            <path d="M47.3301795,40.0005931 L78.4812184,8.84860543 C80.5084751,6.82229778 80.5084751,3.54603839 78.4812184,1.51973074 C76.4549108,-0.506576913 73.1786514,-0.506576913 71.1523437,1.51973074 L40.0003558,32.6717186 L8.8493172,1.51973074 C6.82206052,-0.506576913 3.54675016,-0.506576913 1.52044251,1.51973074 C-0.50681417,3.54603839 -0.50681417,6.82229778 1.52044251,8.84860543 L32.6714814,40.0005931 L1.52044251,71.152581 C-0.50681417,73.1788886 -0.50681417,76.455148 1.52044251,78.4814557 C2.53027449,79.4922367 3.85805175,80 5.18487998,80 C6.51170796,80 7.83853619,79.4922367 8.8493172,78.4814557 L40.0003558,47.3294678 L71.1523437,78.4814557 C72.1631247,79.4922367 73.489953,80 74.8167812,80 C76.1436092,80 77.4704372,79.4922367 78.4812184,78.4814557 C80.5084751,76.455148 80.5084751,73.1788886 78.4812184,71.152581 L47.3301795,40.0005931 Z" fill="#1F1E1E" fill-rule="nonzero"></path>
        </g>
    </g>
</svg>