<?xml version="1.0" encoding="UTF-8"?>
<svg width="80px" height="80px" viewBox="0 0 80 80" version="1.1" xmlns="http://www.w3.org/2000/svg" xmlns:xlink="http://www.w3.org/1999/xlink">
    <title>26BBAE0C-E0B8-41E9-BD3D-DD6ACE744DD5</title>
    <g id="🧬-Symbols" stroke="none" stroke-width="1" fill="none" fill-rule="evenodd">
        <g id="icons/churros">
            <rect id="icon-space" x="0" y="0" width="80" height="80"></rect>
            <path d="M20.0008691,52.7925548 C20.392445,52.760985 20.7944087,52.8669393 21.1254463,53.1144158 L21.1254463,53.1144158 L25.2776712,56.9236392 L30.250137,59.218716 C30.6385988,59.3979792 30.9232733,59.7081583 31.0743973,60.0718331 C31.2237602,60.4312698 31.2427354,60.8427616 31.1026363,61.2299688 L31.1026363,61.2299688 L28.724678,66.2934125 L28.0479139,71.6875439 C28.0094231,71.9942135 27.8866247,72.2702491 27.7052258,72.4955386 C27.5166169,72.7297827 27.265019,72.9093863 26.9792713,73.0123109 C26.7967039,73.0780705 26.600403,73.1123667 26.3975399,73.1096118 L26.3975399,73.1096118 L20.7713381,72.4354805 L15.3918587,73.4697298 C14.9685475,73.5510578 14.5514517,73.4642207 14.2114135,73.2559168 C13.8755721,73.0501836 13.6146061,72.7259086 13.4988287,72.3280337 L13.4988287,72.3280337 L12.4137668,66.8568671 L9.75673956,62.1056851 C9.55011783,61.7365951 9.50488679,61.3220434 9.59822596,60.9418006 C9.6912014,60.5630396 9.92128573,60.2184069 10.2653614,59.9861194 L10.2653614,59.9861194 L15.1904597,57.2756248 L18.9314432,53.3049549 C19.222425,52.9958883 19.6065918,52.8243425 20.0008691,52.7925548 Z M67.8853636,35.4833409 C68.4162022,35.2921362 69.0056119,35.3842535 69.448747,35.7195353 L69.448747,35.7195353 L73.5816053,39.5262853 L78.553413,41.8201839 C78.9474936,42.00204 79.2527759,42.3312997 79.4015095,42.7357019 C79.5285979,43.0812512 79.5320825,43.4571374 79.4153301,43.8023946 L79.4153301,43.8023946 L77.0278804,48.8942297 L76.361781,54.2821291 C76.2936511,54.8348194 75.9437563,55.309343 75.443737,55.5467623 L75.443737,55.5467623 L33.5041586,70.6613499 L33.8676181,67.7625583 L35.8336644,63.5901067 C36.6171283,61.9273963 36.6997192,60.0622313 36.0655394,58.337916 C35.4702778,56.7194181 34.3098291,55.4073348 32.7795961,54.6124056 L32.7795961,54.6124056 L28.2631114,52.519777 L26.1042793,50.5326211 Z M46.4959614,9.33868912 L46.1326309,12.2380145 L44.1663984,16.4099531 C43.3829345,18.0726635 43.3003435,19.9378284 43.9345234,21.6621438 C44.5297872,23.2806478 45.6902425,24.5927348 47.2204842,25.3876632 L47.2204842,25.3876632 L51.7367597,27.4797699 L53.895841,29.4674178 L12.1152237,44.5165298 C11.5839497,44.7078913 10.9947937,44.6155847 10.5512567,44.2800665 L10.5512567,44.2800665 L6.41899016,40.4735893 L1.44717418,38.1796868 C1.05309333,37.9978306 0.747298859,37.6687926 0.598553248,37.2643578 C0.471476502,36.9188401 0.467816947,36.5426875 0.584634132,36.1976148 L0.584634132,36.1976148 L2.97271403,31.1056426 L3.6382436,25.7182399 C3.70675262,25.1653108 4.05633216,24.6907166 4.55673526,24.4531498 L4.55673526,24.4531498 L46.4959614,9.33868912 Z M64.60824,6.53032293 C65.0317556,6.44892353 65.4489727,6.53569448 65.7890876,6.74397537 C66.1249896,6.9496763 66.3859686,7.2739438 66.501752,7.67181497 L66.501752,7.67181497 L67.5862886,13.1431961 L70.2438477,17.8941858 C70.450474,18.2632839 70.4957007,18.6778474 70.4023007,19.0581108 C70.3092633,19.4368977 70.0790594,19.7815517 69.7348014,20.0138995 L69.7348014,20.0138995 L64.8096034,22.7244344 L61.0684321,26.6953041 C60.8858792,26.8894156 60.6661256,27.0293924 60.4302299,27.1143605 C59.9170291,27.2992122 59.3266149,27.2250103 58.8712001,26.8829896 L58.8712001,26.8829896 L54.7229378,23.0762354 L49.7499257,20.7813436 C49.3614639,20.6020804 49.0767895,20.2919014 48.9256654,19.9282266 C48.7763045,19.5687947 48.7573279,19.1573091 48.8974207,18.7701065 L48.8974207,18.7701065 L51.2759171,13.7064549 L51.9521303,8.31266262 C52.0050809,7.89179587 52.2169597,7.52887152 52.5204062,7.27513831 C52.8235135,7.02168873 53.217877,6.87678347 53.6378007,6.89129119 L53.6378007,6.89129119 L59.2285725,7.56460839 Z" stroke="#1F1E1E" fill="#1F1E1E"></path>
        </g>
    </g>
</svg>