<?xml version="1.0" encoding="UTF-8"?>
<svg width="80px" height="80px" viewBox="0 0 80 80" version="1.1" xmlns="http://www.w3.org/2000/svg" xmlns:xlink="http://www.w3.org/1999/xlink">
    <title>7E433088-633D-4524-9F27-FA7E9D3C8528</title>
    <g id="🧬-Symbols" stroke="none" stroke-width="1" fill="none" fill-rule="evenodd">
        <g id="icons/backspace">
            <rect id="icon-space" x="0" y="0" width="80" height="80"></rect>
            <path d="M72.0031987,12.5 C74.0267651,12.5 75.8666813,13.3074762 77.2173342,14.6172659 C78.4988679,15.8600277 79.3402049,17.5551356 79.479512,19.4426599 L79.4961847,19.7589843 L79.5,60 C79.5,62.0258658 78.6932539,63.8663342 77.3844135,65.2170888 C76.1421407,66.499144 74.4474603,67.340266 72.5603711,67.4795215 L72.2441193,67.4961873 L28.0207917,67.5 C25.0154638,67.5 21.4144866,65.9826971 19.1970254,63.8342977 L18.9648244,63.6017375 L2.50704617,45.3137991 C1.19992096,43.8592243 0.532385203,42.0026699 0.501149669,40.1373251 C0.471688253,38.3779283 1.00817895,36.6093272 2.11339482,35.1612305 L2.32728822,34.8935488 L18.7483035,16.6304745 C20.7590414,14.3962258 24.2954449,12.7338156 27.3752918,12.5226381 L27.703438,12.5056052 L72.0031987,12.5 Z M40.0159936,27.499 C38.8655385,27.499 37.7149719,27.9386939 36.8355003,28.8185173 C35.9877267,29.66663 35.5487944,30.7667711 35.5182995,31.8758701 C35.4877755,32.9860262 35.860255,34.1097853 36.8269737,35.1729527 L36.8269737,35.1729527 L41.6520909,40 L36.8355003,44.8185173 L36.6654865,44.9980016 C35.8994584,45.8517175 35.5165934,46.9258996 35.5165934,48 C35.5165934,49.1508219 35.9561068,50.3017375 36.8355003,51.1814827 C37.7127226,52.0590559 38.8643819,52.5 40.0159936,52.5 C41.0731291,52.5 42.1351116,52.1352824 43.1904769,51.191503 L43.1904769,51.191503 L48.0129317,46.3633851 L52.8291028,51.1814827 L53.0081251,51.3511743 C53.8598795,52.1158887 54.9347585,52.5 56.0095962,52.5 C57.1612079,52.5 58.3128671,52.0590559 59.1900895,51.1814827 C60.037863,50.33337 60.4767954,49.2332289 60.5072903,48.1241299 C60.5378142,47.0139738 60.1653348,45.8902147 59.1986161,44.8270473 L59.1986161,44.8270473 L54.3733622,39.9998633 L59.1862278,35.1813459 L59.356216,35.0018872 C60.1221329,34.1482825 60.504998,33.0741004 60.504998,32 C60.504998,30.8491781 60.0654845,29.6982625 59.1860911,28.8185173 C58.3269886,27.9590712 57.2096717,27.5191242 56.0631214,27.5191242 C54.9439596,27.5191242 53.7939113,27.9389605 52.8339596,28.8096586 L52.8339596,28.8096586 L48.0089333,33.6366149 L43.1966237,28.8186541 L43.0171695,28.6485321 C42.1636069,27.8820222 41.0897517,27.499 40.0159936,27.499 Z" stroke="#1F1E1E" fill="#1F1E1E"></path>
        </g>
    </g>
</svg>