<?xml version="1.0" encoding="UTF-8"?>
<svg width="80px" height="80px" viewBox="0 0 80 80" version="1.1" xmlns="http://www.w3.org/2000/svg" xmlns:xlink="http://www.w3.org/1999/xlink">
    <title>31784C5B-5AEE-46F9-B260-696119D69A31</title>
    <g id="🧬-Symbols" stroke="none" stroke-width="1" fill="none" fill-rule="evenodd">
        <g id="icons/letter-m-pillow">
            <rect id="icon-space" x="0" y="0" width="80" height="80"></rect>
            <path d="M52.65625,0 C67.4543837,0 79.5447247,11.8163015 79.9874403,26.5090718 L80,27.34375 L80,52.65625 C80,67.4543837 68.1836985,79.5447247 53.4909282,79.9874403 L52.65625,80 L27.34375,80 C12.5456163,80 0.455275313,68.1836985 0.0125597111,53.4909282 L0,52.65625 L0,27.34375 C0,12.5456163 11.8163015,0.455275313 26.5090718,0.0125597111 L27.34375,0 L52.65625,0 Z M28.010989,20 L19,20 L19,60 L25.9230769,60 L25.9230769,46.8131868 L25.2362637,29.2032967 L37.021978,60 L41.9945055,60 L53.8076923,29.1758242 L53.1208791,46.8131868 L53.1208791,60 L60.043956,60 L60.043956,20 L51.0604396,20 L39.5494505,50.6593407 L28.010989,20 Z" fill="#1F1E1E"></path>
        </g>
    </g>
</svg>